<svg width="18" height="18" viewBox="0 0 18 18" fill="none" xmlns="http://www.w3.org/2000/svg">
<path fill-rule="evenodd" clip-rule="evenodd" d="M9 18C7.21997 18 5.47991 17.4722 3.99987 16.4832C2.51983 15.4943 1.36628 14.0887 0.685089 12.4442C0.00390023 10.7996 -0.174333 8.99002 0.172934 7.24419C0.520202 5.49836 1.37737 3.89471 2.63604 2.63604C3.89471 1.37737 5.49836 0.520203 7.24419 0.172937C8.99002 -0.17433 10.7996 0.00390401 12.4442 0.685093C14.0887 1.36628 15.4943 2.51983 16.4832 3.99988C17.4722 5.47992 18 7.21997 18 9C18 11.387 17.0518 13.6761 15.364 15.364C13.6761 17.0518 11.3869 18 9 18ZM9 1.80001C7.57598 1.80001 6.18393 2.22228 4.9999 3.01342C3.81586 3.80457 2.89302 4.92905 2.34807 6.24468C1.80312 7.56031 1.66054 9.00799 1.93835 10.4047C2.21616 11.8013 2.9019 13.0842 3.90883 14.0912C4.91577 15.0981 6.19869 15.7838 7.59535 16.0617C8.99201 16.3395 10.4397 16.1969 11.7553 15.6519C13.071 15.107 14.1954 14.1841 14.9866 13.0001C15.7777 11.8161 16.2 10.424 16.2 9C16.2 7.09045 15.4414 5.2591 14.0912 3.90884C12.7409 2.55858 10.9096 1.80001 9 1.80001ZM9.09 13.68C8.9298 13.68 8.77319 13.6325 8.63999 13.5435C8.50679 13.4545 8.40296 13.328 8.34166 13.18C8.28035 13.032 8.26431 12.8691 8.29556 12.712C8.32682 12.5549 8.40397 12.4105 8.51725 12.2972C8.63053 12.184 8.77486 12.1068 8.93198 12.0756C9.08911 12.0443 9.25197 12.0603 9.39998 12.1217C9.54798 12.183 9.67449 12.2868 9.76349 12.42C9.8525 12.5532 9.9 12.7098 9.9 12.87C9.9 13.0848 9.81466 13.2909 9.66276 13.4428C9.51085 13.5947 9.30483 13.68 9.09 13.68ZM9 10.98C8.85679 10.98 8.71944 10.9231 8.61817 10.8218C8.5169 10.7206 8.46 10.5832 8.46 10.44L8.46 5.04C8.46 4.89679 8.5169 4.75944 8.61817 4.65817C8.71944 4.5569 8.85679 4.5 9 4.5C9.14322 4.5 9.28057 4.5569 9.38184 4.65817C9.48311 4.75944 9.54 4.89679 9.54 5.04L9.54 10.44C9.54 10.5832 9.48311 10.7206 9.38184 10.8218C9.28057 10.9231 9.14322 10.98 9 10.98Z" fill="white"/>
</svg>
