<svg width="171" height="3" viewBox="0 0 171 3" fill="none" xmlns="http://www.w3.org/2000/svg">
<path d="M1.88672 0.25C2.19661 0.25 2.43587 0.338867 2.60449 0.516602C2.77311 0.689779 2.85742 0.908529 2.85742 1.17285C2.85742 1.43262 2.77311 1.64909 2.60449 1.82227C2.43587 1.99089 2.19661 2.0752 1.88672 2.0752C1.59049 2.0752 1.35579 1.99089 1.18262 1.82227C1.00944 1.65365 0.922852 1.43717 0.922852 1.17285C0.922852 0.908529 1.00716 0.689779 1.17578 0.516602C1.3444 0.338867 1.58138 0.25 1.88672 0.25ZM8.59688 0.25C8.90677 0.25 9.14603 0.338867 9.31465 0.516602C9.48327 0.689779 9.56758 0.908529 9.56758 1.17285C9.56758 1.43262 9.48327 1.64909 9.31465 1.82227C9.14603 1.99089 8.90677 2.0752 8.59688 2.0752C8.30065 2.0752 8.06595 1.99089 7.89277 1.82227C7.7196 1.65365 7.63301 1.43717 7.63301 1.17285C7.63301 0.908529 7.71732 0.689779 7.88594 0.516602C8.05456 0.338867 8.29154 0.25 8.59688 0.25ZM15.307 0.25C15.6169 0.25 15.8562 0.338867 16.0248 0.516602C16.1934 0.689779 16.2777 0.908529 16.2777 1.17285C16.2777 1.43262 16.1934 1.64909 16.0248 1.82227C15.8562 1.99089 15.6169 2.0752 15.307 2.0752C15.0108 2.0752 14.7761 1.99089 14.6029 1.82227C14.4298 1.65365 14.3432 1.43717 14.3432 1.17285C14.3432 0.908529 14.4275 0.689779 14.5961 0.516602C14.7647 0.338867 15.0017 0.25 15.307 0.25ZM22.0172 0.25C22.3271 0.25 22.5663 0.338867 22.735 0.516602C22.9036 0.689779 22.9879 0.908529 22.9879 1.17285C22.9879 1.43262 22.9036 1.64909 22.735 1.82227C22.5663 1.99089 22.3271 2.0752 22.0172 2.0752C21.721 2.0752 21.4863 1.99089 21.3131 1.82227C21.1399 1.65365 21.0533 1.43717 21.0533 1.17285C21.0533 0.908529 21.1376 0.689779 21.3062 0.516602C21.4749 0.338867 21.7118 0.25 22.0172 0.25ZM28.7273 0.25C29.0372 0.25 29.2765 0.338867 29.4451 0.516602C29.6137 0.689779 29.698 0.908529 29.698 1.17285C29.698 1.43262 29.6137 1.64909 29.4451 1.82227C29.2765 1.99089 29.0372 2.0752 28.7273 2.0752C28.4311 2.0752 28.1964 1.99089 28.0232 1.82227C27.8501 1.65365 27.7635 1.43717 27.7635 1.17285C27.7635 0.908529 27.8478 0.689779 28.0164 0.516602C28.185 0.338867 28.422 0.25 28.7273 0.25ZM35.4375 0.25C35.7474 0.25 35.9867 0.338867 36.1553 0.516602C36.3239 0.689779 36.4082 0.908529 36.4082 1.17285C36.4082 1.43262 36.3239 1.64909 36.1553 1.82227C35.9867 1.99089 35.7474 2.0752 35.4375 2.0752C35.1413 2.0752 34.9066 1.99089 34.7334 1.82227C34.5602 1.65365 34.4736 1.43717 34.4736 1.17285C34.4736 0.908529 34.5579 0.689779 34.7266 0.516602C34.8952 0.338867 35.1322 0.25 35.4375 0.25ZM42.1477 0.25C42.4576 0.25 42.6968 0.338867 42.8654 0.516602C43.034 0.689779 43.1184 0.908529 43.1184 1.17285C43.1184 1.43262 43.034 1.64909 42.8654 1.82227C42.6968 1.99089 42.4576 2.0752 42.1477 2.0752C41.8514 2.0752 41.6167 1.99089 41.4436 1.82227C41.2704 1.65365 41.1838 1.43717 41.1838 1.17285C41.1838 0.908529 41.2681 0.689779 41.4367 0.516602C41.6053 0.338867 41.8423 0.25 42.1477 0.25ZM48.8578 0.25C49.1677 0.25 49.407 0.338867 49.5756 0.516602C49.7442 0.689779 49.8285 0.908529 49.8285 1.17285C49.8285 1.43262 49.7442 1.64909 49.5756 1.82227C49.407 1.99089 49.1677 2.0752 48.8578 2.0752C48.5616 2.0752 48.3269 1.99089 48.1537 1.82227C47.9805 1.65365 47.8939 1.43717 47.8939 1.17285C47.8939 0.908529 47.9783 0.689779 48.1469 0.516602C48.3155 0.338867 48.5525 0.25 48.8578 0.25ZM55.568 0.25C55.8779 0.25 56.1171 0.338867 56.2857 0.516602C56.4544 0.689779 56.5387 0.908529 56.5387 1.17285C56.5387 1.43262 56.4544 1.64909 56.2857 1.82227C56.1171 1.99089 55.8779 2.0752 55.568 2.0752C55.2717 2.0752 55.037 1.99089 54.8639 1.82227C54.6907 1.65365 54.6041 1.43717 54.6041 1.17285C54.6041 0.908529 54.6884 0.689779 54.857 0.516602C55.0257 0.338867 55.2626 0.25 55.568 0.25ZM62.2781 0.25C62.588 0.25 62.8273 0.338867 62.9959 0.516602C63.1645 0.689779 63.2488 0.908529 63.2488 1.17285C63.2488 1.43262 63.1645 1.64909 62.9959 1.82227C62.8273 1.99089 62.588 2.0752 62.2781 2.0752C61.9819 2.0752 61.7472 1.99089 61.574 1.82227C61.4008 1.65365 61.3143 1.43717 61.3143 1.17285C61.3143 0.908529 61.3986 0.689779 61.5672 0.516602C61.7358 0.338867 61.9728 0.25 62.2781 0.25ZM68.9883 0.25C69.2982 0.25 69.5374 0.338867 69.7061 0.516602C69.8747 0.689779 69.959 0.908529 69.959 1.17285C69.959 1.43262 69.8747 1.64909 69.7061 1.82227C69.5374 1.99089 69.2982 2.0752 68.9883 2.0752C68.6921 2.0752 68.4574 1.99089 68.2842 1.82227C68.111 1.65365 68.0244 1.43717 68.0244 1.17285C68.0244 0.908529 68.1087 0.689779 68.2773 0.516602C68.446 0.338867 68.6829 0.25 68.9883 0.25ZM75.6984 0.25C76.0083 0.25 76.2476 0.338867 76.4162 0.516602C76.5848 0.689779 76.6691 0.908529 76.6691 1.17285C76.6691 1.43262 76.5848 1.64909 76.4162 1.82227C76.2476 1.99089 76.0083 2.0752 75.6984 2.0752C75.4022 2.0752 75.1675 1.99089 74.9943 1.82227C74.8212 1.65365 74.7346 1.43717 74.7346 1.17285C74.7346 0.908529 74.8189 0.689779 74.9875 0.516602C75.1561 0.338867 75.3931 0.25 75.6984 0.25ZM82.4086 0.25C82.7185 0.25 82.9577 0.338867 83.1264 0.516602C83.295 0.689779 83.3793 0.908529 83.3793 1.17285C83.3793 1.43262 83.295 1.64909 83.1264 1.82227C82.9577 1.99089 82.7185 2.0752 82.4086 2.0752C82.1124 2.0752 81.8777 1.99089 81.7045 1.82227C81.5313 1.65365 81.4447 1.43717 81.4447 1.17285C81.4447 0.908529 81.529 0.689779 81.6977 0.516602C81.8663 0.338867 82.1033 0.25 82.4086 0.25ZM89.1188 0.25C89.4286 0.25 89.6679 0.338867 89.8365 0.516602C90.0051 0.689779 90.0895 0.908529 90.0895 1.17285C90.0895 1.43262 90.0051 1.64909 89.8365 1.82227C89.6679 1.99089 89.4286 2.0752 89.1188 2.0752C88.8225 2.0752 88.5878 1.99089 88.4146 1.82227C88.2415 1.65365 88.1549 1.43717 88.1549 1.17285C88.1549 0.908529 88.2392 0.689779 88.4078 0.516602C88.5764 0.338867 88.8134 0.25 89.1188 0.25ZM95.8289 0.25C96.1388 0.25 96.3781 0.338867 96.5467 0.516602C96.7153 0.689779 96.7996 0.908529 96.7996 1.17285C96.7996 1.43262 96.7153 1.64909 96.5467 1.82227C96.3781 1.99089 96.1388 2.0752 95.8289 2.0752C95.5327 2.0752 95.298 1.99089 95.1248 1.82227C94.9516 1.65365 94.865 1.43717 94.865 1.17285C94.865 0.908529 94.9493 0.689779 95.118 0.516602C95.2866 0.338867 95.5236 0.25 95.8289 0.25ZM102.539 0.25C102.849 0.25 103.088 0.338867 103.257 0.516602C103.425 0.689779 103.51 0.908529 103.51 1.17285C103.51 1.43262 103.425 1.64909 103.257 1.82227C103.088 1.99089 102.849 2.0752 102.539 2.0752C102.243 2.0752 102.008 1.99089 101.835 1.82227C101.662 1.65365 101.575 1.43717 101.575 1.17285C101.575 0.908529 101.66 0.689779 101.828 0.516602C101.997 0.338867 102.234 0.25 102.539 0.25ZM109.249 0.25C109.559 0.25 109.798 0.338867 109.967 0.516602C110.136 0.689779 110.22 0.908529 110.22 1.17285C110.22 1.43262 110.136 1.64909 109.967 1.82227C109.798 1.99089 109.559 2.0752 109.249 2.0752C108.953 2.0752 108.718 1.99089 108.545 1.82227C108.372 1.65365 108.285 1.43717 108.285 1.17285C108.285 0.908529 108.37 0.689779 108.538 0.516602C108.707 0.338867 108.944 0.25 109.249 0.25ZM115.959 0.25C116.269 0.25 116.509 0.338867 116.677 0.516602C116.846 0.689779 116.93 0.908529 116.93 1.17285C116.93 1.43262 116.846 1.64909 116.677 1.82227C116.509 1.99089 116.269 2.0752 115.959 2.0752C115.663 2.0752 115.428 1.99089 115.255 1.82227C115.082 1.65365 114.996 1.43717 114.996 1.17285C114.996 0.908529 115.08 0.689779 115.248 0.516602C115.417 0.338867 115.654 0.25 115.959 0.25ZM122.67 0.25C122.979 0.25 123.219 0.338867 123.387 0.516602C123.556 0.689779 123.64 0.908529 123.64 1.17285C123.64 1.43262 123.556 1.64909 123.387 1.82227C123.219 1.99089 122.979 2.0752 122.67 2.0752C122.373 2.0752 122.139 1.99089 121.965 1.82227C121.792 1.65365 121.706 1.43717 121.706 1.17285C121.706 0.908529 121.79 0.689779 121.959 0.516602C122.127 0.338867 122.364 0.25 122.67 0.25ZM129.38 0.25C129.69 0.25 129.929 0.338867 130.097 0.516602C130.266 0.689779 130.35 0.908529 130.35 1.17285C130.35 1.43262 130.266 1.64909 130.097 1.82227C129.929 1.99089 129.69 2.0752 129.38 2.0752C129.083 2.0752 128.849 1.99089 128.676 1.82227C128.502 1.65365 128.416 1.43717 128.416 1.17285C128.416 0.908529 128.5 0.689779 128.669 0.516602C128.837 0.338867 129.074 0.25 129.38 0.25ZM136.09 0.25C136.4 0.25 136.639 0.338867 136.808 0.516602C136.976 0.689779 137.061 0.908529 137.061 1.17285C137.061 1.43262 136.976 1.64909 136.808 1.82227C136.639 1.99089 136.4 2.0752 136.09 2.0752C135.794 2.0752 135.559 1.99089 135.386 1.82227C135.213 1.65365 135.126 1.43717 135.126 1.17285C135.126 0.908529 135.21 0.689779 135.379 0.516602C135.548 0.338867 135.785 0.25 136.09 0.25ZM142.8 0.25C143.11 0.25 143.349 0.338867 143.518 0.516602C143.686 0.689779 143.771 0.908529 143.771 1.17285C143.771 1.43262 143.686 1.64909 143.518 1.82227C143.349 1.99089 143.11 2.0752 142.8 2.0752C142.504 2.0752 142.269 1.99089 142.096 1.82227C141.923 1.65365 141.836 1.43717 141.836 1.17285C141.836 0.908529 141.92 0.689779 142.089 0.516602C142.258 0.338867 142.495 0.25 142.8 0.25ZM149.51 0.25C149.82 0.25 150.059 0.338867 150.228 0.516602C150.397 0.689779 150.481 0.908529 150.481 1.17285C150.481 1.43262 150.397 1.64909 150.228 1.82227C150.059 1.99089 149.82 2.0752 149.51 2.0752C149.214 2.0752 148.979 1.99089 148.806 1.82227C148.633 1.65365 148.546 1.43717 148.546 1.17285C148.546 0.908529 148.631 0.689779 148.799 0.516602C148.968 0.338867 149.205 0.25 149.51 0.25ZM156.22 0.25C156.53 0.25 156.769 0.338867 156.938 0.516602C157.107 0.689779 157.191 0.908529 157.191 1.17285C157.191 1.43262 157.107 1.64909 156.938 1.82227C156.769 1.99089 156.53 2.0752 156.22 2.0752C155.924 2.0752 155.689 1.99089 155.516 1.82227C155.343 1.65365 155.256 1.43717 155.256 1.17285C155.256 0.908529 155.341 0.689779 155.509 0.516602C155.678 0.338867 155.915 0.25 156.22 0.25ZM162.93 0.25C163.24 0.25 163.48 0.338867 163.648 0.516602C163.817 0.689779 163.901 0.908529 163.901 1.17285C163.901 1.43262 163.817 1.64909 163.648 1.82227C163.48 1.99089 163.24 2.0752 162.93 2.0752C162.634 2.0752 162.4 1.99089 162.226 1.82227C162.053 1.65365 161.967 1.43717 161.967 1.17285C161.967 0.908529 162.051 0.689779 162.22 0.516602C162.388 0.338867 162.625 0.25 162.93 0.25ZM169.641 0.25C169.951 0.25 170.19 0.338867 170.358 0.516602C170.527 0.689779 170.611 0.908529 170.611 1.17285C170.611 1.43262 170.527 1.64909 170.358 1.82227C170.19 1.99089 169.951 2.0752 169.641 2.0752C169.344 2.0752 169.11 1.99089 168.937 1.82227C168.763 1.65365 168.677 1.43717 168.677 1.17285C168.677 0.908529 168.761 0.689779 168.93 0.516602C169.098 0.338867 169.335 0.25 169.641 0.25Z" fill="#D1D1D1"/>
</svg>
