<svg width="1060" height="5" viewBox="0 0 1060 5" fill="none" xmlns="http://www.w3.org/2000/svg">
<path d="M0 4.58333L4.25057 0L4.63699 0.416667L0.386416 5L0 4.58333Z" fill="#D6D6D6"/>
<path d="M8.11473 5L3.86415 0.416667L4.25057 0L8.50114 4.58333L8.11473 5Z" fill="#D6D6D6"/>
<path d="M7.80265 4.58333L12.0532 0L12.4396 0.416667L8.18907 5L7.80265 4.58333Z" fill="#D6D6D6"/>
<path d="M15.9174 5L11.6668 0.416667L12.0532 0L16.3038 4.58333L15.9174 5Z" fill="#D6D6D6"/>
<path d="M15.5745 4.58333L19.8251 0L20.2115 0.416667L15.9609 5L15.5745 4.58333Z" fill="#D6D6D6"/>
<path d="M23.6892 5L19.4387 0.416667L19.8251 0L24.0757 4.58333L23.6892 5Z" fill="#D6D6D6"/>
<path d="M23.3772 4.58333L27.6277 0L28.0142 0.416667L23.7636 5L23.3772 4.58333Z" fill="#D6D6D6"/>
<path d="M31.4919 5L27.2413 0.416667L27.6277 0L31.8783 4.58333L31.4919 5Z" fill="#D6D6D6"/>
<path d="M31.149 4.58333L35.3996 0L35.786 0.416667L31.5354 5L31.149 4.58333Z" fill="#D6D6D6"/>
<path d="M39.2637 5L35.0132 0.416667L35.3996 0L39.6502 4.58333L39.2637 5Z" fill="#D6D6D6"/>
<path d="M38.9517 4.58333L43.2022 0L43.5887 0.416667L39.3381 5L38.9517 4.58333Z" fill="#D6D6D6"/>
<path d="M47.0664 5L42.8158 0.416667L43.2022 0L47.4528 4.58333L47.0664 5Z" fill="#D6D6D6"/>
<path d="M46.7235 4.58333L50.9741 0L51.3605 0.416667L47.11 5L46.7235 4.58333Z" fill="#D6D6D6"/>
<path d="M54.8383 5L50.5877 0.416667L50.9741 0L55.2247 4.58333L54.8383 5Z" fill="#D6D6D6"/>
<path d="M54.5262 4.58333L58.7768 0L59.1632 0.416667L54.9126 5L54.5262 4.58333Z" fill="#D6D6D6"/>
<path d="M62.6409 5L58.3903 0.416667L58.7768 0L63.0273 4.58333L62.6409 5Z" fill="#D6D6D6"/>
<path d="M62.298 4.58333L66.5486 0L66.935 0.416667L62.6845 5L62.298 4.58333Z" fill="#D6D6D6"/>
<path d="M70.4128 5L66.1622 0.416667L66.5486 0L70.7992 4.58333L70.4128 5Z" fill="#D6D6D6"/>
<path d="M70.1007 4.58333L74.3513 0L74.7377 0.416667L70.4871 5L70.1007 4.58333Z" fill="#D6D6D6"/>
<path d="M78.2154 5L73.9649 0.416667L74.3513 0L78.6018 4.58333L78.2154 5Z" fill="#D6D6D6"/>
<path d="M77.8726 4.58333L82.1231 0L82.5095 0.416667L78.259 5L77.8726 4.58333Z" fill="#D6D6D6"/>
<path d="M85.9873 5L81.7367 0.416667L82.1231 0L86.3737 4.58333L85.9873 5Z" fill="#D6D6D6"/>
<path d="M85.6752 4.58333L89.9258 0L90.3122 0.416667L86.0616 5L85.6752 4.58333Z" fill="#D6D6D6"/>
<path d="M93.7899 5L89.5394 0.416667L89.9258 0L94.1764 4.58333L93.7899 5Z" fill="#D6D6D6"/>
<path d="M93.4471 4.58333L97.6976 0L98.0841 0.416667L93.8335 5L93.4471 4.58333Z" fill="#D6D6D6"/>
<path d="M101.562 5L97.3112 0.416667L97.6976 0L101.948 4.58333L101.562 5Z" fill="#D6D6D6"/>
<path d="M101.25 4.58333L105.5 0L105.887 0.416667L101.636 5L101.25 4.58333Z" fill="#D6D6D6"/>
<path d="M109.364 5L105.114 0.416667L105.5 0L109.751 4.58333L109.364 5Z" fill="#D6D6D6"/>
<path d="M109.022 4.58333L113.272 0L113.659 0.416667L109.408 5L109.022 4.58333Z" fill="#D6D6D6"/>
<path d="M117.136 5L112.886 0.416667L113.272 0L117.523 4.58333L117.136 5Z" fill="#D6D6D6"/>
<path d="M116.824 4.58333L121.075 0L121.461 0.416667L117.211 5L116.824 4.58333Z" fill="#D6D6D6"/>
<path d="M124.939 5L120.688 0.416667L121.075 0L125.325 4.58333L124.939 5Z" fill="#D6D6D6"/>
<path d="M124.596 4.58333L128.847 0L129.233 0.416667L124.983 5L124.596 4.58333Z" fill="#D6D6D6"/>
<path d="M132.711 5L128.46 0.416667L128.847 0L133.097 4.58333L132.711 5Z" fill="#D6D6D6"/>
<path d="M132.415 4.58333L136.665 0L137.052 0.416667L132.801 5L132.415 4.58333Z" fill="#D6D6D6"/>
<path d="M140.529 5L136.279 0.416667L136.665 0L140.916 4.58333L140.529 5Z" fill="#D6D6D6"/>
<path d="M140.217 4.58333L144.468 0L144.854 0.416667L140.604 5L140.217 4.58333Z" fill="#D6D6D6"/>
<path d="M148.332 5L144.081 0.416667L144.468 0L148.718 4.58333L148.332 5Z" fill="#D6D6D6"/>
<path d="M147.989 4.58333L152.24 0L152.626 0.416667L148.376 5L147.989 4.58333Z" fill="#D6D6D6"/>
<path d="M156.104 5L151.853 0.416667L152.24 0L156.49 4.58333L156.104 5Z" fill="#D6D6D6"/>
<path d="M155.792 4.58333L160.042 0L160.429 0.416667L156.178 5L155.792 4.58333Z" fill="#D6D6D6"/>
<path d="M163.907 5L159.656 0.416667L160.042 0L164.293 4.58333L163.907 5Z" fill="#D6D6D6"/>
<path d="M163.564 4.58333L167.814 0L168.201 0.416667L163.95 5L163.564 4.58333Z" fill="#D6D6D6"/>
<path d="M171.678 5L167.428 0.416667L167.814 0L172.065 4.58333L171.678 5Z" fill="#D6D6D6"/>
<path d="M171.366 4.58333L175.617 0L176.003 0.416667L171.753 5L171.366 4.58333Z" fill="#D6D6D6"/>
<path d="M179.481 5L175.23 0.416667L175.617 0L179.867 4.58333L179.481 5Z" fill="#D6D6D6"/>
<path d="M179.138 4.58333L183.389 0L183.775 0.416667L179.525 5L179.138 4.58333Z" fill="#D6D6D6"/>
<path d="M187.253 5L183.002 0.416667L183.389 0L187.639 4.58333L187.253 5Z" fill="#D6D6D6"/>
<path d="M186.941 4.58333L191.191 0L191.578 0.416667L187.327 5L186.941 4.58333Z" fill="#D6D6D6"/>
<path d="M195.056 5L190.805 0.416667L191.191 0L195.442 4.58333L195.056 5Z" fill="#D6D6D6"/>
<path d="M194.713 4.58333L198.963 0L199.35 0.416667L195.099 5L194.713 4.58333Z" fill="#D6D6D6"/>
<path d="M202.827 5L198.577 0.416667L198.963 0L203.214 4.58333L202.827 5Z" fill="#D6D6D6"/>
<path d="M202.515 4.58333L206.766 0L207.152 0.416667L202.902 5L202.515 4.58333Z" fill="#D6D6D6"/>
<path d="M210.63 5L206.38 0.416667L206.766 0L211.017 4.58333L210.63 5Z" fill="#D6D6D6"/>
<path d="M210.287 4.58333L214.538 0L214.924 0.416667L210.674 5L210.287 4.58333Z" fill="#D6D6D6"/>
<path d="M218.402 5L214.151 0.416667L214.538 0L218.788 4.58333L218.402 5Z" fill="#D6D6D6"/>
<path d="M218.09 4.58333L222.34 0L222.727 0.416667L218.476 5L218.09 4.58333Z" fill="#D6D6D6"/>
<path d="M226.205 5L221.954 0.416667L222.34 0L226.591 4.58333L226.205 5Z" fill="#D6D6D6"/>
<path d="M225.862 4.58333L230.112 0L230.499 0.416667L226.248 5L225.862 4.58333Z" fill="#D6D6D6"/>
<path d="M233.976 5L229.726 0.416667L230.112 0L234.363 4.58333L233.976 5Z" fill="#D6D6D6"/>
<path d="M233.664 4.58333L237.915 0L238.301 0.416667L234.051 5L233.664 4.58333Z" fill="#D6D6D6"/>
<path d="M241.779 5L237.529 0.416667L237.915 0L242.166 4.58333L241.779 5Z" fill="#D6D6D6"/>
<path d="M241.436 4.58333L245.687 0L246.073 0.416667L241.823 5L241.436 4.58333Z" fill="#D6D6D6"/>
<path d="M249.551 5L245.3 0.416667L245.687 0L249.937 4.58333L249.551 5Z" fill="#D6D6D6"/>
<path d="M249.239 4.58333L253.489 0L253.876 0.416667L249.625 5L249.239 4.58333Z" fill="#D6D6D6"/>
<path d="M257.354 5L253.103 0.416667L253.489 0L257.74 4.58333L257.354 5Z" fill="#D6D6D6"/>
<path d="M257.011 4.58333L261.261 0L261.648 0.416667L257.397 5L257.011 4.58333Z" fill="#D6D6D6"/>
<path d="M265.125 5L260.875 0.416667L261.261 0L265.512 4.58333L265.125 5Z" fill="#D6D6D6"/>
<path d="M264.829 4.58333L269.08 0L269.466 0.416667L265.216 5L264.829 4.58333Z" fill="#D6D6D6"/>
<path d="M272.944 5L268.694 0.416667L269.08 0L273.331 4.58333L272.944 5Z" fill="#D6D6D6"/>
<path d="M272.632 4.58333L276.883 0L277.269 0.416667L273.018 5L272.632 4.58333Z" fill="#D6D6D6"/>
<path d="M280.747 5L276.496 0.416667L276.883 0L281.133 4.58333L280.747 5Z" fill="#D6D6D6"/>
<path d="M280.404 4.58333L284.654 0L285.041 0.416667L280.79 5L280.404 4.58333Z" fill="#D6D6D6"/>
<path d="M288.519 5L284.268 0.416667L284.654 0L288.905 4.58333L288.519 5Z" fill="#D6D6D6"/>
<path d="M288.207 4.58333L292.457 0L292.844 0.416667L288.593 5L288.207 4.58333Z" fill="#D6D6D6"/>
<path d="M296.321 5L292.071 0.416667L292.457 0L296.708 4.58333L296.321 5Z" fill="#D6D6D6"/>
<path d="M295.978 4.58333L300.229 0L300.615 0.416667L296.365 5L295.978 4.58333Z" fill="#D6D6D6"/>
<path d="M304.093 5L299.843 0.416667L300.229 0L304.48 4.58333L304.093 5Z" fill="#D6D6D6"/>
<path d="M303.781 4.58333L308.032 0L308.418 0.416667L304.167 5L303.781 4.58333Z" fill="#D6D6D6"/>
<path d="M311.896 5L307.645 0.416667L308.032 0L312.282 4.58333L311.896 5Z" fill="#D6D6D6"/>
<path d="M311.553 4.58333L315.803 0L316.19 0.416667L311.939 5L311.553 4.58333Z" fill="#D6D6D6"/>
<path d="M319.668 5L315.417 0.416667L315.803 0L320.054 4.58333L319.668 5Z" fill="#D6D6D6"/>
<path d="M319.356 4.58333L323.606 0L323.993 0.416667L319.742 5L319.356 4.58333Z" fill="#D6D6D6"/>
<path d="M327.47 5L323.22 0.416667L323.606 0L327.857 4.58333L327.47 5Z" fill="#D6D6D6"/>
<path d="M327.127 4.58333L331.378 0L331.764 0.416667L327.514 5L327.127 4.58333Z" fill="#D6D6D6"/>
<path d="M335.242 5L330.992 0.416667L331.378 0L335.629 4.58333L335.242 5Z" fill="#D6D6D6"/>
<path d="M334.93 4.58333L339.181 0L339.567 0.416667L335.316 5L334.93 4.58333Z" fill="#D6D6D6"/>
<path d="M343.045 5L338.794 0.416667L339.181 0L343.431 4.58333L343.045 5Z" fill="#D6D6D6"/>
<path d="M342.702 4.58333L346.952 0L347.339 0.416667L343.088 5L342.702 4.58333Z" fill="#D6D6D6"/>
<path d="M350.817 5L346.566 0.416667L346.952 0L351.203 4.58333L350.817 5Z" fill="#D6D6D6"/>
<path d="M350.505 4.58333L354.755 0L355.142 0.416667L350.891 5L350.505 4.58333Z" fill="#D6D6D6"/>
<path d="M358.619 5L354.369 0.416667L354.755 0L359.006 4.58333L358.619 5Z" fill="#D6D6D6"/>
<path d="M358.276 4.58333L362.527 0L362.913 0.416667L358.663 5L358.276 4.58333Z" fill="#D6D6D6"/>
<path d="M366.391 5L362.141 0.416667L362.527 0L366.778 4.58333L366.391 5Z" fill="#D6D6D6"/>
<path d="M366.079 4.58333L370.33 0L370.716 0.416667L366.466 5L366.079 4.58333Z" fill="#D6D6D6"/>
<path d="M374.194 5L369.943 0.416667L370.33 0L374.58 4.58333L374.194 5Z" fill="#D6D6D6"/>
<path d="M373.851 4.58333L378.101 0L378.488 0.416667L374.237 5L373.851 4.58333Z" fill="#D6D6D6"/>
<path d="M381.966 5L377.715 0.416667L378.101 0L382.352 4.58333L381.966 5Z" fill="#D6D6D6"/>
<path d="M381.654 4.58333L385.904 0L386.291 0.416667L382.04 5L381.654 4.58333Z" fill="#D6D6D6"/>
<path d="M389.768 5L385.518 0.416667L385.904 0L390.155 4.58333L389.768 5Z" fill="#D6D6D6"/>
<path d="M389.425 4.58333L393.676 0L394.062 0.416667L389.812 5L389.425 4.58333Z" fill="#D6D6D6"/>
<path d="M397.54 5L393.29 0.416667L393.676 0L397.927 4.58333L397.54 5Z" fill="#D6D6D6"/>
<path d="M397.244 4.58333L401.495 0L401.881 0.416667L397.63 5L397.244 4.58333Z" fill="#D6D6D6"/>
<path d="M405.359 5L401.108 0.416667L401.495 0L405.745 4.58333L405.359 5Z" fill="#D6D6D6"/>
<path d="M405.047 4.58333L409.297 0L409.684 0.416667L405.433 5L405.047 4.58333Z" fill="#D6D6D6"/>
<path d="M413.161 5L408.911 0.416667L409.297 0L413.548 4.58333L413.161 5Z" fill="#D6D6D6"/>
<path d="M412.819 4.58333L417.069 0L417.456 0.416667L413.205 5L412.819 4.58333Z" fill="#D6D6D6"/>
<path d="M420.933 5L416.683 0.416667L417.069 0L421.32 4.58333L420.933 5Z" fill="#D6D6D6"/>
<path d="M420.621 4.58333L424.872 0L425.258 0.416667L421.008 5L420.621 4.58333Z" fill="#D6D6D6"/>
<path d="M428.736 5L424.485 0.416667L424.872 0L429.122 4.58333L428.736 5Z" fill="#D6D6D6"/>
<path d="M428.393 4.58333L432.644 0L433.03 0.416667L428.779 5L428.393 4.58333Z" fill="#D6D6D6"/>
<path d="M436.508 5L432.257 0.416667L432.644 0L436.894 4.58333L436.508 5Z" fill="#D6D6D6"/>
<path d="M436.196 4.58333L440.446 0L440.833 0.416667L436.582 5L436.196 4.58333Z" fill="#D6D6D6"/>
<path d="M444.31 5L440.06 0.416667L440.446 0L444.697 4.58333L444.31 5Z" fill="#D6D6D6"/>
<path d="M443.968 4.58333L448.218 0L448.605 0.416667L444.354 5L443.968 4.58333Z" fill="#D6D6D6"/>
<path d="M452.082 5L447.832 0.416667L448.218 0L452.469 4.58333L452.082 5Z" fill="#D6D6D6"/>
<path d="M451.77 4.58333L456.021 0L456.407 0.416667L452.157 5L451.77 4.58333Z" fill="#D6D6D6"/>
<path d="M459.885 5L455.634 0.416667L456.021 0L460.271 4.58333L459.885 5Z" fill="#D6D6D6"/>
<path d="M459.542 4.58333L463.793 0L464.179 0.416667L459.928 5L459.542 4.58333Z" fill="#D6D6D6"/>
<path d="M467.657 5L463.406 0.416667L463.793 0L468.043 4.58333L467.657 5Z" fill="#D6D6D6"/>
<path d="M467.345 4.58333L471.595 0L471.982 0.416667L467.731 5L467.345 4.58333Z" fill="#D6D6D6"/>
<path d="M475.46 5L471.209 0.416667L471.595 0L475.846 4.58333L475.46 5Z" fill="#D6D6D6"/>
<path d="M475.117 4.58333L479.367 0L479.754 0.416667L475.503 5L475.117 4.58333Z" fill="#D6D6D6"/>
<path d="M483.231 5L478.981 0.416667L479.367 0L483.618 4.58333L483.231 5Z" fill="#D6D6D6"/>
<path d="M482.919 4.58333L487.17 0L487.556 0.416667L483.306 5L482.919 4.58333Z" fill="#D6D6D6"/>
<path d="M491.034 5L486.783 0.416667L487.17 0L491.42 4.58333L491.034 5Z" fill="#D6D6D6"/>
<path d="M490.691 4.58333L494.942 0L495.328 0.416667L491.078 5L490.691 4.58333Z" fill="#D6D6D6"/>
<path d="M498.806 5L494.555 0.416667L494.942 0L499.192 4.58333L498.806 5Z" fill="#D6D6D6"/>
<path d="M498.494 4.58333L502.744 0L503.131 0.416667L498.88 5L498.494 4.58333Z" fill="#D6D6D6"/>
<path d="M506.608 5L502.358 0.416667L502.744 0L506.995 4.58333L506.608 5Z" fill="#D6D6D6"/>
<path d="M506.266 4.58333L510.516 0L510.903 0.416667L506.652 5L506.266 4.58333Z" fill="#D6D6D6"/>
<path d="M514.38 5L510.13 0.416667L510.516 0L514.767 4.58333L514.38 5Z" fill="#D6D6D6"/>
<path d="M514.068 4.58333L518.319 0L518.705 0.416667L514.455 5L514.068 4.58333Z" fill="#D6D6D6"/>
<path d="M522.183 5L517.932 0.416667L518.319 0L522.569 4.58333L522.183 5Z" fill="#D6D6D6"/>
<path d="M521.84 4.58333L526.091 0L526.477 0.416667L522.227 5L521.84 4.58333Z" fill="#D6D6D6"/>
<path d="M529.955 5L525.704 0.416667L526.091 0L530.341 4.58333L529.955 5Z" fill="#D6D6D6"/>
<path d="M529.659 4.58333L533.909 0L534.296 0.416667L530.045 5L529.659 4.58333Z" fill="#D6D6D6"/>
<path d="M537.773 5L533.523 0.416667L533.909 0L538.16 4.58333L537.773 5Z" fill="#D6D6D6"/>
<path d="M537.461 4.58333L541.712 0L542.098 0.416667L537.848 5L537.461 4.58333Z" fill="#D6D6D6"/>
<path d="M545.576 5L541.326 0.416667L541.712 0L545.963 4.58333L545.576 5Z" fill="#D6D6D6"/>
<path d="M545.233 4.58333L549.484 0L549.87 0.416667L545.62 5L545.233 4.58333Z" fill="#D6D6D6"/>
<path d="M553.348 5L549.097 0.416667L549.484 0L553.734 4.58333L553.348 5Z" fill="#D6D6D6"/>
<path d="M553.036 4.58333L557.286 0L557.673 0.416667L553.422 5L553.036 4.58333Z" fill="#D6D6D6"/>
<path d="M561.151 5L556.9 0.416667L557.286 0L561.537 4.58333L561.151 5Z" fill="#D6D6D6"/>
<path d="M560.808 4.58333L565.058 0L565.445 0.416667L561.194 5L560.808 4.58333Z" fill="#D6D6D6"/>
<path d="M568.922 5L564.672 0.416667L565.058 0L569.309 4.58333L568.922 5Z" fill="#D6D6D6"/>
<path d="M568.61 4.58333L572.861 0L573.247 0.416667L568.997 5L568.61 4.58333Z" fill="#D6D6D6"/>
<path d="M576.725 5L572.475 0.416667L572.861 0L577.112 4.58333L576.725 5Z" fill="#D6D6D6"/>
<path d="M576.382 4.58333L580.633 0L581.019 0.416667L576.769 5L576.382 4.58333Z" fill="#D6D6D6"/>
<path d="M584.497 5L580.246 0.416667L580.633 0L584.883 4.58333L584.497 5Z" fill="#D6D6D6"/>
<path d="M584.185 4.58333L588.435 0L588.822 0.416667L584.571 5L584.185 4.58333Z" fill="#D6D6D6"/>
<path d="M592.3 5L588.049 0.416667L588.435 0L592.686 4.58333L592.3 5Z" fill="#D6D6D6"/>
<path d="M591.957 4.58333L596.207 0L596.594 0.416667L592.343 5L591.957 4.58333Z" fill="#D6D6D6"/>
<path d="M600.072 5L595.821 0.416667L596.207 0L600.458 4.58333L600.072 5Z" fill="#D6D6D6"/>
<path d="M599.759 4.58333L604.01 0L604.396 0.416667L600.146 5L599.759 4.58333Z" fill="#D6D6D6"/>
<path d="M607.874 5L603.624 0.416667L604.01 0L608.261 4.58333L607.874 5Z" fill="#D6D6D6"/>
<path d="M607.531 4.58333L611.782 0L612.168 0.416667L607.918 5L607.531 4.58333Z" fill="#D6D6D6"/>
<path d="M615.646 5L611.395 0.416667L611.782 0L616.032 4.58333L615.646 5Z" fill="#D6D6D6"/>
<path d="M615.334 4.58333L619.584 0L619.971 0.416667L615.72 5L615.334 4.58333Z" fill="#D6D6D6"/>
<path d="M623.449 5L619.198 0.416667L619.584 0L623.835 4.58333L623.449 5Z" fill="#D6D6D6"/>
<path d="M623.106 4.58333L627.356 0L627.743 0.416667L623.492 5L623.106 4.58333Z" fill="#D6D6D6"/>
<path d="M631.221 5L626.97 0.416667L627.356 0L631.607 4.58333L631.221 5Z" fill="#D6D6D6"/>
<path d="M630.908 4.58333L635.159 0L635.545 0.416667L631.295 5L630.908 4.58333Z" fill="#D6D6D6"/>
<path d="M639.023 5L634.773 0.416667L635.159 0L639.41 4.58333L639.023 5Z" fill="#D6D6D6"/>
<path d="M638.68 4.58333L642.931 0L643.317 0.416667L639.067 5L638.68 4.58333Z" fill="#D6D6D6"/>
<path d="M646.795 5L642.544 0.416667L642.931 0L647.181 4.58333L646.795 5Z" fill="#D6D6D6"/>
<path d="M646.483 4.58333L650.734 0L651.12 0.416667L646.869 5L646.483 4.58333Z" fill="#D6D6D6"/>
<path d="M654.598 5L650.347 0.416667L650.734 0L654.984 4.58333L654.598 5Z" fill="#D6D6D6"/>
<path d="M654.255 4.58333L658.505 0L658.892 0.416667L654.641 5L654.255 4.58333Z" fill="#D6D6D6"/>
<path d="M662.37 5L658.119 0.416667L658.505 0L662.756 4.58333L662.37 5Z" fill="#D6D6D6"/>
<path d="M662.073 4.58333L666.324 0L666.71 0.416667L662.46 5L662.073 4.58333Z" fill="#D6D6D6"/>
<path d="M670.188 5L665.938 0.416667L666.324 0L670.575 4.58333L670.188 5Z" fill="#D6D6D6"/>
<path d="M669.876 4.58333L674.127 0L674.513 0.416667L670.262 5L669.876 4.58333Z" fill="#D6D6D6"/>
<path d="M677.991 5L673.74 0.416667L674.127 0L678.377 4.58333L677.991 5Z" fill="#D6D6D6"/>
<path d="M677.648 4.58333L681.898 0L682.285 0.416667L678.034 5L677.648 4.58333Z" fill="#D6D6D6"/>
<path d="M685.763 5L681.512 0.416667L681.898 0L686.149 4.58333L685.763 5Z" fill="#D6D6D6"/>
<path d="M685.451 4.58333L689.701 0L690.088 0.416667L685.837 5L685.451 4.58333Z" fill="#D6D6D6"/>
<path d="M693.565 5L689.315 0.416667L689.701 0L693.952 4.58333L693.565 5Z" fill="#D6D6D6"/>
<path d="M693.222 4.58333L697.473 0L697.859 0.416667L693.609 5L693.222 4.58333Z" fill="#D6D6D6"/>
<path d="M701.337 5L697.087 0.416667L697.473 0L701.724 4.58333L701.337 5Z" fill="#D6D6D6"/>
<path d="M701.025 4.58333L705.276 0L705.662 0.416667L701.411 5L701.025 4.58333Z" fill="#D6D6D6"/>
<path d="M709.14 5L704.889 0.416667L705.276 0L709.526 4.58333L709.14 5Z" fill="#D6D6D6"/>
<path d="M708.797 4.58333L713.047 0L713.434 0.416667L709.183 5L708.797 4.58333Z" fill="#D6D6D6"/>
<path d="M716.912 5L712.661 0.416667L713.047 0L717.298 4.58333L716.912 5Z" fill="#D6D6D6"/>
<path d="M716.6 4.58333L720.85 0L721.237 0.416667L716.986 5L716.6 4.58333Z" fill="#D6D6D6"/>
<path d="M724.714 5L720.464 0.416667L720.85 0L725.101 4.58333L724.714 5Z" fill="#D6D6D6"/>
<path d="M724.371 4.58333L728.622 0L729.008 0.416667L724.758 5L724.371 4.58333Z" fill="#D6D6D6"/>
<path d="M732.486 5L728.236 0.416667L728.622 0L732.873 4.58333L732.486 5Z" fill="#D6D6D6"/>
<path d="M732.174 4.58333L736.425 0L736.811 0.416667L732.56 5L732.174 4.58333Z" fill="#D6D6D6"/>
<path d="M740.289 5L736.038 0.416667L736.425 0L740.675 4.58333L740.289 5Z" fill="#D6D6D6"/>
<path d="M739.946 4.58333L744.197 0L744.583 0.416667L740.332 5L739.946 4.58333Z" fill="#D6D6D6"/>
<path d="M748.061 5L743.81 0.416667L744.197 0L748.447 4.58333L748.061 5Z" fill="#D6D6D6"/>
<path d="M747.749 4.58333L751.999 0L752.386 0.416667L748.135 5L747.749 4.58333Z" fill="#D6D6D6"/>
<path d="M755.863 5L751.613 0.416667L751.999 0L756.25 4.58333L755.863 5Z" fill="#D6D6D6"/>
<path d="M755.52 4.58333L759.771 0L760.157 0.416667L755.907 5L755.52 4.58333Z" fill="#D6D6D6"/>
<path d="M763.635 5L759.385 0.416667L759.771 0L764.022 4.58333L763.635 5Z" fill="#D6D6D6"/>
<path d="M763.323 4.58333L767.574 0L767.96 0.416667L763.71 5L763.323 4.58333Z" fill="#D6D6D6"/>
<path d="M771.438 5L767.187 0.416667L767.574 0L771.824 4.58333L771.438 5Z" fill="#D6D6D6"/>
<path d="M771.095 4.58333L775.346 0L775.732 0.416667L771.481 5L771.095 4.58333Z" fill="#D6D6D6"/>
<path d="M779.21 5L774.959 0.416667L775.346 0L779.596 4.58333L779.21 5Z" fill="#D6D6D6"/>
<path d="M778.898 4.58333L783.148 0L783.535 0.416667L779.284 5L778.898 4.58333Z" fill="#D6D6D6"/>
<path d="M787.012 5L782.762 0.416667L783.148 0L787.399 4.58333L787.012 5Z" fill="#D6D6D6"/>
<path d="M786.669 4.58333L790.92 0L791.306 0.416667L787.056 5L786.669 4.58333Z" fill="#D6D6D6"/>
<path d="M794.784 5L790.534 0.416667L790.92 0L795.171 4.58333L794.784 5Z" fill="#D6D6D6"/>
<path d="M794.488 4.58333L798.739 0L799.125 0.416667L794.875 5L794.488 4.58333Z" fill="#D6D6D6"/>
<path d="M802.603 5L798.352 0.416667L798.739 0L802.989 4.58333L802.603 5Z" fill="#D6D6D6"/>
<path d="M802.291 4.58333L806.541 0L806.928 0.416667L802.677 5L802.291 4.58333Z" fill="#D6D6D6"/>
<path d="M810.405 5L806.155 0.416667L806.541 0L810.792 4.58333L810.405 5Z" fill="#D6D6D6"/>
<path d="M810.063 4.58333L814.313 0L814.7 0.416667L810.449 5L810.063 4.58333Z" fill="#D6D6D6"/>
<path d="M818.177 5L813.927 0.416667L814.313 0L818.564 4.58333L818.177 5Z" fill="#D6D6D6"/>
<path d="M817.865 4.58333L822.116 0L822.502 0.416667L818.252 5L817.865 4.58333Z" fill="#D6D6D6"/>
<path d="M825.98 5L821.729 0.416667L822.116 0L826.366 4.58333L825.98 5Z" fill="#D6D6D6"/>
<path d="M825.637 4.58333L829.888 0L830.274 0.416667L826.023 5L825.637 4.58333Z" fill="#D6D6D6"/>
<path d="M833.752 5L829.501 0.416667L829.888 0L834.138 4.58333L833.752 5Z" fill="#D6D6D6"/>
<path d="M833.44 4.58333L837.69 0L838.077 0.416667L833.826 5L833.44 4.58333Z" fill="#D6D6D6"/>
<path d="M841.555 5L837.304 0.416667L837.69 0L841.941 4.58333L841.555 5Z" fill="#D6D6D6"/>
<path d="M841.212 4.58333L845.462 0L845.849 0.416667L841.598 5L841.212 4.58333Z" fill="#D6D6D6"/>
<path d="M849.326 5L845.076 0.416667L845.462 0L849.713 4.58333L849.326 5Z" fill="#D6D6D6"/>
<path d="M849.014 4.58333L853.265 0L853.651 0.416667L849.401 5L849.014 4.58333Z" fill="#D6D6D6"/>
<path d="M857.129 5L852.878 0.416667L853.265 0L857.515 4.58333L857.129 5Z" fill="#D6D6D6"/>
<path d="M856.786 4.58333L861.037 0L861.423 0.416667L857.173 5L856.786 4.58333Z" fill="#D6D6D6"/>
<path d="M864.901 5L860.65 0.416667L861.037 0L865.287 4.58333L864.901 5Z" fill="#D6D6D6"/>
<path d="M864.589 4.58333L868.839 0L869.226 0.416667L864.975 5L864.589 4.58333Z" fill="#D6D6D6"/>
<path d="M872.704 5L868.453 0.416667L868.839 0L873.09 4.58333L872.704 5Z" fill="#D6D6D6"/>
<path d="M872.361 4.58333L876.611 0L876.998 0.416667L872.747 5L872.361 4.58333Z" fill="#D6D6D6"/>
<path d="M880.475 5L876.225 0.416667L876.611 0L880.862 4.58333L880.475 5Z" fill="#D6D6D6"/>
<path d="M880.163 4.58333L884.414 0L884.8 0.416667L880.55 5L880.163 4.58333Z" fill="#D6D6D6"/>
<path d="M888.278 5L884.027 0.416667L884.414 0L888.664 4.58333L888.278 5Z" fill="#D6D6D6"/>
<path d="M887.935 4.58333L892.186 0L892.572 0.416667L888.322 5L887.935 4.58333Z" fill="#D6D6D6"/>
<path d="M896.05 5L891.799 0.416667L892.186 0L896.436 4.58333L896.05 5Z" fill="#D6D6D6"/>
<path d="M895.738 4.58333L899.988 0L900.375 0.416667L896.124 5L895.738 4.58333Z" fill="#D6D6D6"/>
<path d="M903.853 5L899.602 0.416667L899.988 0L904.239 4.58333L903.853 5Z" fill="#D6D6D6"/>
<path d="M903.51 4.58333L907.76 0L908.147 0.416667L903.896 5L903.51 4.58333Z" fill="#D6D6D6"/>
<path d="M911.624 5L907.374 0.416667L907.76 0L912.011 4.58333L911.624 5Z" fill="#D6D6D6"/>
<path d="M911.312 4.58333L915.563 0L915.949 0.416667L911.699 5L911.312 4.58333Z" fill="#D6D6D6"/>
<path d="M919.427 5L915.176 0.416667L915.563 0L919.813 4.58333L919.427 5Z" fill="#D6D6D6"/>
<path d="M919.084 4.58333L923.335 0L923.721 0.416667L919.471 5L919.084 4.58333Z" fill="#D6D6D6"/>
<path d="M927.199 5L922.948 0.416667L923.335 0L927.585 4.58333L927.199 5Z" fill="#D6D6D6"/>
<path d="M926.903 4.58333L931.153 0L931.54 0.416667L927.289 5L926.903 4.58333Z" fill="#D6D6D6"/>
<path d="M935.018 5L930.767 0.416667L931.153 0L935.404 4.58333L935.018 5Z" fill="#D6D6D6"/>
<path d="M934.705 4.58333L938.956 0L939.342 0.416667L935.092 5L934.705 4.58333Z" fill="#D6D6D6"/>
<path d="M942.82 5L938.57 0.416667L938.956 0L943.207 4.58333L942.82 5Z" fill="#D6D6D6"/>
<path d="M942.477 4.58333L946.728 0L947.114 0.416667L942.864 5L942.477 4.58333Z" fill="#D6D6D6"/>
<path d="M950.592 5L946.341 0.416667L946.728 0L950.978 4.58333L950.592 5Z" fill="#D6D6D6"/>
<path d="M950.28 4.58333L954.531 0L954.917 0.416667L950.666 5L950.28 4.58333Z" fill="#D6D6D6"/>
<path d="M958.395 5L954.144 0.416667L954.531 0L958.781 4.58333L958.395 5Z" fill="#D6D6D6"/>
<path d="M958.052 4.58333L962.302 0L962.689 0.416667L958.438 5L958.052 4.58333Z" fill="#D6D6D6"/>
<path d="M966.167 5L961.916 0.416667L962.302 0L966.553 4.58333L966.167 5Z" fill="#D6D6D6"/>
<path d="M965.854 4.58333L970.105 0L970.491 0.416667L966.241 5L965.854 4.58333Z" fill="#D6D6D6"/>
<path d="M973.969 5L969.719 0.416667L970.105 0L974.356 4.58333L973.969 5Z" fill="#D6D6D6"/>
<path d="M973.626 4.58333L977.877 0L978.263 0.416667L974.013 5L973.626 4.58333Z" fill="#D6D6D6"/>
<path d="M981.741 5L977.49 0.416667L977.877 0L982.128 4.58333L981.741 5Z" fill="#D6D6D6"/>
<path d="M981.429 4.58333L985.68 0L986.066 0.416667L981.815 5L981.429 4.58333Z" fill="#D6D6D6"/>
<path d="M989.544 5L985.293 0.416667L985.68 0L989.93 4.58333L989.544 5Z" fill="#D6D6D6"/>
<path d="M989.201 4.58333L993.451 0L993.838 0.416667L989.587 5L989.201 4.58333Z" fill="#D6D6D6"/>
<path d="M997.316 5L993.065 0.416667L993.451 0L997.702 4.58333L997.316 5Z" fill="#D6D6D6"/>
<path d="M997.003 4.58333L1001.25 0L1001.64 0.416667L997.39 5L997.003 4.58333Z" fill="#D6D6D6"/>
<path d="M1005.12 5L1000.87 0.416667L1001.25 0L1005.5 4.58333L1005.12 5Z" fill="#D6D6D6"/>
<path d="M1004.78 4.58333L1009.03 0L1009.41 0.416667L1005.16 5L1004.78 4.58333Z" fill="#D6D6D6"/>
<path d="M1012.89 5L1008.64 0.416667L1009.03 0L1013.28 4.58333L1012.89 5Z" fill="#D6D6D6"/>
<path d="M1012.58 4.58333L1016.83 0L1017.21 0.416667L1012.96 5L1012.58 4.58333Z" fill="#D6D6D6"/>
<path d="M1020.69 5L1016.44 0.416667L1016.83 0L1021.08 4.58333L1020.69 5Z" fill="#D6D6D6"/>
<path d="M1020.35 4.58333L1024.6 0L1024.99 0.416667L1020.74 5L1020.35 4.58333Z" fill="#D6D6D6"/>
<path d="M1028.46 5L1024.21 0.416667L1024.6 0L1028.85 4.58333L1028.46 5Z" fill="#D6D6D6"/>
<path d="M1028.15 4.58333L1032.4 0L1032.79 0.416667L1028.54 5L1028.15 4.58333Z" fill="#D6D6D6"/>
<path d="M1036.27 5L1032.02 0.416667L1032.4 0L1036.65 4.58333L1036.27 5Z" fill="#D6D6D6"/>
<path d="M1035.92 4.58333L1040.17 0L1040.56 0.416667L1036.31 5L1035.92 4.58333Z" fill="#D6D6D6"/>
<path d="M1044.04 5L1039.79 0.416667L1040.17 0L1044.43 4.58333L1044.04 5Z" fill="#D6D6D6"/>
<path d="M1043.73 4.58333L1047.98 0L1048.36 0.416667L1044.11 5L1043.73 4.58333Z" fill="#D6D6D6"/>
<path d="M1051.84 5L1047.59 0.416667L1047.98 0L1052.23 4.58333L1051.84 5Z" fill="#D6D6D6"/>
<path d="M1051.5 4.58333L1055.75 0L1056.14 0.416667L1051.89 5L1051.5 4.58333Z" fill="#D6D6D6"/>
<path d="M1059.61 5L1055.36 0.416667L1055.75 0L1060 4.58333L1059.61 5Z" fill="#D6D6D6"/>
</svg>
