<svg width="248" height="34" viewBox="0 0 248 34" fill="none" xmlns="http://www.w3.org/2000/svg">
<path fill-rule="evenodd" clip-rule="evenodd" d="M23.4 0V12.95V18.2V32.45H31.05V18.2C32.25 18.2 33.1833 18.3333 33.85 18.6C34.5167 18.8333 35.1 19.2667 35.6 19.9C36.1 20.5 36.7333 21.5 37.5 22.9L42.8 32.45H51.45L45.7 21.85C44.6333 19.8833 43.5333 18.3833 42.4 17.35C41.3 16.3167 39.9167 15.6 38.25 15.2V15.1C39.55 14.6 40.5833 13.9833 41.35 13.25C42.1167 12.4833 43 11.3167 44 9.75L50.2 0H41.55L36.2 8.8C35.2 10.4333 34.35 11.5333 33.65 12.1C32.9833 12.6667 32.1167 12.95 31.05 12.95V0H23.4Z" fill="white"/>
<path fill-rule="evenodd" clip-rule="evenodd" d="M9 17.35C7.9 18.3833 6.81667 19.8833 5.75 21.85L0 32.45H8.65L13.95 22.9C14.7167 21.5 15.35 20.5 15.85 19.9C16.35 19.2667 16.9333 18.8333 17.6 18.6C18.2667 18.3333 19.2 18.2 20.4 18.2V12.95C19.3333 12.95 18.45 12.6667 17.75 12.1C17.0833 11.5333 16.25 10.4333 15.25 8.8L9.9 0H1.25L7.45 9.75C8.45 11.3167 9.33333 12.4833 10.1 13.25C10.8667 13.9833 11.9 14.6 13.2 15.1V15.2C11.5333 15.6 10.1333 16.3167 9 17.35Z" fill="#E93232"/>
<path fill-rule="evenodd" clip-rule="evenodd" d="M66.95 0L55.5 15.9L67.45 32.45H58.45L51 20.95V10.8L57.95 0H66.95Z" fill="white"/>
</svg>
