<svg width="101" height="49" viewBox="0 0 101 49" fill="none" xmlns="http://www.w3.org/2000/svg">
<path fill-rule="evenodd" clip-rule="evenodd" d="M34.9377 0V19.3352V27.1738V48.45H46.3597V27.1738C48.1514 27.1738 49.5449 27.3729 50.5403 27.771C51.5357 28.1194 52.4066 28.7664 53.1531 29.712C53.8997 30.6079 54.8453 32.1009 55.99 34.1912L63.9032 48.45H76.8183L68.2331 32.6235C66.6405 29.6871 64.9981 27.4475 63.306 25.9047C61.6636 24.3619 59.5982 23.2918 57.1098 22.6946V22.5453C59.0508 21.7988 60.5936 20.878 61.7383 19.7831C62.883 18.6384 64.2018 16.8965 65.6949 14.5574L74.9519 0H62.0369L54.049 13.139C52.5559 15.5777 51.2868 17.22 50.2417 18.0661C49.2463 18.9122 47.9523 19.3352 46.3597 19.3352V0H34.9377Z" fill="#0063B0"/>
<path fill-rule="evenodd" clip-rule="evenodd" d="M13.4376 25.9047C11.7952 27.4475 10.1777 29.6871 8.58513 32.6235L0 48.45H12.915L20.8283 34.1912C21.973 32.1009 22.9186 30.6079 23.6651 29.712C24.4116 28.7664 25.2826 28.1194 26.278 27.771C27.2733 27.3729 28.6669 27.1738 30.4586 27.1738V19.3352C28.8659 19.3352 27.5471 18.9122 26.5019 18.0661C25.5065 17.22 24.2623 15.5777 22.7693 13.139L14.7814 0H1.86633L11.1233 14.5574C12.6164 16.8965 13.9353 18.6384 15.08 19.7831C16.2247 20.878 17.7675 21.7988 19.7085 22.5453V22.6946C17.22 23.2918 15.1297 24.3619 13.4376 25.9047Z" fill="#E93232"/>
<path fill-rule="evenodd" clip-rule="evenodd" d="M99.9608 0L82.8652 23.7398L100.707 48.45H87.2697L76.1464 31.2797V16.1251L86.5232 0H99.9608Z" fill="#0063B0"/>
</svg>
