<svg width="23" height="22" viewBox="0 0 23 22" fill="none" xmlns="http://www.w3.org/2000/svg">
<path d="M9.80366 14.1607C10.191 14.548 10.7961 14.548 11.1592 14.1607L11.4981 13.8218C11.8854 13.4345 11.8854 12.8293 11.4981 12.442L7.45565 8.44801C7.06835 8.06071 6.4632 8.06071 6.0759 8.44801L5.73701 8.7869C5.34971 9.1742 5.34971 9.77935 5.73701 10.1667L9.80366 14.1607Z" fill="#1A1717"/>
<path d="M17.9369 6.02736C18.3242 6.41466 18.9293 6.41466 19.3166 6.02736L19.6555 5.68847C20.0428 5.30117 20.0428 4.69602 19.6555 4.30872L15.6131 0.290475C15.2258 -0.0968251 14.6206 -0.0968251 14.2333 0.290475L13.9186 0.629363C13.5313 1.01666 13.5313 1.62182 13.9186 2.00912L17.9369 6.02736Z" fill="#1A1717"/>
<path d="M22.4634 14.7416L15.4194 8.47219L17.2348 6.65672L13.2892 2.68689L8.15747 7.81862L12.1273 11.7884L13.9428 9.97298L20.2122 16.9928C20.8173 17.6706 21.8824 17.719 22.536 17.0654C23.1896 16.4118 23.1412 15.3468 22.4634 14.7416Z" fill="#1A1717"/>
<path d="M12.0547 19.5102H10.8928V19.1471C10.8928 18.6146 10.4571 18.1789 9.92457 18.1789H2.90475C2.37221 18.1789 1.9365 18.6146 1.9365 19.1471V19.5102H0.774601C0.338888 19.5102 0 19.8491 0 20.2848V20.6479C0 21.0836 0.338888 21.4225 0.774601 21.4225H12.0547C12.4904 21.4225 12.8293 21.0836 12.8293 20.6479V20.2848C12.8293 19.8491 12.4662 19.5102 12.0547 19.5102Z" fill="#1A1717"/>
</svg>
