<svg width="24" height="24" viewBox="0 0 24 24" fill="none" xmlns="http://www.w3.org/2000/svg">
<path d="M22.8355 6.81015C22.7747 6.74587 22.7015 6.69465 22.6203 6.65965C22.5391 6.62465 22.4516 6.6066 22.3632 6.6066C22.2747 6.6066 22.1872 6.62465 22.106 6.65965C22.0248 6.69465 21.9516 6.74587 21.8909 6.81015C21.8048 6.91287 21.727 7.02227 21.6582 7.1373C21.4555 6.79172 21.3011 6.53369 21.1537 6.27105C21.1293 6.20606 21.1153 6.13765 21.1122 6.06832C21.0886 5.83266 21.04 5.60019 20.9671 5.37486C20.8259 5.05408 20.6579 4.74581 20.4648 4.45333C19.723 3.26915 18.6632 2.40291 17.5781 1.58044C16.7984 0.977971 15.9177 0.519249 14.9771 0.225785C14.1305 -0.0646555 13.2129 -0.0751557 12.3599 0.195835C12.2478 0.243172 12.1392 0.298611 12.0351 0.361711V0.446953C12.1689 0.493861 12.305 0.533847 12.4429 0.566752C13.3076 0.698885 14.1362 1.0062 14.878 1.46986C15.3918 1.78392 15.789 2.25715 16.0092 2.8176C16.1153 3.05933 16.1567 3.32453 16.1292 3.5871C16.1018 3.84967 16.0064 4.10057 15.8525 4.3151C15.6037 4.65837 15.5254 5.02468 15.818 5.40481L11.4246 10.0908L12.9036 11.5653L17.2487 6.93917C17.3662 7.01519 17.4675 7.08431 17.5735 7.14421C17.7029 7.2267 17.8506 7.27633 18.0035 7.28877C18.1565 7.30122 18.3102 7.27611 18.4513 7.21563C18.54 7.17013 18.6389 7.14815 18.7385 7.15178C18.8381 7.15541 18.9352 7.18453 19.0203 7.23636C19.5202 7.54277 20.011 7.86531 20.5063 8.18093L20.5316 8.28921C20.4546 8.32685 20.3826 8.37407 20.3174 8.42975C20.1886 8.55924 20.1164 8.73442 20.1164 8.91701C20.1164 9.0996 20.1886 9.27478 20.3174 9.40427C20.3779 9.46886 20.4511 9.52034 20.5323 9.55553C20.6135 9.59072 20.7011 9.60888 20.7897 9.60888C20.8782 9.60888 20.9658 9.59072 21.047 9.55553C21.1282 9.52034 21.2014 9.46886 21.2619 9.40427C21.798 8.86825 22.3271 8.32531 22.8493 7.77546C22.9734 7.64457 23.0414 7.47035 23.0388 7.28999C23.0363 7.10963 22.9633 6.93743 22.8355 6.81015Z" fill="#1A1717"/>
<path d="M20.0454 21.974C19.8854 22.1416 19.693 22.2749 19.48 22.3661C19.2669 22.4572 19.0376 22.5041 18.8059 22.5041C18.5742 22.5041 18.3449 22.4572 18.1319 22.3661C17.9189 22.2749 17.7265 22.1416 17.5665 21.974L6.45276 10.517C6.38053 10.5134 6.30852 10.5277 6.24311 10.5585C5.60798 10.7632 4.93689 10.8321 4.27341 10.7607C3.60993 10.6893 2.96888 10.4792 2.39187 10.1439C1.81486 9.80873 1.31479 9.35593 0.924107 8.81494C0.533423 8.27395 0.260864 7.65685 0.124117 7.0037C0.0440433 6.51472 0.00321201 6.02012 0.00201369 5.52463C-0.00705241 5.43194 0.0146606 5.33884 0.0637975 5.25972C0.112934 5.1806 0.18676 5.11987 0.273866 5.0869C0.360113 5.05208 0.455456 5.04675 0.545045 5.07175C0.634634 5.09676 0.71344 5.15068 0.769192 5.22513C1.47417 5.95084 2.18375 6.67425 2.88411 7.40687C2.92692 7.46331 2.98701 7.50422 3.05522 7.52335C3.12343 7.54249 3.19602 7.5388 3.26194 7.51284C3.93466 7.31011 4.60969 7.12119 5.28702 6.94149C5.34628 6.93031 5.40048 6.90067 5.44187 6.8568C5.48325 6.81294 5.50969 6.7571 5.5174 6.69729C5.67867 6.01842 5.84455 5.34186 6.01503 4.66761C6.03462 4.60963 6.03654 4.54714 6.02054 4.48807C6.00454 4.429 5.97135 4.37602 5.92518 4.33585C5.22021 3.61936 4.52214 2.89595 3.81717 2.17946C3.73499 2.11935 3.67354 2.03516 3.64134 1.93857C3.60915 1.84198 3.60779 1.73776 3.63747 1.64036C3.67537 1.5426 3.74444 1.46006 3.83397 1.4055C3.92351 1.35095 4.02854 1.32742 4.13279 1.33856C7.48027 1.122 10.003 4.47869 8.97085 7.77548C8.94648 7.8385 8.93778 7.90649 8.94551 7.97361L20.0454 19.4145C20.3769 19.758 20.5622 20.2168 20.5622 20.6942C20.5622 21.1717 20.3769 21.6305 20.0454 21.974Z" fill="#1A1717"/>
<path d="M7.93196 13.0743L0.89374 19.525C0.751548 19.6535 0.636347 19.809 0.554847 19.9825C0.473347 20.1559 0.427179 20.3439 0.419031 20.5353C0.410883 20.7268 0.440918 20.918 0.507388 21.0977C0.573858 21.2775 0.675432 21.4422 0.806194 21.5823C1.14255 21.9463 1.49735 22.2965 1.84062 22.6467C2.13443 22.9166 2.5233 23.059 2.92194 23.0426C3.32058 23.0262 3.69643 22.8523 3.96706 22.5592C6.04051 20.1148 8.15774 17.7027 10.2565 15.279L10.3971 15.1201L8.24989 12.7817L7.93196 13.0743Z" fill="#1A1717"/>
</svg>
