<svg width="18" height="17" viewBox="0 0 18 17" fill="none" xmlns="http://www.w3.org/2000/svg">
<path fill-rule="evenodd" clip-rule="evenodd" d="M16.9714 13.5H6.6857L3.0857 17V13.5H1.02856C0.755677 13.4999 0.494012 13.3944 0.301121 13.2069C0.10823 13.0194 -8.58938e-05 12.765 5.11065e-08 12.4999V1.00006C-8.58938e-05 0.734922 0.10823 0.480602 0.301121 0.293055C0.494012 0.105508 0.755677 9.27559e-05 1.02856 0H16.9714C17.2443 9.27559e-05 17.506 0.105508 17.6989 0.293055C17.8918 0.480602 18.0001 0.734922 18 1.00006V12.4999C18.0001 12.765 17.8918 13.0194 17.6989 13.2069C17.506 13.3944 17.2443 13.4999 16.9714 13.5Z" fill="#1A1717"/>
</svg>
