<svg width="24" height="24" viewBox="0 0 24 24" fill="none" xmlns="http://www.w3.org/2000/svg">
<path d="M23.4019 11.7016L20.4309 6.71733C20.7755 6.55893 21.016 6.21147 21.016 5.80827C21.016 5.25653 20.5672 4.808 20.0155 4.808C19.9699 4.808 19.9251 4.812 19.8811 4.81813C18.2312 3.24747 16.2195 2.2736 14.1192 1.89787C14.0701 0.841867 13.2008 0 12.1328 0C11.0661 0 10.1979 0.839467 10.1464 1.89333C8.0168 2.2696 5.97627 3.25973 4.31093 4.86347C4.20853 4.82827 4.09893 4.808 3.9848 4.808C3.43307 4.808 2.98427 5.25653 2.98427 5.80827C2.98427 6.21147 3.2248 6.5592 3.56933 6.71733L0.598133 11.7016H0C0.298133 13.6339 1.96827 15.1133 3.98453 15.1133C6.00053 15.1133 7.67067 13.6339 7.96907 11.7016H7.37093L4.4 6.71733C4.74453 6.55893 4.9848 6.21147 4.9848 5.80827C4.9848 5.59333 4.91627 5.39493 4.8008 5.232C6.35253 3.76507 8.23867 2.85253 10.2083 2.49627C10.3771 3.14107 10.86 3.6576 11.4848 3.87253V19.2715C11.4835 19.2715 11.4813 19.2715 11.48 19.2715C11.1211 19.2715 9.57467 19.9429 8.04373 20.7637C6.51253 21.5843 5.26 22.5579 5.26 22.9272C5.26 23.2963 6.80613 23.5984 8.69627 23.5984C10.5861 23.5984 13.6787 23.5984 15.5685 23.5984C17.4584 23.5984 19.0045 23.2963 19.0045 22.9272C19.0045 22.5579 17.752 21.5843 16.2208 20.7637C14.6899 19.9432 13.1437 19.2715 12.7845 19.2715C12.7829 19.2715 12.7811 19.2715 12.7797 19.2715V3.87227C13.4032 3.6576 13.8853 3.1432 14.0552 2.5C15.9592 2.84907 17.7856 3.71653 19.3045 5.10453C19.1253 5.2856 19.0147 5.53387 19.0147 5.808C19.0147 6.2112 19.2552 6.55867 19.5997 6.71707L16.6288 11.7016H16.0307C16.3291 13.6339 17.9995 15.1133 20.0155 15.1133C22.0315 15.1133 23.7019 13.6339 24 11.7016H23.4019ZM3.98453 5.41253C4.2024 5.41253 4.38 5.58987 4.38 5.808C4.38 6.02587 4.20267 6.20347 3.98453 6.20347C3.7664 6.20347 3.58907 6.02613 3.58907 5.808C3.58907 5.59013 3.7664 5.41253 3.98453 5.41253ZM6.66667 11.7016H1.3024L3.98453 7.20187L6.66667 11.7016ZM20.0155 5.41253C20.2336 5.41253 20.4109 5.58987 20.4109 5.808C20.4109 6.02587 20.2336 6.20347 20.0155 6.20347C19.7976 6.20347 19.6203 6.02613 19.6203 5.808C19.62 5.59013 19.7973 5.41253 20.0155 5.41253ZM17.3333 11.7016L20.0155 7.20187L22.6976 11.7016H17.3333Z" fill="#1A1717"/>
</svg>
