<svg width="37" height="35" viewBox="0 0 37 35" fill="none" xmlns="http://www.w3.org/2000/svg">
<path d="M3.99322 22.635C4.05013 22.635 4.05013 22.635 4.10703 22.635H12.3018C12.814 22.635 13.1555 23.0333 13.1555 23.4886V31.1712C13.1555 34.6426 16.7976 34.8134 18.5618 34.6995C19.0739 34.6426 19.4154 34.2443 19.3585 33.7321C18.8463 23.7731 23.8543 20.5863 26.472 19.6188C27.3826 19.2774 27.9517 18.4237 27.9517 17.4563V4.99335C27.9517 0.440674 23.399 0.440674 23.399 0.440674H7.46463C5.18829 0.440674 2.91195 2.14793 3.31031 3.74137C3.42413 4.19663 3.31032 4.6519 3.13959 5.05026L2.45669 6.30224C2.17215 6.87133 2.11524 7.49732 2.45669 8.0664C2.74123 8.63549 2.74123 9.31839 2.39978 9.88747L1.48925 11.3671C1.2047 11.7655 1.14779 12.2776 1.26161 12.7329L1.60306 14.2694C1.77379 14.8954 1.54616 15.5214 1.1478 15.9767L0.578712 16.5458C0.29417 16.8303 0.123444 17.2287 0.0665359 17.627C-0.559456 21.8382 3.42413 22.5211 3.99322 22.635Z" fill="#E93232"/>
<path d="M31.0815 20.3586H35.0082C36.1464 20.3586 37 19.4481 37 18.3668V2.4894C37 1.35123 36.0895 0.497602 35.0082 0.497602H31.0815C29.9434 0.497602 29.0897 1.40814 29.0897 2.4894V18.3668C29.0897 19.4481 30.0003 20.3586 31.0815 20.3586Z" fill="#E93232"/>
</svg>
