<svg width="14" height="14" viewBox="0 0 14 14" fill="none" xmlns="http://www.w3.org/2000/svg">
<path fill-rule="evenodd" clip-rule="evenodd" d="M13.6163 13.6163C13.4946 13.7379 13.3502 13.8344 13.1913 13.9003C13.0323 13.9661 12.8619 14 12.6899 14C12.5178 14 12.3475 13.9661 12.1885 13.9003C12.0295 13.8344 11.8851 13.7379 11.7635 13.6163L9.45369 11.3063C8.4651 11.9421 7.31414 12.2792 6.13876 12.2774C2.74836 12.2774 0 9.529 0 6.13869C0 2.74838 2.74836 0 6.13876 0C9.52916 0 12.2775 2.74838 12.2775 6.13869C12.2794 7.31406 11.9422 8.46501 11.3063 9.45351L13.6163 11.7635C13.862 12.0092 14 12.3424 14 12.6899C14 13.0373 13.862 13.3705 13.6163 13.6163ZM6.13876 1.75001C5.27075 1.75001 4.42224 2.0074 3.70051 2.48963C2.97879 2.97187 2.41627 3.65729 2.0841 4.45922C1.75192 5.26114 1.66501 6.14356 1.83435 6.99488C2.0037 7.84621 2.42168 8.62819 3.03545 9.24196C3.64923 9.85573 4.43123 10.2737 5.28256 10.4431C6.13389 10.6124 7.01632 10.5255 7.81826 10.1933C8.6202 9.86114 9.30562 9.29863 9.78787 8.57692C10.2701 7.8552 10.5275 7.00669 10.5275 6.13869C10.5275 4.97474 10.0651 3.85846 9.24207 3.03542C8.41902 2.21238 7.30273 1.75001 6.13876 1.75001Z" fill="#D1D1D1"/>
</svg>
