<svg width="283" height="9" viewBox="0 0 283 9" fill="none" xmlns="http://www.w3.org/2000/svg">
<line x1="4" y1="4.5" x2="281" y2="4.5" stroke="#0063B0" stroke-dasharray="5 3"/>
<path d="M282.017 4.80546C282.213 4.6102 282.213 4.29361 282.017 4.09835L278.835 0.91637C278.64 0.721108 278.324 0.721108 278.128 0.91637C277.933 1.11163 277.933 1.42822 278.128 1.62348L280.957 4.4519L278.128 7.28033C277.933 7.47559 277.933 7.79218 278.128 7.98744C278.324 8.1827 278.64 8.1827 278.835 7.98744L282.017 4.80546ZM281.164 4.9519H281.664V3.9519H281.164V4.9519Z" fill="#0063B0"/>
<path d="M4.85355 4.80546C5.04882 4.6102 5.04882 4.29361 4.85355 4.09835L1.67157 0.91637C1.47631 0.721108 1.15973 0.721108 0.964466 0.91637C0.769204 1.11163 0.769204 1.42822 0.964466 1.62348L3.79289 4.4519L0.964466 7.28033C0.769204 7.47559 0.769204 7.79218 0.964466 7.98744C1.15973 8.1827 1.47631 8.1827 1.67157 7.98744L4.85355 4.80546ZM4 4.9519H4.5V3.9519H4V4.9519Z" fill="#0063B0"/>
<path d="M141.608 4.80546C141.804 4.6102 141.804 4.29361 141.608 4.09835L138.426 0.91637C138.231 0.721108 137.914 0.721108 137.719 0.91637C137.524 1.11163 137.524 1.42822 137.719 1.62348L140.548 4.4519L137.719 7.28033C137.524 7.47559 137.524 7.79218 137.719 7.98744C137.914 8.1827 138.231 8.1827 138.426 7.98744L141.608 4.80546ZM140.755 4.9519H141.255V3.9519H140.755V4.9519Z" fill="#0063B0"/>
</svg>
