<svg width="17" height="16" viewBox="0 0 17 16" fill="none" xmlns="http://www.w3.org/2000/svg">
<path d="M10.25 5.78125C11.1667 6.71875 11.625 7.84375 11.625 9.15625C11.625 10.4688 11.1667 11.5833 10.25 12.5L8.125 14.625C7.20833 15.5417 6.09375 16 4.78125 16C3.46875 16 2.34375 15.5312 1.40625 14.5938C0.489583 13.6771 0.03125 12.5625 0.03125 11.25C0.03125 9.9375 0.489583 8.82292 1.40625 7.90625L2.59375 6.71875C2.73958 6.57292 2.90625 6.54167 3.09375 6.625C3.30208 6.70833 3.41667 6.85417 3.4375 7.0625C3.45833 7.625 3.5625 8.17708 3.75 8.71875C3.8125 8.90625 3.77083 9.07292 3.625 9.21875L3.21875 9.65625C2.78125 10.0938 2.55208 10.625 2.53125 11.25C2.53125 11.8542 2.75 12.375 3.1875 12.8125C3.625 13.2708 4.15625 13.5 4.78125 13.5C5.40625 13.5 5.9375 13.2812 6.375 12.8438L8.46875 10.75C8.90625 10.3125 9.125 9.78125 9.125 9.15625C9.125 8.53125 8.90625 8 8.46875 7.5625C8.36458 7.45833 8.26042 7.36458 8.15625 7.28125C8.01042 7.19792 7.9375 7.07292 7.9375 6.90625C7.91667 6.53125 8.03125 6.21875 8.28125 5.96875L8.96875 5.3125C9.15625 5.10417 9.36458 5.08333 9.59375 5.25C9.82292 5.41667 10.0417 5.59375 10.25 5.78125ZM11.2812 0C12.5938 0 13.7083 0.46875 14.625 1.40625C15.5625 2.32292 16.0312 3.4375 16.0312 4.75C16.0312 6.0625 15.5729 7.17708 14.6562 8.09375L13.4688 9.28125C13.3229 9.42708 13.1458 9.45833 12.9375 9.375C12.75 9.29167 12.6458 9.14583 12.625 8.9375C12.6042 8.375 12.5 7.82292 12.3125 7.28125C12.25 7.09375 12.2917 6.92708 12.4375 6.78125L12.8438 6.34375C13.2812 5.90625 13.5 5.38542 13.5 4.78125C13.5208 4.15625 13.3125 3.625 12.875 3.1875C12.4375 2.72917 11.9062 2.5 11.2812 2.5C10.6562 2.5 10.125 2.71875 9.6875 3.15625L7.59375 5.25C7.15625 5.6875 6.9375 6.21875 6.9375 6.84375C6.9375 7.46875 7.15625 8 7.59375 8.4375C7.69792 8.54167 7.80208 8.63542 7.90625 8.71875C8.05208 8.80208 8.125 8.92708 8.125 9.09375C8.14583 9.46875 8.03125 9.78125 7.78125 10.0312L7.09375 10.6875C6.90625 10.8958 6.69792 10.9167 6.46875 10.75C6.23958 10.5833 6.02083 10.4062 5.8125 10.2188C4.89583 9.28125 4.4375 8.15625 4.4375 6.84375C4.4375 5.53125 4.89583 4.41667 5.8125 3.5L7.9375 1.375C8.85417 0.458333 9.96875 0 11.2812 0Z" fill="#0069BA"/>
</svg>
