<svg width="17" height="16" viewBox="0 0 17 16" fill="none" xmlns="http://www.w3.org/2000/svg">
<path d="M13.9379 0.125C14.5212 -0.125 15.0525 0 15.5316 0.5C16.0316 0.979167 16.1566 1.51042 15.9066 2.09375L9.93793 15.0938C9.77126 15.4479 9.52126 15.6979 9.18793 15.8438C8.8546 15.9896 8.53168 16.0312 8.21918 15.9688C7.90668 15.9062 7.62543 15.7396 7.37543 15.4688C7.14626 15.1979 7.03168 14.875 7.03168 14.5V9H1.53168C1.01085 9 0.604601 8.8125 0.312934 8.4375C0.0421007 8.04167 -0.0412327 7.61458 0.062934 7.15625C0.167101 6.67708 0.458767 6.32292 0.937934 6.09375L13.9379 0.125Z" fill="#0069BA"/>
</svg>
