<svg width="7" height="10" viewBox="0 0 7 10" fill="none" xmlns="http://www.w3.org/2000/svg">
<path d="M6.125 5.21484L2.40625 8.93359C2.27865 9.0612 2.1237 9.125 1.94141 9.125C1.75911 9.125 1.60417 9.0612 1.47656 8.93359L0.875 8.30469C0.747396 8.17708 0.683594 8.02214 0.683594 7.83984C0.683594 7.65755 0.747396 7.5026 0.875 7.375L3.5 4.75L0.875 2.125C0.747396 1.9974 0.683594 1.84245 0.683594 1.66016C0.683594 1.47786 0.747396 1.32292 0.875 1.19531L1.47656 0.566406C1.60417 0.438802 1.75911 0.375 1.94141 0.375C2.1237 0.375 2.27865 0.438802 2.40625 0.566406L6.125 4.28516C6.2526 4.41276 6.31641 4.56771 6.31641 4.75C6.31641 4.93229 6.2526 5.08724 6.125 5.21484Z" fill="#0173C1"/>
</svg>
