<svg width="15" height="15" viewBox="0 0 15 15" fill="none" xmlns="http://www.w3.org/2000/svg">
<path d="M12.627 2.24805C14.0527 3.6543 14.7656 5.36328 14.7656 7.375C14.7656 9.38672 14.0527 11.1055 12.627 12.5312C11.2207 13.9375 9.51172 14.6406 7.5 14.6406C5.48828 14.6406 3.76953 13.9375 2.34375 12.5312C0.9375 11.1055 0.234375 9.38672 0.234375 7.375C0.234375 5.36328 0.9375 3.6543 2.34375 2.24805C3.76953 0.822266 5.48828 0.109375 7.5 0.109375C9.51172 0.109375 11.2207 0.822266 12.627 2.24805ZM8.4375 9.25C8.18359 8.97656 7.87109 8.83984 7.5 8.83984C7.12891 8.83984 6.80664 8.97656 6.5332 9.25C6.2793 9.50391 6.15234 9.81641 6.15234 10.1875C6.15234 10.5586 6.2793 10.8809 6.5332 11.1543C6.80664 11.4082 7.12891 11.5352 7.5 11.5352C7.87109 11.5352 8.18359 11.4082 8.4375 11.1543C8.71094 10.8809 8.84766 10.5586 8.84766 10.1875C8.84766 9.81641 8.71094 9.50391 8.4375 9.25ZM6.21094 4.00586L6.44531 7.99023C6.44531 8.20508 6.5625 8.3125 6.79688 8.3125H8.20312C8.4375 8.3125 8.55469 8.20508 8.55469 7.99023L8.78906 4.00586C8.78906 3.88867 8.75 3.80078 8.67188 3.74219C8.61328 3.66406 8.53516 3.625 8.4375 3.625H6.5625C6.46484 3.625 6.37695 3.66406 6.29883 3.74219C6.24023 3.80078 6.21094 3.88867 6.21094 4.00586Z" fill="#8B8B8B"/>
</svg>
