<svg width="62" height="52" viewBox="0 0 62 52" fill="none" xmlns="http://www.w3.org/2000/svg">
<path d="M3.01033 38.7718C3.47295 39.0031 3.97104 39.1629 4.48475 39.2523L3.68439 40.3952C3.52262 40.6265 3.41713 40.8918 3.37551 41.1705L2.18396 49.2062C2.08321 49.8869 2.37506 50.5661 2.93891 50.9606C3.50322 51.3556 4.24114 51.3972 4.84566 51.0699L11.5754 47.4257C12.5049 49.105 14.2948 50.2449 16.3463 50.2449C17.7408 50.2449 19.0146 49.7185 19.9791 48.8543C20.9441 49.7185 22.2179 50.2449 23.6119 50.2449C26.6171 50.2449 29.0616 47.8004 29.0616 44.7957V44.1004C32.4404 45.7446 36.2029 46.6121 39.9601 46.6121C43.8413 46.6121 47.6903 45.7219 51.1012 44.0393V48.4285C51.1012 49.0581 51.4272 49.6428 51.9626 49.9739C52.4971 50.3041 53.166 50.3353 53.7298 50.0534L60.9959 46.4205C61.6114 46.1126 62.0002 45.484 62.0002 44.7957V22.9983C62.0002 21.995 61.1866 21.1819 60.1838 21.1819C57.2903 21.1819 50.2706 21.1819 47.6467 21.1819L34.833 14.912L39.7014 7.95946C40.2761 7.13829 40.0769 6.00493 39.2548 5.42973L33.3032 1.26192C32.4821 0.687196 31.3487 0.886339 30.7735 1.70798C30.0044 2.80634 25.0963 9.81608 24.3323 10.9069C22.8423 10.124 21.0557 10.1278 19.9223 10.6197L13.0105 13.6225C12.0087 14.0582 11.169 14.7753 10.5834 15.6972L0.665081 31.2975C0.0208229 32.3112 -0.245962 34.0505 0.277202 35.6205C0.737454 37.0012 1.7081 38.1204 3.01033 38.7718ZM6.31062 46.1457L6.90663 42.1279L8.53099 39.8077C9.22728 40.8242 10.1748 41.6544 11.2835 42.2106L9.88242 44.2115L6.31062 46.1457ZM16.3463 46.6126C15.3449 46.6126 14.5299 45.7976 14.5299 44.7957V43.9078L15.1803 42.9793H18.1627V44.7957C18.1627 45.7976 17.3482 46.6126 16.3463 46.6126ZM23.6124 46.6126C22.6105 46.6126 21.796 45.7976 21.796 44.7957V42.9793H25.4288V44.7957C25.4288 45.7976 24.6138 46.6126 23.6124 46.6126ZM58.3674 43.6732L54.7341 45.4896V24.8147H58.3674V43.6732ZM46.4278 24.6298C46.6766 24.7513 46.9495 24.8147 47.2262 24.8147H51.1012V40.0158C49.877 40.4917 46.0758 42.9793 39.9606 42.9793C33.4778 42.9793 29.485 40.108 28.0574 39.5381C27.7982 39.4084 27.5125 39.3465 27.2452 39.3465H14.5299C12.6723 39.3465 11.1369 37.9449 10.9235 36.1436C10.9803 35.8802 10.9751 35.6096 10.915 35.3508C11.0976 33.5174 12.6491 32.0808 14.5299 32.0808H25.7405C29.5384 32.0808 33.1098 30.6017 35.7956 27.9159C36.5047 27.2063 36.5047 26.0564 35.7956 25.3469C35.0861 24.6373 33.9361 24.6373 33.2266 25.3469C31.2267 27.3463 28.5683 28.448 25.7405 28.448H25.3555L32.7233 17.9251L46.4278 24.6298ZM28.5399 11.2318L31.5157 13.316L20.9204 28.448H16.4854C18.0298 26.2423 27.1232 13.2554 28.5399 11.2318ZM32.7072 5.28026L35.6835 7.36393L33.5994 10.3402L30.6236 8.25605L32.7072 5.28026ZM3.7894 33.1546L13.6491 17.6465C13.8445 17.339 14.1245 17.1002 14.4585 16.955L21.2837 13.9896C21.5869 13.9006 21.8996 13.8945 22.1948 13.9602L11.6246 29.0558C9.39048 30.0345 7.73962 32.1045 7.35174 34.5888C7.01968 35.5216 5.57649 35.9927 4.63517 35.5221C3.7492 35.0793 3.39727 34.0278 3.7894 33.1546Z" fill="#D3D3D3"/>
</svg>
