<svg width="15" height="15" viewBox="0 0 15 15" fill="none" xmlns="http://www.w3.org/2000/svg">
<path d="M12.627 2.24805C14.0527 3.6543 14.7656 5.36328 14.7656 7.375C14.7656 9.38672 14.0527 11.1055 12.627 12.5312C11.2207 13.9375 9.51172 14.6406 7.5 14.6406C5.48828 14.6406 3.76953 13.9375 2.34375 12.5312C0.9375 11.1055 0.234375 9.38672 0.234375 7.375C0.234375 5.36328 0.9375 3.6543 2.34375 2.24805C3.76953 0.822266 5.48828 0.109375 7.5 0.109375C9.51172 0.109375 11.2207 0.822266 12.627 2.24805ZM6.65039 11.2129L12.041 5.82227C12.2754 5.60742 12.2754 5.39258 12.041 5.17773L11.3965 4.50391C11.1621 4.28906 10.9375 4.28906 10.7227 4.50391L6.32812 8.89844L4.27734 6.84766C4.0625 6.63281 3.83789 6.63281 3.60352 6.84766L2.95898 7.52148C2.72461 7.73633 2.72461 7.95117 2.95898 8.16602L6.00586 11.2129C6.2207 11.4473 6.43555 11.4473 6.65039 11.2129Z" fill="#C22353"/>
</svg>
