<svg width="10" height="9" viewBox="0 0 10 9" fill="none" xmlns="http://www.w3.org/2000/svg">
<path d="M5.25 4.89844L2.0625 8.08594C1.95312 8.19531 1.82031 8.25 1.66406 8.25C1.50781 8.25 1.375 8.19531 1.26562 8.08594L0.75 7.54688C0.640625 7.4375 0.585938 7.30469 0.585938 7.14844C0.585938 6.99219 0.640625 6.85938 0.75 6.75L3 4.5L0.75 2.25C0.640625 2.14062 0.585938 2.00781 0.585938 1.85156C0.585938 1.69531 0.640625 1.5625 0.75 1.45312L1.26562 0.914062C1.375 0.804688 1.50781 0.75 1.66406 0.75C1.82031 0.75 1.95312 0.804688 2.0625 0.914062L5.25 4.10156C5.35938 4.21094 5.41406 4.34375 5.41406 4.5C5.41406 4.65625 5.35938 4.78906 5.25 4.89844ZM9.75 4.10156C9.85938 4.21094 9.91406 4.34375 9.91406 4.5C9.91406 4.65625 9.85938 4.78906 9.75 4.89844L6.5625 8.08594C6.45312 8.19531 6.32031 8.25 6.16406 8.25C6.00781 8.25 5.875 8.19531 5.76562 8.08594L5.25 7.54688C5.14062 7.4375 5.08594 7.30469 5.08594 7.14844C5.08594 6.99219 5.14062 6.85938 5.25 6.75L7.5 4.5L5.25 2.25C5.14062 2.14062 5.08594 2.00781 5.08594 1.85156C5.08594 1.69531 5.14062 1.5625 5.25 1.45312L5.76562 0.914062C5.82812 0.867188 5.89062 0.828125 5.95312 0.796875C6.03125 0.765625 6.10156 0.75 6.16406 0.75C6.24219 0.75 6.3125 0.765625 6.375 0.796875C6.45312 0.828125 6.51562 0.867188 6.5625 0.914062L9.75 4.10156Z" fill="#0173C1"/>
</svg>
