<svg width="14" height="14" viewBox="0 0 14 14" fill="none" xmlns="http://www.w3.org/2000/svg">
<path d="M11.7188 0.8125C12.1094 0.8125 12.4414 0.949219 12.7148 1.22266C12.9883 1.49609 13.125 1.82813 13.125 2.21875V12.5312C13.125 12.9219 12.9883 13.2539 12.7148 13.5273C12.4414 13.8008 12.1094 13.9375 11.7188 13.9375H7.70508V9.48438H9.4043L9.72656 7.375H7.70508V5.99805C7.70508 5.25586 8.0957 4.88477 8.87695 4.88477H9.78516V3.09766C9.23828 3 8.70117 2.95117 8.17383 2.95117C7.60742 2.95117 7.11914 3.05859 6.70898 3.27344C6.31836 3.48828 6.00586 3.81055 5.77148 4.24023C5.53711 4.66992 5.41992 5.17773 5.41992 5.76367V7.375H3.57422V9.48438H5.41992V13.9375H1.40625C1.01562 13.9375 0.683594 13.8008 0.410156 13.5273C0.136719 13.2539 0 12.9219 0 12.5312V2.21875C0 1.82813 0.136719 1.49609 0.410156 1.22266C0.683594 0.949219 1.01562 0.8125 1.40625 0.8125H11.7188Z" fill="#8B8B8B"/>
</svg>
