<svg width="14" height="14" viewBox="0 0 14 14" fill="none" xmlns="http://www.w3.org/2000/svg">
<path d="M4.1914 5.00195C4.85547 4.33789 5.65625 4.00586 6.59375 4.00586C7.53125 4.00586 8.32226 4.33789 8.96679 5.00195C9.63086 5.64648 9.96289 6.4375 9.96289 7.375C9.96289 8.3125 9.63086 9.11328 8.96679 9.77734C8.32226 10.4219 7.53125 10.7441 6.59375 10.7441C5.65625 10.7441 4.85547 10.4219 4.1914 9.77734C3.54687 9.11328 3.22461 8.3125 3.22461 7.375C3.22461 6.4375 3.54687 5.64648 4.1914 5.00195ZM5.04101 8.92773C5.4707 9.35742 5.98828 9.57227 6.59375 9.57227C7.19922 9.57227 7.71679 9.35742 8.14648 8.92773C8.57617 8.49805 8.79101 7.98047 8.79101 7.375C8.79101 6.76953 8.57617 6.25195 8.14648 5.82227C7.71679 5.39258 7.19922 5.17773 6.59375 5.17773C5.98828 5.17773 5.4707 5.39258 5.04101 5.82227C4.61133 6.25195 4.39648 6.76953 4.39648 7.375C4.39648 7.98047 4.61133 8.49805 5.04101 8.92773ZM10.6368 3.33203C10.793 3.46875 10.8711 3.64453 10.8711 3.85938C10.8711 4.07422 10.793 4.25977 10.6368 4.41602C10.5 4.57227 10.3243 4.65039 10.1094 4.65039C9.89453 4.65039 9.70898 4.57227 9.55273 4.41602C9.39648 4.25977 9.31836 4.07422 9.31836 3.85938C9.31836 3.64453 9.39648 3.46875 9.55273 3.33203C9.70898 3.17578 9.89453 3.09766 10.1094 3.09766C10.3243 3.09766 10.5 3.17578 10.6368 3.33203ZM13.127 4.67969C13.1465 5.20703 13.1563 6.10547 13.1563 7.375C13.1563 8.64453 13.1465 9.54297 13.127 10.0703C13.0684 11.2617 12.7071 12.1895 12.043 12.8535C11.3985 13.498 10.4805 13.8398 9.28906 13.8789C8.76172 13.918 7.86328 13.9375 6.59375 13.9375C5.32422 13.9375 4.42578 13.918 3.89843 13.8789C2.70703 13.8203 1.78906 13.4688 1.14453 12.8242C0.890625 12.5898 0.685547 12.3164 0.529297 12.0039C0.373047 11.6914 0.255859 11.3887 0.177734 11.0957C0.119141 10.8027 0.0898437 10.4609 0.0898437 10.0703C0.0507812 9.54297 0.03125 8.64453 0.03125 7.375C0.03125 6.10547 0.0507812 5.19727 0.0898437 4.65039C0.148437 3.47852 0.5 2.57031 1.14453 1.92578C1.78906 1.26172 2.70703 0.900391 3.89843 0.841797C4.42578 0.822266 5.32422 0.8125 6.59375 0.8125C7.86328 0.8125 8.76172 0.822266 9.28906 0.841797C10.4805 0.900391 11.3985 1.26172 12.043 1.92578C12.7071 2.57031 13.0684 3.48828 13.127 4.67969ZM11.7208 11.2422C11.7793 11.0859 11.8282 10.8906 11.8672 10.6562C11.9063 10.4023 11.9356 10.1094 11.9551 9.77734C11.9747 9.42578 11.9844 9.14258 11.9844 8.92773C11.9844 8.71289 11.9844 8.41016 11.9844 8.01953C11.9844 7.62891 11.9844 7.41406 11.9844 7.375C11.9844 7.31641 11.9844 7.10156 11.9844 6.73047C11.9844 6.33984 11.9844 6.03711 11.9844 5.82227C11.9844 5.60742 11.9747 5.33398 11.9551 5.00195C11.9356 4.65039 11.9063 4.35742 11.8672 4.12305C11.8282 3.86914 11.7793 3.66406 11.7208 3.50781C11.4864 2.90234 11.0665 2.48242 10.461 2.24805C10.3047 2.18945 10.0997 2.14062 9.8457 2.10156C9.61133 2.0625 9.31836 2.0332 8.96679 2.01367C8.63476 1.99414 8.36133 1.98438 8.14648 1.98438C7.95117 1.98438 7.64843 1.98438 7.23828 1.98438C6.84765 1.98438 6.63281 1.98438 6.59375 1.98438C6.55468 1.98438 6.33984 1.98438 5.94922 1.98438C5.55859 1.98438 5.25586 1.98438 5.04101 1.98438C4.82617 1.98438 4.54297 1.99414 4.1914 2.01367C3.85937 2.0332 3.5664 2.0625 3.3125 2.10156C3.07812 2.14062 2.88281 2.18945 2.72656 2.24805C2.12109 2.48242 1.70117 2.90234 1.46679 3.50781C1.4082 3.66406 1.35937 3.86914 1.32031 4.12305C1.28125 4.35742 1.25195 4.65039 1.23242 5.00195C1.21289 5.33398 1.20312 5.60742 1.20312 5.82227C1.20312 6.01758 1.20312 6.32031 1.20312 6.73047C1.20312 7.12109 1.20312 7.33594 1.20312 7.375C1.20312 7.45312 1.20312 7.63867 1.20312 7.93164C1.20312 8.20508 1.20312 8.43945 1.20312 8.63477C1.20312 8.81055 1.20312 9.04492 1.20312 9.33789C1.22265 9.63086 1.24218 9.88477 1.26172 10.0996C1.28125 10.2949 1.31054 10.5 1.34961 10.7148C1.38867 10.9297 1.42773 11.1055 1.46679 11.2422C1.7207 11.8477 2.14062 12.2676 2.72656 12.502C2.88281 12.5605 3.07812 12.6094 3.3125 12.6484C3.5664 12.6875 3.85937 12.7168 4.1914 12.7363C4.54297 12.7559 4.8164 12.7656 5.01172 12.7656C5.22656 12.7656 5.52929 12.7656 5.91992 12.7656C6.33007 12.7656 6.55468 12.7656 6.59375 12.7656C6.65234 12.7656 6.86718 12.7656 7.23828 12.7656C7.6289 12.7656 7.93164 12.7656 8.14648 12.7656C8.36133 12.7656 8.63476 12.7559 8.96679 12.7363C9.31836 12.7168 9.61133 12.6875 9.8457 12.6484C10.0997 12.6094 10.3047 12.5605 10.461 12.502C11.0665 12.248 11.4864 11.8281 11.7208 11.2422Z" fill="#8B8B8B"/>
</svg>
