<svg width="17" height="19" viewBox="0 0 17 19" fill="none" xmlns="http://www.w3.org/2000/svg">
<path d="M16.3828 10.3398C16.5469 11.1133 16.4414 11.8516 16.0664 12.5547C16.1836 13.3984 15.9844 14.1836 15.4688 14.9102C15.4453 15.5664 15.293 16.1406 15.0117 16.6328C14.7539 17.125 14.3203 17.5117 13.7109 17.793C13.125 18.0977 12.3867 18.25 11.4961 18.25C11.4258 18.25 11.2969 18.25 11.1094 18.25C10.9219 18.25 10.793 18.25 10.7227 18.25C9.66797 18.25 8.73047 18.1328 7.91016 17.8984C7.11328 17.6641 6.43359 17.4297 5.87109 17.1953C5.33203 16.9609 4.86328 16.8438 4.46484 16.8438C4.39453 17.0781 4.25391 17.2773 4.04297 17.4414C3.85547 17.6055 3.63281 17.6875 3.375 17.6875H1.125C0.820312 17.6875 0.550781 17.5703 0.316406 17.3359C0.105469 17.125 0 16.8672 0 16.5625V8.125C0 7.82031 0.105469 7.5625 0.316406 7.35156C0.550781 7.11719 0.820312 7 1.125 7H4.60547C4.79297 6.83594 5.02734 6.56641 5.30859 6.19141C5.58984 5.81641 5.88281 5.42969 6.1875 5.03125C6.51562 4.60938 6.79688 4.29297 7.03125 4.08203C7.10156 3.98828 7.20703 3.60156 7.34766 2.92188C7.48828 2.24219 7.72266 1.63281 8.05078 1.09375C8.40234 0.53125 8.89453 0.25 9.52734 0.25C10.582 0.25 11.4023 0.554688 11.9883 1.16406C12.5977 1.77344 12.9023 2.69922 12.9023 3.94141C12.9023 4.48047 12.7969 5.01953 12.5859 5.55859H13.8516C14.4141 5.55859 14.9297 5.71094 15.3984 6.01562C15.8672 6.29688 16.2305 6.67188 16.4883 7.14062C16.7461 7.58594 16.875 8.06641 16.875 8.58203C16.875 9.19141 16.7109 9.77734 16.3828 10.3398ZM14.2383 12.2383C14.5898 11.8867 14.7656 11.4766 14.7656 11.0078C14.7891 10.5156 14.6719 10.1523 14.4141 9.91797C14.5781 9.91797 14.7422 9.77734 14.9062 9.49609C15.0938 9.21484 15.1875 8.91016 15.1875 8.58203C15.1875 8.25391 15.0586 7.94922 14.8008 7.66797C14.543 7.38672 14.2266 7.24609 13.8516 7.24609H10.1953C10.1953 6.82422 10.3594 6.28516 10.6875 5.62891C11.0391 4.94922 11.2148 4.38672 11.2148 3.94141C11.2148 3.70703 11.2031 3.53125 11.1797 3.41406C11.1797 3.27344 11.1445 3.09766 11.0742 2.88672C11.0273 2.67578 10.9453 2.51172 10.8281 2.39453C10.7344 2.27734 10.5703 2.17188 10.3359 2.07812C10.125 1.98438 9.85547 1.9375 9.52734 1.9375C9.33984 2.125 9.16406 2.64062 9 3.48438C8.83594 4.30469 8.56641 4.90234 8.19141 5.27734C8.02734 5.44141 7.78125 5.74609 7.45312 6.19141C7.125 6.61328 6.83203 7 6.57422 7.35156C6.31641 7.67969 6.02344 7.98438 5.69531 8.26562C5.39062 8.54688 5.12109 8.6875 4.88672 8.6875H4.5V15.2266C5.08594 15.2266 6.01172 15.4492 7.27734 15.8945C8.56641 16.3398 9.65625 16.5625 10.5469 16.5625H11.8477C13.3477 16.5625 13.9805 15.7891 13.7461 14.2422C14.0273 14.0781 14.2266 13.7969 14.3438 13.3984C14.4609 13 14.4258 12.6133 14.2383 12.2383ZM2.84766 16.0352C3.01172 15.8711 3.09375 15.6719 3.09375 15.4375C3.09375 15.2031 3.01172 15.0039 2.84766 14.8398C2.68359 14.6758 2.48438 14.5938 2.25 14.5938C2.01562 14.5938 1.81641 14.6758 1.65234 14.8398C1.48828 15.0039 1.40625 15.2031 1.40625 15.4375C1.40625 15.6719 1.48828 15.8711 1.65234 16.0352C1.81641 16.1992 2.01562 16.2812 2.25 16.2812C2.48438 16.2812 2.68359 16.1992 2.84766 16.0352Z" fill="#50D07B"/>
</svg>
