<svg width="17" height="16" viewBox="0 0 17 16" fill="none" xmlns="http://www.w3.org/2000/svg">
<path d="M16.875 1.57812V5.32812C16.875 5.64062 16.7285 5.85547 16.4355 5.97266C16.1426 6.08984 15.8887 6.04102 15.6738 5.82617L14.6191 4.77148L7.5 11.9199C7.36328 12.0566 7.19727 12.125 7.00195 12.125C6.80664 12.125 6.64062 12.0566 6.50391 11.9199L5.83008 11.2461C5.69336 11.1094 5.625 10.9434 5.625 10.748C5.625 10.5527 5.69336 10.3867 5.83008 10.25L12.9785 3.13086L11.9238 2.07617C11.709 1.86133 11.6602 1.60742 11.7773 1.31445C11.8945 1.02148 12.1094 0.875 12.4219 0.875H16.1719C16.3672 0.875 16.5332 0.943359 16.6699 1.08008C16.8066 1.2168 16.875 1.38281 16.875 1.57812ZM11.9238 8.81445C12.1387 8.58008 12.3926 8.53125 12.6855 8.66797C12.9785 8.78516 13.125 9 13.125 9.3125V14.4688C13.125 14.8594 12.9883 15.1914 12.7148 15.4648C12.4414 15.7383 12.1094 15.875 11.7188 15.875H1.40625C1.01562 15.875 0.683594 15.7383 0.410156 15.4648C0.136719 15.1914 0 14.8594 0 14.4688V4.15625C0 3.76562 0.136719 3.43359 0.410156 3.16016C0.683594 2.88672 1.01562 2.75 1.40625 2.75H10.0781C10.3906 2.75 10.6055 2.89648 10.7227 3.18945C10.8398 3.48242 10.791 3.73633 10.5762 3.95117L10.1074 4.41992C9.9707 4.55664 9.80469 4.625 9.60938 4.625H1.875V14H11.25V9.78125C11.25 9.58594 11.3184 9.41992 11.4551 9.2832L11.9238 8.81445Z" fill="#8B8B8B"/>
</svg>
