<svg width="33" height="25" viewBox="0 0 33 25" fill="none" xmlns="http://www.w3.org/2000/svg">
<path d="M7.82181 20.5488L0 24.3934V20.2836L7.82181 16.439L16.3065 20.5488L24.2609 16.439L32.3478 20.5488V24.3934L24.2609 20.5488L16.0413 24.3934L7.82181 20.5488Z" fill="#E61C1C"/>
<path d="M7.82181 12.3293L0 16.1739V12.0642L7.82181 8.21954L16.3065 12.3293L24.2609 8.21954L32.3478 12.3293V16.1739L24.2609 12.3293L16.0413 16.1739L7.82181 12.3293Z" fill="#2B90E8"/>
<path d="M7.82181 4.10976L0 7.95438V3.84462L7.82181 0L16.3065 4.10976L24.2609 0L32.3478 4.10976V7.95438L24.2609 4.10976L16.0413 7.95438L7.82181 4.10976Z" fill="white"/>
</svg>
