<svg width="156" height="25" viewBox="0 0 156 25" fill="none" xmlns="http://www.w3.org/2000/svg">
<g clip-path="url(#clip0)">
<path d="M7.82181 20.5488L0 24.3934V20.2836L7.82181 16.439L16.3065 20.5488L24.2609 16.439L32.3478 20.5488V24.3934L24.2609 20.5488L16.0413 24.3934L7.82181 20.5488Z" fill="#E61C1C"/>
<path d="M7.82181 12.3293L0 16.1739V12.0642L7.82181 8.21954L16.3065 12.3293L24.2609 8.21954L32.3478 12.3293V16.1739L24.2609 12.3293L16.0413 16.1739L7.82181 12.3293Z" fill="#2B90E8"/>
<path d="M7.82181 4.10976L0 7.95438V3.84462L7.82181 0L16.3065 4.10976L24.2609 0L32.3478 4.10976V7.95438L24.2609 4.10976L16.0413 7.95438L7.82181 4.10976Z" fill="white"/>
<path d="M51.6406 11.041C51.6406 10.3314 51.1719 9.97656 50.2344 9.97656C49.9154 9.97656 49.6354 10.0482 49.3945 10.1914C49.1602 10.3281 49.043 10.5039 49.043 10.7188H45.7324C45.7324 9.71615 46.1426 8.92513 46.9629 8.3457C47.7832 7.75977 48.89 7.4668 50.2832 7.4668C51.7806 7.4668 52.9297 7.73698 53.7305 8.27734C54.5312 8.8112 54.9316 9.56641 54.9316 10.543C54.9316 11.1159 54.7754 11.6335 54.4629 12.0957C54.1504 12.5514 53.7142 12.9128 53.1543 13.1797C53.7858 13.4076 54.2708 13.7493 54.6094 14.2051C54.9544 14.6608 55.127 15.1979 55.127 15.8164C55.127 16.8581 54.7005 17.6751 53.8477 18.2676C53.0013 18.86 51.8132 19.1562 50.2832 19.1562C48.8509 19.1562 47.7051 18.847 46.8457 18.2285C45.9928 17.6035 45.5664 16.7539 45.5664 15.6797H48.877C48.8639 15.9661 48.9876 16.2005 49.248 16.3828C49.5085 16.5651 49.8698 16.6562 50.332 16.6562C51.3346 16.6562 51.8359 16.2461 51.8359 15.4258C51.8359 14.6315 51.2956 14.2246 50.2148 14.2051H48.7793V12.1934H50.2441C51.1751 12.1934 51.6406 11.8092 51.6406 11.041ZM63.9109 17.0078H59.8387L59.1648 19H55.8641L60.2684 7.62305H63.4324L67.9246 19H64.6141L63.9109 17.0078ZM60.5906 14.7617H63.1199L61.8797 11.2461L61.8309 11.0312L61.7918 11.2266L60.5906 14.7617ZM68.8082 19V7.62305H73.3785C74.9996 7.62305 76.2333 7.89323 77.0797 8.43359C77.9326 8.96745 78.359 9.7487 78.359 10.7773C78.359 12.0339 77.7958 12.8704 76.6695 13.2871C77.275 13.4368 77.747 13.7331 78.0855 14.1758C78.4306 14.612 78.6031 15.1328 78.6031 15.7383C78.6031 16.8385 78.2255 17.6556 77.4703 18.1895C76.7216 18.7168 75.553 18.987 73.9645 19H68.8082ZM72.109 14.4102V16.4707H73.8473C74.2965 16.4707 74.6513 16.3828 74.9117 16.207C75.1721 16.0247 75.3023 15.7806 75.3023 15.4746C75.3023 14.791 74.902 14.4362 74.1012 14.4102H72.109ZM72.109 12.3301H73.6715C74.1728 12.3236 74.5276 12.2357 74.7359 12.0664C74.9508 11.8906 75.0582 11.6302 75.0582 11.2852C75.0582 10.875 74.9475 10.5853 74.7262 10.416C74.5113 10.2467 74.1695 10.1621 73.7008 10.1621H72.109V12.3301ZM90.8051 13.5117C90.8051 14.625 90.574 15.6146 90.1117 16.4805C89.656 17.3398 89.0115 18.0007 88.1781 18.4629C87.3448 18.9251 86.404 19.1562 85.3559 19.1562C84.2881 19.1562 83.3376 18.9284 82.5043 18.4727C81.671 18.0169 81.0232 17.3594 80.5609 16.5C80.0987 15.6341 79.8676 14.6413 79.8676 13.5215V13.1211C79.8676 12.0078 80.0922 11.0215 80.5414 10.1621C80.9906 9.30273 81.6319 8.63867 82.4652 8.16992C83.3051 7.70117 84.2621 7.4668 85.3363 7.4668C86.3845 7.4668 87.3253 7.70117 88.1586 8.16992C88.9919 8.63216 89.6365 9.28646 90.0922 10.1328C90.5544 10.9727 90.7921 11.9362 90.8051 13.0234V13.5117ZM87.4848 13.1113C87.4848 12.1087 87.296 11.3372 86.9184 10.7969C86.5408 10.25 86.0134 9.97656 85.3363 9.97656C83.904 9.97656 83.1879 11.041 83.1879 13.1699V13.5117C83.1879 14.4883 83.3669 15.2565 83.725 15.8164C84.0831 16.3763 84.6267 16.6562 85.3559 16.6562C86.0069 16.6562 86.5212 16.3828 86.8988 15.8359C87.2764 15.2891 87.4717 14.5404 87.4848 13.5898V13.1113ZM92.6848 16.4609C93.3163 15.8294 93.746 15.2044 93.9738 14.5859C94.2082 13.9674 94.3319 12.9811 94.3449 11.627L94.3547 7.62305H103.349V16.4609H104.931V22.2324H101.63V19H95.0383V22.2324H91.7473L91.7375 16.4609H92.6848ZM96.4738 16.4609H100.038V10.1621H97.6262V11.3828C97.6001 13.5117 97.216 15.2044 96.4738 16.4609ZM112.084 19H106.85V7.62305H110.15V11.041H111.889C113.438 11.041 114.678 11.4056 115.609 12.1348C116.54 12.8639 117.006 13.8145 117.006 14.9863C117.006 16.1582 116.55 17.1152 115.639 17.8574C114.727 18.5931 113.542 18.974 112.084 19ZM111.947 16.4609C112.468 16.4609 112.891 16.321 113.217 16.041C113.542 15.7611 113.705 15.403 113.705 14.9668C113.705 14.5501 113.539 14.2148 113.207 13.9609C112.882 13.707 112.458 13.5801 111.938 13.5801H110.15V16.4609H111.947ZM121.107 19H117.816V7.62305H121.107V19ZM125.077 15.8066C125.598 15.8066 126.031 15.9629 126.376 16.2754C126.721 16.5814 126.893 16.9753 126.893 17.457C126.893 17.9388 126.721 18.3359 126.376 18.6484C126.031 18.9544 125.598 19.1074 125.077 19.1074C124.55 19.1074 124.113 18.9512 123.768 18.6387C123.43 18.3262 123.261 17.9323 123.261 17.457C123.261 16.9818 123.43 16.5879 123.768 16.2754C124.113 15.9629 124.55 15.8066 125.077 15.8066ZM132.464 15.4355V19H129.164V7.62305H134.125C135.082 7.62305 135.928 7.79557 136.664 8.14062C137.399 8.47917 137.969 8.96094 138.373 9.58594C138.783 10.2044 138.988 10.9043 138.988 11.6855C138.988 12.7793 138.555 13.6712 137.689 14.3613C136.83 15.0514 135.69 15.4095 134.271 15.4355H132.464ZM132.464 12.8965H134.125C134.658 12.8965 135.052 12.7826 135.306 12.5547C135.567 12.3268 135.697 12.0436 135.697 11.7051C135.697 11.2559 135.557 10.888 135.277 10.6016C135.004 10.3086 134.619 10.1621 134.125 10.1621H132.464V12.8965ZM149.12 8.76562C150.851 8.86328 152.192 9.30273 153.143 10.084C154.093 10.8587 154.569 11.9167 154.569 13.2578C154.569 14.6445 154.097 15.748 153.153 16.5684C152.209 17.3822 150.864 17.8477 149.12 17.9648V19H145.829V17.9648C144.103 17.8672 142.756 17.4115 141.786 16.5977C140.815 15.7839 140.33 14.6771 140.33 13.2773C140.33 11.9362 140.799 10.875 141.737 10.0938C142.681 9.30599 144.045 8.86003 145.829 8.75586V7.62305H149.12V8.76562ZM143.641 13.2773C143.615 13.9414 143.794 14.4785 144.178 14.8887C144.562 15.2923 145.112 15.5299 145.829 15.6016V11.1289C144.396 11.2721 143.667 11.9883 143.641 13.2773ZM151.258 13.2578C151.258 11.9818 150.545 11.2721 149.12 11.1289V15.5918C149.81 15.5202 150.337 15.2891 150.702 14.8984C151.073 14.5013 151.258 13.9544 151.258 13.2578Z" fill="white"/>
</g>
<defs>
<clipPath id="clip0">
<rect width="156" height="25" fill="white"/>
</clipPath>
</defs>
</svg>
