<svg width="15" height="12" viewBox="0 0 15 12" fill="none" xmlns="http://www.w3.org/2000/svg">
<path d="M14.707 4.4707C14.7656 4.41211 14.8242 4.40234 14.8828 4.44141C14.9609 4.48047 15 4.53906 15 4.61719V10.5938C15 10.9844 14.8633 11.3164 14.5898 11.5898C14.3164 11.8633 13.9844 12 13.5938 12H1.40625C1.01562 12 0.683594 11.8633 0.410156 11.5898C0.136719 11.3164 0 10.9844 0 10.5938V4.61719C0 4.53906 0.0292969 4.49023 0.0878906 4.4707C0.166016 4.43164 0.234375 4.43164 0.292969 4.4707C0.9375 4.95898 2.44141 6.0625 4.80469 7.78125C4.84375 7.82031 4.9707 7.92773 5.18555 8.10352C5.41992 8.2793 5.60547 8.41602 5.74219 8.51367C5.87891 8.5918 6.05469 8.69922 6.26953 8.83594C6.48438 8.95312 6.68945 9.04102 6.88477 9.09961C7.09961 9.1582 7.30469 9.1875 7.5 9.1875C7.67578 9.1875 7.85156 9.16797 8.02734 9.12891C8.20312 9.07031 8.36914 9.01172 8.52539 8.95312C8.68164 8.875 8.84766 8.77734 9.02344 8.66016C9.19922 8.54297 9.3457 8.44531 9.46289 8.36719C9.58008 8.26953 9.7168 8.16211 9.87305 8.04492C10.0293 7.92773 10.1367 7.83984 10.1953 7.78125C12.5 6.12109 14.0039 5.01758 14.707 4.4707ZM7.5 8.25C7.34375 8.25 7.14844 8.20117 6.91406 8.10352C6.69922 7.98633 6.52344 7.88867 6.38672 7.81055C6.25 7.71289 6.04492 7.56641 5.77148 7.37109C5.51758 7.15625 5.38086 7.04883 5.36133 7.04883C2.97852 5.31055 1.2793 4.05078 0.263672 3.26953C0.0878906 3.13281 0 2.94727 0 2.71289V2.15625C0 1.76562 0.136719 1.43359 0.410156 1.16016C0.683594 0.886719 1.01562 0.75 1.40625 0.75H13.5938C13.9844 0.75 14.3164 0.886719 14.5898 1.16016C14.8633 1.43359 15 1.76562 15 2.15625V2.71289C15 2.94727 14.9121 3.13281 14.7363 3.26953C13.7793 4.01172 12.0801 5.27148 9.63867 7.04883C9.61914 7.04883 9.47266 7.15625 9.19922 7.37109C8.94531 7.56641 8.75 7.71289 8.61328 7.81055C8.47656 7.88867 8.29102 7.98633 8.05664 8.10352C7.8418 8.20117 7.65625 8.25 7.5 8.25Z" fill="#8B8B8B"/>
</svg>
