<svg width="17" height="16" viewBox="0 0 17 16" fill="none" xmlns="http://www.w3.org/2000/svg">
<path d="M5.83008 1.95898C6.55273 1.23633 7.42188 0.875 8.4375 0.875C9.45312 0.875 10.3223 1.23633 11.0449 1.95898C11.7676 2.68164 12.1289 3.55078 12.1289 4.56641C12.1289 5.77734 11.0156 7.69141 8.78906 10.3086C8.69141 10.4258 8.57422 10.4844 8.4375 10.4844C8.30078 10.4844 8.18359 10.4258 8.08594 10.3086C5.85938 7.69141 4.74609 5.77734 4.74609 4.56641C4.74609 3.55078 5.10742 2.68164 5.83008 1.95898ZM7.55859 5.44531C7.8125 5.67969 8.10547 5.79688 8.4375 5.79688C8.76953 5.79688 9.05273 5.67969 9.28711 5.44531C9.54102 5.19141 9.66797 4.89844 9.66797 4.56641C9.66797 4.23438 9.54102 3.95117 9.28711 3.7168C9.05273 3.46289 8.76953 3.33594 8.4375 3.33594C8.10547 3.33594 7.8125 3.46289 7.55859 3.7168C7.32422 3.95117 7.20703 4.23438 7.20703 4.56641C7.20703 4.89844 7.32422 5.19141 7.55859 5.44531ZM0.585938 7.20312L4.07227 5.79688C4.20898 6.22656 4.41406 6.68555 4.6875 7.17383V14L0.644531 15.8457C0.566406 15.8848 0.488281 15.8945 0.410156 15.875C0.332031 15.8555 0.263672 15.8262 0.205078 15.7871C0.146484 15.748 0.0976562 15.6895 0.0585938 15.6113C0.0195312 15.5527 0 15.4844 0 15.4062V8.08203C0 7.90625 0.0585938 7.73047 0.175781 7.55469C0.292969 7.37891 0.429688 7.26172 0.585938 7.20312ZM7.35352 10.9238C7.64648 11.2559 8.00781 11.4219 8.4375 11.4219C8.86719 11.4219 9.22852 11.2559 9.52148 10.9238C10.166 10.1426 10.7422 9.39062 11.25 8.66797V15.875L5.625 14V8.66797C6.13281 9.39062 6.70898 10.1426 7.35352 10.9238ZM16.2305 5.5918C16.3477 5.55273 16.4453 5.55273 16.5234 5.5918C16.6211 5.61133 16.6992 5.66016 16.7578 5.73828C16.8359 5.81641 16.875 5.91406 16.875 6.03125V13.3555C16.875 13.4727 16.8457 13.5898 16.7871 13.707C16.748 13.8242 16.6797 13.9316 16.582 14.0293C16.4844 14.127 16.3867 14.1953 16.2891 14.2344L12.1875 15.875V7.4375L16.2305 5.5918Z" fill="#8B8B8B"/>
</svg>
