<svg width="18" height="17" viewBox="0 0 18 17" fill="none" xmlns="http://www.w3.org/2000/svg">
<path d="M6.21875 1.15625C6.98958 0.385417 7.91667 0 9 0C10.0833 0 11.0104 0.385417 11.7812 1.15625C12.5521 1.92708 12.9375 2.85417 12.9375 3.9375C12.9375 5.22917 11.75 7.27083 9.375 10.0625C9.27083 10.1875 9.14583 10.25 9 10.25C8.85417 10.25 8.72917 10.1875 8.625 10.0625C6.25 7.27083 5.0625 5.22917 5.0625 3.9375C5.0625 2.85417 5.44792 1.92708 6.21875 1.15625ZM8.0625 4.875C8.33333 5.125 8.64583 5.25 9 5.25C9.35417 5.25 9.65625 5.125 9.90625 4.875C10.1771 4.60417 10.3125 4.29167 10.3125 3.9375C10.3125 3.58333 10.1771 3.28125 9.90625 3.03125C9.65625 2.76042 9.35417 2.625 9 2.625C8.64583 2.625 8.33333 2.76042 8.0625 3.03125C7.8125 3.28125 7.6875 3.58333 7.6875 3.9375C7.6875 4.29167 7.8125 4.60417 8.0625 4.875ZM0.625 6.75L4.34375 5.25C4.48958 5.70833 4.70833 6.19792 5 6.71875V14L0.6875 15.9688C0.604167 16.0104 0.520833 16.0208 0.4375 16C0.354167 15.9792 0.28125 15.9479 0.21875 15.9062C0.15625 15.8646 0.104167 15.8021 0.0625 15.7188C0.0208333 15.6562 0 15.5833 0 15.5V7.6875C0 7.5 0.0625 7.3125 0.1875 7.125C0.3125 6.9375 0.458333 6.8125 0.625 6.75ZM7.84375 10.7188C8.15625 11.0729 8.54167 11.25 9 11.25C9.45833 11.25 9.84375 11.0729 10.1562 10.7188C10.8438 9.88542 11.4583 9.08333 12 8.3125V16L6 14V8.3125C6.54167 9.08333 7.15625 9.88542 7.84375 10.7188ZM17.3125 5.03125C17.4375 4.98958 17.5417 4.98958 17.625 5.03125C17.7292 5.05208 17.8125 5.10417 17.875 5.1875C17.9583 5.27083 18 5.375 18 5.5V13.3125C18 13.4375 17.9688 13.5625 17.9062 13.6875C17.8646 13.8125 17.7917 13.9271 17.6875 14.0312C17.5833 14.1354 17.4792 14.2083 17.375 14.25L13 16V7L17.3125 5.03125Z" fill="#0173C1"/>
</svg>
