<svg width="42" height="55" viewBox="0 0 42 55" fill="none" xmlns="http://www.w3.org/2000/svg">
<g clip-path="url(#clip0)">
<path d="M20.7996 38.7058C30.4002 38.7058 38.1831 30.7799 38.1831 21.0029C38.1831 11.2259 30.4002 3.3 20.7996 3.3C11.1989 3.3 3.41602 11.2259 3.41602 21.0029C3.41602 30.7799 11.1989 38.7058 20.7996 38.7058Z" fill="white"/>
<path d="M20.861 0C16.9875 0.00181155 13.1909 1.08207 9.89669 3.11976C6.60245 5.15746 3.94061 8.07211 2.20935 11.5372C0.478086 15.0023 -0.254218 18.881 0.0944671 22.7388C0.443152 26.5966 1.85905 30.2812 4.18357 33.3797L20.1158 54.6203C20.2041 54.7379 20.3185 54.8332 20.45 54.8989C20.5815 54.9646 20.7264 54.9988 20.8734 54.9988C21.0204 54.9988 21.1654 54.9646 21.2968 54.8989C21.4283 54.8332 21.5427 54.7379 21.631 54.6203L37.5384 33.3797C39.8629 30.2812 41.2788 26.5966 41.6275 22.7388C41.9762 18.881 41.2439 15.0023 39.5126 11.5372C37.7814 8.07211 35.1195 5.15746 31.8253 3.11976C28.531 1.08207 24.7345 0.00181155 20.861 0ZM20.861 37.9323C17.4853 37.9323 14.1854 36.9313 11.3787 35.0558C8.57188 33.1804 6.38427 30.5148 5.09245 27.3961C3.80063 24.2773 3.46263 20.8456 4.1212 17.5348C4.77976 14.2239 6.4053 11.1828 8.79227 8.7958C11.1792 6.40883 14.2204 4.78329 17.5312 4.12473C20.8421 3.46616 24.2738 3.80416 27.3925 5.09598C30.5113 6.3878 33.1769 8.57541 35.0523 11.3822C36.9277 14.189 37.9287 17.4888 37.9287 20.8645C37.9231 25.3894 36.1231 29.7274 32.9235 32.927C29.7239 36.1266 25.3859 37.9266 20.861 37.9323Z" fill="#E33A3A"/>
<path d="M34.1011 19.871C34.0854 19.7074 34.0274 19.5508 33.9328 19.4164C33.8383 19.282 33.7104 19.1745 33.5617 19.1045L30.8295 17.8165C30.6373 17.191 30.3866 16.5851 30.0808 16.0068L31.0956 13.1681C31.1516 13.0101 31.1654 12.8402 31.1355 12.6753C31.1056 12.5103 31.0332 12.356 30.9253 12.2277C30.4918 11.7166 30.017 11.2419 29.5059 10.8084C29.3776 10.7005 29.2234 10.628 29.0584 10.5982C28.8935 10.5683 28.7236 10.582 28.5656 10.6381L25.7269 11.6529C25.1485 11.347 24.5426 11.0964 23.9172 10.9042L22.6362 8.1613C22.5662 8.01265 22.4588 7.88477 22.3244 7.79021C22.19 7.69565 22.0333 7.63766 21.8698 7.62194C21.2004 7.56496 20.5273 7.56496 19.8579 7.62194C19.6937 7.63707 19.5363 7.69478 19.4012 7.78937C19.2662 7.88397 19.1582 8.01217 19.0879 8.1613L17.7998 10.8936C17.1744 11.0857 16.5685 11.3364 15.9901 11.6423L13.1514 10.6274C12.9934 10.5714 12.8235 10.5576 12.6586 10.5875C12.4936 10.6174 12.3394 10.6899 12.2111 10.7977C11.6999 11.2313 11.2252 11.706 10.7917 12.2171C10.6899 12.3431 10.6216 12.4927 10.5931 12.6521C10.5645 12.8115 10.5767 12.9756 10.6285 13.129L11.6433 15.9677C11.3375 16.5461 11.0868 17.152 10.8946 17.7774L8.16237 19.0655C8.00827 19.1387 7.87681 19.2522 7.78187 19.394C7.68694 19.5358 7.63205 19.7006 7.62302 19.871C7.59463 20.2045 7.58398 20.5345 7.58398 20.8752C7.58398 21.2158 7.58398 21.5494 7.62302 21.8794C7.63874 22.0429 7.69672 22.1996 7.79128 22.3339C7.88584 22.4683 8.01372 22.5758 8.16237 22.6458L10.8946 23.9339C11.0849 24.5566 11.3332 25.1601 11.6362 25.7365L10.6214 28.5752C10.5654 28.7331 10.5516 28.903 10.5815 29.068C10.6114 29.2329 10.6838 29.3872 10.7917 29.5155C11.2253 30.0266 11.7 30.5013 12.2111 30.9348C12.3394 31.0427 12.4936 31.1152 12.6586 31.1451C12.8235 31.175 12.9934 31.1612 13.1514 31.1052L15.9901 30.0903C16.5685 30.3962 17.1744 30.6469 17.7998 30.839L19.0879 33.5606C19.1579 33.7093 19.2653 33.8372 19.3997 33.9317C19.5341 34.0263 19.6908 34.0843 19.8543 34.1C20.1879 34.1284 20.5179 34.139 20.8585 34.139C21.1991 34.139 21.5327 34.139 21.8627 34.1C22.0275 34.0855 22.1856 34.028 22.3213 33.9334C22.4571 33.8388 22.5656 33.7103 22.6362 33.5606L23.9243 30.8284C24.5497 30.6362 25.1556 30.3856 25.734 30.0797L28.5727 31.0945C28.7307 31.1505 28.9006 31.1643 29.0655 31.1344C29.2305 31.1046 29.3847 31.0321 29.513 30.9242C30.0241 30.4906 30.4988 30.0159 30.9324 29.5048C31.0403 29.3765 31.1127 29.2223 31.1426 29.0573C31.1725 28.8924 31.1587 28.7225 31.1027 28.5645L30.0879 25.7258C30.3937 25.1474 30.6444 24.5415 30.8366 23.9161L33.5688 22.6281C33.7175 22.5581 33.8453 22.4506 33.9399 22.3162C34.0345 22.1818 34.0925 22.0252 34.1082 21.8616C34.1366 21.5281 34.1472 21.1981 34.1472 20.8574C34.1472 20.5168 34.1295 20.1903 34.1011 19.871ZM20.862 26.5526C19.7392 26.5526 18.6415 26.2196 17.7078 25.5958C16.7742 24.9719 16.0465 24.0852 15.6168 23.0478C15.1871 22.0104 15.0747 20.8689 15.2937 19.7676C15.5128 18.6662 16.0535 17.6546 16.8475 16.8606C17.6415 16.0666 18.6531 15.5259 19.7544 15.3068C20.8558 15.0878 21.9973 15.2002 23.0347 15.6299C24.0721 16.0596 24.9588 16.7873 25.5826 17.721C26.2065 18.6546 26.5395 19.7523 26.5395 20.8752C26.5395 22.3809 25.9413 23.825 24.8766 24.8897C23.8119 25.9544 22.3678 26.5526 20.862 26.5526Z" fill="#E33A3A"/>
</g>
<defs>
<clipPath id="clip0">
<rect width="41.7255" height="55" fill="white"/>
</clipPath>
</defs>
</svg>
