<svg width="16" height="16" viewBox="0 0 16 16" fill="none" xmlns="http://www.w3.org/2000/svg">
<g clip-path="url(#clip0)">
<path d="M13.0661 0.992188C13.613 0.757812 14.111 0.875 14.5602 1.34375C15.029 1.79297 15.1462 2.29102 14.9118 2.83789L9.31608 15.0254C9.15983 15.3574 8.92546 15.5918 8.61296 15.7285C8.30046 15.8652 7.99772 15.9043 7.70475 15.8457C7.41178 15.7871 7.14811 15.6309 6.91373 15.377C6.69889 15.123 6.59147 14.8203 6.59147 14.4688V9.3125H1.43522C0.94694 9.3125 0.56608 9.13672 0.292643 8.78516C0.038737 8.41406 -0.039388 8.01367 0.0582683 7.58398C0.155924 7.13477 0.429362 6.80273 0.87858 6.58789L13.0661 0.992188Z" fill="#8B8B8B"/>
</g>
<defs>
<clipPath id="clip0">
<rect width="16" height="16" fill="white"/>
</clipPath>
</defs>
</svg>
