<svg width="16" height="16" viewBox="0 0 16 16" fill="none" xmlns="http://www.w3.org/2000/svg">
<path d="M15.7812 13.8438C15.9271 13.9896 16 14.1667 16 14.375C16 14.5833 15.9271 14.7604 15.7812 14.9062L14.9062 15.7812C14.7604 15.9271 14.5833 16 14.375 16C14.1667 16 13.9896 15.9271 13.8438 15.7812L10.7188 12.6562C10.5729 12.5104 10.5 12.3333 10.5 12.125V11.625C9.33333 12.5417 8 13 6.5 13C4.70833 13 3.17708 12.3646 1.90625 11.0938C0.635417 9.82292 0 8.29167 0 6.5C0 4.70833 0.635417 3.17708 1.90625 1.90625C3.17708 0.635417 4.70833 0 6.5 0C8.29167 0 9.82292 0.635417 11.0938 1.90625C12.3646 3.17708 13 4.70833 13 6.5C13 8 12.5417 9.33333 11.625 10.5H12.125C12.3333 10.5 12.5104 10.5729 12.6562 10.7188L15.7812 13.8438ZM3.65625 9.34375C4.44792 10.1146 5.39583 10.5 6.5 10.5C7.60417 10.5 8.54167 10.1146 9.3125 9.34375C10.1042 8.55208 10.5 7.60417 10.5 6.5C10.5 5.39583 10.1042 4.45833 9.3125 3.6875C8.54167 2.89583 7.60417 2.5 6.5 2.5C5.39583 2.5 4.44792 2.89583 3.65625 3.6875C2.88542 4.45833 2.5 5.39583 2.5 6.5C2.5 7.60417 2.88542 8.55208 3.65625 9.34375Z" fill="white"/>
</svg>
