<svg width="95" height="96" viewBox="0 0 95 96" fill="none" xmlns="http://www.w3.org/2000/svg">
<g clip-path="url(#clip0)">
<path d="M23.3472 7.87646H0.00488281V19.1186H14.7207L29.5907 74.6149H86.581L90.237 70.9583V63.3727H38.2172L23.3472 7.87646ZM87.4707 69.8129L85.4349 71.8494H31.7136L16.8437 16.3524H2.77112V10.6427H5.72899V14.0789H8.49523V10.6427H10.4734V14.0789H13.2396V10.6427H15.2171V14.0789H17.9833V10.6427H21.2243L36.095 66.139H87.4707V69.8129Z" fill="#D3D3D3"/>
<path d="M39.5144 83.9135C41.6561 83.9135 43.3979 82.1716 43.3979 80.0299C43.3979 77.889 41.6561 76.1471 39.5144 76.1471C37.3734 76.1471 35.6309 77.889 35.6309 80.0299C35.6309 82.1716 37.3734 83.9135 39.5144 83.9135ZM39.5144 78.9133C40.1303 78.9133 40.6317 79.414 40.6317 80.0299C40.6317 80.6458 40.1303 81.1472 39.5144 81.1472C38.8985 81.1472 38.3971 80.6458 38.3971 80.0299C38.3971 79.414 38.8985 78.9133 39.5144 78.9133Z" fill="#D3D3D3"/>
<path d="M76.7119 83.9135C78.8536 83.9135 80.5955 82.1716 80.5955 80.0299C80.5955 77.889 78.8536 76.1471 76.7119 76.1471C74.571 76.1471 72.8291 77.889 72.8291 80.0299C72.8291 82.1716 74.571 83.9135 76.7119 83.9135ZM76.7119 78.9133C77.3278 78.9133 77.8292 79.414 77.8292 80.0299C77.8292 80.6458 77.3278 81.1472 76.7119 81.1472C76.096 81.1472 75.5953 80.6458 75.5953 80.0299C75.5953 79.414 76.096 78.9133 76.7119 78.9133Z" fill="#D3D3D3"/>
<path d="M85.8335 26.6365H67.9639V39.2416H82.46L85.8335 26.6365ZM80.337 36.4754H70.7301V29.4027H82.2295L80.337 36.4754Z" fill="#D3D3D3"/>
<path d="M49.3346 26.6365H31.3691L34.7463 39.2416H49.3346V26.6365ZM46.5683 36.4754H36.8685L34.9739 29.4027H46.5683V36.4754Z" fill="#D3D3D3"/>
<path d="M65.3782 26.6365H51.9209V39.2416H65.3782V26.6365ZM62.612 36.4754H54.6871V29.4027H62.612V36.4754Z" fill="#D3D3D3"/>
<path d="M67.9639 54.5899H78.3531L81.7259 41.9847H67.9639V54.5899ZM70.7301 44.751H78.1219L76.2295 51.8236H70.7301V44.751Z" fill="#D3D3D3"/>
<path d="M51.9209 54.5899H65.3782V41.9847H51.9209V54.5899ZM54.6871 44.751H62.612V51.8236H54.6871V44.751Z" fill="#D3D3D3"/>
<path d="M49.3347 54.5899V41.9847H35.4805L38.8569 54.5899H49.3347ZM46.5685 44.751V51.8236H40.9798L39.0852 44.751H46.5685Z" fill="#D3D3D3"/>
<path d="M28.5137 17.3545V20.1207H91.6596V26.6365H88.8293L80.8194 56.5681H39.0211V59.3344H82.9424L90.9522 29.4028H94.4259V17.3545H28.5137Z" fill="#D3D3D3"/>
<path d="M44.3315 77.554C44.7284 78.3241 44.9294 79.1568 44.9294 80.0299C44.9294 83.0159 42.5003 85.445 39.5143 85.445C36.5284 85.445 34.0992 83.0159 34.0992 80.0299C34.0992 79.1568 34.301 78.3241 34.6972 77.554L32.2385 76.2869C31.6464 77.4359 31.333 78.7304 31.333 80.0299C31.333 84.5416 35.0033 88.2112 39.5143 88.2112C44.0253 88.2112 47.6956 84.5416 47.6956 80.0299C47.6956 78.7304 47.383 77.4359 46.7908 76.2869L44.3315 77.554Z" fill="#D3D3D3"/>
<path d="M81.529 77.554C81.9259 78.3234 82.1269 79.1568 82.1269 80.0299C82.1269 83.0159 79.6978 85.445 76.7118 85.445C73.7266 85.445 71.2975 83.0159 71.2975 80.0299C71.2975 79.1568 71.4985 78.3241 71.8947 77.554L69.436 76.2869C68.8439 77.4359 68.5312 78.7304 68.5312 80.0299C68.5312 84.5416 72.2008 88.2112 76.7118 88.2112C81.2235 88.2112 84.8931 84.5416 84.8931 80.0299C84.8931 78.7304 84.5805 77.4359 83.9883 76.2869L81.529 77.554Z" fill="#D3D3D3"/>
<path d="M89.6598 24.4854H72.9571V21.7191H89.6598V24.4854ZM71.113 24.4854H68.3467V21.7191H71.113V24.4854ZM66.5026 24.4854H63.7363V21.7191H66.5026V24.4854Z" fill="#D3D3D3"/>
<path d="M84.2032 70.3423H64.8439V67.576H84.2032V70.3423ZM62.9997 70.3423H60.2334V67.576H62.9997V70.3423ZM58.3893 70.3423H55.623V67.576H58.3893V70.3423Z" fill="#D3D3D3"/>
</g>
<defs>
<clipPath id="clip0">
<rect x="0.00488281" y="0.684204" width="94.4211" height="94.4211" fill="white"/>
</clipPath>
</defs>
</svg>
