<svg width="14" height="15" viewBox="0 0 14 15" fill="none" xmlns="http://www.w3.org/2000/svg">
<path d="M7 0.96875C8.93229 0.96875 10.5456 1.53385 11.8398 2.66406C13.1341 3.79427 13.7812 5.27083 13.7812 7.09375C13.7812 8.24219 13.444 9.19922 12.7695 9.96484C12.0951 10.7305 11.0651 11.1133 9.67969 11.1133C9.40625 11.1133 9.19661 11.1133 9.05078 11.1133C8.90495 11.0951 8.72266 11.0586 8.50391 11.0039C8.30339 10.9492 8.13932 10.8581 8.01172 10.7305C7.88411 10.5846 7.79297 10.4023 7.73828 10.1836C7.5013 10.4935 7.19141 10.7487 6.80859 10.9492C6.42578 11.1497 6.05208 11.25 5.6875 11.25C4.88542 11.25 4.2474 10.9948 3.77344 10.4844C3.29948 9.95573 3.0625 9.24479 3.0625 8.35156C3.0625 7.14844 3.42708 6.15495 4.15625 5.37109C4.90365 4.58724 5.79688 4.19531 6.83594 4.19531C7.60156 4.19531 8.14844 4.39583 8.47656 4.79688C8.49479 4.57812 8.61328 4.46875 8.83203 4.46875H10.0625C10.2812 4.46875 10.4544 4.55078 10.582 4.71484C10.7096 4.86068 10.7552 5.04297 10.7188 5.26172L10.0625 8.57031C10.0078 8.80729 9.9987 8.9987 10.0352 9.14453C10.0898 9.29036 10.2266 9.3724 10.4453 9.39062C10.9193 9.33594 11.3021 9.08073 11.5938 8.625C11.8854 8.16927 12.0312 7.65885 12.0312 7.09375C12.0312 5.74479 11.5482 4.67839 10.582 3.89453C9.61589 3.11068 8.42188 2.71875 7 2.71875C5.61458 2.71875 4.42969 3.21094 3.44531 4.19531C2.46094 5.17969 1.96875 6.36458 1.96875 7.75C1.96875 9.13542 2.46094 10.3203 3.44531 11.3047C4.42969 12.2891 5.61458 12.7812 7 12.7812C7.98438 12.7812 8.88672 12.5169 9.70703 11.9883C9.85286 11.8971 10.0078 11.8698 10.1719 11.9062C10.3359 11.9245 10.4727 11.9974 10.582 12.125L10.8555 12.4531C10.9831 12.6172 11.0286 12.7995 10.9922 13C10.9557 13.1823 10.8555 13.3281 10.6914 13.4375C9.57943 14.1667 8.34896 14.5312 7 14.5312C5.1224 14.5312 3.51823 13.875 2.1875 12.5625C0.875 11.2318 0.21875 9.6276 0.21875 7.75C0.21875 5.8724 0.875 4.27734 2.1875 2.96484C3.51823 1.63411 5.1224 0.96875 7 0.96875ZM6.39844 9.28125C6.78125 9.28125 7.13672 9.09896 7.46484 8.73438C7.8112 8.35156 7.98438 7.8776 7.98438 7.3125C7.98438 6.96615 7.90234 6.69271 7.73828 6.49219C7.57422 6.29167 7.33724 6.19141 7.02734 6.19141C6.60807 6.19141 6.23438 6.38281 5.90625 6.76562C5.57812 7.13021 5.41406 7.60417 5.41406 8.1875C5.41406 8.53385 5.50521 8.80729 5.6875 9.00781C5.86979 9.1901 6.10677 9.28125 6.39844 9.28125Z" fill="white"/>
</svg>
