<svg display="none" xmlns="http://www.w3.org/2000/svg">
    <symbol id="addFile-icon" viewBox="0 0 17 16">
        <g>
            <path d="M10.25 5.78125C11.1667 6.71875 11.625 7.84375 11.625 9.15625C11.625 10.4688 11.1667 11.5833 10.25 12.5L8.125 14.625C7.20833 15.5417 6.09375 16 4.78125 16C3.46875 16 2.34375 15.5312 1.40625 14.5938C0.489583 13.6771 0.03125 12.5625 0.03125 11.25C0.03125 9.9375 0.489583 8.82292 1.40625 7.90625L2.59375 6.71875C2.73958 6.57292 2.90625 6.54167 3.09375 6.625C3.30208 6.70833 3.41667 6.85417 3.4375 7.0625C3.45833 7.625 3.5625 8.17708 3.75 8.71875C3.8125 8.90625 3.77083 9.07292 3.625 9.21875L3.21875 9.65625C2.78125 10.0938 2.55208 10.625 2.53125 11.25C2.53125 11.8542 2.75 12.375 3.1875 12.8125C3.625 13.2708 4.15625 13.5 4.78125 13.5C5.40625 13.5 5.9375 13.2812 6.375 12.8438L8.46875 10.75C8.90625 10.3125 9.125 9.78125 9.125 9.15625C9.125 8.53125 8.90625 8 8.46875 7.5625C8.36458 7.45833 8.26042 7.36458 8.15625 7.28125C8.01042 7.19792 7.9375 7.07292 7.9375 6.90625C7.91667 6.53125 8.03125 6.21875 8.28125 5.96875L8.96875 5.3125C9.15625 5.10417 9.36458 5.08333 9.59375 5.25C9.82292 5.41667 10.0417 5.59375 10.25 5.78125ZM11.2812 0C12.5938 0 13.7083 0.46875 14.625 1.40625C15.5625 2.32292 16.0312 3.4375 16.0312 4.75C16.0312 6.0625 15.5729 7.17708 14.6562 8.09375L13.4688 9.28125C13.3229 9.42708 13.1458 9.45833 12.9375 9.375C12.75 9.29167 12.6458 9.14583 12.625 8.9375C12.6042 8.375 12.5 7.82292 12.3125 7.28125C12.25 7.09375 12.2917 6.92708 12.4375 6.78125L12.8438 6.34375C13.2812 5.90625 13.5 5.38542 13.5 4.78125C13.5208 4.15625 13.3125 3.625 12.875 3.1875C12.4375 2.72917 11.9062 2.5 11.2812 2.5C10.6562 2.5 10.125 2.71875 9.6875 3.15625L7.59375 5.25C7.15625 5.6875 6.9375 6.21875 6.9375 6.84375C6.9375 7.46875 7.15625 8 7.59375 8.4375C7.69792 8.54167 7.80208 8.63542 7.90625 8.71875C8.05208 8.80208 8.125 8.92708 8.125 9.09375C8.14583 9.46875 8.03125 9.78125 7.78125 10.0312L7.09375 10.6875C6.90625 10.8958 6.69792 10.9167 6.46875 10.75C6.23958 10.5833 6.02083 10.4062 5.8125 10.2188C4.89583 9.28125 4.4375 8.15625 4.4375 6.84375C4.4375 5.53125 4.89583 4.41667 5.8125 3.5L7.9375 1.375C8.85417 0.458333 9.96875 0 11.2812 0Z"/>
        </g>
    </symbol>
    <symbol id="airplane-icon" viewBox="0 0 17 16">
        <g>
            <path d="M13.9379 0.125C14.5212 -0.125 15.0525 0 15.5316 0.5C16.0316 0.979167 16.1566 1.51042 15.9066 2.09375L9.93793 15.0938C9.77126 15.4479 9.52126 15.6979 9.18793 15.8438C8.8546 15.9896 8.53168 16.0312 8.21918 15.9688C7.90668 15.9062 7.62543 15.7396 7.37543 15.4688C7.14626 15.1979 7.03168 14.875 7.03168 14.5V9H1.53168C1.01085 9 0.604601 8.8125 0.312934 8.4375C0.0421007 8.04167 -0.0412327 7.61458 0.062934 7.15625C0.167101 6.67708 0.458767 6.32292 0.937934 6.09375L13.9379 0.125Z"/>
        </g>
    </symbol>
    <symbol id="arrowRight" viewBox="0 0 7 10">
        <g>
            <path d="M6.125 5.21484L2.40625 8.93359C2.27865 9.0612 2.1237 9.125 1.94141 9.125C1.75911 9.125 1.60417 9.0612 1.47656 8.93359L0.875 8.30469C0.747396 8.17708 0.683594 8.02214 0.683594 7.83984C0.683594 7.65755 0.747396 7.5026 0.875 7.375L3.5 4.75L0.875 2.125C0.747396 1.9974 0.683594 1.84245 0.683594 1.66016C0.683594 1.47786 0.747396 1.32292 0.875 1.19531L1.47656 0.566406C1.60417 0.438802 1.75911 0.375 1.94141 0.375C2.1237 0.375 2.27865 0.438802 2.40625 0.566406L6.125 4.28516C6.2526 4.41276 6.31641 4.56771 6.31641 4.75C6.31641 4.93229 6.2526 5.08724 6.125 5.21484Z"/>
        </g>
    </symbol>
    <symbol id="attention-icon" viewBox="0 0 15 15">
        <g>
            <path d="M12.627 2.24805C14.0527 3.6543 14.7656 5.36328 14.7656 7.375C14.7656 9.38672 14.0527 11.1055 12.627 12.5312C11.2207 13.9375 9.51172 14.6406 7.5 14.6406C5.48828 14.6406 3.76953 13.9375 2.34375 12.5312C0.9375 11.1055 0.234375 9.38672 0.234375 7.375C0.234375 5.36328 0.9375 3.6543 2.34375 2.24805C3.76953 0.822266 5.48828 0.109375 7.5 0.109375C9.51172 0.109375 11.2207 0.822266 12.627 2.24805ZM8.4375 9.25C8.18359 8.97656 7.87109 8.83984 7.5 8.83984C7.12891 8.83984 6.80664 8.97656 6.5332 9.25C6.2793 9.50391 6.15234 9.81641 6.15234 10.1875C6.15234 10.5586 6.2793 10.8809 6.5332 11.1543C6.80664 11.4082 7.12891 11.5352 7.5 11.5352C7.87109 11.5352 8.18359 11.4082 8.4375 11.1543C8.71094 10.8809 8.84766 10.5586 8.84766 10.1875C8.84766 9.81641 8.71094 9.50391 8.4375 9.25ZM6.21094 4.00586L6.44531 7.99023C6.44531 8.20508 6.5625 8.3125 6.79688 8.3125H8.20312C8.4375 8.3125 8.55469 8.20508 8.55469 7.99023L8.78906 4.00586C8.78906 3.88867 8.75 3.80078 8.67188 3.74219C8.61328 3.66406 8.53516 3.625 8.4375 3.625H6.5625C6.46484 3.625 6.37695 3.66406 6.29883 3.74219C6.24023 3.80078 6.21094 3.88867 6.21094 4.00586Z"/>
        </g>
    </symbol>
    <symbol id="author-icon" viewBox="0 0 62 52">
        <g>
            <path d="M3.01033 38.7718C3.47295 39.0031 3.97104 39.1629 4.48475 39.2523L3.68439 40.3952C3.52262 40.6265 3.41713 40.8918 3.37551 41.1705L2.18396 49.2062C2.08321 49.8869 2.37506 50.5661 2.93891 50.9606C3.50322 51.3556 4.24114 51.3972 4.84566 51.0699L11.5754 47.4257C12.5049 49.105 14.2948 50.2449 16.3463 50.2449C17.7408 50.2449 19.0146 49.7185 19.9791 48.8543C20.9441 49.7185 22.2179 50.2449 23.6119 50.2449C26.6171 50.2449 29.0616 47.8004 29.0616 44.7957V44.1004C32.4404 45.7446 36.2029 46.6121 39.9601 46.6121C43.8413 46.6121 47.6903 45.7219 51.1012 44.0393V48.4285C51.1012 49.0581 51.4272 49.6428 51.9626 49.9739C52.4971 50.3041 53.166 50.3353 53.7298 50.0534L60.9959 46.4205C61.6114 46.1126 62.0002 45.484 62.0002 44.7957V22.9983C62.0002 21.995 61.1866 21.1819 60.1838 21.1819C57.2903 21.1819 50.2706 21.1819 47.6467 21.1819L34.833 14.912L39.7014 7.95946C40.2761 7.13829 40.0769 6.00493 39.2548 5.42973L33.3032 1.26192C32.4821 0.687196 31.3487 0.886339 30.7735 1.70798C30.0044 2.80634 25.0963 9.81608 24.3323 10.9069C22.8423 10.124 21.0557 10.1278 19.9223 10.6197L13.0105 13.6225C12.0087 14.0582 11.169 14.7753 10.5834 15.6972L0.665081 31.2975C0.0208229 32.3112 -0.245962 34.0505 0.277202 35.6205C0.737454 37.0012 1.7081 38.1204 3.01033 38.7718ZM6.31062 46.1457L6.90663 42.1279L8.53099 39.8077C9.22728 40.8242 10.1748 41.6544 11.2835 42.2106L9.88242 44.2115L6.31062 46.1457ZM16.3463 46.6126C15.3449 46.6126 14.5299 45.7976 14.5299 44.7957V43.9078L15.1803 42.9793H18.1627V44.7957C18.1627 45.7976 17.3482 46.6126 16.3463 46.6126ZM23.6124 46.6126C22.6105 46.6126 21.796 45.7976 21.796 44.7957V42.9793H25.4288V44.7957C25.4288 45.7976 24.6138 46.6126 23.6124 46.6126ZM58.3674 43.6732L54.7341 45.4896V24.8147H58.3674V43.6732ZM46.4278 24.6298C46.6766 24.7513 46.9495 24.8147 47.2262 24.8147H51.1012V40.0158C49.877 40.4917 46.0758 42.9793 39.9606 42.9793C33.4778 42.9793 29.485 40.108 28.0574 39.5381C27.7982 39.4084 27.5125 39.3465 27.2452 39.3465H14.5299C12.6723 39.3465 11.1369 37.9449 10.9235 36.1436C10.9803 35.8802 10.9751 35.6096 10.915 35.3508C11.0976 33.5174 12.6491 32.0808 14.5299 32.0808H25.7405C29.5384 32.0808 33.1098 30.6017 35.7956 27.9159C36.5047 27.2063 36.5047 26.0564 35.7956 25.3469C35.0861 24.6373 33.9361 24.6373 33.2266 25.3469C31.2267 27.3463 28.5683 28.448 25.7405 28.448H25.3555L32.7233 17.9251L46.4278 24.6298ZM28.5399 11.2318L31.5157 13.316L20.9204 28.448H16.4854C18.0298 26.2423 27.1232 13.2554 28.5399 11.2318ZM32.7072 5.28026L35.6835 7.36393L33.5994 10.3402L30.6236 8.25605L32.7072 5.28026ZM3.7894 33.1546L13.6491 17.6465C13.8445 17.339 14.1245 17.1002 14.4585 16.955L21.2837 13.9896C21.5869 13.9006 21.8996 13.8945 22.1948 13.9602L11.6246 29.0558C9.39048 30.0345 7.73962 32.1045 7.35174 34.5888C7.01968 35.5216 5.57649 35.9927 4.63517 35.5221C3.7492 35.0793 3.39727 34.0278 3.7894 33.1546Z"/>
        </g>
    </symbol>
    <symbol id="check-icon" viewBox="0 0 15 15">
        <g>
            <path d="M12.627 2.24805C14.0527 3.6543 14.7656 5.36328 14.7656 7.375C14.7656 9.38672 14.0527 11.1055 12.627 12.5312C11.2207 13.9375 9.51172 14.6406 7.5 14.6406C5.48828 14.6406 3.76953 13.9375 2.34375 12.5312C0.9375 11.1055 0.234375 9.38672 0.234375 7.375C0.234375 5.36328 0.9375 3.6543 2.34375 2.24805C3.76953 0.822266 5.48828 0.109375 7.5 0.109375C9.51172 0.109375 11.2207 0.822266 12.627 2.24805ZM6.65039 11.2129L12.041 5.82227C12.2754 5.60742 12.2754 5.39258 12.041 5.17773L11.3965 4.50391C11.1621 4.28906 10.9375 4.28906 10.7227 4.50391L6.32812 8.89844L4.27734 6.84766C4.0625 6.63281 3.83789 6.63281 3.60352 6.84766L2.95898 7.52148C2.72461 7.73633 2.72461 7.95117 2.95898 8.16602L6.00586 11.2129C6.2207 11.4473 6.43555 11.4473 6.65039 11.2129Z"/>
        </g>
    </symbol>
    <symbol id="close-icon" viewBox="0 0 10 11">
        <g>
            <path d="M6.67188 5.75L9.40625 8.48438C9.57031 8.64844 9.65234 8.84896 9.65234 9.08594C9.65234 9.32292 9.57031 9.53255 9.40625 9.71484L8.80469 10.3164C8.6224 10.4805 8.41276 10.5625 8.17578 10.5625C7.9388 10.5625 7.73828 10.4805 7.57422 10.3164L4.83984 7.58203L2.10547 10.3164C1.94141 10.4805 1.74089 10.5625 1.50391 10.5625C1.26693 10.5625 1.05729 10.4805 0.875 10.3164L0.273438 9.71484C0.109375 9.53255 0.0273438 9.32292 0.0273438 9.08594C0.0273438 8.84896 0.109375 8.64844 0.273438 8.48438L3.00781 5.75L0.273438 3.01562C0.109375 2.85156 0.0273438 2.65104 0.0273438 2.41406C0.0273438 2.17708 0.109375 1.96745 0.273438 1.78516L0.875 1.18359C1.05729 1.01953 1.26693 0.9375 1.50391 0.9375C1.74089 0.9375 1.94141 1.01953 2.10547 1.18359L4.83984 3.91797L7.57422 1.18359C7.73828 1.01953 7.9388 0.9375 8.17578 0.9375C8.41276 0.9375 8.6224 1.01953 8.80469 1.18359L9.40625 1.78516C9.57031 1.96745 9.65234 2.17708 9.65234 2.41406C9.65234 2.65104 9.57031 2.85156 9.40625 3.01562L6.67188 5.75Z"/>
        </g>
    </symbol>
    <symbol id="double-right-arrow-icon" viewBox="0 0 10 9">
        <g>
            <path d="M5.25 4.89844L2.0625 8.08594C1.95312 8.19531 1.82031 8.25 1.66406 8.25C1.50781 8.25 1.375 8.19531 1.26562 8.08594L0.75 7.54688C0.640625 7.4375 0.585938 7.30469 0.585938 7.14844C0.585938 6.99219 0.640625 6.85938 0.75 6.75L3 4.5L0.75 2.25C0.640625 2.14062 0.585938 2.00781 0.585938 1.85156C0.585938 1.69531 0.640625 1.5625 0.75 1.45312L1.26562 0.914062C1.375 0.804688 1.50781 0.75 1.66406 0.75C1.82031 0.75 1.95312 0.804688 2.0625 0.914062L5.25 4.10156C5.35938 4.21094 5.41406 4.34375 5.41406 4.5C5.41406 4.65625 5.35938 4.78906 5.25 4.89844ZM9.75 4.10156C9.85938 4.21094 9.91406 4.34375 9.91406 4.5C9.91406 4.65625 9.85938 4.78906 9.75 4.89844L6.5625 8.08594C6.45312 8.19531 6.32031 8.25 6.16406 8.25C6.00781 8.25 5.875 8.19531 5.76562 8.08594L5.25 7.54688C5.14062 7.4375 5.08594 7.30469 5.08594 7.14844C5.08594 6.99219 5.14062 6.85938 5.25 6.75L7.5 4.5L5.25 2.25C5.14062 2.14062 5.08594 2.00781 5.08594 1.85156C5.08594 1.69531 5.14062 1.5625 5.25 1.45312L5.76562 0.914062C5.82812 0.867188 5.89062 0.828125 5.95312 0.796875C6.03125 0.765625 6.10156 0.75 6.16406 0.75C6.24219 0.75 6.3125 0.765625 6.375 0.796875C6.45312 0.828125 6.51562 0.867188 6.5625 0.914062L9.75 4.10156Z"/>
        </g>
    </symbol>
    <symbol id="facebook-fill-icon" viewBox="0 0 14 14">
        <g>
            <path d="M11.7188 0.8125C12.1094 0.8125 12.4414 0.949219 12.7148 1.22266C12.9883 1.49609 13.125 1.82813 13.125 2.21875V12.5312C13.125 12.9219 12.9883 13.2539 12.7148 13.5273C12.4414 13.8008 12.1094 13.9375 11.7188 13.9375H7.70508V9.48438H9.4043L9.72656 7.375H7.70508V5.99805C7.70508 5.25586 8.0957 4.88477 8.87695 4.88477H9.78516V3.09766C9.23828 3 8.70117 2.95117 8.17383 2.95117C7.60742 2.95117 7.11914 3.05859 6.70898 3.27344C6.31836 3.48828 6.00586 3.81055 5.77148 4.24023C5.53711 4.66992 5.41992 5.17773 5.41992 5.76367V7.375H3.57422V9.48438H5.41992V13.9375H1.40625C1.01562 13.9375 0.683594 13.8008 0.410156 13.5273C0.136719 13.2539 0 12.9219 0 12.5312V2.21875C0 1.82813 0.136719 1.49609 0.410156 1.22266C0.683594 0.949219 1.01562 0.8125 1.40625 0.8125H11.7188Z"/>
        </g>
    </symbol>
    <symbol id="facebook-icon" viewBox="0 0 9 15">
        <g>
            <path d="M7.62891 8.625H5.57812V14.75H2.84375V8.625H0.628906V6.08203H2.84375V4.16797C2.84375 3.4388 2.98047 2.81901 3.25391 2.30859C3.52734 1.79818 3.91016 1.41536 4.40234 1.16016C4.91276 0.886719 5.49609 0.75 6.15234 0.75C6.44401 0.75 6.75391 0.768229 7.08203 0.804688C7.41016 0.822917 7.66536 0.85026 7.84766 0.886719L8.12109 0.914062V3.07422H7.02734C6.51693 3.07422 6.14323 3.21094 5.90625 3.48438C5.6875 3.73958 5.57812 4.05859 5.57812 4.44141V6.08203H8.01172L7.62891 8.625Z"/>
        </g>
    </symbol>
    <symbol id="instagram-icon" viewBox="0 0 14 14">
        <g>
            <path d="M4.1914 5.00195C4.85547 4.33789 5.65625 4.00586 6.59375 4.00586C7.53125 4.00586 8.32226 4.33789 8.96679 5.00195C9.63086 5.64648 9.96289 6.4375 9.96289 7.375C9.96289 8.3125 9.63086 9.11328 8.96679 9.77734C8.32226 10.4219 7.53125 10.7441 6.59375 10.7441C5.65625 10.7441 4.85547 10.4219 4.1914 9.77734C3.54687 9.11328 3.22461 8.3125 3.22461 7.375C3.22461 6.4375 3.54687 5.64648 4.1914 5.00195ZM5.04101 8.92773C5.4707 9.35742 5.98828 9.57227 6.59375 9.57227C7.19922 9.57227 7.71679 9.35742 8.14648 8.92773C8.57617 8.49805 8.79101 7.98047 8.79101 7.375C8.79101 6.76953 8.57617 6.25195 8.14648 5.82227C7.71679 5.39258 7.19922 5.17773 6.59375 5.17773C5.98828 5.17773 5.4707 5.39258 5.04101 5.82227C4.61133 6.25195 4.39648 6.76953 4.39648 7.375C4.39648 7.98047 4.61133 8.49805 5.04101 8.92773ZM10.6368 3.33203C10.793 3.46875 10.8711 3.64453 10.8711 3.85938C10.8711 4.07422 10.793 4.25977 10.6368 4.41602C10.5 4.57227 10.3243 4.65039 10.1094 4.65039C9.89453 4.65039 9.70898 4.57227 9.55273 4.41602C9.39648 4.25977 9.31836 4.07422 9.31836 3.85938C9.31836 3.64453 9.39648 3.46875 9.55273 3.33203C9.70898 3.17578 9.89453 3.09766 10.1094 3.09766C10.3243 3.09766 10.5 3.17578 10.6368 3.33203ZM13.127 4.67969C13.1465 5.20703 13.1563 6.10547 13.1563 7.375C13.1563 8.64453 13.1465 9.54297 13.127 10.0703C13.0684 11.2617 12.7071 12.1895 12.043 12.8535C11.3985 13.498 10.4805 13.8398 9.28906 13.8789C8.76172 13.918 7.86328 13.9375 6.59375 13.9375C5.32422 13.9375 4.42578 13.918 3.89843 13.8789C2.70703 13.8203 1.78906 13.4688 1.14453 12.8242C0.890625 12.5898 0.685547 12.3164 0.529297 12.0039C0.373047 11.6914 0.255859 11.3887 0.177734 11.0957C0.119141 10.8027 0.0898437 10.4609 0.0898437 10.0703C0.0507812 9.54297 0.03125 8.64453 0.03125 7.375C0.03125 6.10547 0.0507812 5.19727 0.0898437 4.65039C0.148437 3.47852 0.5 2.57031 1.14453 1.92578C1.78906 1.26172 2.70703 0.900391 3.89843 0.841797C4.42578 0.822266 5.32422 0.8125 6.59375 0.8125C7.86328 0.8125 8.76172 0.822266 9.28906 0.841797C10.4805 0.900391 11.3985 1.26172 12.043 1.92578C12.7071 2.57031 13.0684 3.48828 13.127 4.67969ZM11.7208 11.2422C11.7793 11.0859 11.8282 10.8906 11.8672 10.6562C11.9063 10.4023 11.9356 10.1094 11.9551 9.77734C11.9747 9.42578 11.9844 9.14258 11.9844 8.92773C11.9844 8.71289 11.9844 8.41016 11.9844 8.01953C11.9844 7.62891 11.9844 7.41406 11.9844 7.375C11.9844 7.31641 11.9844 7.10156 11.9844 6.73047C11.9844 6.33984 11.9844 6.03711 11.9844 5.82227C11.9844 5.60742 11.9747 5.33398 11.9551 5.00195C11.9356 4.65039 11.9063 4.35742 11.8672 4.12305C11.8282 3.86914 11.7793 3.66406 11.7208 3.50781C11.4864 2.90234 11.0665 2.48242 10.461 2.24805C10.3047 2.18945 10.0997 2.14062 9.8457 2.10156C9.61133 2.0625 9.31836 2.0332 8.96679 2.01367C8.63476 1.99414 8.36133 1.98438 8.14648 1.98438C7.95117 1.98438 7.64843 1.98438 7.23828 1.98438C6.84765 1.98438 6.63281 1.98438 6.59375 1.98438C6.55468 1.98438 6.33984 1.98438 5.94922 1.98438C5.55859 1.98438 5.25586 1.98438 5.04101 1.98438C4.82617 1.98438 4.54297 1.99414 4.1914 2.01367C3.85937 2.0332 3.5664 2.0625 3.3125 2.10156C3.07812 2.14062 2.88281 2.18945 2.72656 2.24805C2.12109 2.48242 1.70117 2.90234 1.46679 3.50781C1.4082 3.66406 1.35937 3.86914 1.32031 4.12305C1.28125 4.35742 1.25195 4.65039 1.23242 5.00195C1.21289 5.33398 1.20312 5.60742 1.20312 5.82227C1.20312 6.01758 1.20312 6.32031 1.20312 6.73047C1.20312 7.12109 1.20312 7.33594 1.20312 7.375C1.20312 7.45312 1.20312 7.63867 1.20312 7.93164C1.20312 8.20508 1.20312 8.43945 1.20312 8.63477C1.20312 8.81055 1.20312 9.04492 1.20312 9.33789C1.22265 9.63086 1.24218 9.88477 1.26172 10.0996C1.28125 10.2949 1.31054 10.5 1.34961 10.7148C1.38867 10.9297 1.42773 11.1055 1.46679 11.2422C1.7207 11.8477 2.14062 12.2676 2.72656 12.502C2.88281 12.5605 3.07812 12.6094 3.3125 12.6484C3.5664 12.6875 3.85937 12.7168 4.1914 12.7363C4.54297 12.7559 4.8164 12.7656 5.01172 12.7656C5.22656 12.7656 5.52929 12.7656 5.91992 12.7656C6.33007 12.7656 6.55468 12.7656 6.59375 12.7656C6.65234 12.7656 6.86718 12.7656 7.23828 12.7656C7.6289 12.7656 7.93164 12.7656 8.14648 12.7656C8.36133 12.7656 8.63476 12.7559 8.96679 12.7363C9.31836 12.7168 9.61133 12.6875 9.8457 12.6484C10.0997 12.6094 10.3047 12.5605 10.461 12.502C11.0665 12.248 11.4864 11.8281 11.7208 11.2422Z"/>
        </g>
    </symbol>
    <symbol id="like-icon" viewBox="0 0 17 19">
        <g>
            <path d="M16.3828 10.3398C16.5469 11.1133 16.4414 11.8516 16.0664 12.5547C16.1836 13.3984 15.9844 14.1836 15.4688 14.9102C15.4453 15.5664 15.293 16.1406 15.0117 16.6328C14.7539 17.125 14.3203 17.5117 13.7109 17.793C13.125 18.0977 12.3867 18.25 11.4961 18.25C11.4258 18.25 11.2969 18.25 11.1094 18.25C10.9219 18.25 10.793 18.25 10.7227 18.25C9.66797 18.25 8.73047 18.1328 7.91016 17.8984C7.11328 17.6641 6.43359 17.4297 5.87109 17.1953C5.33203 16.9609 4.86328 16.8438 4.46484 16.8438C4.39453 17.0781 4.25391 17.2773 4.04297 17.4414C3.85547 17.6055 3.63281 17.6875 3.375 17.6875H1.125C0.820312 17.6875 0.550781 17.5703 0.316406 17.3359C0.105469 17.125 0 16.8672 0 16.5625V8.125C0 7.82031 0.105469 7.5625 0.316406 7.35156C0.550781 7.11719 0.820312 7 1.125 7H4.60547C4.79297 6.83594 5.02734 6.56641 5.30859 6.19141C5.58984 5.81641 5.88281 5.42969 6.1875 5.03125C6.51562 4.60938 6.79688 4.29297 7.03125 4.08203C7.10156 3.98828 7.20703 3.60156 7.34766 2.92188C7.48828 2.24219 7.72266 1.63281 8.05078 1.09375C8.40234 0.53125 8.89453 0.25 9.52734 0.25C10.582 0.25 11.4023 0.554688 11.9883 1.16406C12.5977 1.77344 12.9023 2.69922 12.9023 3.94141C12.9023 4.48047 12.7969 5.01953 12.5859 5.55859H13.8516C14.4141 5.55859 14.9297 5.71094 15.3984 6.01562C15.8672 6.29688 16.2305 6.67188 16.4883 7.14062C16.7461 7.58594 16.875 8.06641 16.875 8.58203C16.875 9.19141 16.7109 9.77734 16.3828 10.3398ZM14.2383 12.2383C14.5898 11.8867 14.7656 11.4766 14.7656 11.0078C14.7891 10.5156 14.6719 10.1523 14.4141 9.91797C14.5781 9.91797 14.7422 9.77734 14.9062 9.49609C15.0938 9.21484 15.1875 8.91016 15.1875 8.58203C15.1875 8.25391 15.0586 7.94922 14.8008 7.66797C14.543 7.38672 14.2266 7.24609 13.8516 7.24609H10.1953C10.1953 6.82422 10.3594 6.28516 10.6875 5.62891C11.0391 4.94922 11.2148 4.38672 11.2148 3.94141C11.2148 3.70703 11.2031 3.53125 11.1797 3.41406C11.1797 3.27344 11.1445 3.09766 11.0742 2.88672C11.0273 2.67578 10.9453 2.51172 10.8281 2.39453C10.7344 2.27734 10.5703 2.17188 10.3359 2.07812C10.125 1.98438 9.85547 1.9375 9.52734 1.9375C9.33984 2.125 9.16406 2.64062 9 3.48438C8.83594 4.30469 8.56641 4.90234 8.19141 5.27734C8.02734 5.44141 7.78125 5.74609 7.45312 6.19141C7.125 6.61328 6.83203 7 6.57422 7.35156C6.31641 7.67969 6.02344 7.98438 5.69531 8.26562C5.39062 8.54688 5.12109 8.6875 4.88672 8.6875H4.5V15.2266C5.08594 15.2266 6.01172 15.4492 7.27734 15.8945C8.56641 16.3398 9.65625 16.5625 10.5469 16.5625H11.8477C13.3477 16.5625 13.9805 15.7891 13.7461 14.2422C14.0273 14.0781 14.2266 13.7969 14.3438 13.3984C14.4609 13 14.4258 12.6133 14.2383 12.2383ZM2.84766 16.0352C3.01172 15.8711 3.09375 15.6719 3.09375 15.4375C3.09375 15.2031 3.01172 15.0039 2.84766 14.8398C2.68359 14.6758 2.48438 14.5938 2.25 14.5938C2.01562 14.5938 1.81641 14.6758 1.65234 14.8398C1.48828 15.0039 1.40625 15.2031 1.40625 15.4375C1.40625 15.6719 1.48828 15.8711 1.65234 16.0352C1.81641 16.1992 2.01562 16.2812 2.25 16.2812C2.48438 16.2812 2.68359 16.1992 2.84766 16.0352Z"/>
        </g>
    </symbol>
    <symbol id="link-icon" viewBox="0 0 17 16">
        <g>
            <path d="M16.875 1.57812V5.32812C16.875 5.64062 16.7285 5.85547 16.4355 5.97266C16.1426 6.08984 15.8887 6.04102 15.6738 5.82617L14.6191 4.77148L7.5 11.9199C7.36328 12.0566 7.19727 12.125 7.00195 12.125C6.80664 12.125 6.64062 12.0566 6.50391 11.9199L5.83008 11.2461C5.69336 11.1094 5.625 10.9434 5.625 10.748C5.625 10.5527 5.69336 10.3867 5.83008 10.25L12.9785 3.13086L11.9238 2.07617C11.709 1.86133 11.6602 1.60742 11.7773 1.31445C11.8945 1.02148 12.1094 0.875 12.4219 0.875H16.1719C16.3672 0.875 16.5332 0.943359 16.6699 1.08008C16.8066 1.2168 16.875 1.38281 16.875 1.57812ZM11.9238 8.81445C12.1387 8.58008 12.3926 8.53125 12.6855 8.66797C12.9785 8.78516 13.125 9 13.125 9.3125V14.4688C13.125 14.8594 12.9883 15.1914 12.7148 15.4648C12.4414 15.7383 12.1094 15.875 11.7188 15.875H1.40625C1.01562 15.875 0.683594 15.7383 0.410156 15.4648C0.136719 15.1914 0 14.8594 0 14.4688V4.15625C0 3.76562 0.136719 3.43359 0.410156 3.16016C0.683594 2.88672 1.01562 2.75 1.40625 2.75H10.0781C10.3906 2.75 10.6055 2.89648 10.7227 3.18945C10.8398 3.48242 10.791 3.73633 10.5762 3.95117L10.1074 4.41992C9.9707 4.55664 9.80469 4.625 9.60938 4.625H1.875V14H11.25V9.78125C11.25 9.58594 11.3184 9.41992 11.4551 9.2832L11.9238 8.81445Z"/>
        </g>
    </symbol>
    <symbol id="lock-icon" viewBox="0 0 13 15">
        <g>
            <path d="M10.9375 6.875C11.3021 6.875 11.612 7.0026 11.8672 7.25781C12.1224 7.51302 12.25 7.82292 12.25 8.1875V13.4375C12.25 13.8021 12.1224 14.112 11.8672 14.3672C11.612 14.6224 11.3021 14.75 10.9375 14.75H1.3125C0.947917 14.75 0.638021 14.6224 0.382812 14.3672C0.127604 14.112 0 13.8021 0 13.4375V8.1875C0 7.82292 0.127604 7.51302 0.382812 7.25781C0.638021 7.0026 0.947917 6.875 1.3125 6.875H1.96875V4.90625C1.96875 3.75781 2.36979 2.78255 3.17188 1.98047C3.99219 1.16016 4.97656 0.75 6.125 0.75C7.27344 0.75 8.2487 1.16016 9.05078 1.98047C9.87109 2.78255 10.2812 3.75781 10.2812 4.90625V6.875H10.9375ZM8.09375 6.875V4.90625C8.09375 4.35938 7.90234 3.89453 7.51953 3.51172C7.13672 3.12891 6.67188 2.9375 6.125 2.9375C5.57812 2.9375 5.11328 3.12891 4.73047 3.51172C4.34766 3.89453 4.15625 4.35938 4.15625 4.90625V6.875H8.09375Z"/>
        </g>
    </symbol>
    <symbol id="mail-icon" viewBox="0 0 15 12">
        <g>
            <path d="M14.707 4.4707C14.7656 4.41211 14.8242 4.40234 14.8828 4.44141C14.9609 4.48047 15 4.53906 15 4.61719V10.5938C15 10.9844 14.8633 11.3164 14.5898 11.5898C14.3164 11.8633 13.9844 12 13.5938 12H1.40625C1.01562 12 0.683594 11.8633 0.410156 11.5898C0.136719 11.3164 0 10.9844 0 10.5938V4.61719C0 4.53906 0.0292969 4.49023 0.0878906 4.4707C0.166016 4.43164 0.234375 4.43164 0.292969 4.4707C0.9375 4.95898 2.44141 6.0625 4.80469 7.78125C4.84375 7.82031 4.9707 7.92773 5.18555 8.10352C5.41992 8.2793 5.60547 8.41602 5.74219 8.51367C5.87891 8.5918 6.05469 8.69922 6.26953 8.83594C6.48438 8.95312 6.68945 9.04102 6.88477 9.09961C7.09961 9.1582 7.30469 9.1875 7.5 9.1875C7.67578 9.1875 7.85156 9.16797 8.02734 9.12891C8.20312 9.07031 8.36914 9.01172 8.52539 8.95312C8.68164 8.875 8.84766 8.77734 9.02344 8.66016C9.19922 8.54297 9.3457 8.44531 9.46289 8.36719C9.58008 8.26953 9.7168 8.16211 9.87305 8.04492C10.0293 7.92773 10.1367 7.83984 10.1953 7.78125C12.5 6.12109 14.0039 5.01758 14.707 4.4707ZM7.5 8.25C7.34375 8.25 7.14844 8.20117 6.91406 8.10352C6.69922 7.98633 6.52344 7.88867 6.38672 7.81055C6.25 7.71289 6.04492 7.56641 5.77148 7.37109C5.51758 7.15625 5.38086 7.04883 5.36133 7.04883C2.97852 5.31055 1.2793 4.05078 0.263672 3.26953C0.0878906 3.13281 0 2.94727 0 2.71289V2.15625C0 1.76562 0.136719 1.43359 0.410156 1.16016C0.683594 0.886719 1.01562 0.75 1.40625 0.75H13.5938C13.9844 0.75 14.3164 0.886719 14.5898 1.16016C14.8633 1.43359 15 1.76562 15 2.15625V2.71289C15 2.94727 14.9121 3.13281 14.7363 3.26953C13.7793 4.01172 12.0801 5.27148 9.63867 7.04883C9.61914 7.04883 9.47266 7.15625 9.19922 7.37109C8.94531 7.56641 8.75 7.71289 8.61328 7.81055C8.47656 7.88867 8.29102 7.98633 8.05664 8.10352C7.8418 8.20117 7.65625 8.25 7.5 8.25Z"/>
        </g>
    </symbol>
    <symbol id="map-icon" viewBox="0 0 17 16">
        <g>
            <path d="M5.83008 1.95898C6.55273 1.23633 7.42188 0.875 8.4375 0.875C9.45312 0.875 10.3223 1.23633 11.0449 1.95898C11.7676 2.68164 12.1289 3.55078 12.1289 4.56641C12.1289 5.77734 11.0156 7.69141 8.78906 10.3086C8.69141 10.4258 8.57422 10.4844 8.4375 10.4844C8.30078 10.4844 8.18359 10.4258 8.08594 10.3086C5.85938 7.69141 4.74609 5.77734 4.74609 4.56641C4.74609 3.55078 5.10742 2.68164 5.83008 1.95898ZM7.55859 5.44531C7.8125 5.67969 8.10547 5.79688 8.4375 5.79688C8.76953 5.79688 9.05273 5.67969 9.28711 5.44531C9.54102 5.19141 9.66797 4.89844 9.66797 4.56641C9.66797 4.23438 9.54102 3.95117 9.28711 3.7168C9.05273 3.46289 8.76953 3.33594 8.4375 3.33594C8.10547 3.33594 7.8125 3.46289 7.55859 3.7168C7.32422 3.95117 7.20703 4.23438 7.20703 4.56641C7.20703 4.89844 7.32422 5.19141 7.55859 5.44531ZM0.585938 7.20312L4.07227 5.79688C4.20898 6.22656 4.41406 6.68555 4.6875 7.17383V14L0.644531 15.8457C0.566406 15.8848 0.488281 15.8945 0.410156 15.875C0.332031 15.8555 0.263672 15.8262 0.205078 15.7871C0.146484 15.748 0.0976562 15.6895 0.0585938 15.6113C0.0195312 15.5527 0 15.4844 0 15.4062V8.08203C0 7.90625 0.0585938 7.73047 0.175781 7.55469C0.292969 7.37891 0.429688 7.26172 0.585938 7.20312ZM7.35352 10.9238C7.64648 11.2559 8.00781 11.4219 8.4375 11.4219C8.86719 11.4219 9.22852 11.2559 9.52148 10.9238C10.166 10.1426 10.7422 9.39062 11.25 8.66797V15.875L5.625 14V8.66797C6.13281 9.39062 6.70898 10.1426 7.35352 10.9238ZM16.2305 5.5918C16.3477 5.55273 16.4453 5.55273 16.5234 5.5918C16.6211 5.61133 16.6992 5.66016 16.7578 5.73828C16.8359 5.81641 16.875 5.91406 16.875 6.03125V13.3555C16.875 13.4727 16.8457 13.5898 16.7871 13.707C16.748 13.8242 16.6797 13.9316 16.582 14.0293C16.4844 14.127 16.3867 14.1953 16.2891 14.2344L12.1875 15.875V7.4375L16.2305 5.5918Z"/>
        </g>
    </symbol>
    <symbol id="map-marker-icon" viewBox="0 0 42 55">
        <g>
            <path d="M20.7996 38.7058C30.4002 38.7058 38.1831 30.7799 38.1831 21.0029C38.1831 11.2259 30.4002 3.3 20.7996 3.3C11.1989 3.3 3.41602 11.2259 3.41602 21.0029C3.41602 30.7799 11.1989 38.7058 20.7996 38.7058Z"/>
            <path d="M20.861 0C16.9875 0.00181155 13.1909 1.08207 9.89669 3.11976C6.60245 5.15746 3.94061 8.07211 2.20935 11.5372C0.478086 15.0023 -0.254218 18.881 0.0944671 22.7388C0.443152 26.5966 1.85905 30.2812 4.18357 33.3797L20.1158 54.6203C20.2041 54.7379 20.3185 54.8332 20.45 54.8989C20.5815 54.9646 20.7264 54.9988 20.8734 54.9988C21.0204 54.9988 21.1654 54.9646 21.2968 54.8989C21.4283 54.8332 21.5427 54.7379 21.631 54.6203L37.5384 33.3797C39.8629 30.2812 41.2788 26.5966 41.6275 22.7388C41.9762 18.881 41.2439 15.0023 39.5126 11.5372C37.7814 8.07211 35.1195 5.15746 31.8253 3.11976C28.531 1.08207 24.7345 0.00181155 20.861 0ZM20.861 37.9323C17.4853 37.9323 14.1854 36.9313 11.3787 35.0558C8.57188 33.1804 6.38427 30.5148 5.09245 27.3961C3.80063 24.2773 3.46263 20.8456 4.1212 17.5348C4.77976 14.2239 6.4053 11.1828 8.79227 8.7958C11.1792 6.40883 14.2204 4.78329 17.5312 4.12473C20.8421 3.46616 24.2738 3.80416 27.3925 5.09598C30.5113 6.3878 33.1769 8.57541 35.0523 11.3822C36.9277 14.189 37.9287 17.4888 37.9287 20.8645C37.9231 25.3894 36.1231 29.7274 32.9235 32.927C29.7239 36.1266 25.3859 37.9266 20.861 37.9323Z"/>
            <path d="M34.1011 19.871C34.0854 19.7074 34.0274 19.5508 33.9328 19.4164C33.8383 19.282 33.7104 19.1745 33.5617 19.1045L30.8295 17.8165C30.6373 17.191 30.3866 16.5851 30.0808 16.0068L31.0956 13.1681C31.1516 13.0101 31.1654 12.8402 31.1355 12.6753C31.1056 12.5103 31.0332 12.356 30.9253 12.2277C30.4918 11.7166 30.017 11.2419 29.5059 10.8084C29.3776 10.7005 29.2234 10.628 29.0584 10.5982C28.8935 10.5683 28.7236 10.582 28.5656 10.6381L25.7269 11.6529C25.1485 11.347 24.5426 11.0964 23.9172 10.9042L22.6362 8.1613C22.5662 8.01265 22.4588 7.88477 22.3244 7.79021C22.19 7.69565 22.0333 7.63766 21.8698 7.62194C21.2004 7.56496 20.5273 7.56496 19.8579 7.62194C19.6937 7.63707 19.5363 7.69478 19.4012 7.78937C19.2662 7.88397 19.1582 8.01217 19.0879 8.1613L17.7998 10.8936C17.1744 11.0857 16.5685 11.3364 15.9901 11.6423L13.1514 10.6274C12.9934 10.5714 12.8235 10.5576 12.6586 10.5875C12.4936 10.6174 12.3394 10.6899 12.2111 10.7977C11.6999 11.2313 11.2252 11.706 10.7917 12.2171C10.6899 12.3431 10.6216 12.4927 10.5931 12.6521C10.5645 12.8115 10.5767 12.9756 10.6285 13.129L11.6433 15.9677C11.3375 16.5461 11.0868 17.152 10.8946 17.7774L8.16237 19.0655C8.00827 19.1387 7.87681 19.2522 7.78187 19.394C7.68694 19.5358 7.63205 19.7006 7.62302 19.871C7.59463 20.2045 7.58398 20.5345 7.58398 20.8752C7.58398 21.2158 7.58398 21.5494 7.62302 21.8794C7.63874 22.0429 7.69672 22.1996 7.79128 22.3339C7.88584 22.4683 8.01372 22.5758 8.16237 22.6458L10.8946 23.9339C11.0849 24.5566 11.3332 25.1601 11.6362 25.7365L10.6214 28.5752C10.5654 28.7331 10.5516 28.903 10.5815 29.068C10.6114 29.2329 10.6838 29.3872 10.7917 29.5155C11.2253 30.0266 11.7 30.5013 12.2111 30.9348C12.3394 31.0427 12.4936 31.1152 12.6586 31.1451C12.8235 31.175 12.9934 31.1612 13.1514 31.1052L15.9901 30.0903C16.5685 30.3962 17.1744 30.6469 17.7998 30.839L19.0879 33.5606C19.1579 33.7093 19.2653 33.8372 19.3997 33.9317C19.5341 34.0263 19.6908 34.0843 19.8543 34.1C20.1879 34.1284 20.5179 34.139 20.8585 34.139C21.1991 34.139 21.5327 34.139 21.8627 34.1C22.0275 34.0855 22.1856 34.028 22.3213 33.9334C22.4571 33.8388 22.5656 33.7103 22.6362 33.5606L23.9243 30.8284C24.5497 30.6362 25.1556 30.3856 25.734 30.0797L28.5727 31.0945C28.7307 31.1505 28.9006 31.1643 29.0655 31.1344C29.2305 31.1046 29.3847 31.0321 29.513 30.9242C30.0241 30.4906 30.4988 30.0159 30.9324 29.5048C31.0403 29.3765 31.1127 29.2223 31.1426 29.0573C31.1725 28.8924 31.1587 28.7225 31.1027 28.5645L30.0879 25.7258C30.3937 25.1474 30.6444 24.5415 30.8366 23.9161L33.5688 22.6281C33.7175 22.5581 33.8453 22.4506 33.9399 22.3162C34.0345 22.1818 34.0925 22.0252 34.1082 21.8616C34.1366 21.5281 34.1472 21.1981 34.1472 20.8574C34.1472 20.5168 34.1295 20.1903 34.1011 19.871ZM20.862 26.5526C19.7392 26.5526 18.6415 26.2196 17.7078 25.5958C16.7742 24.9719 16.0465 24.0852 15.6168 23.0478C15.1871 22.0104 15.0747 20.8689 15.2937 19.7676C15.5128 18.6662 16.0535 17.6546 16.8475 16.8606C17.6415 16.0666 18.6531 15.5259 19.7544 15.3068C20.8558 15.0878 21.9973 15.2002 23.0347 15.6299C24.0721 16.0596 24.9588 16.7873 25.5826 17.721C26.2065 18.6546 26.5395 19.7523 26.5395 20.8752C26.5395 22.3809 25.9413 23.825 24.8766 24.8897C23.8119 25.9544 22.3678 26.5526 20.862 26.5526Z"/>
        </g>
    </symbol>
    <symbol id="modal-close-icon" viewBox="0 0 16 16">
        <g>
            <path d="M16 1.61716L14.3828 0L7.99997 6.38287L1.61716 0L0 1.61716L6.38287 7.99997L0 14.3828L1.61716 16L7.99997 9.61713L14.3828 16L16 14.3828L9.61713 7.99997L16 1.61716Z"/>
        </g>
    </symbol>
    <symbol id="search-icon" viewBox="0 0 16 16">
        <g>
            <path d="M15.7812 13.8438C15.9271 13.9896 16 14.1667 16 14.375C16 14.5833 15.9271 14.7604 15.7812 14.9062L14.9062 15.7812C14.7604 15.9271 14.5833 16 14.375 16C14.1667 16 13.9896 15.9271 13.8438 15.7812L10.7188 12.6562C10.5729 12.5104 10.5 12.3333 10.5 12.125V11.625C9.33333 12.5417 8 13 6.5 13C4.70833 13 3.17708 12.3646 1.90625 11.0938C0.635417 9.82292 0 8.29167 0 6.5C0 4.70833 0.635417 3.17708 1.90625 1.90625C3.17708 0.635417 4.70833 0 6.5 0C8.29167 0 9.82292 0.635417 11.0938 1.90625C12.3646 3.17708 13 4.70833 13 6.5C13 8 12.5417 9.33333 11.625 10.5H12.125C12.3333 10.5 12.5104 10.5729 12.6562 10.7188L15.7812 13.8438ZM3.65625 9.34375C4.44792 10.1146 5.39583 10.5 6.5 10.5C7.60417 10.5 8.54167 10.1146 9.3125 9.34375C10.1042 8.55208 10.5 7.60417 10.5 6.5C10.5 5.39583 10.1042 4.45833 9.3125 3.6875C8.54167 2.89583 7.60417 2.5 6.5 2.5C5.39583 2.5 4.44792 2.89583 3.65625 3.6875C2.88542 4.45833 2.5 5.39583 2.5 6.5C2.5 7.60417 2.88542 8.55208 3.65625 9.34375Z"/>
        </g>
    </symbol>
    <symbol id="select-arrow" viewBox="0 0 11 8">
      <g>
        <path d="M4.5 7L0.25 2.75C0.104167 2.60417 0.03125 2.42708 0.03125 2.21875C0.03125 2.01042 0.104167 1.83333 0.25 1.6875L0.96875 1C1.11458 0.854167 1.29167 0.78125 1.5 0.78125C1.70833 0.78125 1.88542 0.854167 2.03125 1L5.03125 4L8.03125 1C8.17708 0.854167 8.35417 0.78125 8.5625 0.78125C8.77083 0.78125 8.94792 0.854167 9.09375 1L9.8125 1.6875C9.95833 1.83333 10.0312 2.01042 10.0312 2.21875C10.0312 2.42708 9.95833 2.60417 9.8125 2.75L5.5625 7C5.41667 7.14583 5.23958 7.21875 5.03125 7.21875C4.82292 7.21875 4.64583 7.14583 4.5 7Z"/>
      </g>
    </symbol>
    <symbol id="shopping-cart-icon" viewBox="0 0 95 96">
      <g>
        <path d="M23.3472 7.87646H0.00488281V19.1186H14.7207L29.5907 74.6149H86.581L90.237 70.9583V63.3727H38.2172L23.3472 7.87646ZM87.4707 69.8129L85.4349 71.8494H31.7136L16.8437 16.3524H2.77112V10.6427H5.72899V14.0789H8.49523V10.6427H10.4734V14.0789H13.2396V10.6427H15.2171V14.0789H17.9833V10.6427H21.2243L36.095 66.139H87.4707V69.8129Z"/>
        <path d="M39.5144 83.9135C41.6561 83.9135 43.3979 82.1716 43.3979 80.0299C43.3979 77.889 41.6561 76.1471 39.5144 76.1471C37.3734 76.1471 35.6309 77.889 35.6309 80.0299C35.6309 82.1716 37.3734 83.9135 39.5144 83.9135ZM39.5144 78.9133C40.1303 78.9133 40.6317 79.414 40.6317 80.0299C40.6317 80.6458 40.1303 81.1472 39.5144 81.1472C38.8985 81.1472 38.3971 80.6458 38.3971 80.0299C38.3971 79.414 38.8985 78.9133 39.5144 78.9133Z"/>
        <path d="M76.7119 83.9135C78.8536 83.9135 80.5955 82.1716 80.5955 80.0299C80.5955 77.889 78.8536 76.1471 76.7119 76.1471C74.571 76.1471 72.8291 77.889 72.8291 80.0299C72.8291 82.1716 74.571 83.9135 76.7119 83.9135ZM76.7119 78.9133C77.3278 78.9133 77.8292 79.414 77.8292 80.0299C77.8292 80.6458 77.3278 81.1472 76.7119 81.1472C76.096 81.1472 75.5953 80.6458 75.5953 80.0299C75.5953 79.414 76.096 78.9133 76.7119 78.9133Z"/>
        <path d="M85.8335 26.6365H67.9639V39.2416H82.46L85.8335 26.6365ZM80.337 36.4754H70.7301V29.4027H82.2295L80.337 36.4754Z"/>
        <path d="M49.3346 26.6365H31.3691L34.7463 39.2416H49.3346V26.6365ZM46.5683 36.4754H36.8685L34.9739 29.4027H46.5683V36.4754Z"/>
        <path d="M65.3782 26.6365H51.9209V39.2416H65.3782V26.6365ZM62.612 36.4754H54.6871V29.4027H62.612V36.4754Z"/>
        <path d="M67.9639 54.5899H78.3531L81.7259 41.9847H67.9639V54.5899ZM70.7301 44.751H78.1219L76.2295 51.8236H70.7301V44.751Z"/>
        <path d="M51.9209 54.5899H65.3782V41.9847H51.9209V54.5899ZM54.6871 44.751H62.612V51.8236H54.6871V44.751Z"/>
        <path d="M49.3347 54.5899V41.9847H35.4805L38.8569 54.5899H49.3347ZM46.5685 44.751V51.8236H40.9798L39.0852 44.751H46.5685Z"/>
        <path d="M28.5137 17.3545V20.1207H91.6596V26.6365H88.8293L80.8194 56.5681H39.0211V59.3344H82.9424L90.9522 29.4028H94.4259V17.3545H28.5137Z"/>
        <path d="M44.3315 77.554C44.7284 78.3241 44.9294 79.1568 44.9294 80.0299C44.9294 83.0159 42.5003 85.445 39.5143 85.445C36.5284 85.445 34.0992 83.0159 34.0992 80.0299C34.0992 79.1568 34.301 78.3241 34.6972 77.554L32.2385 76.2869C31.6464 77.4359 31.333 78.7304 31.333 80.0299C31.333 84.5416 35.0033 88.2112 39.5143 88.2112C44.0253 88.2112 47.6956 84.5416 47.6956 80.0299C47.6956 78.7304 47.383 77.4359 46.7908 76.2869L44.3315 77.554Z"/>
        <path d="M81.529 77.554C81.9259 78.3234 82.1269 79.1568 82.1269 80.0299C82.1269 83.0159 79.6978 85.445 76.7118 85.445C73.7266 85.445 71.2975 83.0159 71.2975 80.0299C71.2975 79.1568 71.4985 78.3241 71.8947 77.554L69.436 76.2869C68.8439 77.4359 68.5312 78.7304 68.5312 80.0299C68.5312 84.5416 72.2008 88.2112 76.7118 88.2112C81.2235 88.2112 84.8931 84.5416 84.8931 80.0299C84.8931 78.7304 84.5805 77.4359 83.9883 76.2869L81.529 77.554Z"/>
        <path d="M89.6598 24.4854H72.9571V21.7191H89.6598V24.4854ZM71.113 24.4854H68.3467V21.7191H71.113V24.4854ZM66.5026 24.4854H63.7363V21.7191H66.5026V24.4854Z"/>
        <path d="M84.2032 70.3423H64.8439V67.576H84.2032V70.3423ZM62.9997 70.3423H60.2334V67.576H62.9997V70.3423ZM58.3893 70.3423H55.623V67.576H58.3893V70.3423Z"/>
      </g>
    </symbol>
    <symbol id="sitemap-icon" viewBox="0 0 18 15">
      <g>
        <path d="M3.5 10.375C3.73698 10.375 3.9375 10.4661 4.10156 10.6484C4.28385 10.8125 4.375 11.013 4.375 11.25V13.875C4.375 14.112 4.28385 14.3125 4.10156 14.4766C3.9375 14.6589 3.73698 14.75 3.5 14.75H0.875C0.638021 14.75 0.428385 14.6589 0.246094 14.4766C0.0820312 14.3125 0 14.112 0 13.875V11.25C0 11.013 0.0820312 10.8125 0.246094 10.6484C0.428385 10.4661 0.638021 10.375 0.875 10.375H3.5ZM2.84375 8.1875V9.5H1.53125V7.91406C1.53125 7.64062 1.63151 7.40365 1.83203 7.20312C2.05078 6.98438 2.29688 6.875 2.57031 6.875H8.09375V5.125H7C6.76302 5.125 6.55339 5.04297 6.37109 4.87891C6.20703 4.69661 6.125 4.48698 6.125 4.25V1.625C6.125 1.38802 6.20703 1.1875 6.37109 1.02344C6.55339 0.841146 6.76302 0.75 7 0.75H10.5C10.737 0.75 10.9375 0.841146 11.1016 1.02344C11.2839 1.1875 11.375 1.38802 11.375 1.625V4.25C11.375 4.48698 11.2839 4.69661 11.1016 4.87891C10.9375 5.04297 10.737 5.125 10.5 5.125H9.40625V6.875H14.9297C15.2031 6.875 15.4401 6.98438 15.6406 7.20312C15.8594 7.40365 15.9688 7.64062 15.9688 7.91406V9.5H14.6562V8.1875H9.40625V9.5H8.09375V8.1875H2.84375ZM10.0625 10.375C10.2995 10.375 10.5 10.4661 10.6641 10.6484C10.8464 10.8125 10.9375 11.013 10.9375 11.25V13.875C10.9375 14.112 10.8464 14.3125 10.6641 14.4766C10.5 14.6589 10.2995 14.75 10.0625 14.75H7.4375C7.20052 14.75 6.99089 14.6589 6.80859 14.4766C6.64453 14.3125 6.5625 14.112 6.5625 13.875V11.25C6.5625 11.013 6.64453 10.8125 6.80859 10.6484C6.99089 10.4661 7.20052 10.375 7.4375 10.375H10.0625ZM16.625 10.375C16.862 10.375 17.0625 10.4661 17.2266 10.6484C17.4089 10.8125 17.5 11.013 17.5 11.25V13.875C17.5 14.112 17.4089 14.3125 17.2266 14.4766C17.0625 14.6589 16.862 14.75 16.625 14.75H14C13.763 14.75 13.5534 14.6589 13.3711 14.4766C13.207 14.3125 13.125 14.112 13.125 13.875V11.25C13.125 11.013 13.207 10.8125 13.3711 10.6484C13.5534 10.4661 13.763 10.375 14 10.375H16.625Z"/>
      </g>
    </symbol>
    <symbol id="social-mail-icon" viewBox="0 0 14 15">
      <g>
        <path d="M7 0.96875C8.93229 0.96875 10.5456 1.53385 11.8398 2.66406C13.1341 3.79427 13.7812 5.27083 13.7812 7.09375C13.7812 8.24219 13.444 9.19922 12.7695 9.96484C12.0951 10.7305 11.0651 11.1133 9.67969 11.1133C9.40625 11.1133 9.19661 11.1133 9.05078 11.1133C8.90495 11.0951 8.72266 11.0586 8.50391 11.0039C8.30339 10.9492 8.13932 10.8581 8.01172 10.7305C7.88411 10.5846 7.79297 10.4023 7.73828 10.1836C7.5013 10.4935 7.19141 10.7487 6.80859 10.9492C6.42578 11.1497 6.05208 11.25 5.6875 11.25C4.88542 11.25 4.2474 10.9948 3.77344 10.4844C3.29948 9.95573 3.0625 9.24479 3.0625 8.35156C3.0625 7.14844 3.42708 6.15495 4.15625 5.37109C4.90365 4.58724 5.79688 4.19531 6.83594 4.19531C7.60156 4.19531 8.14844 4.39583 8.47656 4.79688C8.49479 4.57812 8.61328 4.46875 8.83203 4.46875H10.0625C10.2812 4.46875 10.4544 4.55078 10.582 4.71484C10.7096 4.86068 10.7552 5.04297 10.7188 5.26172L10.0625 8.57031C10.0078 8.80729 9.9987 8.9987 10.0352 9.14453C10.0898 9.29036 10.2266 9.3724 10.4453 9.39062C10.9193 9.33594 11.3021 9.08073 11.5938 8.625C11.8854 8.16927 12.0312 7.65885 12.0312 7.09375C12.0312 5.74479 11.5482 4.67839 10.582 3.89453C9.61589 3.11068 8.42188 2.71875 7 2.71875C5.61458 2.71875 4.42969 3.21094 3.44531 4.19531C2.46094 5.17969 1.96875 6.36458 1.96875 7.75C1.96875 9.13542 2.46094 10.3203 3.44531 11.3047C4.42969 12.2891 5.61458 12.7812 7 12.7812C7.98438 12.7812 8.88672 12.5169 9.70703 11.9883C9.85286 11.8971 10.0078 11.8698 10.1719 11.9062C10.3359 11.9245 10.4727 11.9974 10.582 12.125L10.8555 12.4531C10.9831 12.6172 11.0286 12.7995 10.9922 13C10.9557 13.1823 10.8555 13.3281 10.6914 13.4375C9.57943 14.1667 8.34896 14.5312 7 14.5312C5.1224 14.5312 3.51823 13.875 2.1875 12.5625C0.875 11.2318 0.21875 9.6276 0.21875 7.75C0.21875 5.8724 0.875 4.27734 2.1875 2.96484C3.51823 1.63411 5.1224 0.96875 7 0.96875ZM6.39844 9.28125C6.78125 9.28125 7.13672 9.09896 7.46484 8.73438C7.8112 8.35156 7.98438 7.8776 7.98438 7.3125C7.98438 6.96615 7.90234 6.69271 7.73828 6.49219C7.57422 6.29167 7.33724 6.19141 7.02734 6.19141C6.60807 6.19141 6.23438 6.38281 5.90625 6.76562C5.57812 7.13021 5.41406 7.60417 5.41406 8.1875C5.41406 8.53385 5.50521 8.80729 5.6875 9.00781C5.86979 9.1901 6.10677 9.28125 6.39844 9.28125Z"/>
      </g>
    </symbol>
    <symbol id="tel-icon" viewBox="0 0 15 16">
      <g>
        <path d="M14.5605 11.4805C14.8535 11.5977 15 11.8125 15 12.125C15 12.1836 14.9902 12.2324 14.9707 12.2715L14.2676 15.3184C14.248 15.416 14.1992 15.5039 14.1211 15.582C14.0625 15.6797 13.9844 15.748 13.8867 15.7871C13.7891 15.8457 13.6914 15.875 13.5938 15.875C9.84375 15.875 6.64062 14.5469 3.98438 11.8906C1.32813 9.23438 0 6.03125 0 2.28125C0 2.18359 0.0195312 2.08594 0.0585938 1.98828C0.117188 1.89063 0.185547 1.8125 0.263672 1.75391C0.361328 1.67578 0.458984 1.62695 0.556641 1.60742L3.60352 0.904297C3.64258 0.884766 3.69141 0.875 3.75 0.875C4.0625 0.875 4.27734 1.02148 4.39453 1.31445L5.80078 4.5957C5.83984 4.67383 5.85938 4.76172 5.85938 4.85938C5.85938 5.07422 5.77148 5.25977 5.5957 5.41602L3.83789 6.85156C4.28711 7.82812 5.01953 8.82422 6.03516 9.83984C7.05078 10.8555 8.04688 11.5879 9.02344 12.0371L10.459 10.2793C10.6152 10.1035 10.8008 10.0156 11.0156 10.0156C11.1133 10.0156 11.2012 10.0352 11.2793 10.0742L14.5605 11.4805Z"/>
      </g>
    </symbol>
    <symbol id="time-icon" viewBox="0 0 16 16">
      <g>
        <path d="M2.5 2.53125C4.02083 1.01042 5.85417 0.25 8 0.25C10.1458 0.25 11.9688 1.01042 13.4688 2.53125C14.9896 4.03125 15.75 5.85417 15.75 8C15.75 10.1458 14.9896 11.9792 13.4688 13.5C11.9688 15 10.1458 15.75 8 15.75C5.85417 15.75 4.02083 15 2.5 13.5C1 11.9792 0.25 10.1458 0.25 8C0.25 5.85417 1 4.03125 2.5 2.53125ZM3.5625 12.4375C4.79167 13.6458 6.27083 14.25 8 14.25C9.72917 14.25 11.1979 13.6458 12.4062 12.4375C13.6354 11.2083 14.25 9.72917 14.25 8C14.25 6.27083 13.6354 4.80208 12.4062 3.59375C11.1979 2.36458 9.72917 1.75 8 1.75C6.27083 1.75 4.79167 2.36458 3.5625 3.59375C2.35417 4.80208 1.75 6.27083 1.75 8C1.75 9.72917 2.35417 11.2083 3.5625 12.4375ZM9.9375 11L7.28125 9.0625C7.17708 8.97917 7.125 8.875 7.125 8.75V3.625C7.125 3.375 7.25 3.25 7.5 3.25H8.5C8.75 3.25 8.875 3.375 8.875 3.625V8.0625L10.9688 9.5625C11.1562 9.70833 11.1771 9.88542 11.0312 10.0938L10.4688 10.9062C10.3229 11.1146 10.1458 11.1458 9.9375 11Z"/>
      </g>
    </symbol>
    <symbol id="twitter-icon" viewBox="0 0 14 12">
      <g>
        <path d="M12.5508 2.90625C12.569 2.97917 12.5781 3.09766 12.5781 3.26172C12.5781 4.22786 12.3958 5.19401 12.0312 6.16016C11.6667 7.10807 11.1471 7.98307 10.4727 8.78516C9.81641 9.56901 8.95964 10.207 7.90234 10.6992C6.84505 11.1914 5.67839 11.4375 4.40234 11.4375C2.79818 11.4375 1.33073 11.0091 0 10.1523C0.200521 10.1706 0.428385 10.1797 0.683594 10.1797C2.01432 10.1797 3.20833 9.76953 4.26562 8.94922C3.6276 8.94922 3.0625 8.76693 2.57031 8.40234C2.09635 8.01953 1.76823 7.54557 1.58594 6.98047C1.76823 6.9987 1.94141 7.00781 2.10547 7.00781C2.36068 7.00781 2.61589 6.98047 2.87109 6.92578C2.43359 6.83464 2.04167 6.65234 1.69531 6.37891C1.34896 6.10547 1.07552 5.77734 0.875 5.39453C0.674479 4.99349 0.574219 4.5651 0.574219 4.10938V4.05469C0.97526 4.29167 1.40365 4.41927 1.85938 4.4375C1.0026 3.85417 0.574219 3.05208 0.574219 2.03125C0.574219 1.52083 0.710938 1.03776 0.984375 0.582031C1.69531 1.47526 2.5612 2.1862 3.58203 2.71484C4.62109 3.24349 5.72396 3.53516 6.89062 3.58984C6.85417 3.37109 6.83594 3.15234 6.83594 2.93359C6.83594 2.14974 7.10938 1.47526 7.65625 0.910156C8.22135 0.345052 8.89583 0.0625 9.67969 0.0625C10.5182 0.0625 11.2201 0.363281 11.7852 0.964844C12.4414 0.83724 13.0521 0.609375 13.6172 0.28125C13.3984 0.955729 12.9792 1.48438 12.3594 1.86719C12.9062 1.79427 13.4531 1.63932 14 1.40234C13.599 1.98568 13.1159 2.48698 12.5508 2.90625Z"/>
      </g>
    </symbol>
    <symbol id="unlike-icon" viewBox="0 0 17 19">
      <g>
        <path d="M16.3828 8.16016C16.7109 8.72266 16.875 9.30859 16.875 9.91797C16.875 10.7148 16.582 11.418 15.9961 12.0273C15.4102 12.6367 14.6953 12.9414 13.8516 12.9414H12.5859C12.7969 13.4805 12.9023 14.0195 12.9023 14.5586C12.9023 15.8008 12.5977 16.7266 11.9883 17.3359C11.4023 17.9453 10.582 18.25 9.52734 18.25C8.89453 18.25 8.40234 17.9688 8.05078 17.4062C7.72266 16.8672 7.48828 16.2578 7.34766 15.5781C7.20703 14.8984 7.10156 14.5117 7.03125 14.418C6.77344 14.1602 6.36328 13.668 5.80078 12.9414C5.23828 12.1914 4.83984 11.7109 4.60547 11.5H4.35938C4.125 11.875 3.79688 12.0625 3.375 12.0625H1.125C0.820312 12.0625 0.550781 11.957 0.316406 11.7461C0.105469 11.5117 0 11.2422 0 10.9375V2.5C0 2.19531 0.105469 1.9375 0.316406 1.72656C0.550781 1.49219 0.820312 1.375 1.125 1.375H3.375C3.65625 1.375 3.90234 1.46875 4.11328 1.65625H4.5C4.85156 1.65625 5.29688 1.53906 5.83594 1.30469C6.375 1.07031 7.05469 0.835938 7.875 0.601562C8.71875 0.367187 9.66797 0.25 10.7227 0.25C10.793 0.25 10.9219 0.25 11.1094 0.25C11.2969 0.25 11.4258 0.25 11.4961 0.25C12.8086 0.25 13.793 0.554688 14.4492 1.16406C15.1055 1.75 15.4453 2.55859 15.4688 3.58984C15.9844 4.31641 16.1836 5.10156 16.0664 5.94531C16.4414 6.64844 16.5469 7.38672 16.3828 8.16016ZM1.65234 10.4102C1.81641 10.5742 2.01562 10.6562 2.25 10.6562C2.48438 10.6562 2.68359 10.5742 2.84766 10.4102C3.01172 10.2461 3.09375 10.0469 3.09375 9.8125C3.09375 9.57812 3.01172 9.37891 2.84766 9.21484C2.68359 9.05078 2.48438 8.96875 2.25 8.96875C2.01562 8.96875 1.81641 9.05078 1.65234 9.21484C1.48828 9.37891 1.40625 9.57812 1.40625 9.8125C1.40625 10.0469 1.48828 10.2461 1.65234 10.4102ZM13.8516 11.2539C14.0859 11.2539 14.3086 11.1953 14.5195 11.0781C14.7305 10.9375 14.8945 10.7617 15.0117 10.5508C15.1289 10.3398 15.1875 10.1289 15.1875 9.91797C15.1875 9.58984 15.0938 9.28516 14.9062 9.00391C14.7422 8.72266 14.5781 8.58203 14.4141 8.58203C14.6719 8.34766 14.7891 7.99609 14.7656 7.52734C14.7656 7.03516 14.5898 6.61328 14.2383 6.26172C14.4258 5.88672 14.4609 5.5 14.3438 5.10156C14.2266 4.70312 14.0273 4.42188 13.7461 4.25781C13.9805 2.71094 13.3477 1.9375 11.8477 1.9375H10.5469C9.65625 1.9375 8.56641 2.16016 7.27734 2.60547C6.01172 3.05078 5.08594 3.27344 4.5 3.27344V9.8125H4.88672C5.16797 9.8125 5.50781 10.0234 5.90625 10.4453C6.30469 10.8438 6.73828 11.3594 7.20703 11.9922C7.67578 12.625 8.00391 13.0352 8.19141 13.2227C8.56641 13.5977 8.83594 14.207 9 15.0508C9.16406 15.8711 9.33984 16.375 9.52734 16.5625C9.92578 16.5625 10.2422 16.5039 10.4766 16.3867C10.7344 16.2695 10.9102 16.0938 11.0039 15.8594C11.0977 15.625 11.1562 15.4258 11.1797 15.2617C11.2031 15.0977 11.2148 14.8633 11.2148 14.5586C11.2148 14.1133 11.0391 13.5625 10.6875 12.9062C10.3594 12.2266 10.1953 11.6758 10.1953 11.2539H13.8516Z"/>
      </g>
    </symbol>
    <symbol id="user-icon" viewBox="0 0 26 26">
      <g>
        <path d="M11.3263 0.0551357C11.037 0.0940395 10.062 0.30476 9.64926 0.418228C7.74476 0.943415 5.96376 1.85439 4.70276 2.95339C4.03976 3.53045 3.10376 4.49653 2.62601 5.0898C1.51776 6.47409 0.559012 8.59105 0.159262 10.5362C0.0292615 11.1781 -0.0129885 11.9983 0.00976148 13.5187C0.0292615 14.7636 0.0520115 15.01 0.211262 15.72C0.575262 17.3604 1.27726 18.9748 2.23601 20.3753C3.41901 22.1033 5.08301 23.5881 6.89001 24.5314C8.22251 25.2252 9.80201 25.7472 11.05 25.906C11.5245 25.9676 14.5795 25.9708 14.9988 25.9092C15.6553 25.8152 16.731 25.5202 17.6313 25.1895C18.174 24.9918 19.3798 24.4018 19.8543 24.1035C20.7123 23.5654 21.3785 23.0467 22.0578 22.3886C23.8388 20.6671 25.0803 18.5112 25.6913 16.0798C25.8863 15.2985 25.9285 15.0586 25.9708 14.4329C26.013 13.8137 25.9903 11.5606 25.935 11.1197C25.857 10.4908 25.7075 9.88132 25.376 8.88282C24.8138 7.18406 23.9103 5.62471 22.7305 4.32795C21.112 2.54491 19.1718 1.29678 16.9 0.570597C15.9283 0.256134 15.2393 0.119973 14.404 0.0648617C13.949 0.0356838 11.531 0.0292019 11.3263 0.0551357ZM14.235 1.63718C15.3693 1.73444 16.2663 1.95489 17.3225 2.39903C18.98 3.09927 20.2605 3.98755 21.45 5.2681C22.204 6.07858 22.7988 6.95713 23.322 8.02371C23.933 9.27509 24.2093 10.1601 24.3653 11.3823C24.4465 12.0112 24.4465 14.0309 24.3653 14.6372C24.1865 15.9599 23.829 17.02 23.0458 18.5534L22.8508 18.9359L22.594 18.696C21.736 17.8985 20.2703 17.0848 18.3138 16.3262C18.0115 16.2063 17.615 16.0506 17.433 15.9826C17.2543 15.9112 17.0853 15.8529 17.0593 15.8529C17.0333 15.8529 16.9553 15.9015 16.8838 15.9631C16.1038 16.6245 15.6 16.9778 15.0865 17.221C14.3423 17.5743 13.9035 17.6684 13 17.6684C12.337 17.6684 11.9763 17.623 11.5863 17.4933C10.7705 17.221 10.14 16.8384 9.24951 16.0733C9.10976 15.9501 8.97651 15.8529 8.95376 15.8529C8.91151 15.8529 7.75451 16.2905 7.21501 16.511C6.72751 16.7088 6.33426 16.8871 5.74276 17.1853C4.62151 17.7429 3.92926 18.1935 3.37351 18.7349C3.25326 18.8516 3.14926 18.9392 3.13951 18.9294C3.11351 18.9003 2.76251 18.1871 2.60001 17.8304C2.11576 16.7574 1.81676 15.7524 1.63476 14.5886C1.55351 14.0601 1.54701 13.9467 1.54701 12.9838C1.54376 12.0664 1.55351 11.8881 1.61851 11.4472C1.88501 9.6706 2.49926 8.06262 3.45476 6.64591C4.17951 5.56636 5.21626 4.49977 6.32126 3.6893C7.86501 2.56112 10.192 1.70202 12.0575 1.57558C12.3825 1.55289 13.6565 1.59179 14.235 1.63718Z"/>
      </g>
    </symbol>
    <symbol id="vk-icon" viewBox="0 0 16 10">
      <g>
        <path d="M14.9023 0.976562C14.8477 1.25 14.6289 1.69661 14.2461 2.31641C13.8815 2.9362 13.5443 3.48307 13.2344 3.95703C12.9245 4.41276 12.7604 4.64974 12.7422 4.66797C12.6328 4.83203 12.5781 4.95052 12.5781 5.02344C12.5781 5.09635 12.6328 5.22396 12.7422 5.40625C12.7422 5.40625 12.7969 5.47005 12.9062 5.59766C13.0339 5.72526 13.1797 5.87109 13.3438 6.03516C13.5078 6.19922 13.6901 6.39062 13.8906 6.60938C14.0911 6.82812 14.2734 7.04688 14.4375 7.26562C14.6198 7.46615 14.7747 7.67578 14.9023 7.89453C15.0482 8.11328 15.1484 8.29557 15.2031 8.44141C15.3307 8.89714 15.1484 9.125 14.6562 9.125H13.043C12.9154 9.125 12.806 9.10677 12.7148 9.07031C12.6237 9.03385 12.5234 8.97005 12.4141 8.87891C12.3047 8.78776 12.2044 8.6875 12.1133 8.57812C12.0221 8.46875 11.8854 8.3138 11.7031 8.11328C11.5208 7.91276 11.3385 7.72135 11.1562 7.53906C10.4271 6.84635 9.88932 6.5 9.54297 6.5C9.32422 6.5 9.19661 6.5638 9.16016 6.69141C9.1237 6.81901 9.10547 7.18359 9.10547 7.78516C9.1237 8.07682 9.13281 8.3138 9.13281 8.49609C9.13281 8.71484 9.0599 8.87891 8.91406 8.98828C8.76823 9.07943 8.44922 9.125 7.95703 9.125C7.10026 9.125 6.23438 8.86979 5.35938 8.35938C4.48438 7.84896 3.71875 7.11979 3.0625 6.17188C2.44271 5.33333 1.92318 4.50391 1.50391 3.68359C1.10286 2.84505 0.838542 2.20703 0.710938 1.76953C0.583333 1.33203 0.519531 1.02214 0.519531 0.839844C0.519531 0.529948 0.701823 0.375 1.06641 0.375H2.67969C2.88021 0.375 3.02604 0.420573 3.11719 0.511719C3.22656 0.602865 3.31771 0.766927 3.39062 1.00391C3.77344 2.11589 4.23828 3.10938 4.78516 3.98438C5.35026 4.85938 5.77865 5.29688 6.07031 5.29688C6.17969 5.29688 6.2526 5.26042 6.28906 5.1875C6.34375 5.09635 6.37109 4.93229 6.37109 4.69531V2.31641C6.35286 2.0612 6.30729 1.84245 6.23438 1.66016C6.16146 1.47786 6.08854 1.35026 6.01562 1.27734C5.94271 1.1862 5.86979 1.09505 5.79688 1.00391C5.74219 0.91276 5.71484 0.830729 5.71484 0.757812C5.71484 0.684896 5.73307 0.621094 5.76953 0.566406C5.80599 0.511719 5.85156 0.466146 5.90625 0.429688C5.97917 0.393229 6.05208 0.375 6.125 0.375H8.66797C8.95964 0.375 9.10547 0.575521 9.10547 0.976562V4.14844C9.10547 4.45833 9.1875 4.61328 9.35156 4.61328C9.53385 4.61328 9.78906 4.44922 10.1172 4.12109C10.4635 3.73828 10.8008 3.27344 11.1289 2.72656C11.457 2.17969 11.7031 1.72396 11.8672 1.35938L12.1133 0.839844C12.2409 0.529948 12.4688 0.375 12.7969 0.375H14.4102C14.8477 0.375 15.0117 0.575521 14.9023 0.976562Z"/>
      </g>
    </symbol>
    <symbol id="works-icon" viewBox="0 0 37 37">
      <g>
        <path d="M36.458 35.9159H34.6829V28.4662C35.0376 28.1543 35.2622 27.6977 35.2622 27.1893C35.2622 26.2516 34.4992 25.4887 33.5616 25.4887H30.0157L29.4682 16.7282C29.4503 16.4426 29.2134 16.2201 28.9273 16.2201H26.6101C26.3239 16.2201 26.087 16.4426 26.0692 16.7282L25.5216 25.4887H24.2228L23.6752 16.7282C23.6574 16.4426 23.4205 16.2201 23.1343 16.2201H20.8172C20.531 16.2201 20.2941 16.4426 20.2763 16.7282L19.7287 25.4887H18.4299L17.8823 16.7282C17.8645 16.4426 17.6276 16.2201 17.3414 16.2201H15.0243C14.7381 16.2201 14.5013 16.4426 14.4834 16.7282L13.9358 25.4887H12.4262L12.0905 10.3778C12.084 10.0833 11.8433 9.8479 11.5486 9.8479H8.07287C7.77824 9.8479 7.53752 10.0833 7.53102 10.3778L7.14375 27.8059H2.85912C1.9214 27.8059 1.15856 28.5688 1.15856 29.5065C1.15856 30.0149 1.38309 30.4715 1.73784 30.7834V35.9159H0.541992C0.242668 35.9159 0 36.1586 0 36.4579C0 36.7572 0.242668 36.9999 0.541992 36.9999H36.458C36.7573 36.9999 37 36.7572 37 36.4579C37 36.1586 36.7573 35.9159 36.458 35.9159ZM7.09208 30.1231H5.17653C4.87721 30.1231 4.63454 30.3658 4.63454 30.6651C4.63454 30.9644 4.87721 31.2071 5.17653 31.2071H7.06801L6.96337 35.9159H2.82183V31.2061C2.83426 31.2064 2.84662 31.207 2.85912 31.207C3.15844 31.207 3.40111 30.9644 3.40111 30.665C3.40111 30.3657 3.15844 30.123 2.85912 30.123C2.51911 30.123 2.24255 29.8464 2.24255 29.5065C2.24255 29.1665 2.51918 28.8899 2.85912 28.8899H7.11946L7.09208 30.1231ZM27.1192 17.3041H28.418L28.9296 25.4887H26.6077L27.1192 17.3041ZM21.3263 17.3041H22.6251L23.1367 25.4887H20.8148L21.3263 17.3041ZM15.5334 17.3041H16.8323L17.3438 25.4887H15.0219L15.5334 17.3041ZM9.26872 35.9159H8.04772L8.60279 10.9318H11.0184L11.3419 25.4887H10.39C9.45227 25.4887 8.68936 26.2516 8.68936 27.1893C8.68936 27.6977 8.91389 28.1543 9.26872 28.4662V35.9159ZM33.5616 27.8058H32.403C32.1037 27.8058 31.861 28.0485 31.861 28.3478C31.861 28.6472 32.1037 28.8898 32.403 28.8898H33.5616C33.5741 28.8898 33.5865 28.8891 33.5989 28.8889V35.9159H10.3526V28.8889C10.3651 28.8892 10.3774 28.8898 10.3899 28.8898H30.0863C30.3856 28.8898 30.6283 28.6472 30.6283 28.3478C30.6283 28.0485 30.3856 27.8058 30.0863 27.8058H10.3899C10.0499 27.8058 9.77328 27.5292 9.77328 27.1893C9.77328 26.8493 10.0499 26.5727 10.3899 26.5727H33.5615C33.9015 26.5727 34.1782 26.8493 34.1782 27.1893C34.1782 27.5293 33.9015 27.8058 33.5616 27.8058Z"/>
        <path d="M30.086 0C28.4532 0 26.8966 0.569814 25.6523 1.61398C24.7589 0.943645 23.6763 0.579281 22.5552 0.579281C21.1943 0.579281 19.8951 1.11658 18.9294 2.06651C18.4288 1.85065 17.8873 1.73784 17.3416 1.73784C15.7302 1.73784 14.2938 2.70266 13.6634 4.1466C13.4458 4.08568 13.2231 4.05497 12.9969 4.05497C11.8773 4.05497 10.9145 4.78305 10.5706 5.80293C10.5107 5.79628 10.4504 5.79289 10.3901 5.79289C9.45236 5.79289 8.68945 6.55579 8.68945 7.49344C8.68953 7.79284 8.93219 8.0355 9.23152 8.0355C9.53084 8.0355 9.77351 7.79284 9.77351 7.49351C9.77351 7.1535 10.0501 6.87694 10.3902 6.87694C10.4977 6.87694 10.6031 6.90737 10.7034 6.96742C10.8659 7.06462 11.0672 7.06996 11.2346 6.98173C11.402 6.89342 11.5113 6.72417 11.5227 6.5352C11.5702 5.75234 12.2177 5.1391 12.9968 5.1391C13.2432 5.1391 13.4864 5.20565 13.7195 5.33696C13.8655 5.41927 14.0417 5.42924 14.1962 5.36399C14.3508 5.29873 14.4664 5.16562 14.5094 5.00346C14.8497 3.71901 16.0143 2.8219 17.3415 2.8219C17.8445 2.8219 18.3428 2.95342 18.7824 3.20216C19.0072 3.32935 19.2907 3.28028 19.4595 3.08473C20.2397 2.18141 21.368 1.66334 22.5551 1.66334C23.5701 1.66334 24.546 2.04223 25.3029 2.73012C25.5141 2.92206 25.838 2.91736 26.0435 2.71928C27.1376 1.66471 28.5733 1.08398 30.086 1.08398C33.3008 1.08398 35.9162 3.69942 35.9162 6.91416C35.9162 10.1289 33.3008 12.7443 30.086 12.7443C27.9516 12.7443 25.9896 11.579 24.9655 9.70303C24.8289 9.45285 24.5218 9.35124 24.263 9.47048C23.7194 9.72088 23.1448 9.84785 22.5552 9.84785C21.3681 9.84785 20.2397 9.32978 19.4596 8.42646C19.2907 8.23098 19.0073 8.18184 18.7825 8.30903C18.3428 8.55777 17.8446 8.68929 17.3416 8.68929C16.4257 8.68929 15.5782 8.26993 15.0165 7.53875C14.9144 7.406 14.7568 7.32781 14.5894 7.32694C14.5884 7.32694 14.5876 7.32694 14.5867 7.32694C14.4203 7.32694 14.2629 7.40347 14.1602 7.53449C13.8734 7.90022 13.4494 8.10994 12.9969 8.10994C12.6976 8.10994 12.4549 8.35261 12.4549 8.65193C12.4549 8.95125 12.6976 9.19392 12.9969 9.19392C13.5714 9.19392 14.1177 9.00199 14.5628 8.65381C15.3065 9.37126 16.2909 9.7732 17.3416 9.7732C17.8873 9.7732 18.4288 9.6604 18.9294 9.44461C19.8951 10.3945 21.1944 10.9318 22.5552 10.9318C23.1393 10.9318 23.7112 10.8338 24.2612 10.6399C25.5276 12.6182 27.7172 13.8283 30.086 13.8283C33.8985 13.8283 37.0002 10.7266 37.0002 6.91416C37.0002 3.10171 33.8985 0 30.086 0Z"/>
        <path d="M13.8662 30.123C13.5669 30.123 13.3242 30.3657 13.3242 30.665V31.8236C13.3242 32.1229 13.5669 32.3656 13.8662 32.3656C14.1655 32.3656 14.4082 32.1229 14.4082 31.8236V30.665C14.4082 30.3657 14.1655 30.123 13.8662 30.123Z"/>
        <path d="M16.1826 30.123C15.8833 30.123 15.6406 30.3657 15.6406 30.665V31.8236C15.6406 32.1229 15.8833 32.3656 16.1826 32.3656C16.4819 32.3656 16.7246 32.1229 16.7246 31.8236V30.665C16.7246 30.3657 16.4819 30.123 16.1826 30.123Z"/>
        <path d="M18.5 30.123C18.2007 30.123 17.958 30.3657 17.958 30.665V31.8236C17.958 32.1229 18.2007 32.3656 18.5 32.3656C18.7993 32.3656 19.042 32.1229 19.042 31.8236V30.665C19.042 30.3657 18.7993 30.123 18.5 30.123Z"/>
        <path d="M20.8174 30.123C20.5181 30.123 20.2754 30.3657 20.2754 30.665V31.8236C20.2754 32.1229 20.5181 32.3656 20.8174 32.3656C21.1167 32.3656 21.3594 32.1229 21.3594 31.8236V30.665C21.3594 30.3657 21.1168 30.123 20.8174 30.123Z"/>
        <path d="M23.1338 30.123C22.8345 30.123 22.5918 30.3657 22.5918 30.665V31.8236C22.5918 32.1229 22.8345 32.3656 23.1338 32.3656C23.4331 32.3656 23.6758 32.1229 23.6758 31.8236V30.665C23.6758 30.3657 23.4331 30.123 23.1338 30.123Z"/>
        <path d="M25.4521 30.123C25.1528 30.123 24.9102 30.3657 24.9102 30.665V31.8236C24.9102 32.1229 25.1528 32.3656 25.4521 32.3656C25.7515 32.3656 25.9941 32.1229 25.9941 31.8236V30.665C25.9941 30.3657 25.7515 30.123 25.4521 30.123Z"/>
        <path d="M27.7686 30.123C27.4692 30.123 27.2266 30.3657 27.2266 30.665V31.8236C27.2266 32.1229 27.4692 32.3656 27.7686 32.3656C28.0679 32.3656 28.3105 32.1229 28.3105 31.8236V30.665C28.3105 30.3657 28.0679 30.123 27.7686 30.123Z"/>
        <path d="M30.0859 30.123C29.7866 30.123 29.5439 30.3657 29.5439 30.665V31.8236C29.5439 32.1229 29.7866 32.3656 30.0859 32.3656C30.3853 32.3656 30.6279 32.1229 30.6279 31.8236V30.665C30.6279 30.3657 30.3853 30.123 30.0859 30.123Z"/>
      </g>
    </symbol>
</svg>