<svg width="15" height="16" viewBox="0 0 15 16" fill="none" xmlns="http://www.w3.org/2000/svg">
<path d="M14.5605 11.4805C14.8535 11.5977 15 11.8125 15 12.125C15 12.1836 14.9902 12.2324 14.9707 12.2715L14.2676 15.3184C14.248 15.416 14.1992 15.5039 14.1211 15.582C14.0625 15.6797 13.9844 15.748 13.8867 15.7871C13.7891 15.8457 13.6914 15.875 13.5938 15.875C9.84375 15.875 6.64062 14.5469 3.98438 11.8906C1.32813 9.23438 0 6.03125 0 2.28125C0 2.18359 0.0195312 2.08594 0.0585938 1.98828C0.117188 1.89063 0.185547 1.8125 0.263672 1.75391C0.361328 1.67578 0.458984 1.62695 0.556641 1.60742L3.60352 0.904297C3.64258 0.884766 3.69141 0.875 3.75 0.875C4.0625 0.875 4.27734 1.02148 4.39453 1.31445L5.80078 4.5957C5.83984 4.67383 5.85938 4.76172 5.85938 4.85938C5.85938 5.07422 5.77148 5.25977 5.5957 5.41602L3.83789 6.85156C4.28711 7.82812 5.01953 8.82422 6.03516 9.83984C7.05078 10.8555 8.04688 11.5879 9.02344 12.0371L10.459 10.2793C10.6152 10.1035 10.8008 10.0156 11.0156 10.0156C11.1133 10.0156 11.2012 10.0352 11.2793 10.0742L14.5605 11.4805Z" fill="#8B8B8B"/>
</svg>
