<svg width="17" height="19" viewBox="0 0 17 19" fill="none" xmlns="http://www.w3.org/2000/svg">
<path d="M16.3828 8.16016C16.7109 8.72266 16.875 9.30859 16.875 9.91797C16.875 10.7148 16.582 11.418 15.9961 12.0273C15.4102 12.6367 14.6953 12.9414 13.8516 12.9414H12.5859C12.7969 13.4805 12.9023 14.0195 12.9023 14.5586C12.9023 15.8008 12.5977 16.7266 11.9883 17.3359C11.4023 17.9453 10.582 18.25 9.52734 18.25C8.89453 18.25 8.40234 17.9688 8.05078 17.4062C7.72266 16.8672 7.48828 16.2578 7.34766 15.5781C7.20703 14.8984 7.10156 14.5117 7.03125 14.418C6.77344 14.1602 6.36328 13.668 5.80078 12.9414C5.23828 12.1914 4.83984 11.7109 4.60547 11.5H4.35938C4.125 11.875 3.79688 12.0625 3.375 12.0625H1.125C0.820312 12.0625 0.550781 11.957 0.316406 11.7461C0.105469 11.5117 0 11.2422 0 10.9375V2.5C0 2.19531 0.105469 1.9375 0.316406 1.72656C0.550781 1.49219 0.820312 1.375 1.125 1.375H3.375C3.65625 1.375 3.90234 1.46875 4.11328 1.65625H4.5C4.85156 1.65625 5.29688 1.53906 5.83594 1.30469C6.375 1.07031 7.05469 0.835938 7.875 0.601562C8.71875 0.367187 9.66797 0.25 10.7227 0.25C10.793 0.25 10.9219 0.25 11.1094 0.25C11.2969 0.25 11.4258 0.25 11.4961 0.25C12.8086 0.25 13.793 0.554688 14.4492 1.16406C15.1055 1.75 15.4453 2.55859 15.4688 3.58984C15.9844 4.31641 16.1836 5.10156 16.0664 5.94531C16.4414 6.64844 16.5469 7.38672 16.3828 8.16016ZM1.65234 10.4102C1.81641 10.5742 2.01562 10.6562 2.25 10.6562C2.48438 10.6562 2.68359 10.5742 2.84766 10.4102C3.01172 10.2461 3.09375 10.0469 3.09375 9.8125C3.09375 9.57812 3.01172 9.37891 2.84766 9.21484C2.68359 9.05078 2.48438 8.96875 2.25 8.96875C2.01562 8.96875 1.81641 9.05078 1.65234 9.21484C1.48828 9.37891 1.40625 9.57812 1.40625 9.8125C1.40625 10.0469 1.48828 10.2461 1.65234 10.4102ZM13.8516 11.2539C14.0859 11.2539 14.3086 11.1953 14.5195 11.0781C14.7305 10.9375 14.8945 10.7617 15.0117 10.5508C15.1289 10.3398 15.1875 10.1289 15.1875 9.91797C15.1875 9.58984 15.0938 9.28516 14.9062 9.00391C14.7422 8.72266 14.5781 8.58203 14.4141 8.58203C14.6719 8.34766 14.7891 7.99609 14.7656 7.52734C14.7656 7.03516 14.5898 6.61328 14.2383 6.26172C14.4258 5.88672 14.4609 5.5 14.3438 5.10156C14.2266 4.70312 14.0273 4.42188 13.7461 4.25781C13.9805 2.71094 13.3477 1.9375 11.8477 1.9375H10.5469C9.65625 1.9375 8.56641 2.16016 7.27734 2.60547C6.01172 3.05078 5.08594 3.27344 4.5 3.27344V9.8125H4.88672C5.16797 9.8125 5.50781 10.0234 5.90625 10.4453C6.30469 10.8438 6.73828 11.3594 7.20703 11.9922C7.67578 12.625 8.00391 13.0352 8.19141 13.2227C8.56641 13.5977 8.83594 14.207 9 15.0508C9.16406 15.8711 9.33984 16.375 9.52734 16.5625C9.92578 16.5625 10.2422 16.5039 10.4766 16.3867C10.7344 16.2695 10.9102 16.0938 11.0039 15.8594C11.0977 15.625 11.1562 15.4258 11.1797 15.2617C11.2031 15.0977 11.2148 14.8633 11.2148 14.5586C11.2148 14.1133 11.0391 13.5625 10.6875 12.9062C10.3594 12.2266 10.1953 11.6758 10.1953 11.2539H13.8516Z" fill="#FF6A73"/>
</svg>
