<svg width="60" height="60" viewBox="0 0 60 60" fill="none" xmlns="http://www.w3.org/2000/svg">
<path d="M26.1363 0.127184C25.4688 0.216961 23.2188 0.70324 22.2663 0.965087C17.8713 2.17706 13.7613 4.2793 10.8513 6.81546C9.32133 8.14713 7.16133 10.3766 6.05883 11.7456C3.50133 14.9402 1.28882 19.8254 0.366325 24.3142C0.0663246 25.7955 -0.0311754 27.6883 0.0213246 31.197C0.0663246 34.0698 0.118825 34.6384 0.486325 36.2768C1.32632 40.0623 2.94633 43.788 5.15883 47.0199C7.88883 51.0075 11.7288 54.4339 15.8988 56.611C18.9738 58.212 22.6188 59.4165 25.4988 59.783C26.5938 59.9252 33.6438 59.9327 34.6113 59.7905C36.1263 59.5736 38.6088 58.8928 40.6863 58.1297C41.9388 57.6733 44.7213 56.3117 45.8163 55.6234C47.7963 54.3815 49.3338 53.1845 50.9013 51.6658C55.0113 47.6933 57.8763 42.7182 59.2863 37.1072C59.7363 35.3042 59.8338 34.7506 59.9313 33.3067C60.0288 31.8778 59.9763 26.6783 59.8488 25.6608C59.6688 24.2095 59.3238 22.803 58.5588 20.4988C57.2613 16.5786 55.1763 12.98 52.4538 9.98753C48.7188 5.87282 44.2413 2.99252 38.9988 1.31671C36.7563 0.591021 35.1663 0.276812 33.2388 0.149627C32.1888 0.0822928 26.6088 0.0673331 26.1363 0.127184ZM32.8488 3.77806C35.4663 4.0025 37.5363 4.51122 39.9738 5.53616C43.7988 7.15212 46.7538 9.202 49.4988 12.1571C51.2388 14.0274 52.6113 16.0549 53.8188 18.5162C55.2288 21.404 55.8663 23.4464 56.2263 26.2668C56.4138 27.7182 56.4138 32.3791 56.2263 33.7781C55.8138 36.8304 54.9888 39.2768 53.1813 42.8155L52.7313 43.6983L52.1388 43.1446C50.1588 41.3042 46.7763 39.4264 42.2613 37.6758C41.5638 37.399 40.6488 37.0399 40.2288 36.8828C39.8163 36.7182 39.4263 36.5835 39.3663 36.5835C39.3063 36.5835 39.1263 36.6958 38.9613 36.8379C37.1613 38.3641 35.9988 39.1795 34.8138 39.7406C33.0963 40.5561 32.0838 40.7731 29.9988 40.7731C28.4688 40.7731 27.6363 40.6683 26.7363 40.3691C24.8538 39.7406 23.3988 38.8579 21.3438 37.0923C21.0213 36.808 20.7138 36.5835 20.6613 36.5835C20.5638 36.5835 17.8938 37.5935 16.6488 38.1022C15.5238 38.5586 14.6163 38.9701 13.2513 39.6584C10.6638 40.9451 9.06633 41.985 7.78383 43.2344C7.50633 43.5037 7.26633 43.7057 7.24383 43.6833C7.18383 43.616 6.37383 41.9701 5.99883 41.1471C4.88133 38.6708 4.19133 36.3516 3.77133 33.6658C3.58383 32.4464 3.56883 32.1845 3.56883 29.9626C3.56133 27.8454 3.58383 27.4339 3.73383 26.4165C4.34883 22.3167 5.76633 18.606 7.97133 15.3367C9.64383 12.8454 12.0363 10.384 14.5863 8.51371C18.1488 5.91022 23.5188 3.92768 27.8238 3.63591C28.5738 3.58354 31.5138 3.67331 32.8488 3.77806Z" fill="#D3D3D3"/>
<path d="M28.8314 10.5411C25.9289 10.8777 23.2739 12.2917 21.2714 14.5436C17.8739 18.389 17.2139 23.7531 19.4789 29.2518C20.3939 31.4887 21.7514 33.5311 23.3414 35.0573C25.4789 37.1221 27.6089 38.0797 30.0914 38.0797C30.8789 38.0797 31.1639 38.0423 31.9139 37.8553C35.7989 36.8753 39.3914 32.9102 41.0564 27.7556C41.6039 26.0423 41.7914 24.778 41.7914 22.7805C41.7914 21.172 41.6639 20.3491 41.2439 19.0473C40.0514 15.389 37.3514 12.5012 33.9239 11.2144C32.4539 10.6608 30.2864 10.3765 28.8314 10.5411Z" fill="#D3D3D3"/>
</svg>
