<svg width="26" height="26" viewBox="0 0 26 26" fill="none" xmlns="http://www.w3.org/2000/svg">
<path d="M11.3263 0.0551357C11.037 0.0940395 10.062 0.30476 9.64926 0.418228C7.74476 0.943415 5.96376 1.85439 4.70276 2.95339C4.03976 3.53045 3.10376 4.49653 2.62601 5.0898C1.51776 6.47409 0.559012 8.59105 0.159262 10.5362C0.0292615 11.1781 -0.0129885 11.9983 0.00976148 13.5187C0.0292615 14.7636 0.0520115 15.01 0.211262 15.72C0.575262 17.3604 1.27726 18.9748 2.23601 20.3753C3.41901 22.1033 5.08301 23.5881 6.89001 24.5314C8.22251 25.2252 9.80201 25.7472 11.05 25.906C11.5245 25.9676 14.5795 25.9708 14.9988 25.9092C15.6553 25.8152 16.731 25.5202 17.6313 25.1895C18.174 24.9918 19.3798 24.4018 19.8543 24.1035C20.7123 23.5654 21.3785 23.0467 22.0578 22.3886C23.8388 20.6671 25.0803 18.5112 25.6913 16.0798C25.8863 15.2985 25.9285 15.0586 25.9708 14.4329C26.013 13.8137 25.9903 11.5606 25.935 11.1197C25.857 10.4908 25.7075 9.88132 25.376 8.88282C24.8138 7.18406 23.9103 5.62471 22.7305 4.32795C21.112 2.54491 19.1718 1.29678 16.9 0.570597C15.9283 0.256134 15.2393 0.119973 14.404 0.0648617C13.949 0.0356838 11.531 0.0292019 11.3263 0.0551357ZM14.235 1.63718C15.3693 1.73444 16.2663 1.95489 17.3225 2.39903C18.98 3.09927 20.2605 3.98755 21.45 5.2681C22.204 6.07858 22.7988 6.95713 23.322 8.02371C23.933 9.27509 24.2093 10.1601 24.3653 11.3823C24.4465 12.0112 24.4465 14.0309 24.3653 14.6372C24.1865 15.9599 23.829 17.02 23.0458 18.5534L22.8508 18.9359L22.594 18.696C21.736 17.8985 20.2703 17.0848 18.3138 16.3262C18.0115 16.2063 17.615 16.0506 17.433 15.9826C17.2543 15.9112 17.0853 15.8529 17.0593 15.8529C17.0333 15.8529 16.9553 15.9015 16.8838 15.9631C16.1038 16.6245 15.6 16.9778 15.0865 17.221C14.3423 17.5743 13.9035 17.6684 13 17.6684C12.337 17.6684 11.9763 17.623 11.5863 17.4933C10.7705 17.221 10.14 16.8384 9.24951 16.0733C9.10976 15.9501 8.97651 15.8529 8.95376 15.8529C8.91151 15.8529 7.75451 16.2905 7.21501 16.511C6.72751 16.7088 6.33426 16.8871 5.74276 17.1853C4.62151 17.7429 3.92926 18.1935 3.37351 18.7349C3.25326 18.8516 3.14926 18.9392 3.13951 18.9294C3.11351 18.9003 2.76251 18.1871 2.60001 17.8304C2.11576 16.7574 1.81676 15.7524 1.63476 14.5886C1.55351 14.0601 1.54701 13.9467 1.54701 12.9838C1.54376 12.0664 1.55351 11.8881 1.61851 11.4472C1.88501 9.6706 2.49926 8.06262 3.45476 6.64591C4.17951 5.56636 5.21626 4.49977 6.32126 3.6893C7.86501 2.56112 10.192 1.70202 12.0575 1.57558C12.3825 1.55289 13.6565 1.59179 14.235 1.63718Z" fill="white"/>
<path d="M12.4957 4.56786C11.238 4.71375 10.0875 5.32647 9.21975 6.30228C7.74749 7.96861 7.46149 10.2931 8.443 12.6758C8.8395 13.6452 9.42775 14.5302 10.1167 15.1916C11.043 16.0863 11.966 16.5013 13.0417 16.5013C13.383 16.5013 13.5065 16.4851 13.8315 16.404C15.515 15.9793 17.0718 14.2611 17.7933 12.0275C18.0305 11.2851 18.1118 10.7372 18.1118 9.8716C18.1118 9.1746 18.0565 8.81799 17.8745 8.2539C17.3578 6.66861 16.1878 5.41724 14.7025 4.85963C14.0655 4.61973 13.1262 4.49654 12.4957 4.56786Z" fill="white"/>
</svg>
