<svg width="17" height="11" viewBox="0 0 17 11" fill="none" xmlns="http://www.w3.org/2000/svg">
<path d="M15.9688 1.33203C15.9102 1.625 15.6758 2.10352 15.2657 2.76758C14.875 3.43164 14.5137 4.01758 14.1817 4.52539C13.8497 5.01367 13.6739 5.26758 13.6543 5.28711C13.5372 5.46289 13.4786 5.58984 13.4786 5.66797C13.4786 5.74609 13.5372 5.88281 13.6543 6.07812C13.6543 6.07812 13.7129 6.14648 13.8301 6.2832C13.9668 6.41992 14.1231 6.57617 14.2989 6.75195C14.4747 6.92773 14.67 7.13281 14.8848 7.36719C15.0997 7.60156 15.295 7.83594 15.4708 8.07031C15.6661 8.28516 15.8321 8.50977 15.9688 8.74414C16.125 8.97852 16.2325 9.17383 16.2911 9.33008C16.4278 9.81836 16.2325 10.0625 15.7051 10.0625H13.9766C13.8399 10.0625 13.7227 10.043 13.625 10.0039C13.5274 9.96484 13.42 9.89648 13.3028 9.79883C13.1856 9.70117 13.0782 9.59375 12.9805 9.47656C12.8829 9.35938 12.7364 9.19336 12.5411 8.97852C12.3458 8.76367 12.1504 8.55859 11.9551 8.36328C11.1739 7.62109 10.5977 7.25 10.2266 7.25C9.99218 7.25 9.85547 7.31836 9.8164 7.45508C9.77734 7.5918 9.75781 7.98242 9.75781 8.62695C9.77734 8.93945 9.78711 9.19336 9.78711 9.38867C9.78711 9.62305 9.70898 9.79883 9.55273 9.91602C9.39648 10.0137 9.05468 10.0625 8.52734 10.0625C7.60937 10.0625 6.68164 9.78906 5.74414 9.24219C4.80664 8.69531 3.98633 7.91406 3.2832 6.89844C2.61914 6 2.0625 5.11133 1.61328 4.23242C1.18359 3.33398 0.900391 2.65039 0.763672 2.18164C0.626953 1.71289 0.558594 1.38086 0.558594 1.18555C0.558594 0.853516 0.753906 0.6875 1.14453 0.6875H2.87304C3.08789 0.6875 3.24414 0.736328 3.34179 0.833984C3.45898 0.931641 3.55664 1.10742 3.63476 1.36133C4.04492 2.55273 4.54297 3.61719 5.1289 4.55469C5.73437 5.49219 6.19336 5.96094 6.50586 5.96094C6.62304 5.96094 6.70117 5.92188 6.74023 5.84375C6.79883 5.74609 6.82812 5.57031 6.82812 5.31641V2.76758C6.80859 2.49414 6.75976 2.25977 6.68164 2.06445C6.60351 1.86914 6.52539 1.73242 6.44726 1.6543C6.36914 1.55664 6.29101 1.45898 6.21289 1.36133C6.15429 1.26367 6.125 1.17578 6.125 1.09766C6.125 1.01953 6.14453 0.951172 6.18359 0.892578C6.22265 0.833984 6.27148 0.785156 6.33007 0.746094C6.4082 0.707031 6.48633 0.6875 6.56445 0.6875H9.28906C9.60156 0.6875 9.75781 0.902344 9.75781 1.33203V4.73047C9.75781 5.0625 9.8457 5.22852 10.0215 5.22852C10.2168 5.22852 10.4903 5.05273 10.8418 4.70117C11.2129 4.29102 11.5743 3.79297 11.9258 3.20703C12.2774 2.62109 12.5411 2.13281 12.7168 1.74219L12.9805 1.18555C13.1172 0.853516 13.3614 0.6875 13.7129 0.6875H15.4415C15.9102 0.6875 16.086 0.902344 15.9688 1.33203Z" fill="#8B8B8B"/>
</svg>
