<svg width="16" height="10" viewBox="0 0 16 10" fill="none" xmlns="http://www.w3.org/2000/svg">
<path d="M14.9023 0.976562C14.8477 1.25 14.6289 1.69661 14.2461 2.31641C13.8815 2.9362 13.5443 3.48307 13.2344 3.95703C12.9245 4.41276 12.7604 4.64974 12.7422 4.66797C12.6328 4.83203 12.5781 4.95052 12.5781 5.02344C12.5781 5.09635 12.6328 5.22396 12.7422 5.40625C12.7422 5.40625 12.7969 5.47005 12.9062 5.59766C13.0339 5.72526 13.1797 5.87109 13.3438 6.03516C13.5078 6.19922 13.6901 6.39062 13.8906 6.60938C14.0911 6.82812 14.2734 7.04688 14.4375 7.26562C14.6198 7.46615 14.7747 7.67578 14.9023 7.89453C15.0482 8.11328 15.1484 8.29557 15.2031 8.44141C15.3307 8.89714 15.1484 9.125 14.6562 9.125H13.043C12.9154 9.125 12.806 9.10677 12.7148 9.07031C12.6237 9.03385 12.5234 8.97005 12.4141 8.87891C12.3047 8.78776 12.2044 8.6875 12.1133 8.57812C12.0221 8.46875 11.8854 8.3138 11.7031 8.11328C11.5208 7.91276 11.3385 7.72135 11.1562 7.53906C10.4271 6.84635 9.88932 6.5 9.54297 6.5C9.32422 6.5 9.19661 6.5638 9.16016 6.69141C9.1237 6.81901 9.10547 7.18359 9.10547 7.78516C9.1237 8.07682 9.13281 8.3138 9.13281 8.49609C9.13281 8.71484 9.0599 8.87891 8.91406 8.98828C8.76823 9.07943 8.44922 9.125 7.95703 9.125C7.10026 9.125 6.23438 8.86979 5.35938 8.35938C4.48438 7.84896 3.71875 7.11979 3.0625 6.17188C2.44271 5.33333 1.92318 4.50391 1.50391 3.68359C1.10286 2.84505 0.838542 2.20703 0.710938 1.76953C0.583333 1.33203 0.519531 1.02214 0.519531 0.839844C0.519531 0.529948 0.701823 0.375 1.06641 0.375H2.67969C2.88021 0.375 3.02604 0.420573 3.11719 0.511719C3.22656 0.602865 3.31771 0.766927 3.39062 1.00391C3.77344 2.11589 4.23828 3.10938 4.78516 3.98438C5.35026 4.85938 5.77865 5.29688 6.07031 5.29688C6.17969 5.29688 6.2526 5.26042 6.28906 5.1875C6.34375 5.09635 6.37109 4.93229 6.37109 4.69531V2.31641C6.35286 2.0612 6.30729 1.84245 6.23438 1.66016C6.16146 1.47786 6.08854 1.35026 6.01562 1.27734C5.94271 1.1862 5.86979 1.09505 5.79688 1.00391C5.74219 0.91276 5.71484 0.830729 5.71484 0.757812C5.71484 0.684896 5.73307 0.621094 5.76953 0.566406C5.80599 0.511719 5.85156 0.466146 5.90625 0.429688C5.97917 0.393229 6.05208 0.375 6.125 0.375H8.66797C8.95964 0.375 9.10547 0.575521 9.10547 0.976562V4.14844C9.10547 4.45833 9.1875 4.61328 9.35156 4.61328C9.53385 4.61328 9.78906 4.44922 10.1172 4.12109C10.4635 3.73828 10.8008 3.27344 11.1289 2.72656C11.457 2.17969 11.7031 1.72396 11.8672 1.35938L12.1133 0.839844C12.2409 0.529948 12.4688 0.375 12.7969 0.375H14.4102C14.8477 0.375 15.0117 0.575521 14.9023 0.976562Z" fill="white"/>
</svg>
