<svg width="37" height="37" viewBox="0 0 37 37" fill="none" xmlns="http://www.w3.org/2000/svg">
<g clip-path="url(#clip0)">
<path d="M36.458 35.9159H34.6829V28.4662C35.0376 28.1543 35.2622 27.6977 35.2622 27.1893C35.2622 26.2516 34.4992 25.4887 33.5616 25.4887H30.0157L29.4682 16.7282C29.4503 16.4426 29.2134 16.2201 28.9273 16.2201H26.6101C26.3239 16.2201 26.087 16.4426 26.0692 16.7282L25.5216 25.4887H24.2228L23.6752 16.7282C23.6574 16.4426 23.4205 16.2201 23.1343 16.2201H20.8172C20.531 16.2201 20.2941 16.4426 20.2763 16.7282L19.7287 25.4887H18.4299L17.8823 16.7282C17.8645 16.4426 17.6276 16.2201 17.3414 16.2201H15.0243C14.7381 16.2201 14.5013 16.4426 14.4834 16.7282L13.9358 25.4887H12.4262L12.0905 10.3778C12.084 10.0833 11.8433 9.8479 11.5486 9.8479H8.07287C7.77824 9.8479 7.53752 10.0833 7.53102 10.3778L7.14375 27.8059H2.85912C1.9214 27.8059 1.15856 28.5688 1.15856 29.5065C1.15856 30.0149 1.38309 30.4715 1.73784 30.7834V35.9159H0.541992C0.242668 35.9159 0 36.1586 0 36.4579C0 36.7572 0.242668 36.9999 0.541992 36.9999H36.458C36.7573 36.9999 37 36.7572 37 36.4579C37 36.1586 36.7573 35.9159 36.458 35.9159ZM7.09208 30.1231H5.17653C4.87721 30.1231 4.63454 30.3658 4.63454 30.6651C4.63454 30.9644 4.87721 31.2071 5.17653 31.2071H7.06801L6.96337 35.9159H2.82183V31.2061C2.83426 31.2064 2.84662 31.207 2.85912 31.207C3.15844 31.207 3.40111 30.9644 3.40111 30.665C3.40111 30.3657 3.15844 30.123 2.85912 30.123C2.51911 30.123 2.24255 29.8464 2.24255 29.5065C2.24255 29.1665 2.51918 28.8899 2.85912 28.8899H7.11946L7.09208 30.1231ZM27.1192 17.3041H28.418L28.9296 25.4887H26.6077L27.1192 17.3041ZM21.3263 17.3041H22.6251L23.1367 25.4887H20.8148L21.3263 17.3041ZM15.5334 17.3041H16.8323L17.3438 25.4887H15.0219L15.5334 17.3041ZM9.26872 35.9159H8.04772L8.60279 10.9318H11.0184L11.3419 25.4887H10.39C9.45227 25.4887 8.68936 26.2516 8.68936 27.1893C8.68936 27.6977 8.91389 28.1543 9.26872 28.4662V35.9159ZM33.5616 27.8058H32.403C32.1037 27.8058 31.861 28.0485 31.861 28.3478C31.861 28.6472 32.1037 28.8898 32.403 28.8898H33.5616C33.5741 28.8898 33.5865 28.8891 33.5989 28.8889V35.9159H10.3526V28.8889C10.3651 28.8892 10.3774 28.8898 10.3899 28.8898H30.0863C30.3856 28.8898 30.6283 28.6472 30.6283 28.3478C30.6283 28.0485 30.3856 27.8058 30.0863 27.8058H10.3899C10.0499 27.8058 9.77328 27.5292 9.77328 27.1893C9.77328 26.8493 10.0499 26.5727 10.3899 26.5727H33.5615C33.9015 26.5727 34.1782 26.8493 34.1782 27.1893C34.1782 27.5293 33.9015 27.8058 33.5616 27.8058Z" fill="#D3D3D3"/>
<path d="M30.086 0C28.4532 0 26.8966 0.569814 25.6523 1.61398C24.7589 0.943645 23.6763 0.579281 22.5552 0.579281C21.1943 0.579281 19.8951 1.11658 18.9294 2.06651C18.4288 1.85065 17.8873 1.73784 17.3416 1.73784C15.7302 1.73784 14.2938 2.70266 13.6634 4.1466C13.4458 4.08568 13.2231 4.05497 12.9969 4.05497C11.8773 4.05497 10.9145 4.78305 10.5706 5.80293C10.5107 5.79628 10.4504 5.79289 10.3901 5.79289C9.45236 5.79289 8.68945 6.55579 8.68945 7.49344C8.68953 7.79284 8.93219 8.0355 9.23152 8.0355C9.53084 8.0355 9.77351 7.79284 9.77351 7.49351C9.77351 7.1535 10.0501 6.87694 10.3902 6.87694C10.4977 6.87694 10.6031 6.90737 10.7034 6.96742C10.8659 7.06462 11.0672 7.06996 11.2346 6.98173C11.402 6.89342 11.5113 6.72417 11.5227 6.5352C11.5702 5.75234 12.2177 5.1391 12.9968 5.1391C13.2432 5.1391 13.4864 5.20565 13.7195 5.33696C13.8655 5.41927 14.0417 5.42924 14.1962 5.36399C14.3508 5.29873 14.4664 5.16562 14.5094 5.00346C14.8497 3.71901 16.0143 2.8219 17.3415 2.8219C17.8445 2.8219 18.3428 2.95342 18.7824 3.20216C19.0072 3.32935 19.2907 3.28028 19.4595 3.08473C20.2397 2.18141 21.368 1.66334 22.5551 1.66334C23.5701 1.66334 24.546 2.04223 25.3029 2.73012C25.5141 2.92206 25.838 2.91736 26.0435 2.71928C27.1376 1.66471 28.5733 1.08398 30.086 1.08398C33.3008 1.08398 35.9162 3.69942 35.9162 6.91416C35.9162 10.1289 33.3008 12.7443 30.086 12.7443C27.9516 12.7443 25.9896 11.579 24.9655 9.70303C24.8289 9.45285 24.5218 9.35124 24.263 9.47048C23.7194 9.72088 23.1448 9.84785 22.5552 9.84785C21.3681 9.84785 20.2397 9.32978 19.4596 8.42646C19.2907 8.23098 19.0073 8.18184 18.7825 8.30903C18.3428 8.55777 17.8446 8.68929 17.3416 8.68929C16.4257 8.68929 15.5782 8.26993 15.0165 7.53875C14.9144 7.406 14.7568 7.32781 14.5894 7.32694C14.5884 7.32694 14.5876 7.32694 14.5867 7.32694C14.4203 7.32694 14.2629 7.40347 14.1602 7.53449C13.8734 7.90022 13.4494 8.10994 12.9969 8.10994C12.6976 8.10994 12.4549 8.35261 12.4549 8.65193C12.4549 8.95125 12.6976 9.19392 12.9969 9.19392C13.5714 9.19392 14.1177 9.00199 14.5628 8.65381C15.3065 9.37126 16.2909 9.7732 17.3416 9.7732C17.8873 9.7732 18.4288 9.6604 18.9294 9.44461C19.8951 10.3945 21.1944 10.9318 22.5552 10.9318C23.1393 10.9318 23.7112 10.8338 24.2612 10.6399C25.5276 12.6182 27.7172 13.8283 30.086 13.8283C33.8985 13.8283 37.0002 10.7266 37.0002 6.91416C37.0002 3.10171 33.8985 0 30.086 0Z" fill="#D3D3D3"/>
<path d="M13.8662 30.123C13.5669 30.123 13.3242 30.3657 13.3242 30.665V31.8236C13.3242 32.1229 13.5669 32.3656 13.8662 32.3656C14.1655 32.3656 14.4082 32.1229 14.4082 31.8236V30.665C14.4082 30.3657 14.1655 30.123 13.8662 30.123Z" fill="#D3D3D3"/>
<path d="M16.1826 30.123C15.8833 30.123 15.6406 30.3657 15.6406 30.665V31.8236C15.6406 32.1229 15.8833 32.3656 16.1826 32.3656C16.4819 32.3656 16.7246 32.1229 16.7246 31.8236V30.665C16.7246 30.3657 16.4819 30.123 16.1826 30.123Z" fill="#D3D3D3"/>
<path d="M18.5 30.123C18.2007 30.123 17.958 30.3657 17.958 30.665V31.8236C17.958 32.1229 18.2007 32.3656 18.5 32.3656C18.7993 32.3656 19.042 32.1229 19.042 31.8236V30.665C19.042 30.3657 18.7993 30.123 18.5 30.123Z" fill="#D3D3D3"/>
<path d="M20.8174 30.123C20.5181 30.123 20.2754 30.3657 20.2754 30.665V31.8236C20.2754 32.1229 20.5181 32.3656 20.8174 32.3656C21.1167 32.3656 21.3594 32.1229 21.3594 31.8236V30.665C21.3594 30.3657 21.1168 30.123 20.8174 30.123Z" fill="#D3D3D3"/>
<path d="M23.1338 30.123C22.8345 30.123 22.5918 30.3657 22.5918 30.665V31.8236C22.5918 32.1229 22.8345 32.3656 23.1338 32.3656C23.4331 32.3656 23.6758 32.1229 23.6758 31.8236V30.665C23.6758 30.3657 23.4331 30.123 23.1338 30.123Z" fill="#D3D3D3"/>
<path d="M25.4521 30.123C25.1528 30.123 24.9102 30.3657 24.9102 30.665V31.8236C24.9102 32.1229 25.1528 32.3656 25.4521 32.3656C25.7515 32.3656 25.9941 32.1229 25.9941 31.8236V30.665C25.9941 30.3657 25.7515 30.123 25.4521 30.123Z" fill="#D3D3D3"/>
<path d="M27.7686 30.123C27.4692 30.123 27.2266 30.3657 27.2266 30.665V31.8236C27.2266 32.1229 27.4692 32.3656 27.7686 32.3656C28.0679 32.3656 28.3105 32.1229 28.3105 31.8236V30.665C28.3105 30.3657 28.0679 30.123 27.7686 30.123Z" fill="#D3D3D3"/>
<path d="M30.0859 30.123C29.7866 30.123 29.5439 30.3657 29.5439 30.665V31.8236C29.5439 32.1229 29.7866 32.3656 30.0859 32.3656C30.3853 32.3656 30.6279 32.1229 30.6279 31.8236V30.665C30.6279 30.3657 30.3853 30.123 30.0859 30.123Z" fill="#D3D3D3"/>
</g>
<defs>
<clipPath id="clip0">
<rect width="37" height="37" fill="white"/>
</clipPath>
</defs>
</svg>
