<svg width="14" height="13" viewBox="0 0 14 13" fill="none" xmlns="http://www.w3.org/2000/svg">
<path d="M13.972 5.4886C13.9235 5.38478 13.8198 5.31836 13.7052 5.31836H12.8333C12.279 2.29686 9.63748 0 6.47146 0C2.90331 0 0 2.91618 0 6.50015C0 10.0841 2.90301 13 6.47146 13C8.77427 13 10.9219 11.7551 12.0761 9.75172C12.2388 9.46899 12.1428 9.10787 11.8611 8.94421C11.5799 8.78056 11.2201 8.8769 11.0577 9.15963C10.1129 10.7995 8.35546 11.8185 6.47146 11.8185C3.55206 11.8185 1.17657 9.43279 1.17657 6.50075C1.17657 3.56811 3.55206 1.18239 6.47146 1.18239C8.98605 1.18239 11.0929 2.95388 11.6296 5.31866H10.7646C10.6499 5.31866 10.5466 5.38508 10.4977 5.4889C10.4492 5.59271 10.465 5.71508 10.5382 5.80334L12.0091 7.57603C12.0651 7.64335 12.1476 7.68224 12.2352 7.68224C12.3225 7.68224 12.4053 7.64305 12.461 7.57603L13.9318 5.80334C14.0051 5.71478 14.0206 5.59241 13.972 5.4886Z" fill="#383840"/>
<path d="M6.47146 1.47739C6.14648 1.47739 5.88317 1.74187 5.88317 2.06828V5.65375C5.61717 5.84104 5.44203 6.1498 5.44203 6.50045C5.44203 7.0707 5.90402 7.53474 6.47175 7.53474C6.62724 7.53474 6.77379 7.49734 6.90604 7.43481L8.95239 8.62109C9.04532 8.67524 9.146 8.70068 9.24609 8.70068C9.44923 8.70068 9.64702 8.59476 9.75603 8.40508C9.91837 8.12294 9.82216 7.76123 9.54038 7.59817L7.49195 6.41009C7.46454 6.09774 7.3028 5.82488 7.06034 5.65435V2.06828C7.05974 1.74217 6.79613 1.47739 6.47146 1.47739ZM6.47146 6.94325C6.2281 6.94325 6.03032 6.74429 6.03032 6.50045C6.03032 6.25631 6.2284 6.05735 6.47146 6.05735C6.71452 6.05735 6.9126 6.25631 6.9126 6.50045C6.9126 6.74429 6.71452 6.94325 6.47146 6.94325Z" fill="#383840"/>
</svg>
