<svg width="10" height="8" viewBox="0 0 10 8" fill="none" xmlns="http://www.w3.org/2000/svg">
<path d="M9.80416 3.56282L6.1508 0.181057C5.88973 -0.0603525 5.46633 -0.0603525 5.20526 0.181057C4.94414 0.422517 4.94414 0.813936 5.20526 1.0554L7.71727 3.38175L0.668582 3.38175C0.299364 3.38175 0 3.65858 0 3.99999C0 4.34136 0.299364 4.61823 0.668582 4.61823L7.71727 4.61823L5.20537 6.94459C4.94425 7.18605 4.94425 7.57747 5.20537 7.81893C5.33588 7.93956 5.50703 8 5.67814 8C5.84924 8 6.02034 7.93956 6.1509 7.81893L9.80416 4.43716C10.0653 4.1957 10.0653 3.80428 9.80416 3.56282Z" fill="#99999F"/>
</svg>
