<svg width="11" height="15" viewBox="0 0 11 15" fill="none" xmlns="http://www.w3.org/2000/svg">
<path d="M5.49977 0C2.46734 0 0 2.47738 0 5.52245C0 6.31673 0.161911 7.07508 0.480993 7.77663C1.85609 10.7979 4.49253 13.9877 5.26799 14.8933C5.32609 14.961 5.41079 15 5.49992 15C5.58906 15 5.67376 14.961 5.73186 14.8933C6.50701 13.9879 9.14345 10.7982 10.519 7.77663C10.8382 7.07508 11 6.31673 11 5.52245C10.9997 2.47738 8.53235 0 5.49977 0ZM5.49977 8.39083C3.92454 8.39083 2.64286 7.10394 2.64286 5.5223C2.64286 3.94051 3.92454 2.65361 5.49977 2.65361C7.075 2.65361 8.35668 3.94051 8.35668 5.5223C8.35683 7.10394 7.07515 8.39083 5.49977 8.39083Z" fill="#FF3737"/>
</svg>
