<svg width="12" height="10" viewBox="0 0 12 10" fill="none" xmlns="http://www.w3.org/2000/svg">
<path d="M10.928 10C11.1978 10 11.4315 9.90554 11.6302 9.71902L8.23052 6.11306C8.14896 6.17501 8.0699 6.23525 7.99522 6.29254C7.7408 6.49135 7.53432 6.64649 7.37576 6.75766C7.21723 6.86908 7.0063 6.98265 6.743 7.0986C6.47952 7.21469 6.23406 7.27255 6.00636 7.27255H5.99302C5.7653 7.27255 5.51984 7.21471 5.25638 7.0986C4.99293 6.98265 4.782 6.86908 4.62362 6.75766C4.46508 6.64649 4.25871 6.49137 4.00416 6.29254C3.93323 6.23738 3.85456 6.17686 3.76951 6.11209L0.36922 9.71902C0.567884 9.90554 0.801754 10 1.07146 10H10.928Z" fill="#FF3737"/>
<path d="M0.676381 3.84235C0.421989 3.66247 0.196398 3.45644 0 3.22438V8.71055L2.99643 5.5324C2.39697 5.08851 1.6246 4.52581 0.676381 3.84235Z" fill="#FF3737"/>
<path d="M11.3298 3.84235C10.4178 4.49711 9.64257 5.06078 9.00418 5.53367L11.9994 8.71069V3.22438C11.8074 3.45178 11.5842 3.65766 11.3298 3.84235Z" fill="#FF3737"/>
<path d="M10.9285 0H1.07199C0.728122 0 0.463753 0.12316 0.278553 0.369226C0.0931997 0.615407 0.000675873 0.923284 0.000675873 1.29251C0.000675873 1.59075 0.12346 1.9139 0.36892 2.26205C0.614379 2.61007 0.875568 2.88342 1.15236 3.08226C1.30409 3.19597 1.76168 3.53337 2.52512 4.09437C2.93724 4.39727 3.29563 4.66129 3.60362 4.88913C3.86613 5.08313 4.09253 5.25114 4.27945 5.39057C4.30091 5.40654 4.33466 5.43214 4.37945 5.46611C4.4277 5.50287 4.48877 5.54952 4.56411 5.60722C4.70918 5.71851 4.82969 5.80846 4.92568 5.87718C5.02154 5.94592 5.13768 6.02271 5.27393 6.10797C5.41007 6.19312 5.53847 6.25715 5.65899 6.29974C5.77953 6.3423 5.89112 6.36365 5.99377 6.36365H6.0071C6.10974 6.36365 6.22134 6.3423 6.34191 6.29974C6.4624 6.25715 6.5907 6.19326 6.72695 6.10797C6.86306 6.02271 6.97905 5.94576 7.07521 5.87718C7.1712 5.80846 7.29172 5.71853 7.43681 5.60722C7.51199 5.54952 7.57306 5.50285 7.62131 5.46622C7.66613 5.43212 7.69985 5.40668 7.72144 5.39057C7.86706 5.2831 8.09398 5.11578 8.39906 4.89109C8.95421 4.48198 9.77178 3.87984 10.8552 3.08226C11.1811 2.84086 11.4533 2.54955 11.6721 2.20875C11.8905 1.86794 12 1.51045 12 1.1364C12 0.823878 11.8938 0.556461 11.682 0.333734C11.4699 0.111283 11.2187 0 10.9285 0Z" fill="#FF3737"/>
</svg>
