<svg width="14" height="12" viewBox="0 0 14 12" fill="none" xmlns="http://www.w3.org/2000/svg">
<path d="M13.7135 5.37894L8.60341 0.337468C8.23824 -0.0224217 7.64601 -0.0224217 7.28084 0.337468C6.9156 0.697431 6.9156 1.28095 7.28084 1.64091L10.7945 5.10901L0.935177 5.10901C0.418735 5.10901 0 5.52169 0 6.03067C0 6.53957 0.418735 6.95232 0.935177 6.95232L10.7945 6.95232L7.28099 10.4204C6.91575 10.7804 6.91575 11.3639 7.28099 11.7239C7.46354 11.9037 7.70294 11.9938 7.94227 11.9938C8.1816 11.9938 8.42094 11.9037 8.60356 11.7239L13.7135 6.68239C14.0788 6.32243 14.0788 5.73891 13.7135 5.37894Z" fill="black"/>
</svg>
