<svg width="23" height="18" viewBox="0 0 23 18" fill="none" xmlns="http://www.w3.org/2000/svg">
<path d="M22.6034 0H0.396552C0.177655 0 0 0.174913 0 0.391304V17.6087C0 17.8251 0.177655 18 0.396552 18H22.6034C22.8223 18 23 17.8251 23 17.6087V0.391304C23 0.174913 22.8223 0 22.6034 0ZM22.2069 17.2174H0.793103V0.782609H22.2069V17.2174Z" fill="#FF3737"/>
<path d="M6.34483 8.6627C7.56264 8.6627 8.55322 7.68522 8.55322 6.48391C8.55322 5.28183 7.56264 4.30435 6.34483 4.30435C5.12702 4.30435 4.13643 5.28183 4.13643 6.48352C4.13643 7.68522 5.12702 8.6627 6.34483 8.6627ZM6.34483 5.08696C7.12524 5.08696 7.76012 5.71383 7.76012 6.48352C7.76012 7.25322 7.12524 7.88009 6.34483 7.88009C5.56441 7.88009 4.92953 7.25361 4.92953 6.48391C4.92953 5.71422 5.56441 5.08696 6.34483 5.08696Z" fill="#FF3737"/>
<path d="M2.77586 15.6522C2.86866 15.6522 2.96224 15.6201 3.03759 15.5547L9.50653 9.93483L13.5918 13.9657C13.7469 14.1187 13.9975 14.1187 14.1525 13.9657C14.3076 13.8127 14.3076 13.5653 14.1525 13.4123L12.2463 11.5313L15.8871 7.59717L20.3526 11.6366C20.514 11.7826 20.765 11.7716 20.9129 11.6123C21.0609 11.4531 21.0502 11.2054 20.8884 11.0594L16.1297 6.75509C16.052 6.68504 15.9485 6.65022 15.8442 6.65257C15.7391 6.65726 15.64 6.70304 15.569 6.77974L11.6852 10.9773L9.80435 9.1213C9.65604 8.97535 9.4189 8.96791 9.26186 9.10409L2.51374 14.967C2.34917 15.1098 2.33331 15.3571 2.47805 15.5195C2.55657 15.6076 2.66602 15.6522 2.77586 15.6522Z" fill="#FF3737"/>
</svg>
