<svg width="14" height="12" viewBox="0 0 14 12" fill="none" xmlns="http://www.w3.org/2000/svg">
<path d="M0.286464 6.62105L5.39659 11.6625C5.76176 12.0224 6.35399 12.0224 6.71916 11.6625C7.0844 11.3026 7.0844 10.719 6.71916 10.3591L3.20549 6.89099L13.0648 6.89099C13.5813 6.89099 14 6.4783 14 5.96933C14 5.46042 13.5813 5.04767 13.0648 5.04767L3.20549 5.04767L6.71901 1.57958C7.08425 1.21961 7.08425 0.636092 6.71901 0.276129C6.53646 0.0962944 6.29706 0.00619316 6.05773 0.00619316C5.8184 0.00619316 5.57906 0.0962944 5.39644 0.276129L0.286464 5.3176C-0.0787792 5.67757 -0.0787792 6.26109 0.286464 6.62105Z" fill="black"/>
</svg>
