<svg width="14" height="12" viewBox="0 0 14 12" fill="none" xmlns="http://www.w3.org/2000/svg">
<path d="M13.7258 5.34424L8.61111 0.271586C8.24562 -0.0905287 7.65286 -0.0905287 7.28736 0.271586C6.92179 0.633775 6.92179 1.2209 7.28736 1.58309L10.8042 5.07263L0.936014 5.07263C0.41911 5.07263 0 5.48787 0 5.99999C0 6.51204 0.41911 6.92735 0.936014 6.92735L10.8042 6.92735L7.28751 10.4169C6.92195 10.7791 6.92195 11.3662 7.28751 11.7284C7.47022 11.9093 7.70984 12 7.94939 12C8.18893 12 8.42848 11.9093 8.61126 11.7284L13.7258 6.65574C14.0914 6.29356 14.0914 5.70643 13.7258 5.34424Z" fill="#FF3737"/>
</svg>
