<svg width="37" height="37" viewBox="0 0 37 37" fill="none" xmlns="http://www.w3.org/2000/svg">
<path fill-rule="evenodd" clip-rule="evenodd" d="M16.7197 7.05702H5.80028C5.64185 7.05702 5.48991 6.99406 5.37791 6.882C5.26591 6.76994 5.20303 6.61796 5.20313 6.45952V3.52834C5.20313 3.19854 5.47048 2.93118 5.80028 2.93118H16.7197C17.0495 2.93118 17.3169 3.19854 17.3169 3.52834V6.45987C17.3169 6.78967 17.0495 7.05702 16.7197 7.05702ZM16.1226 4.12584H6.39744V5.86271H16.1226V4.12584Z" fill="#FF3737"/>
<path fill-rule="evenodd" clip-rule="evenodd" d="M9.28583 14.154H5.71825C5.38845 14.154 5.12109 13.8866 5.12109 13.5568V9.98923C5.12109 9.65943 5.38845 9.39207 5.71825 9.39207H9.28583C9.61563 9.39207 9.88299 9.65943 9.88299 9.98923V13.5568C9.88299 13.8866 9.61563 14.154 9.28583 14.154ZM8.68834 10.5867H6.31541L6.31575 12.9597H8.68834V10.5867Z" fill="#FF3737"/>
<path fill-rule="evenodd" clip-rule="evenodd" d="M13.1518 9.39207H16.7191C17.0489 9.39207 17.3162 9.65943 17.3162 9.98923V13.5568C17.3162 13.8866 17.0489 14.154 16.7191 14.154H13.1518C12.822 14.154 12.5547 13.8866 12.5547 13.5568V9.98923C12.5547 9.65943 12.822 9.39207 13.1518 9.39207ZM13.749 12.9593H16.1219V10.5864H13.749V12.9593Z" fill="#FF3737"/>
<path fill-rule="evenodd" clip-rule="evenodd" d="M9.88299 20.0986C9.88299 20.4284 9.61564 20.6957 9.28584 20.6957H5.71825C5.55958 20.6957 5.40743 20.6326 5.29539 20.5202C5.18336 20.4079 5.12064 20.2555 5.1211 20.0969V16.5296C5.1211 16.1998 5.38845 15.9325 5.71825 15.9325H9.28584C9.61564 15.9325 9.88299 16.1998 9.88299 16.5296V20.0986ZM8.69004 17.1285H6.31712L6.31575 19.5014H8.69004V17.1285Z" fill="#FF3737"/>
<path fill-rule="evenodd" clip-rule="evenodd" d="M13.1518 15.9325H16.7191C17.0489 15.9325 17.3162 16.1998 17.3162 16.5296V20.0969C17.3162 20.4267 17.0489 20.694 16.7191 20.694H13.1518C12.822 20.694 12.5547 20.4267 12.5547 20.0969V16.5296C12.5547 16.1998 12.822 15.9325 13.1518 15.9325ZM13.749 19.5014H16.1219V17.1268H13.749V19.5014Z" fill="#FF3737"/>
<path fill-rule="evenodd" clip-rule="evenodd" d="M29.0016 35L35.5016 34.8057C35.8314 34.8057 36.0988 35.073 36.0988 35.4028C36.0988 35.7326 35.8314 36 35.5016 36L1.25731 36.1943C0.927512 36.1943 0.660156 35.927 0.660156 35.5972C0.660156 35.2674 0.927512 35 1.25731 35H2.90444L2.80728 0.791469C2.80728 0.633093 2.8702 0.481204 2.98219 0.369216C3.09418 0.257227 3.24606 0.194313 3.40444 0.194313L19.6774 0C20.0072 0 20.2745 0.267356 20.2745 0.597156V23.0332H26.4188C26.7486 23.0332 27.0159 23.3005 27.0159 23.6303V25.9763H29.7895C30.1193 25.9763 30.3866 26.2437 30.3866 26.5735V28.9194L32.5016 28.8626C32.8314 28.8626 33.0988 29.1299 33.0988 29.4597V32.4028C33.0988 32.7326 32.8314 33 32.5016 33H29.1959L29.0016 35ZM27.0159 31.8626L31.9044 31.8057V30.0569L27.0159 30.1137V31.8626ZM20.2745 31.8626V30.1137H25.8216V31.8626H20.2745ZM20.2745 28.9194L23.0016 28.7488V27L20.2745 27.1706V28.9194ZM20.2745 33.0569L22.0016 33L21.8073 35L20.3717 34.8057L20.2745 33.0569ZM24.0016 28.7488L29.1923 28.9194V27.1706L24.0016 27V28.7488ZM25.8216 24.2275V25.9763H20.2745V24.2275H25.8216ZM19.0802 1.19431L4.0016 1L4.09875 35L7.06364 34.8057L6.96649 24.5957C6.96649 24.2659 7.23384 23.9985 7.56364 23.9985L15.3073 24.1928C15.6371 24.1928 15.9044 24.4602 15.9044 24.79L16.0016 35L19.1774 34.8057L19.0802 1.19431ZM14.8073 35L8.25796 34.8057L8.1608 25.1928L14.7101 25.3871L14.8073 35ZM23.1959 33L23.0016 35H27.8073L28.0016 33H23.1959Z" fill="#FF3737"/>
</svg>
