<svg width="34" height="35" viewBox="0 0 34 35" fill="none" xmlns="http://www.w3.org/2000/svg">
<path fill-rule="evenodd" clip-rule="evenodd" d="M34 20.6246C34 20.6213 33.9996 20.6181 33.9995 20.6148L33.9988 15.5503C33.9988 14.4533 33.1064 13.5609 32.0095 13.5609H30.978L30.7144 11.4041H32.2717C32.5713 11.4041 32.8143 11.1612 32.8143 10.8615V7.32707C32.8143 7.02743 32.5713 6.78451 32.2717 6.78451C31.9721 6.78451 31.7292 7.02743 31.7292 7.32707V10.319H30.5818L29.5771 3.36841C29.4706 2.49714 28.6996 1.81461 27.8217 1.81461H26.1941V0.910351C26.1941 0.610717 25.9512 0.367798 25.6515 0.367798C25.3519 0.367798 25.109 0.610717 25.109 0.910351V1.81461H8.66693V0.910351C8.66693 0.610717 8.42401 0.367798 8.12438 0.367798C7.82475 0.367798 7.58183 0.610717 7.58183 0.910351V1.81461H5.95417C5.07639 1.81461 4.30538 2.49714 4.1989 3.36848L3.41707 10.3191H2.30064V7.32714C2.30064 7.0275 2.05772 6.78458 1.75809 6.78458C1.45846 6.78458 1.21554 7.0275 1.21554 7.32714V10.8616C1.21554 11.1613 1.45846 11.4042 1.75809 11.4042H3.28447L3.02094 13.561H1.98936C0.892391 13.561 0 14.4534 0 15.5504V24.5633C0 24.863 0.242919 25.1059 0.542553 25.1059L0.914894 25V32.2583C0.914894 33.1559 1.64503 33.886 2.54255 33.886L6.45745 33.7583C7.35497 33.7583 8.08511 33.0282 8.08511 32.1307V26.5C8.27985 26.2664 7.84219 25.9574 7.54255 25.9574C7.24292 25.9574 7 26.2004 7 26.5V32.1307C7 32.4298 6.75665 32.6732 6.45745 32.6732L2.54255 32.8009C2.24335 32.8009 2 32.5575 2 32.2583V25H32V32.2583C32 32.5575 31.7566 32.8009 31.4574 32.8009L27.6277 33.1732C27.3285 33.1732 27.0851 32.9298 27.0851 32.6307V27C27.0851 26.7004 26.8422 26.4574 26.5426 26.4574C26.2429 26.4574 26 26.7004 26 27V32.6307C26 33.5282 26.7301 34.2583 27.6277 34.2583L31.4574 33.886C32.355 33.886 33.0851 33.1559 33.0851 32.2583V25L33.4574 25.1059C33.6013 25.1059 33.7394 25.0487 33.8411 24.947C33.9429 24.8452 34 24.7072 34 24.5633L33.9995 20.6344L33.9997 20.63L34 20.6246ZM4.34737 14.646C4.8994 14.646 5.51531 15.1121 5.66527 15.6433L6.50094 18.6018C6.5824 18.8902 6.88247 19.0581 7.17053 18.9765C7.45888 18.895 7.62663 18.5952 7.54518 18.3069L6.70957 15.3484C6.42651 14.3461 5.38893 13.561 4.34737 13.561H4.11414L5.27597 3.50007C5.31511 3.18025 5.63196 2.89964 5.95417 2.89964H27.8218C28.144 2.89964 28.4609 3.18018 28.5 3.49999L29.8848 13.5609H29.6515C28.6101 13.5609 27.5725 14.346 27.2893 15.3483L26.4537 18.3068C26.3724 18.5952 26.54 18.895 26.8284 18.9764C27.1167 19.0578 27.4165 18.8902 27.498 18.6018L28.3336 15.6432C28.4836 15.112 29.0995 14.646 29.6515 14.646H30.4955H32.0095C32.5081 14.646 32.9137 15.0516 32.9137 15.5503L32.9143 20.082H1.08511V15.5503C1.08511 15.0517 1.49072 14.646 1.98936 14.646H4.34737ZM1.08511 24.0208H32.9148L32.9145 21.1672H1.08511V24.0208Z" fill="#FF3737"/>
<path d="M24.0662 26.9144H9.93318C9.63354 26.9144 9.39062 27.1573 9.39062 27.457C9.39062 27.7566 9.63354 27.9995 9.93318 27.9995H24.0662C24.3658 27.9995 24.6087 27.7566 24.6087 27.457C24.6087 27.1573 24.3658 26.9144 24.0662 26.9144Z" fill="#FF3737"/>
<path fill-rule="evenodd" clip-rule="evenodd" d="M8.32031 15.7431C8.32031 14.4243 9.39327 13.3514 10.712 13.3514C12.0309 13.3514 13.1038 14.4243 13.1038 15.7431C13.1038 17.0618 12.0308 18.1348 10.712 18.1348C9.39327 18.1348 8.32031 17.0618 8.32031 15.7431ZM9.40542 15.7431C9.40542 16.4635 9.99159 17.0497 10.712 17.0497C11.4325 17.0497 12.0186 16.4635 12.0186 15.7431C12.0186 15.0226 11.4325 14.4365 10.712 14.4365C9.99159 14.4365 9.40542 15.0226 9.40542 15.7431Z" fill="#FF3737"/>
<path fill-rule="evenodd" clip-rule="evenodd" d="M20.8945 15.7431C20.8945 14.4243 21.9675 13.3514 23.2863 13.3514C24.605 13.3514 25.678 14.4243 25.678 15.7431C25.678 17.0618 24.605 18.1348 23.2863 18.1348C21.9675 18.1348 20.8945 17.0618 20.8945 15.7431ZM21.9796 15.7431C21.9796 16.4635 22.5658 17.0497 23.2863 17.0497C24.0067 17.0497 24.5929 16.4635 24.5929 15.7431C24.5929 15.0226 24.0067 14.4365 23.2863 14.4365C22.5658 14.4365 21.9796 15.0226 21.9796 15.7431Z" fill="#FF3737"/>
<path d="M14.7808 13.3514C14.4812 13.3514 14.2383 13.5943 14.2383 13.8939V17.5922C14.2383 17.8919 14.4812 18.1348 14.7808 18.1348C15.0805 18.1348 15.3234 17.8919 15.3234 17.5922V13.8939C15.3234 13.5943 15.0805 13.3514 14.7808 13.3514Z" fill="#FF3737"/>
<path d="M16.9996 13.3514C16.7 13.3514 16.457 13.5943 16.457 13.8939V17.5922C16.457 17.8919 16.7 18.1348 16.9996 18.1348C17.2992 18.1348 17.5421 17.8919 17.5421 17.5922V13.8939C17.5421 13.5943 17.2992 13.3514 16.9996 13.3514Z" fill="#FF3737"/>
<path d="M19.2183 13.3514C18.9187 13.3514 18.6758 13.5943 18.6758 13.8939V17.5922C18.6758 17.8919 18.9187 18.1348 19.2183 18.1348C19.518 18.1348 19.7609 17.8919 19.7609 17.5922V13.8939C19.7609 13.5943 19.518 13.3514 19.2183 13.3514Z" fill="#FF3737"/>
<path d="M28.4722 10.5426C28.4722 10.2429 28.2293 10 27.9297 10H6.06599C5.76636 10 5.52344 10.2429 5.52344 10.5426C5.52344 10.8422 5.76636 11.0851 6.06599 11.0851H27.9297C28.2293 11.0851 28.4722 10.8422 28.4722 10.5426Z" fill="#FF3737"/>
</svg>
