<svg width="26" height="26" viewBox="0 0 26 26" fill="none" xmlns="http://www.w3.org/2000/svg">
<path d="M22.1924 3.80758C19.737 1.3522 16.4724 0 13 0C9.52758 0 6.263 1.3522 3.80758 3.80758C1.3522 6.263 0 9.52758 0 13C0 16.4724 1.3522 19.737 3.80758 22.1924C6.263 24.6478 9.52758 26 13 26C16.4724 26 19.737 24.6478 22.1924 22.1924C24.6478 19.737 26 16.4724 26 13C26 9.52758 24.6478 6.263 22.1924 3.80758ZM13 24.9642C6.40296 24.9642 1.03584 19.5971 1.03584 13C1.03584 6.40291 6.40296 1.03584 13 1.03584C19.597 1.03584 24.9642 6.40296 24.9642 13C24.9642 19.597 19.597 24.9642 13 24.9642Z" fill="#D7D7D7"/>
<path d="M12.9997 2.04144C6.95715 2.04144 2.04117 6.95742 2.04117 13C2.04117 19.0425 6.95715 23.9585 12.9997 23.9585C19.0423 23.9585 23.9583 19.0425 23.9583 13C23.9583 6.95742 19.0423 2.04144 12.9997 2.04144ZM21.8392 17.5055L20.3456 16.6431C20.098 16.5001 19.7812 16.5849 19.6381 16.8327C19.4951 17.0804 19.58 17.3971 19.8277 17.5401L21.3195 18.4014C20.561 19.5655 19.5653 20.5613 18.4012 21.3196L17.54 19.8279C17.3969 19.5801 17.0801 19.4953 16.8325 19.6383C16.5848 19.7813 16.4999 20.0981 16.6429 20.3458L17.5053 21.8394C16.2974 22.4575 14.9471 22.8352 13.5177 22.9091V21.1831C13.5177 20.8971 13.2859 20.6652 12.9998 20.6652C12.7138 20.6652 12.4819 20.8971 12.4819 21.1831V22.9091C11.0525 22.8352 9.70223 22.4575 8.49435 21.8394L9.35671 20.3458C9.49976 20.0981 9.41486 19.7813 9.16715 19.6383C8.91949 19.4954 8.60266 19.5802 8.45966 19.8279L7.59841 21.3196C6.43425 20.5612 5.43853 19.5655 4.68017 18.4014L6.17192 17.5401C6.41963 17.3971 6.50453 17.0804 6.36148 16.8327C6.21848 16.5849 5.90166 16.5 5.654 16.6431L4.16022 17.5055C3.54211 16.2976 3.16435 14.9473 3.09051 13.5179H4.81646C5.10251 13.5179 5.33438 13.286 5.33438 13C5.33438 12.7139 5.10251 12.4821 4.81646 12.4821H3.09051C3.16435 11.0527 3.54211 9.7024 4.16022 8.49452L5.6538 9.35689C5.73535 9.40396 5.82442 9.42636 5.91227 9.42636C6.09128 9.42636 6.26535 9.33348 6.36128 9.16732C6.50433 8.91961 6.41942 8.60284 6.17171 8.45984L4.67996 7.59859C5.43838 6.43443 6.4341 5.43871 7.59821 4.68034L8.45946 6.17209C8.55538 6.33825 8.72946 6.43113 8.90847 6.43113C8.99632 6.43113 9.08539 6.40873 9.16694 6.36166C9.41465 6.21866 9.49956 5.90189 9.35651 5.65417L8.49424 4.16049C9.70203 3.54238 11.0524 3.16462 12.4818 3.09079V4.81674C12.4818 5.10279 12.7137 5.33466 12.9997 5.33466C13.2858 5.33466 13.5176 5.10279 13.5176 4.81674V3.09079C14.947 3.16462 16.2973 3.54238 17.5052 4.16049L16.6428 5.65407C16.4998 5.90178 16.5847 6.21856 16.8324 6.36156C16.9139 6.40863 17.003 6.43102 17.0909 6.43102C17.2699 6.43102 17.4439 6.33815 17.5399 6.17199L18.4011 4.68024C19.5653 5.43866 20.561 6.43438 21.3194 7.59849L19.8276 8.45974C19.5799 8.60274 19.495 8.91951 19.638 9.16722C19.734 9.33338 19.908 9.42626 20.087 9.42626C20.1749 9.42626 20.264 9.40386 20.3455 9.35679L21.8391 8.49442C22.4572 9.70225 22.835 11.0526 22.9088 12.482H21.1829C20.8968 12.482 20.6649 12.7138 20.6649 12.9999C20.6649 13.2859 20.8968 13.5178 21.1829 13.5178H22.9088C22.8351 14.9473 22.4574 16.2976 21.8392 17.5055Z" fill="#D7D7D7"/>
<path d="M13.5182 11.558V8.23504C13.5182 7.94899 13.2863 7.71712 13.0003 7.71712C12.7142 7.71712 12.4824 7.94899 12.4824 8.23504V11.558C11.8916 11.7708 11.4681 12.3368 11.4681 13C11.4681 13.3767 11.605 13.7219 11.8313 13.9889L11.0092 15.4129C10.8662 15.6606 10.9511 15.9774 11.1988 16.1204C11.2803 16.1675 11.3694 16.1898 11.4573 16.1898C11.6363 16.1898 11.8103 16.0969 11.9063 15.9308L12.728 14.5075C12.8164 14.5235 12.9073 14.5323 13.0003 14.5323C13.8452 14.5323 14.5325 13.845 14.5325 13.0001C14.5325 12.3368 14.109 11.7709 13.5182 11.558ZM13.0003 13.4964C12.7266 13.4964 12.5039 13.2737 12.5039 13C12.5039 12.7263 12.7266 12.5036 13.0003 12.5036C13.274 12.5036 13.4967 12.7263 13.4967 13C13.4967 13.2737 13.274 13.4964 13.0003 13.4964Z" fill="#D7D7D7"/>
<path d="M13.0001 6.00797C12.7141 6.00797 12.4822 6.23984 12.4822 6.52589V6.73308C12.4822 7.01913 12.7141 7.251 13.0001 7.251C13.2862 7.251 13.518 7.01913 13.518 6.73308V6.52589C13.518 6.23984 13.2862 6.00797 13.0001 6.00797Z" fill="#D7D7D7"/>
</svg>
