<svg width="26" height="26" viewBox="0 0 26 26" fill="none" xmlns="http://www.w3.org/2000/svg">
<path d="M23.4609 2.23438H21.0403V1.52344C21.0403 0.683414 20.3569 0 19.5169 0C18.6769 0 17.9935 0.683414 17.9935 1.52344V2.23438H9.46222V1.52344C9.46222 0.683414 8.77881 0 7.93878 0C7.09876 0 6.41535 0.683414 6.41535 1.52344V2.25316C6.37218 2.24123 6.32694 2.23438 6.27996 2.23438H4.25664C2.8566 2.23438 1.71757 3.3734 1.71757 4.77344V13.4232C1.71757 13.7036 1.94497 13.931 2.22539 13.931C2.5058 13.931 2.7332 13.7036 2.7332 13.4232V7.46484H21.0403C21.3208 7.46484 21.5482 7.2375 21.5482 6.95703C21.5482 6.67657 21.3208 6.44922 21.0403 6.44922H2.7332V4.77344C2.7332 3.93341 3.41661 3.25 4.25664 3.25H6.27996C6.32694 3.25 6.37218 3.24309 6.41535 3.23121V3.88477C6.41535 4.72479 7.09876 5.4082 7.93878 5.4082C8.77881 5.4082 9.46222 4.72479 9.46222 3.88477V3.25H17.9935V3.88477C17.9935 4.72479 18.6769 5.4082 19.5169 5.4082C20.3569 5.4082 21.0403 4.72479 21.0403 3.88477V3.25H23.4609C24.301 3.25 24.9844 3.93341 24.9844 4.77344V24.07C24.9844 24.5742 24.5742 24.9844 24.07 24.9844C23.5658 24.9844 23.1556 24.5742 23.1556 24.07V22.7563C23.1556 22.4759 22.9282 22.2485 22.6478 22.2485H16.7409C16.4605 22.2485 16.2331 22.4759 16.2331 22.7563C16.2331 23.0368 16.4605 23.2642 16.7409 23.2642H22.14V24.07C22.14 24.4006 22.2237 24.712 22.3708 24.9844H1.92969C1.42568 24.9844 1.01562 24.5743 1.01562 24.0703V23.2642H12.3817C12.6622 23.2642 12.8896 23.0368 12.8896 22.7563C12.8896 22.4759 12.6622 22.2485 12.3817 22.2485H7.30788C8.19523 21.4843 8.7587 20.3539 8.7587 19.0938C8.7587 16.7977 6.89071 14.9297 4.59464 14.9297C2.29856 14.9297 0.430574 16.7977 0.430574 19.0938C0.430574 20.3539 0.994043 21.4843 1.88139 22.2485H0.507812C0.227398 22.2485 0 22.4759 0 22.7563V24.0703C0 25.1343 0.865668 26 1.92969 26H24.07C25.1342 26 26 25.1342 26 24.07V4.77344C26 3.3734 24.861 2.23438 23.4609 2.23438ZM8.4466 3.88477C8.4466 4.16477 8.21879 4.39258 7.93878 4.39258C7.65878 4.39258 7.43097 4.16477 7.43097 3.88477V1.52344C7.43097 1.24343 7.65878 1.01562 7.93878 1.01562C8.21879 1.01562 8.4466 1.24343 8.4466 1.52344V3.88477ZM20.0247 3.88477C20.0247 4.16477 19.7969 4.39258 19.5169 4.39258C19.2369 4.39258 19.0091 4.16477 19.0091 3.88477V1.52344C19.0091 1.24343 19.2369 1.01562 19.5169 1.01562C19.7969 1.01562 20.0247 1.24343 20.0247 1.52344V3.88477ZM1.4462 19.0938C1.4462 17.3577 2.85858 15.9453 4.59464 15.9453C6.3307 15.9453 7.74307 17.3577 7.74307 19.0938C7.74307 20.8298 6.3307 22.2422 4.59464 22.2422C2.85858 22.2422 1.4462 20.8298 1.4462 19.0938Z" fill="#D7D7D7"/>
<path d="M23.7846 6.59801C23.6902 6.50355 23.5592 6.44922 23.4256 6.44922C23.292 6.44922 23.161 6.50355 23.0666 6.59801C22.9721 6.69246 22.9178 6.82348 22.9178 6.95703C22.9178 7.09059 22.9721 7.2216 23.0666 7.31605C23.1611 7.41051 23.292 7.46484 23.4256 7.46484C23.5592 7.46484 23.6902 7.41051 23.7846 7.31605C23.879 7.2216 23.9334 7.09059 23.9334 6.95703C23.9334 6.82348 23.8791 6.69246 23.7846 6.59801Z" fill="#D7D7D7"/>
<path d="M15.1674 22.3971C15.073 22.3026 14.942 22.2488 14.8085 22.2488C14.6749 22.2488 14.5439 22.3026 14.4494 22.3971C14.355 22.492 14.3006 22.6225 14.3006 22.7561C14.3006 22.8901 14.3549 23.0207 14.4494 23.1156C14.5439 23.2101 14.6749 23.2639 14.8085 23.2639C14.942 23.2639 15.073 23.2101 15.1674 23.1156C15.2619 23.0207 15.3163 22.8896 15.3163 22.7561C15.3163 22.6225 15.2619 22.492 15.1674 22.3971Z" fill="#D7D7D7"/>
<path d="M11.4882 15.4375C10.4242 15.4375 9.55853 16.3032 9.55853 17.3672C9.55853 18.4312 10.4242 19.2969 11.4882 19.2969C12.5522 19.2969 13.4179 18.4312 13.4179 17.3672C13.4179 16.3032 12.5522 15.4375 11.4882 15.4375ZM11.4882 18.2812C10.9842 18.2812 10.5742 17.8712 10.5742 17.3672C10.5742 16.8632 10.9842 16.4531 11.4882 16.4531C11.9922 16.4531 12.4023 16.8632 12.4023 17.3672C12.4023 17.8712 11.9922 18.2812 11.4882 18.2812Z" fill="#D7D7D7"/>
<path d="M16.2303 15.4375C15.1663 15.4375 14.3006 16.3032 14.3006 17.3672C14.3006 18.4312 15.1663 19.2969 16.2303 19.2969C17.2943 19.2969 18.16 18.4312 18.16 17.3672C18.16 16.3032 17.2943 15.4375 16.2303 15.4375ZM16.2303 18.2812C15.7263 18.2812 15.3163 17.8712 15.3163 17.3672C15.3163 16.8632 15.7263 16.4531 16.2303 16.4531C16.7343 16.4531 17.1444 16.8632 17.1444 17.3672C17.1444 17.8712 16.7343 18.2812 16.2303 18.2812Z" fill="#D7D7D7"/>
<path d="M20.9688 15.4375C19.9048 15.4375 19.0391 16.3032 19.0391 17.3672C19.0391 18.4312 19.9048 19.2969 20.9688 19.2969C22.0328 19.2969 22.8985 18.4312 22.8985 17.3672C22.8985 16.3032 22.0328 15.4375 20.9688 15.4375ZM20.9688 18.2812C20.4648 18.2812 20.0548 17.8712 20.0548 17.3672C20.0548 16.8632 20.4648 16.4531 20.9688 16.4531C21.4728 16.4531 21.8829 16.8632 21.8829 17.3672C21.8829 17.8712 21.4728 18.2812 20.9688 18.2812Z" fill="#D7D7D7"/>
<path d="M6.75007 10.1562C5.68605 10.1562 4.82038 11.0219 4.82038 12.0859C4.82038 13.15 5.68605 14.0156 6.75007 14.0156C7.81409 14.0156 8.67975 13.15 8.67975 12.0859C8.67975 11.0219 7.81409 10.1562 6.75007 10.1562ZM6.75007 13C6.24606 13 5.836 12.5899 5.836 12.0859C5.836 11.5819 6.24606 11.1719 6.75007 11.1719C7.25407 11.1719 7.66413 11.5819 7.66413 12.0859C7.66413 12.5899 7.25407 13 6.75007 13Z" fill="#D7D7D7"/>
<path d="M16.2303 10.1562C15.1663 10.1562 14.3006 11.0219 14.3006 12.0859C14.3006 13.15 15.1663 14.0156 16.2303 14.0156C17.2943 14.0156 18.16 13.15 18.16 12.0859C18.16 11.0219 17.2943 10.1562 16.2303 10.1562ZM16.2303 13C15.7263 13 15.3163 12.5899 15.3163 12.0859C15.3163 11.5819 15.7263 11.1719 16.2303 11.1719C16.7343 11.1719 17.1444 11.5819 17.1444 12.0859C17.1444 12.5899 16.7343 13 16.2303 13Z" fill="#D7D7D7"/>
<path d="M20.9688 10.1562C19.9048 10.1562 19.0391 11.0219 19.0391 12.0859C19.0391 13.15 19.9048 14.0156 20.9688 14.0156C22.0328 14.0156 22.8985 13.15 22.8985 12.0859C22.8985 11.0219 22.0328 10.1562 20.9688 10.1562ZM20.9688 13C20.4648 13 20.0548 12.5899 20.0548 12.0859C20.0548 11.5819 20.4648 11.1719 20.9688 11.1719C21.4728 11.1719 21.8829 11.5819 21.8829 12.0859C21.8829 12.5899 21.4728 13 20.9688 13Z" fill="#D7D7D7"/>
<path d="M11.4882 10.1562C10.4242 10.1562 9.55853 11.0219 9.55853 12.0859C9.55853 13.15 10.4242 14.0156 11.4882 14.0156C12.5522 14.0156 13.4179 13.15 13.4179 12.0859C13.4179 11.0219 12.5522 10.1562 11.4882 10.1562ZM11.4882 13C10.9842 13 10.5742 12.5899 10.5742 12.0859C10.5742 11.5819 10.9842 11.1719 11.4882 11.1719C11.9922 11.1719 12.4023 11.5819 12.4023 12.0859C12.4023 12.5899 11.9922 13 11.4882 13Z" fill="#D7D7D7"/>
<path d="M6.4017 17.8562C6.20335 17.6579 5.88191 17.6579 5.68351 17.8562L4.02977 19.51L3.46462 18.9449C3.26627 18.7466 2.94483 18.7466 2.74642 18.9449C2.54812 19.1432 2.54812 19.4647 2.74642 19.6631L3.67069 20.5873C3.76596 20.6825 3.89509 20.736 4.02977 20.736C4.16444 20.736 4.29357 20.6825 4.38884 20.5873L6.4017 18.5744C6.6 18.3761 6.6 18.0545 6.4017 17.8562Z" fill="#D7D7D7"/>
<path d="M12.3437 22.2388H17.0641V23.2738H12.3437V22.2388Z" fill="#D7D7D7"/>
</svg>
