<svg width="23" height="18" viewBox="0 0 23 18" fill="#000" xmlns="http://www.w3.org/2000/svg">
<path d="M14.4888 8.66974L10.1267 5.93061C10.0046 5.8543 9.84995 5.84922 9.72266 5.9177C9.59616 5.98656 9.51724 6.11804 9.51724 6.26087V11.7391C9.51724 11.882 9.59616 12.0134 9.72305 12.0823C9.78253 12.1144 9.84797 12.1304 9.91379 12.1304C9.98795 12.1304 10.0621 12.1097 10.1267 12.0694L14.4888 9.33026C14.603 9.25826 14.6724 9.13383 14.6724 9C14.6724 8.86617 14.603 8.74174 14.4888 8.66974ZM10.3103 11.0266V6.97343L13.5371 9L10.3103 11.0266Z" fill="#7C7C7C"/>
<path d="M22.6034 0H0.396552C0.177655 0 0 0.174913 0 0.391304V17.6087C0 17.8251 0.177655 18 0.396552 18H22.6034C22.8223 18 23 17.8251 23 17.6087V0.391304C23 0.174913 22.8223 0 22.6034 0ZM3.96552 8.6087H0.793103V5.08696H3.96552V8.6087ZM0.793103 9.3913H3.96552V12.913H0.793103V9.3913ZM4.75862 0.782609H18.2414V17.2174H4.75862V0.782609ZM22.2069 8.6087H19.0345V5.08696H22.2069V8.6087ZM19.0345 9.3913H22.2069V12.913H19.0345V9.3913ZM22.2069 0.782609V4.30435H19.0345V0.782609H22.2069ZM0.793103 0.782609H3.96552V4.30435H0.793103V0.782609ZM0.793103 17.2174V13.6957H3.96552V17.2174H0.793103ZM22.2069 17.2174H19.0345V13.6957H22.2069V17.2174Z" fill="#7C7C7C"/>
</svg>
