<svg width="16" height="15" viewBox="0 0 16 15" fill="none" xmlns="http://www.w3.org/2000/svg">
<path d="M15.75 1.40625V4.90625C15.75 5.19792 15.6133 5.39844 15.3398 5.50781C15.0664 5.61719 14.8294 5.57161 14.6289 5.37109L13.6445 4.38672L7 11.0586C6.8724 11.1862 6.71745 11.25 6.53516 11.25C6.35286 11.25 6.19792 11.1862 6.07031 11.0586L5.44141 10.4297C5.3138 10.3021 5.25 10.1471 5.25 9.96484C5.25 9.78255 5.3138 9.6276 5.44141 9.5L12.1133 2.85547L11.1289 1.87109C10.9284 1.67057 10.8828 1.43359 10.9922 1.16016C11.1016 0.886719 11.3021 0.75 11.5938 0.75H15.0938C15.276 0.75 15.431 0.813802 15.5586 0.941406C15.6862 1.06901 15.75 1.22396 15.75 1.40625ZM11.1289 8.16016C11.3294 7.94141 11.5664 7.89583 11.8398 8.02344C12.1133 8.13281 12.25 8.33333 12.25 8.625V13.4375C12.25 13.8021 12.1224 14.112 11.8672 14.3672C11.612 14.6224 11.3021 14.75 10.9375 14.75H1.3125C0.947917 14.75 0.638021 14.6224 0.382812 14.3672C0.127604 14.112 0 13.8021 0 13.4375V3.8125C0 3.44792 0.127604 3.13802 0.382812 2.88281C0.638021 2.6276 0.947917 2.5 1.3125 2.5H9.40625C9.69792 2.5 9.89844 2.63672 10.0078 2.91016C10.1172 3.18359 10.0716 3.42057 9.87109 3.62109L9.43359 4.05859C9.30599 4.1862 9.15104 4.25 8.96875 4.25H1.75V13H10.5V9.0625C10.5 8.88021 10.5638 8.72526 10.6914 8.59766L11.1289 8.16016Z" fill="#0051FF"/>
</svg>
