<svg width="11" height="18" viewBox="0 0 11 18" fill="none" xmlns="http://www.w3.org/2000/svg">
<path d="M9.59053 10.125H7.0124V18H3.5749V10.125H0.790527V6.85547H3.5749V4.39453C3.5749 3.45704 3.74678 2.66015 4.09053 2.00391C4.43428 1.34766 4.91553 0.855469 5.53428 0.527344C6.17594 0.175781 6.90928 0 7.73428 0C8.10094 0 8.49053 0.0234375 8.90303 0.0703125C9.31553 0.09375 9.63637 0.128906 9.86553 0.175781L10.2093 0.210938V2.98828H8.83428C8.19262 2.98828 7.72282 3.16406 7.4249 3.51562C7.1499 3.84375 7.0124 4.25391 7.0124 4.74609V6.85547H10.0718L9.59053 10.125Z" fill="black"/>
</svg>
