<svg width="17" height="18" viewBox="0 0 17 18" fill="none" xmlns="http://www.w3.org/2000/svg">
<path d="M5.27632 6.00245C6.11254 5.16363 7.12093 4.74423 8.30148 4.74423C9.48208 4.74423 10.4782 5.16363 11.2897 6.00245C12.126 6.81659 12.5441 7.81577 12.5441 8.99998C12.5441 10.1842 12.126 11.1957 11.2897 12.0345C10.4782 12.8487 9.48208 13.2558 8.30148 13.2558C7.12093 13.2558 6.11254 12.8487 5.27632 12.0345C4.46468 11.1957 4.05887 10.1842 4.05887 8.99998C4.05887 7.81577 4.46468 6.81659 5.27632 6.00245ZM6.34619 10.9613C6.88728 11.5041 7.53904 11.7755 8.30148 11.7755C9.06392 11.7755 9.71573 11.5041 10.2568 10.9613C10.7979 10.4186 11.0685 9.76479 11.0685 8.99998C11.0685 8.23518 10.7979 7.58139 10.2568 7.03864C9.71573 6.49587 9.06392 6.22449 8.30148 6.22449C7.53904 6.22449 6.88728 6.49587 6.34619 7.03864C5.8051 7.58139 5.53456 8.23518 5.53456 8.99998C5.53456 9.76479 5.8051 10.4186 6.34619 10.9613ZM13.3926 3.89308C13.5894 4.06578 13.6878 4.28781 13.6878 4.55919C13.6878 4.83058 13.5894 5.06495 13.3926 5.26232C13.2205 5.45969 12.9991 5.55837 12.7286 5.55837C12.458 5.55837 12.2244 5.45969 12.0276 5.26232C11.8308 5.06495 11.7325 4.83058 11.7325 4.55919C11.7325 4.28781 11.8308 4.06578 12.0276 3.89308C12.2244 3.69571 12.458 3.59703 12.7286 3.59703C12.9991 3.59703 13.2205 3.69571 13.3926 3.89308ZM16.5285 5.59538C16.553 6.2615 16.5654 7.39636 16.5654 8.99998C16.5654 10.6036 16.553 11.7384 16.5285 12.4046C16.4547 13.9095 15.9997 15.0814 15.1635 15.9202C14.3518 16.7344 13.1959 17.1661 11.6956 17.2155C11.0315 17.2648 9.90018 17.2895 8.30148 17.2895C6.70281 17.2895 5.57145 17.2648 4.90739 17.2155C3.4071 17.1415 2.25114 16.6974 1.43951 15.8832C1.11978 15.5871 0.861527 15.2417 0.664768 14.847C0.468009 14.4523 0.320439 14.0699 0.222059 13.6998C0.148275 13.3297 0.111383 12.898 0.111383 12.4046C0.0621926 11.7384 0.0375977 10.6036 0.0375977 8.99998C0.0375977 7.39636 0.0621926 6.24916 0.111383 5.55837C0.185167 4.07811 0.627875 2.9309 1.43951 2.11676C2.25114 1.27795 3.4071 0.82153 4.90739 0.747516C5.57145 0.722846 6.70281 0.71051 8.30148 0.71051C9.90018 0.71051 11.0315 0.722846 11.6956 0.747516C13.1959 0.82153 14.3518 1.27795 15.1635 2.11676C15.9997 2.9309 16.4547 4.09045 16.5285 5.59538ZM14.7577 13.8848C14.8314 13.6875 14.8929 13.4408 14.9421 13.1447C14.9913 12.824 15.0282 12.4539 15.0528 12.0345C15.0773 11.5905 15.0897 11.2327 15.0897 10.9613C15.0897 10.69 15.0897 10.3075 15.0897 9.81415C15.0897 9.32071 15.0897 9.04932 15.0897 8.99998C15.0897 8.92597 15.0897 8.65459 15.0897 8.18583C15.0897 7.69242 15.0897 7.31002 15.0897 7.03864C15.0897 6.76725 15.0773 6.42186 15.0528 6.00245C15.0282 5.55837 14.9913 5.1883 14.9421 4.89225C14.8929 4.57153 14.8314 4.31248 14.7577 4.11512C14.4625 3.35031 13.9337 2.81988 13.1713 2.52383C12.9745 2.44982 12.7162 2.38814 12.3965 2.3388C12.1014 2.28946 11.7325 2.25245 11.2897 2.22778C10.8716 2.20311 10.5273 2.19077 10.2568 2.19077C10.0109 2.19077 9.6296 2.19077 9.11312 2.19077C8.62122 2.19077 8.35068 2.19077 8.30148 2.19077C8.2523 2.19077 7.98175 2.19077 7.48986 2.19077C6.99795 2.19077 6.61674 2.19077 6.34619 2.19077C6.07565 2.19077 5.71902 2.20311 5.27632 2.22778C4.8582 2.25245 4.48927 2.28946 4.16954 2.3388C3.8744 2.38814 3.62846 2.44982 3.43169 2.52383C2.66925 2.81988 2.14046 3.35031 1.84532 4.11512C1.77154 4.31248 1.71006 4.57153 1.66086 4.89225C1.61167 5.1883 1.57478 5.55837 1.55018 6.00245C1.52559 6.42186 1.51329 6.76725 1.51329 7.03864C1.51329 7.28534 1.51329 7.66775 1.51329 8.18583C1.51329 8.67926 1.51329 8.95064 1.51329 8.99998C1.51329 9.09867 1.51329 9.33304 1.51329 9.70312C1.51329 10.0485 1.51329 10.3446 1.51329 10.5913C1.51329 10.8133 1.51329 11.1094 1.51329 11.4794C1.53788 11.8495 1.56249 12.1703 1.58708 12.4416C1.61167 12.6883 1.64856 12.9474 1.69776 13.2187C1.74695 13.4901 1.79613 13.7122 1.84532 13.8848C2.16506 14.6496 2.69385 15.18 3.43169 15.4761C3.62846 15.5502 3.8744 15.6119 4.16954 15.6611C4.48927 15.7105 4.8582 15.7475 5.27632 15.7722C5.71902 15.7969 6.06335 15.8092 6.3093 15.8092C6.57985 15.8092 6.96106 15.8092 7.45296 15.8092C7.96946 15.8092 8.2523 15.8092 8.30148 15.8092C8.37527 15.8092 8.64582 15.8092 9.11312 15.8092C9.60505 15.8092 9.98622 15.8092 10.2568 15.8092C10.5273 15.8092 10.8716 15.7969 11.2897 15.7722C11.7325 15.7475 12.1014 15.7105 12.3965 15.6611C12.7162 15.6119 12.9745 15.5502 13.1713 15.4761C13.9337 15.1554 14.4625 14.625 14.7577 13.8848Z" fill="black"/>
</svg>
