<svg xmlns="http://www.w3.org/2000/svg" width="22.157" height="24.15" viewBox="0 0 22.157 24.15">
  <defs>
    <style>
      .cls-1 {
        fill: #097954;
        fill-rule: evenodd;
      }
    </style>
  </defs>
  <path class="cls-1" d="M837.376,4801.72a1.517,1.517,0,0,0-2.137,0,1.51,1.51,0,0,0,1.068,2.58,1.528,1.528,0,0,0,1.069-.44A1.523,1.523,0,0,0,837.376,4801.72Zm2.652,6.6a7.8,7.8,0,0,1-1.183-1.6,1.483,1.483,0,0,0-1.316-.76,1.529,1.529,0,0,0-.745.19,1.5,1.5,0,0,0-.572,2.06,10.5,10.5,0,0,0,1.622,2.19,1.5,1.5,0,0,0,1.107.48,1.462,1.462,0,0,0,1.03-.42,1.569,1.569,0,0,0,.477-1.05A1.494,1.494,0,0,0,840.028,4808.32Zm10.7,2.85a1.641,1.641,0,0,0-1.45-.96,1.592,1.592,0,0,0-.535.1,8.257,8.257,0,0,1-2.862.53,8.119,8.119,0,0,1-2.023-.24c-0.057-.02-0.114-0.02-0.152-0.04a1.393,1.393,0,0,0-.4-0.06,1.513,1.513,0,0,0-1.45,1.11,1.485,1.485,0,0,0,.133,1.14,1.469,1.469,0,0,0,.916.71,1.918,1.918,0,0,0,.229.05,11.076,11.076,0,0,0,6.717-.38,1.5,1.5,0,0,0,.84-0.8A1.532,1.532,0,0,0,850.733,4811.17Zm-1.26-18.84a1.528,1.528,0,0,0,.458-0.78,1.487,1.487,0,0,0-.191-1.14,1.507,1.507,0,0,0-2.079-.48l-2.767,1.75a1.527,1.527,0,0,0-.668.94,1.492,1.492,0,0,0,.191,1.14l1.755,2.77a1.508,1.508,0,0,0,2.08.48,1.513,1.513,0,0,0,.649-1.68,8.067,8.067,0,0,1,3.32,12.42,1.515,1.515,0,0,0,2.385,1.87A11.072,11.072,0,0,0,849.473,4792.33Z" transform="translate(-834.812 -4789.69)"/>
</svg>
