<svg xmlns="http://www.w3.org/2000/svg" width="17.03" height="20" viewBox="0 0 17.03 20">
  <defs>
    <style>
      .cls-1 {
        fill: #a8beb6;
        fill-rule: evenodd;
      }
    </style>
  </defs>
  <path id="Shape_1_копия_3" data-name="Shape 1 копия 3" class="cls-1" d="M1642.88,2127.88l0.01,0.03v-13.38l-4.32,4.21a1.17,1.17,0,0,1-.8.32,1.146,1.146,0,0,1-.79-0.32l-0.67-.66a1.063,1.063,0,0,1,0-1.54l7.38-7.22a1.189,1.189,0,0,1,.8-0.32,1.146,1.146,0,0,1,.79.32l7.39,7.22a1.063,1.063,0,0,1,0,1.54l-0.67.66a1.146,1.146,0,0,1-.79.32,1.122,1.122,0,0,1-.78-0.32l-4.34-4.26v13.42a1.149,1.149,0,0,1-1.15,1.11h-0.95A1.125,1.125,0,0,1,1642.88,2127.88Z" transform="translate(-1635.97 -2109)"/>
</svg>
