<svg xmlns="http://www.w3.org/2000/svg" width="19" height="12" viewBox="0 0 19 12">
  <defs>
    <style>
      .cls-1 {
        fill: #fff;
        fill-rule: evenodd;
      }
    </style>
  </defs>
  <path id="Shape_1_копия_2" data-name="Shape 1 копия 2" class="cls-1" d="M397.5,832.239l0.014,0H381.488l3.893-4.032a0.559,0.559,0,0,0,0-.749l-0.295-.316a0.469,0.469,0,0,0-.695,0l-5.246,5.476a0.556,0.556,0,0,0,0,.747l5.246,5.477a0.469,0.469,0,0,0,.695,0l0.295-.316a0.54,0.54,0,0,0,.144-0.372,0.523,0.523,0,0,0-.144-0.366l-3.915-4.044H397.5a0.529,0.529,0,0,0,.5-0.541V832.76A0.518,0.518,0,0,0,397.5,832.239Z" transform="translate(-379 -827)"/>
</svg>
