<svg xmlns="http://www.w3.org/2000/svg" width="9" height="8" viewBox="0 0 9 8">
  <defs>
    <style>
      .cls-1 {
        fill: #014d34;
        fill-rule: evenodd;
      }
    </style>
  </defs>
  <path id="Shape_1_копия_3" data-name="Shape 1 копия 3" class="cls-1" d="M1497.5,1436.24h6.01l-1.89-2.03a0.556,0.556,0,0,1-.14-0.38,0.549,0.549,0,0,1,.14-0.37l0.29-.31a0.5,0.5,0,0,1,.35-0.16,0.509,0.509,0,0,1,.35.15l3.24,3.48a0.514,0.514,0,0,1,.15.37,0.52,0.52,0,0,1-.15.38l-3.24,3.47a0.479,0.479,0,0,1-.35.16,0.5,0.5,0,0,1-.35-0.16l-0.29-.31a0.559,0.559,0,0,1,0-.74l1.91-2.04h-6.03a0.524,0.524,0,0,1-.5-0.54v-0.45A0.512,0.512,0,0,1,1497.5,1436.24Z" transform="translate(-1497 -1433)"/>
</svg>
