<svg xmlns="http://www.w3.org/2000/svg" width="19" height="12" viewBox="0 0 19 12">
  <defs>
    <style>
      .cls-1 {
        fill: #fff;
        fill-rule: evenodd;
      }
    </style>
  </defs>
  <path id="Shape_1_копия" data-name="Shape 1 копия" class="cls-1" d="M816.5,832.239l-0.014,0h16.023l-3.893-4.032a0.559,0.559,0,0,1,0-.749l0.294-.316a0.47,0.47,0,0,1,.7,0l5.246,5.476a0.559,0.559,0,0,1,0,.747l-5.246,5.477a0.47,0.47,0,0,1-.7,0l-0.294-.316a0.54,0.54,0,0,1-.144-0.372,0.523,0.523,0,0,1,.144-0.366l3.915-4.044H816.5a0.529,0.529,0,0,1-.5-0.541V832.76A0.518,0.518,0,0,1,816.5,832.239Z" transform="translate(-816 -827)"/>
</svg>
