<svg xmlns="http://www.w3.org/2000/svg" width="12" height="12" viewBox="0 0 12 12">
  <defs>
    <style>
      .cls-1 {
        fill: #abbcb6;
        fill-rule: evenodd;
      }
    </style>
  </defs>
  <path id="Фигура_33" data-name="Фигура 33" class="cls-1" d="M1036,592a6,6,0,1,0,6,6,6.005,6.005,0,0,0-6-6h0Zm2.81,9.3a0.552,0.552,0,0,1-.39.163,0.558,0.558,0,0,1-.4-0.163l-2.79-2.795a0.545,0.545,0,0,1-.17-0.4v-3.633a0.56,0.56,0,0,1,1.12,0v3.4l2.63,2.631a0.557,0.557,0,0,1,0,.791h0Zm0,0" transform="translate(-1030 -592)"/>
</svg>
