<svg xmlns="http://www.w3.org/2000/svg" width="16.87" height="16.876" viewBox="0 0 16.87 16.876">
  <defs>
    <style>
      .cls-1 {
        fill: #fff;
        fill-rule: evenodd;
      }
    </style>
  </defs>
  <path id="Прямоугольник_скругл._углы1187" data-name="Прямоугольник, скругл. углы1187" class="cls-1" d="M1299.68,395.667l-6.58-6.578-6.58,6.578a0.961,0.961,0,0,1-1.36,0,0.973,0.973,0,0,1,0-1.361l6.58-6.578-7.03-7.031a0.962,0.962,0,1,1,1.36-1.361l7.03,7.031,6.58-6.577a0.961,0.961,0,0,1,1.36,0,0.973,0.973,0,0,1,0,1.361l-6.58,6.577,6.58,6.578a0.973,0.973,0,0,1,0,1.361A0.961,0.961,0,0,1,1299.68,395.667Z" transform="translate(-1284.44 -379.062)"/>
</svg>
