<svg xmlns="http://www.w3.org/2000/svg" width="15.031" height="15.062" viewBox="0 0 15.031 15.062">
  <defs>
    <style>
      .cls-1 {
        fill: #198863;
        fill-rule: evenodd;
      }
    </style>
  </defs>
  <path id="logo-label" class="cls-1" d="M448.776,32.483a1.716,1.716,0,0,0-1.2-.514l-4.977.019h-0.019a3.256,3.256,0,0,0-2.032.932l-5.832,5.8a1.735,1.735,0,0,0,0,2.435l5.376,5.383a1.718,1.718,0,0,0,1.234.494,1.552,1.552,0,0,0,1.2-.513l5.774-5.783a3.149,3.149,0,0,0,.95-2.035l0.019-4.984A1.724,1.724,0,0,0,448.776,32.483Zm-5.033,6.487a1.484,1.484,0,1,1,1.481-1.484A1.485,1.485,0,0,1,443.743,38.97Z" transform="translate(-434.25 -31.969)"/>
</svg>
