<svg xmlns="http://www.w3.org/2000/svg" width="61.25" height="50.25" viewBox="0 0 61.25 50.25">
  <defs>
    <style>
      .cls-1 {
        fill-rule: evenodd;
        opacity: 0.15;
      }
    </style>
  </defs>
  <path id="Фигура_11" data-name="Фигура 11" class="cls-1" d="M1283.25,1977.93h-5.5v-1.8a1.788,1.788,0,0,0-1.79-1.79H1261.6a8.922,8.922,0,0,0-6.81,3.15,12.6,12.6,0,0,0-11.13-6.74h-3.59a1.788,1.788,0,0,0-1.79,1.79v1.8h-5.39a1.788,1.788,0,0,0-1.79,1.79v1.8h-5.5a1.79,1.79,0,0,0-1.8,1.79v39.48a1.79,1.79,0,0,0,1.8,1.79h57.65a1.79,1.79,0,0,0,1.8-1.79v-39.48a1.79,1.79,0,0,0-1.8-1.79h0Zm-21.65,0h12.56v32.3H1261.6a8.927,8.927,0,0,0-5.38,1.82v-28.74a5.382,5.382,0,0,1,5.38-5.38h0Zm-19.74-3.59h1.8a8.975,8.975,0,0,1,8.97,8.97v23.52a12.521,12.521,0,0,0-8.97-3.78h-1.8v-28.71Zm-7.17,3.59h3.59v26.91a1.79,1.79,0,0,0,1.79,1.8h3.59a8.975,8.975,0,0,1,7.89,4.71,8.89,8.89,0,0,0-4.3-1.12h-12.56v-32.3Zm-7.3,39.47v-35.88h3.71v30.5a1.8,1.8,0,0,0,1.79,1.8h14.36a5.318,5.318,0,0,1,4.63,2.69,1.793,1.793,0,0,0,1.55.89h-26.04Zm54.07,0h-26.04a1.793,1.793,0,0,0,1.55-.89,5.318,5.318,0,0,1,4.63-2.69h14.36a1.8,1.8,0,0,0,1.79-1.8v-30.5h3.71v35.88Zm0,0" transform="translate(-1223.81 -1970.75)"/>
</svg>
