<svg xmlns="http://www.w3.org/2000/svg" width="81.938" height="40.94" viewBox="0 0 81.938 40.94">
  <defs>
    <style>
      .cls-1 {
        fill-rule: evenodd;
        opacity: 0.15;
      }
    </style>
  </defs>
  <path id="Forma_1" data-name="Forma 1" class="cls-1" d="M446.4,2000.41a8.535,8.535,0,1,0,8.533,8.54A8.546,8.546,0,0,0,446.4,2000.41Zm0,13.66a5.12,5.12,0,1,1,5.12-5.12A5.128,5.128,0,0,1,446.4,2014.07Zm51.2-13.66a8.535,8.535,0,1,0,8.533,8.54A8.546,8.546,0,0,0,497.6,2000.41Zm0,13.66a5.12,5.12,0,1,1,5.12-5.12A5.128,5.128,0,0,1,497.6,2014.07Zm5.12-23.9h-2.888a4.684,4.684,0,0,1-2.915-1.02l-13.448-10.76a8.609,8.609,0,0,0-5.332-1.87H453.465a8.513,8.513,0,0,0-7.1,3.8l-2.9,4.36a4.674,4.674,0,0,1-3.888,2.08,8.545,8.545,0,0,0-8.533,8.53v6.83a8.545,8.545,0,0,0,8.533,8.53,1.705,1.705,0,1,0,0-3.41,5.128,5.128,0,0,1-5.12-5.12v-6.83a5.128,5.128,0,0,1,5.12-5.12,8.058,8.058,0,0,0,6.728-3.6l2.905-4.36a5.131,5.131,0,0,1,4.259-2.28h24.672a5.119,5.119,0,0,1,3.2,1.13l13.448,10.75a8.122,8.122,0,0,0,5.049,1.78h2.884c5.007,0,6.827,5.1,6.827,8.53a4.958,4.958,0,0,1-5.12,5.12,1.705,1.705,0,1,0,0,3.41,8.346,8.346,0,0,0,8.533-8.53C512.96,1996.33,509.373,1990.17,502.72,1990.17Zm-11.947,17.07H453.227a1.705,1.705,0,1,0,0,3.41h37.546A1.705,1.705,0,1,0,490.773,2007.24Zm-3.413-17.07H472v-5.12a1.707,1.707,0,0,0-3.414,0v6.83a1.712,1.712,0,0,0,1.707,1.71H487.36A1.71,1.71,0,0,0,487.36,1990.17Zm-23.893,0H452.575l2.181-4.35a1.708,1.708,0,0,0-3.055-1.53l-3.413,6.83a1.706,1.706,0,0,0,1.525,2.47h13.653A1.71,1.71,0,0,0,463.467,1990.17ZM477.12,1997h-3.413a1.705,1.705,0,1,0,0,3.41h3.413A1.705,1.705,0,1,0,477.12,1997Z" transform="translate(-431.031 -1976.53)"/>
</svg>
