<svg xmlns="http://www.w3.org/2000/svg" width="59" height="46" viewBox="0 0 59 46">
  <defs>
    <style>
      .cls-1 {
        fill-rule: evenodd;
        opacity: 0.15;
      }
    </style>
  </defs>
  <path id="Фигура_12" data-name="Фигура 12" class="cls-1" d="M1472.74,1991.36h-2.7v-9.17a6.2,6.2,0,0,0-6.2-6.19h-38.63a6.2,6.2,0,0,0-6.2,6.19v25.02a6.2,6.2,0,0,0,6.2,6.19h17.14v4.25h-5.25a2.175,2.175,0,0,0,0,4.35h14.86a2.175,2.175,0,1,0,0-4.35h-5.25v-4.25h4.85a2.17,2.17,0,1,0,0-4.34h-26.35a1.846,1.846,0,0,1-1.85-1.85v-25.02a1.844,1.844,0,0,1,1.85-1.84h38.63a1.844,1.844,0,0,1,1.85,1.84v9.17h-2.7a5.258,5.258,0,0,0-5.26,5.25v20.14a5.258,5.258,0,0,0,5.26,5.25h9.76a2.175,2.175,0,1,0,0-4.35h-9.76a0.9,0.9,0,0,1-.91-0.9v-20.14a0.907,0.907,0,0,1,.91-0.91h9.76a0.907,0.907,0,0,1,.91.91v15.2a2.17,2.17,0,0,0,4.34,0v-15.2a5.258,5.258,0,0,0-5.26-5.25h0Zm0,0" transform="translate(-1419 -1976)"/>
</svg>
