<svg xmlns="http://www.w3.org/2000/svg" width="65" height="60" viewBox="0 0 65 60">
  <defs>
    <style>
      .cls-1 {
        fill-rule: evenodd;
        opacity: 0.15;
      }
    </style>
  </defs>
  <path id="Фигура_9" data-name="Фигура 9" class="cls-1" d="M891.1,1986.41H878.072v-14.49a1.9,1.9,0,1,0-3.807,0v14.49H861.24a1.91,1.91,0,0,0-1.9,1.91v1.03a30.143,30.143,0,0,0-7.053-.81,27.147,27.147,0,0,0-14.769,4.04c-4.223,2.78-6.548,6.55-6.548,10.63,0,0.06,0,.12.01,0.18a8.649,8.649,0,0,0,.03,13.1,1.555,1.555,0,0,0-.008.16v2.79a10.56,10.56,0,0,0,10.514,10.57h46.375a1.909,1.909,0,0,0,1.9-1.84l1.229-29.98H891.1a1.91,1.91,0,0,0,1.9-1.91v-7.96a1.91,1.91,0,0,0-1.9-1.91h0Zm-27.953,3.83h26.05v4.12H869.352a18.789,18.789,0,0,0-2.3-1.78,23.141,23.141,0,0,0-3.908-2.03v-0.31Zm-28.089,11.05a10.428,10.428,0,0,1,4.542-5.5,25.175,25.175,0,0,1,25.372,0,13.918,13.918,0,0,1,2.242,1.81c0.023,0.02.048,0.05,0.072,0.07a8.851,8.851,0,0,1,2.228,3.62H835.055Zm-3.258,8.64a4.8,4.8,0,0,1,4.782-4.81h6.576l5.622,7.02a1.906,1.906,0,0,0,2.626.33l9.733-7.35h6.851a4.805,4.805,0,0,1,0,9.61H836.579a4.794,4.794,0,0,1-4.782-4.8h0Zm16.246-4.81H854.8l-4.207,3.18Zm-13.238,14.32v-0.88h34.956v0.88a6.735,6.735,0,0,1-6.707,6.74H841.512a6.735,6.735,0,0,1-6.707-6.74h0Zm51.256,6.74H871.145a10.55,10.55,0,0,0,2.423-6.74v-2.79c0-.06,0-0.11-0.008-0.16a8.65,8.65,0,0,0,.031-13.1c0-.06.009-0.12,0.009-0.18a10.828,10.828,0,0,0-1.248-5.02h14.855Zm0,0" transform="translate(-828 -1970)"/>
</svg>
