<svg xmlns="http://www.w3.org/2000/svg" width="58" height="49" viewBox="0 0 58 49">
  <defs>
    <style>
      .cls-1 {
        fill-rule: evenodd;
        opacity: 0.15;
      }
    </style>
  </defs>
  <path id="Фигура_15" data-name="Фигура 15" class="cls-1" d="M885.149,2202.26l-15.686-9.41a18.493,18.493,0,0,0-7.19-2.48v-2.36a3.708,3.708,0,0,1,1.99-3.23,8.864,8.864,0,0,0,4.684-8.27,8.95,8.95,0,0,0-17.89.41,2.266,2.266,0,1,0,4.532,0,4.419,4.419,0,1,1,6.516,3.89,8.2,8.2,0,0,0-4.364,7.2v2.36a18.211,18.211,0,0,0-7.164,2.46l-15.708,9.38h0a7.935,7.935,0,0,0,4.077,14.75l42.093,0.05h0.01a7.941,7.941,0,0,0,4.1-14.75h0Zm-4.1,10.23h0l-42.094-.05a3.416,3.416,0,0,1-1.754-6.35h0l15.709-9.38a13.851,13.851,0,0,1,14.223.01l15.686,9.42a3.419,3.419,0,0,1-1.765,6.35h0Zm0,0" transform="translate(-831 -2168)"/>
</svg>
