<svg xmlns="http://www.w3.org/2000/svg" width="67.4" height="63.16" viewBox="0 0 67.4 63.16">
  <defs>
    <style>
      .cls-1 {
        fill-rule: evenodd;
        opacity: 0.15;
      }
    </style>
  </defs>
  <path id="Фигура_17" data-name="Фигура 17" class="cls-1" d="M1279.68,2189.61h-1.36a25.406,25.406,0,0,0-3.91-7.51,25.889,25.889,0,0,0-11.27-8.53,10.242,10.242,0,0,0,.09-1.36,12.221,12.221,0,0,0-12.21-12.21,1.975,1.975,0,0,0-1.96,2.19l0.53,4.78a7.232,7.232,0,0,0-5.04,6.65,25.764,25.764,0,0,0-15.09,15.99h-1.36a7.9,7.9,0,1,0,0,15.79h1.37a25.664,25.664,0,0,0,48.84,0h1.37a7.9,7.9,0,1,0,0-15.79h0Zm-27.92-19.03a1.975,1.975,0,0,0,1.96-2.19l-0.46-4.13a8.282,8.282,0,0,1,6.03,7.95,6.218,6.218,0,0,1-6.22,6.21,4.584,4.584,0,0,1-4.58-4.57,3.278,3.278,0,0,1,3.27-3.27h0Zm-23.66,30.87a3.945,3.945,0,1,1,0-7.89h0.43a26.088,26.088,0,0,0,0,7.89h-0.43Zm25.79,17.77a21.706,21.706,0,0,1-8.5-41.68,8.523,8.523,0,0,0,7.68,4.83,10.161,10.161,0,0,0,8.79-5.07,21.719,21.719,0,0,1-7.97,41.92h0Zm25.79-17.77h-0.43a26.088,26.088,0,0,0,0-7.89h0.43a3.945,3.945,0,1,1,0,7.89h0Zm0,0-20.53,4.61a1.967,1.967,0,0,0-1.97,1.97,3.29,3.29,0,1,1-6.58,0,1.975,1.975,0,0,0-3.95,0,7.24,7.24,0,0,0,14.48,0,1.976,1.976,0,0,0-1.98-1.97h0Zm0,0,3.95-14.48a5.934,5.934,0,0,0-5.92,5.93,1.975,1.975,0,0,0,3.95,0,1.975,1.975,0,1,1,3.95,0,1.97,1.97,0,1,0,3.94,0,5.928,5.928,0,0,0-5.92-5.93h0Zm0,0-14.47,7.9a1.967,1.967,0,0,0,1.97-1.97,5.92,5.92,0,1,0-11.84,0,1.97,1.97,0,1,0,3.94,0,1.975,1.975,0,1,1,3.95,0,1.976,1.976,0,0,0,1.98,1.97h0Zm0,0" transform="translate(-1220.19 -2160)"/>
</svg>
