<svg xmlns="http://www.w3.org/2000/svg" width="76" height="49.03" viewBox="0 0 76 49.03">
  <defs>
    <style>
      .cls-1 {
        fill-rule: evenodd;
        opacity: 0.15;
      }
    </style>
  </defs>
  <path id="Фигура_18" data-name="Фигура 18" class="cls-1" d="M1470.31,2191.56a1.651,1.651,0,0,1,.24.54l4.75,19.61a1.642,1.642,0,0,1-.82,1.85l-6.34,3.27a1.527,1.527,0,0,1-.71.18,1.577,1.577,0,0,1-1.23-.6l-13.71-17.3c-12.47,4.7-24.26,8.09-27.81,8.09-8.61,0-12.67-.32-12.67-3.26,0-.64,0-2.25,5.64-5.5l-5.37-8.3a1.676,1.676,0,0,1,.2-2.07l3.16-3.26a1.556,1.556,0,0,1,1.83-.31l11.96,6.17,6.36-3.28-16.65-9.81a1.674,1.674,0,0,1-.33-2.58l6.33-6.53a1.525,1.525,0,0,1,1.57-.41l27.13,8.4a1.35,1.35,0,0,1,.26-0.15c0.43-.21,10.71-5.05,19.66-5.05,12.86,0,14.25,4.57,14.25,6.53C1488.01,2181.63,1480.35,2186.71,1470.31,2191.56Zm-2.46,21.77,4.07-2.1-4.44-18.34c-3.78,1.74-7.82,3.44-11.85,5.02Zm-41.14-41.86-4.2,4.33,19.56,11.54,11.97-7.41Zm56.66,4.68a0.375,0.375,0,0,1-.11.01c-5.47,0-8.28,2.7-8.4,2.81a1.568,1.568,0,0,1-1.1.45,1.534,1.534,0,0,1-1.13-.5,1.664,1.664,0,0,1,.02-2.3,12.033,12.033,0,0,1,3.07-2.05c-0.62-.03-1.27-0.04-1.96-0.04-5.4,0-11.54,2.01-15.17,3.41a1.66,1.66,0,0,1,.15,2.89l-15.83,9.8a1.507,1.507,0,0,1-.82.24,1.588,1.588,0,0,1-.78-0.22l-2.22-1.31-8.96,4.62a1.527,1.527,0,0,1-1.41,0l-11.64-6.01-1.45,1.49,5.62,8.69a1.671,1.671,0,0,1-.6,2.36,33.525,33.525,0,0,0-4.76,3.03,64.9,64.9,0,0,0,8.79.42c10.59,0,60.16-20.05,60.16-26.15A2.261,2.261,0,0,0,1483.37,2176.15Z" transform="translate(-1412 -2167.97)"/>
</svg>
