<svg xmlns="http://www.w3.org/2000/svg" width="66.38" height="66.38" viewBox="0 0 66.38 66.38">
  <defs>
    <style>
      .cls-1 {
        fill-rule: evenodd;
        opacity: 0.15;
      }
    </style>
  </defs>
  <path id="Фигура_10" data-name="Фигура 10" class="cls-1" d="M1037.36,2010.73h3.89v-3.9h3.89v-3.89h-3.89v-3.89h-3.89v3.89h-3.89v3.89h3.89v3.9Zm0,0,33.33,0a5.84,5.84,0,1,0-5.83-5.84,5.847,5.847,0,0,0,5.83,5.84h0Zm0-7.79a1.945,1.945,0,1,1-1.94,1.95,1.959,1.959,0,0,1,1.94-1.95h0Zm0,0-35.27,31.26c6.76,0,10.91-7.53,12.52-14.1a2.083,2.083,0,0,1,2-1.46h10.12a2.083,2.083,0,0,1,2,1.46c1.61,6.57,5.76,14.1,12.52,14.1,3.86,0,7.4-2.61,9.97-7.35a34.608,34.608,0,0,0,3.65-16.12c0-13.09-5.98-23.35-13.62-23.35h-16.05a17.751,17.751,0,0,0-2.61-19.58l-2.91,2.59a13.882,13.882,0,0,1,1.01,16.99h-18.6c-7.64,0-13.62,10.26-13.62,23.35a34.608,34.608,0,0,0,3.65,16.12c2.57,4.74,6.11,7.35,9.97,7.35h0Zm0-42.93h39.16c6.65,0,9.73,12.21,9.73,19.46a30.676,30.676,0,0,1-3.18,14.27c-1.83,3.37-4.22,5.31-6.55,5.31-3.59,0-7.11-4.48-8.74-11.14a5.962,5.962,0,0,0-5.78-4.42h-10.12a5.962,5.962,0,0,0-5.78,4.42c-1.63,6.66-5.15,11.14-8.74,11.14-2.33,0-4.72-1.94-6.55-5.31a30.676,30.676,0,0,1-3.18-14.27c0-7.77,3.31-19.46,9.73-19.46h0Zm0,0" transform="translate(-1021.81 -1967.81)"/>
</svg>
