<svg xmlns="http://www.w3.org/2000/svg" width="58" height="52" viewBox="0 0 58 52">
  <defs>
    <style>
      .cls-1 {
        fill-rule: evenodd;
        opacity: 0.15;
      }
    </style>
  </defs>
  <path id="Фигура_13" data-name="Фигура 13" class="cls-1" d="M471.532,2219.01a2,2,0,0,1-1.386-.56l-17.7-16.99a1.969,1.969,0,0,1-.049-2.8,2.013,2.013,0,0,1,2.822-.05l16.31,15.66,20.569-19.75a14.089,14.089,0,0,0-.055-19.55,11.492,11.492,0,0,0-8.28-3.37h-0.037a15.421,15.421,0,0,0-10.718,4.59,2.123,2.123,0,0,1-1.511.63h0a2.12,2.12,0,0,1-1.512-.63c-3.643-3.46-6.85-5.23-9.5-5.23a13.106,13.106,0,0,0-9.536,4.01,13.861,13.861,0,0,0-3.742,7.15,2,2,0,0,1-3.915-.78,17.734,17.734,0,0,1,4.805-9.14,17.045,17.045,0,0,1,12.388-5.21c3.4,0,7.018,1.71,11.014,5.2a19.272,19.272,0,0,1,12.274-4.56,15.624,15.624,0,0,1,11.13,4.58,18.024,18.024,0,0,1,.008,25.12l-22,21.12A2.007,2.007,0,0,1,471.532,2219.01Zm1.192-45.7a0.246,0.246,0,0,1,.054.05A0.209,0.209,0,0,0,472.724,2173.31Zm-0.526,28.51a1.944,1.944,0,0,1-.34-0.03,1.978,1.978,0,0,1-1.487-1.15l-6.647-14.98-4.13,6.69a2,2,0,0,1-1.7.95h-13.9a1.985,1.985,0,1,1,0-3.97h12.788l5.536-8.97a2.04,2.04,0,0,1,1.836-.94,2.008,2.008,0,0,1,1.692,1.18l6.971,15.71,6.052-6.36a2.023,2.023,0,0,1,1.45-.62h16.1a1.985,1.985,0,1,1,0,3.97h-15.24l-7.526,7.9A2,2,0,0,1,472.2,2201.82Z" transform="translate(-442 -2167)"/>
</svg>
