<svg xmlns="http://www.w3.org/2000/svg" width="72" height="38" viewBox="0 0 72 38">
  <defs>
    <style>
      .cls-1 {
        fill-rule: evenodd;
        opacity: 0.15;
      }
    </style>
  </defs>
  <path id="Фигура_14" data-name="Фигура 14" class="cls-1" d="M694.035,2190.58a128.585,128.585,0,0,1-24.725-13.23,2.11,2.11,0,0,0-1.169-.35h-8.719a2.107,2.107,0,0,0-2.11,2.11v4.22a2.108,2.108,0,0,1-2.109,2.11h-8.437a2.108,2.108,0,0,1-2.11-2.11,6.337,6.337,0,0,0-6.328-6.33h-4.219a2.106,2.106,0,0,0-2.109,2.11v33.78a2.113,2.113,0,0,0,2.109,2.11h67.782a2.113,2.113,0,0,0,2.109-2.11v-11.18c0-9.03-8.957-10.44-9.965-11.13h0Zm-55.707-9.36a2.114,2.114,0,0,1,2.109,2.11,6.337,6.337,0,0,0,6.329,6.33H655.2a6.337,6.337,0,0,0,6.328-6.33v-2.11H667.5c0.722,0.48,1.347.91,2.4,1.59l-3.252,3.25a2.112,2.112,0,1,0,2.983,2.99l3.943-3.95q2.1,1.26,4.244,2.45l-2.732,2.73a2.112,2.112,0,0,0,2.983,2.99l3.646-3.65q2.232,1.14,4.5,2.19l-2.7,2.7a2.108,2.108,0,0,0,2.983,2.98l3.855-3.86c1.924,0.81,2.446,1,5.441,2.2a6.309,6.309,0,0,1,3.978,5.88v0.62H648.662a10.564,10.564,0,0,0-10.334-8.44h-2.109v-12.67h2.109Zm-2.109,16.89h2.109a6.334,6.334,0,0,1,5.966,4.22h-8.075v-4.22Zm0,12.67v-4.23h63.562v4.23H636.219Zm0,0" transform="translate(-632 -2177)"/>
</svg>
