<svg xmlns="http://www.w3.org/2000/svg" width="61" height="61" viewBox="0 0 61 61">
  <defs>
    <style>
      .cls-1 {
        fill-rule: evenodd;
        opacity: 0.15;
      }
    </style>
  </defs>
  <path id="Фигура_16" data-name="Фигура 16" class="cls-1" d="M1084.21,2168.78a9.479,9.479,0,0,0-13.76.36l-35.59,39.59a5.494,5.494,0,0,0-1.08-.1,5.937,5.937,0,0,0-4.23,1.75l-3.54,3.54,13.08,13.09,3.54-3.54a5.954,5.954,0,0,0,1.75-4.23,6.6,6.6,0,0,0-.1-1.09l39.57-35.6a9.491,9.491,0,0,0,.36-13.77h0Zm-38.01,32.68,2.92-3.25,5.67,5.67-3.25,2.93Zm2.68,7.74-6.35,5.71-4.43-4.43,5.7-6.35Zm-8.78,11.74-1.01,1.01-8.03-8.03,1.02-1.01a2.381,2.381,0,0,1,1.7-.7,2.416,2.416,0,0,1,1.7.7l4.62,4.62a2.414,2.414,0,0,1,0,3.41h0Zm43.32-45.3a5.89,5.89,0,0,1-1.96,4.25l-24.01,21.6-5.93-5.94,21.59-24.02a5.913,5.913,0,0,1,10.31,4.11h0Zm0,0-33.78,4.73a7.19,7.19,0,1,0-7.18-7.19,7.2,7.2,0,0,0,7.18,7.19h0Zm0-10.8a3.615,3.615,0,1,1-3.61,3.61,3.623,3.623,0,0,1,3.61-3.61h0Zm0,0" transform="translate(-1026 -2166)"/>
</svg>
