<svg xmlns="http://www.w3.org/2000/svg" width="20" height="20" viewBox="0 0 20 20">
  <defs>
    <style>
      .cls-1 {
        fill: #000;
        fill-rule: evenodd;
        opacity: 0.5;
      }
    </style>
  </defs>
  <path id="Фигура_3" data-name="Фигура 3" class="cls-1" d="M1325.23,44.476a8.241,8.241,0,1,1,8.24-8.241,8.244,8.244,0,0,1-8.24,8.241h0Zm0-14.92a6.679,6.679,0,1,0,6.68,6.679,6.681,6.681,0,0,0-6.68-6.679h0Zm11.52,18.222a0.772,0.772,0,0,0,0-1.1l-3.49-3.5a0.779,0.779,0,0,0-1.1,1.1l3.49,3.5a0.776,0.776,0,0,0,1.1,0h0Zm0,0" transform="translate(-1317 -28)"/>
</svg>
