<svg xmlns="http://www.w3.org/2000/svg" width="9.876" height="8.03" viewBox="0 0 9.876 8.03">
  <defs>
    <style>
      .cls-1 {
        fill: #014d34;
        fill-rule: evenodd;
      }
    </style>
  </defs>
  <path id="Forma_1" data-name="Forma 1" class="cls-1" d="M403.2,1291.27a4.2,4.2,0,0,1-1.167.32,2.03,2.03,0,0,0,.891-1.12,4.077,4.077,0,0,1-1.285.49,2.026,2.026,0,0,0-3.5,1.38,2.14,2.14,0,0,0,.047.47,5.762,5.762,0,0,1-4.176-2.12,2.024,2.024,0,0,0-.277,1.02,2.055,2.055,0,0,0,.9,1.69,2.174,2.174,0,0,1-.916-0.25v0.02a2.039,2.039,0,0,0,1.623,1.99,2.255,2.255,0,0,1-.531.07,1.628,1.628,0,0,1-.383-0.04,2.047,2.047,0,0,0,1.893,1.41,4.073,4.073,0,0,1-2.512.87,3.863,3.863,0,0,1-.485-0.03,5.765,5.765,0,0,0,8.874-4.86c0-.09,0-0.17-0.007-0.26A3.947,3.947,0,0,0,403.2,1291.27Z" transform="translate(-393.312 -1290.31)"/>
</svg>
