<svg xmlns="http://www.w3.org/2000/svg" width="16.53" height="9.97" viewBox="0 0 16.53 9.97">
  <defs>
    <style>
      .cls-1 {
        fill: #fff;
        fill-rule: evenodd;
      }
    </style>
  </defs>
  <path id="Forma_1" data-name="Forma 1" class="cls-1" d="M1371.44,3738.08a0.974,0.974,0,0,1-.05-0.11,8.879,8.879,0,0,0-1.65-2.01l-0.01-.02-0.01-.01-0.01-.01h-0.01c-0.37-.37-0.6-0.62-0.7-0.74a0.777,0.777,0,0,1-.12-0.74,6.661,6.661,0,0,1,.78-1.19c0.23-.32.42-0.58,0.56-0.78q1.485-2.085,1.29-2.67l-0.05-.09a0.478,0.478,0,0,0-.27-0.15,1.093,1.093,0,0,0-.55-0.02l-2.48.01a0.342,0.342,0,0,0-.17.01l-0.11.03-0.05.02-0.03.03a0.255,0.255,0,0,0-.09.09,0.507,0.507,0,0,0-.09.16,16.07,16.07,0,0,1-.92,2.05c-0.21.37-.41,0.7-0.59,0.97a3.914,3.914,0,0,1-.44.61,3.189,3.189,0,0,1-.33.32,0.31,0.31,0,0,1-.22.1c-0.05-.01-0.1-0.03-0.15-0.04a0.585,0.585,0,0,1-.19-0.22,1.1,1.1,0,0,1-.1-0.36,2.6,2.6,0,0,1-.03-0.36v-0.44c0.01-.19.01-0.32,0.01-0.38,0-.23.01-0.48,0.01-0.75s0.02-.49.03-0.64v-0.51a2.218,2.218,0,0,0-.03-0.41,1.4,1.4,0,0,0-.09-0.29,0.47,0.47,0,0,0-.17-0.22,1.1,1.1,0,0,0-.29-0.12,5.824,5.824,0,0,0-1.16-.12,5.374,5.374,0,0,0-2.06.22,1.18,1.18,0,0,0-.32.27c-0.11.14-.12,0.21-0.05,0.22a1.021,1.021,0,0,1,.73.39l0.06,0.11a1.86,1.86,0,0,1,.12.42,4.311,4.311,0,0,1,.07.66,7.179,7.179,0,0,1,0,1.14,7.252,7.252,0,0,1-.08.74,1.338,1.338,0,0,1-.11.42,1.871,1.871,0,0,1-.11.2,0.108,0.108,0,0,1-.04.05,0.593,0.593,0,0,1-.23.05,0.555,0.555,0,0,1-.29-0.13,1.954,1.954,0,0,1-.36-0.35,5.664,5.664,0,0,1-.42-0.63c-0.15-.26-0.31-0.58-0.48-0.94l-0.14-.27c-0.08-.17-0.2-0.41-0.35-0.74s-0.28-.64-0.4-0.94a0.563,0.563,0,0,0-.2-0.29l-0.05-.03a0.375,0.375,0,0,0-.13-0.07,0.762,0.762,0,0,0-.2-0.06l-2.36.01a0.573,0.573,0,0,0-.49.18l-0.03.05a0.281,0.281,0,0,0-.03.15,0.856,0.856,0,0,0,.05.24c0.35,0.86.72,1.68,1.13,2.48s0.75,1.43,1.05,1.92,0.6,0.94.91,1.37,0.52,0.71.62,0.83,0.18,0.21.23,0.27l0.22,0.22a5.087,5.087,0,0,0,.6.52,8.628,8.628,0,0,0,.89.6,4.322,4.322,0,0,0,1.13.48,3.7,3.7,0,0,0,1.26.16h0.99a0.64,0.64,0,0,0,.45-0.21l0.04-.04a0.8,0.8,0,0,0,.06-0.17,0.952,0.952,0,0,0,.03-0.25,2.575,2.575,0,0,1,.06-0.7,2.18,2.18,0,0,1,.14-0.48,1.344,1.344,0,0,1,.19-0.26,0.861,0.861,0,0,1,.14-0.14,0.488,0.488,0,0,0,.07-0.03,0.534,0.534,0,0,1,.49.14,3.272,3.272,0,0,1,.52.53c0.17,0.21.36,0.44,0.59,0.71a4.43,4.43,0,0,0,.6.58l0.18,0.11a2.035,2.035,0,0,0,.44.2,0.919,0.919,0,0,0,.48.04l2.21-.03a0.9,0.9,0,0,0,.5-0.12,0.43,0.43,0,0,0,.22-0.25,0.8,0.8,0,0,0,0-.31A1.361,1.361,0,0,0,1371.44,3738.08Z" transform="translate(-1355 -3729.09)"/>
</svg>
