<svg xmlns="http://www.w3.org/2000/svg" width="27.75" height="27" viewBox="0 0 27.75 27">
  <defs>
    <style>
      .cls-1 {
        fill: #e4e4e4;
        fill-rule: evenodd;
      }
    </style>
  </defs>
  <path id="Forma_1_копия_4" data-name="Forma 1 копия 4" class="cls-1" d="M645.415,394.23a2.027,2.027,0,0,0,.5-2.071,1.989,1.989,0,0,0-1.609-1.375l-6.724-.992a0.878,0.878,0,0,1-.662-0.487l-3.006-6.181a1.979,1.979,0,0,0-3.572,0l-3.007,6.181a0.879,0.879,0,0,1-.662.488l-6.725.991a1.989,1.989,0,0,0-1.608,1.376,2.027,2.027,0,0,0,.5,2.071l4.865,4.811a0.9,0.9,0,0,1,.254.79l-1.148,6.794a2,2,0,0,0,2.889,2.13l6.014-3.208a0.887,0.887,0,0,1,.819,0l6.014,3.208a1.955,1.955,0,0,0,.927.235,2.014,2.014,0,0,0,1.962-2.365l-1.148-6.794a0.9,0.9,0,0,1,.253-0.79Z" transform="translate(-618.25 -382)"/>
</svg>
