<?xml version="1.0" encoding="UTF-8"?>
<!DOCTYPE svg PUBLIC "-//W3C//DTD SVG 1.1//EN" "http://www.w3.org/Graphics/SVG/1.1/DTD/svg11.dtd">
<!-- Creator: CorelDRAW 2017 -->
<svg xmlns="http://www.w3.org/2000/svg" xml:space="preserve" width="201px" height="201px" version="1.1" style="shape-rendering:geometricPrecision; text-rendering:geometricPrecision; image-rendering:optimizeQuality; fill-rule:evenodd; clip-rule:evenodd"
viewBox="0 0 29.63 29.63"
 xmlns:xlink="http://www.w3.org/1999/xlink">
 <defs>
  <style type="text/css">
   <![CDATA[
    .fil2 {fill:url(#id0)}
    .fil0 {fill:url(#id1)}
    .fil1 {fill:url(#id2)}
    .fil4 {fill:url(#id3)}
    .fil3 {fill:url(#id4);fill-rule:nonzero}
   ]]>
  </style>
  <linearGradient id="id0" gradientUnits="userSpaceOnUse" x1="29.06" y1="-15.35" x2="20.45" y2="13.2">
   <stop offset="0" style="stop-opacity:1; stop-color:#4909A1"/>
   <stop offset="1" style="stop-opacity:1; stop-color:#25ECFF"/>
  </linearGradient>
  <linearGradient id="id1" gradientUnits="userSpaceOnUse" x1="12.17" y1="28.54" x2="16.52" y2="-5.14">
   <stop offset="0" style="stop-opacity:1; stop-color:#3900BD"/>
   <stop offset="1" style="stop-opacity:1; stop-color:#0DB3FA"/>
  </linearGradient>
  <linearGradient id="id2" gradientUnits="userSpaceOnUse" x1="-0.89" y1="31.69" x2="16.94" y2="-2.07">
   <stop offset="0" style="stop-opacity:1; stop-color:#6110DE"/>
   <stop offset="1" style="stop-opacity:1; stop-color:#25ECFF"/>
  </linearGradient>
  <linearGradient id="id3" gradientUnits="userSpaceOnUse" x1="11.98" y1="-2.54" x2="-13.71" y2="47.48">
   <stop offset="0" style="stop-opacity:1; stop-color:#2ACDF2"/>
   <stop offset="1" style="stop-opacity:1; stop-color:#9A11DE"/>
  </linearGradient>
  <linearGradient id="id4" gradientUnits="userSpaceOnUse" x1="25.95" y1="8.71" x2="18.31" y2="25.11">
   <stop offset="0" style="stop-opacity:1; stop-color:#25ECFF"/>
   <stop offset="1" style="stop-opacity:1; stop-color:#796CF5"/>
  </linearGradient>
 </defs>
 <g id="Слой_x0020_1">
  <metadata id="CorelCorpID_0Corel-Layer"/>
  <g id="_1798828260240">
   <path class="fil0" d="M2.2 27.8c2.64,0.02 14.79,-0.1 17.42,-0.11 2.64,0 5.3,0.04 7.93,0 1.12,-0.01 1.97,-0.73 2.04,-1.73 0.08,-1.14 0.01,-2.55 0.01,-3.72l0 -14.82c0,-1.19 0.05,-2.51 -0.01,-3.68 -0.05,-1.05 -0.89,-1.78 -2.04,-1.79 -5.26,-0.05 -20.21,-0.01 -25.47,0.01l0 0c-1.09,-0.07 -1.98,0.77 -2.04,1.73 -0.08,1.15 -0.01,2.54 -0.01,3.73l0 14.82c0,1.19 -0.06,2.5 0,3.68 0.05,0.99 0.92,1.82 2.04,1.76 -0.14,-1.07 -0.08,-1.97 -0.1,-3.08l0 -9.77c0,-2.16 -0.02,-4.32 -0.01,-6.47 0.01,-1.37 -0.09,-5.33 0.12,-6.4 0.54,2.86 2.74,0.33 0.12,25.84z"/>
   <path class="fil1" d="M4.54 0.74c-0.71,0.13 -1.15,0.44 -1.47,0.86 -0.44,0.6 -0.38,1.11 -0.38,1.93l0 22.54c0,0.8 -0.05,1.36 0.37,1.95 0.28,0.39 0.77,0.79 1.46,0.89 0.5,0.07 4.34,0.07 4.81,-0.01 0.68,-0.12 1.11,-0.49 1.4,-0.9 0.41,-0.58 0.36,-1.14 0.36,-1.93l0 -22.54c0,-0.84 0.07,-1.31 -0.38,-1.92 -0.3,-0.41 -0.75,-0.77 -1.45,-0.88 -0.47,-0.07 -4.29,-0.07 -4.72,0.01z"/>
   <path class="fil2" d="M13.11 3.88c-0.38,0.11 -0.27,0.48 -0.27,1.06l0 5.37c0,0.47 -0.14,0.93 0.43,0.96 0.9,0.05 2.01,0 2.93,0 1.27,0 11.15,0.09 11.49,-0.04 0.33,-0.11 0.22,-0.7 0.22,-1.08l0 -5.36c0,-1.24 0.16,-0.93 -3.34,-0.93 -1.21,0 -11.18,-0.06 -11.46,0.02z"/>
   <path class="fil3" d="M13.01 23.08l2.71 0c0.18,0 0.32,0.13 0.32,0.29l0 1.61c0,0.17 -0.14,0.3 -0.32,0.3l-2.71 0c-0.18,0 -0.32,-0.13 -0.32,-0.3l0 -1.61c0,-0.16 0.14,-0.29 0.32,-0.29zm12.02 -10.85l2.71 0c0.18,0 0.32,0.13 0.32,0.3l0 1.61c0,0.16 -0.14,0.29 -0.32,0.29l-2.71 0c-0.17,0 -0.32,-0.13 -0.32,-0.29l0 -1.61c0,-0.17 0.15,-0.3 0.32,-0.3zm-3.76 0l2.71 0c0.18,0 0.32,0.13 0.32,0.3l0 1.61c0,0.16 -0.14,0.29 -0.32,0.29l-2.71 0c-0.17,0 -0.31,-0.13 -0.31,-0.29l0 -1.61c0,-0.17 0.14,-0.3 0.31,-0.3zm-4.07 0l2.72 0c0.17,0 0.31,0.13 0.31,0.3l0 1.61c0,0.16 -0.14,0.29 -0.31,0.29l-2.72 0c-0.17,0 -0.31,-0.13 -0.31,-0.29l0 -1.61c0,-0.17 0.14,-0.3 0.31,-0.3zm-4.06 0l2.71 0c0.18,0 0.32,0.13 0.32,0.3l0 1.61c0,0.16 -0.14,0.29 -0.32,0.29l-2.71 0c-0.18,0 -0.32,-0.13 -0.32,-0.29l0 -1.61c0,-0.17 0.14,-0.3 0.32,-0.3zm11.76 2.48l2.71 0c0.18,0 0.32,0.13 0.32,0.29l0 1.61c0,0.16 -0.14,0.29 -0.32,0.29l-2.71 0c-0.17,0 -0.32,-0.13 -0.32,-0.29l0 -1.61c0,-0.16 0.15,-0.29 0.32,-0.29zm-3.76 0l2.71 0c0.18,0 0.32,0.13 0.32,0.29l0 1.61c0,0.16 -0.14,0.29 -0.32,0.29l-2.71 0c-0.17,0 -0.31,-0.13 -0.31,-0.29l0 -1.61c0,-0.16 0.14,-0.29 0.31,-0.29zm-4.07 0l2.72 0c0.17,0 0.31,0.13 0.31,0.29l0 1.61c0,0.16 -0.14,0.29 -0.31,0.29l-2.72 0c-0.17,0 -0.31,-0.13 -0.31,-0.29l0 -1.61c0,-0.16 0.14,-0.29 0.31,-0.29zm-4.06 0l2.71 0c0.18,0 0.32,0.13 0.32,0.29l0 1.61c0,0.16 -0.14,0.29 -0.32,0.29l-2.71 0c-0.18,0 -0.32,-0.13 -0.32,-0.29l0 -1.61c0,-0.16 0.14,-0.29 0.32,-0.29zm11.89 2.79l2.71 0c0.18,0 0.32,0.13 0.32,0.29l0 1.61c0,0.16 -0.14,0.29 -0.32,0.29l-2.71 0c-0.17,0 -0.32,-0.13 -0.32,-0.29l0 -1.61c0,-0.16 0.15,-0.29 0.32,-0.29zm-3.76 0l2.71 0c0.18,0 0.32,0.13 0.32,0.29l0 1.61c0,0.16 -0.14,0.29 -0.32,0.29l-2.71 0c-0.17,0 -0.31,-0.13 -0.31,-0.29l0 -1.61c0,-0.16 0.14,-0.29 0.31,-0.29zm-4.07 0l2.72 0c0.17,0 0.31,0.13 0.31,0.29l0 1.61c0,0.16 -0.14,0.29 -0.31,0.29l-2.72 0c-0.17,0 -0.31,-0.13 -0.31,-0.29l0 -1.61c0,-0.16 0.14,-0.29 0.31,-0.29zm-4.06 0l2.71 0c0.18,0 0.32,0.13 0.32,0.29l0 1.61c0,0.16 -0.14,0.29 -0.32,0.29l-2.71 0c-0.18,0 -0.32,-0.13 -0.32,-0.29l0 -1.61c0,-0.16 0.14,-0.29 0.32,-0.29zm11.89 2.79l2.71 0c0.18,0 0.32,0.13 0.32,0.29l0 1.61c0,0.16 -0.14,0.3 -0.32,0.3l-2.71 0c-0.17,0 -0.32,-0.14 -0.32,-0.3l0 -1.61c0,-0.16 0.15,-0.29 0.32,-0.29zm-3.76 0l2.71 0c0.18,0 0.32,0.13 0.32,0.29l0 1.61c0,0.16 -0.14,0.3 -0.32,0.3l-2.71 0c-0.17,0 -0.31,-0.14 -0.31,-0.3l0 -1.61c0,-0.16 0.14,-0.29 0.31,-0.29zm-4.07 0l2.72 0c0.17,0 0.31,0.13 0.31,0.29l0 1.61c0,0.16 -0.14,0.3 -0.31,0.3l-2.72 0c-0.17,0 -0.31,-0.14 -0.31,-0.3l0 -1.61c0,-0.16 0.14,-0.29 0.31,-0.29zm-4.06 0l2.71 0c0.18,0 0.32,0.13 0.32,0.29l0 1.61c0,0.16 -0.14,0.3 -0.32,0.3l-2.71 0c-0.18,0 -0.32,-0.14 -0.32,-0.3l0 -1.61c0,-0.16 0.14,-0.29 0.32,-0.29zm11.89 2.79l2.71 0c0.18,0 0.32,0.13 0.32,0.29l0 1.61c0,0.17 -0.14,0.3 -0.32,0.3l-2.71 0c-0.17,0 -0.32,-0.13 -0.32,-0.3l0 -1.61c0,-0.16 0.15,-0.29 0.32,-0.29zm-3.76 0l2.71 0c0.18,0 0.32,0.13 0.32,0.29l0 1.61c0,0.17 -0.14,0.3 -0.32,0.3l-2.71 0c-0.17,0 -0.31,-0.13 -0.31,-0.3l0 -1.61c0,-0.16 0.14,-0.29 0.31,-0.29zm-4.07 0l2.72 0c0.17,0 0.31,0.13 0.31,0.29l0 1.61c0,0.17 -0.14,0.3 -0.31,0.3l-2.72 0c-0.17,0 -0.31,-0.13 -0.31,-0.3l0 -1.61c0,-0.16 0.14,-0.29 0.31,-0.29z"/>
   <path class="fil4" d="M6.18 29.62l1.08 0 0.45 0 0.25 0.01 0 0c0.25,0 0.49,0 0.74,0 0.97,-0.08 1.79,-0.21 2.46,-1.01 0.06,-0.07 0.08,-0.11 0.11,-0.14 0.11,-0.17 0.22,-0.33 0.3,-0.46 0.07,-0.13 0.11,-0.23 0.14,-0.33 0.06,-0.56 0.11,-0.89 0.11,-1.51l0 -17.87c0,-1.35 0.09,-5.28 -0.12,-6.36 -0.04,-0.14 -0.08,-0.27 -0.15,-0.4 -0.06,-0.12 -0.14,-0.23 -0.22,-0.34 -0.22,-0.19 -0.61,-0.81 -1.62,-1.08 -0.66,-0.17 -4.96,-0.17 -5.58,-0.01 -0.44,0.1 -0.87,0.34 -1.19,0.6 -0.22,0.18 -0.39,0.37 -0.49,0.55 -0.06,0.08 -0.11,0.16 -0.18,0.28 -0.06,0.11 -0.12,0.26 -0.19,0.41 -0.18,0.9 -0.13,3.82 -0.12,5.56 0,0.33 0.01,0.62 0,0.84 -0.01,2.15 0.01,4.31 0.01,6.47l0 9.77c0.02,1.11 -0.04,2.01 0.1,3.08 0.1,0.17 0.19,0.34 0.26,0.45 0.06,0.12 0.09,0.18 0.13,0.25 0.2,0.35 0.69,0.75 1.14,0.96 0.71,0.33 1.03,0.22 1.83,0.29 0.25,0 0.5,0 0.75,0l0 -0.01z"/>
  </g>
 </g>
</svg>
