<?xml version="1.0" encoding="UTF-8"?>
<!DOCTYPE svg PUBLIC "-//W3C//DTD SVG 1.1//EN" "http://www.w3.org/Graphics/SVG/1.1/DTD/svg11.dtd">
<!-- Creator: CorelDRAW 2017 -->
<svg xmlns="http://www.w3.org/2000/svg" xml:space="preserve" width="201px" height="201px" version="1.1" style="shape-rendering:geometricPrecision; text-rendering:geometricPrecision; image-rendering:optimizeQuality; fill-rule:evenodd; clip-rule:evenodd"
viewBox="0 0 54.66 54.66"
 xmlns:xlink="http://www.w3.org/1999/xlink">
 <defs>
  <style type="text/css">
   <![CDATA[
    .fil1 {fill:#26E7FD}
    .fil3 {fill:url(#id0)}
    .fil0 {fill:url(#id1)}
    .fil4 {fill:url(#id2)}
    .fil5 {fill:url(#id3)}
    .fil2 {fill:url(#id4)}
   ]]>
  </style>
  <linearGradient id="id0" gradientUnits="userSpaceOnUse" x1="41.06" y1="8.78" x2="51.59" y2="13.25">
   <stop offset="0" style="stop-opacity:1; stop-color:#712FD4"/>
   <stop offset="1" style="stop-opacity:1; stop-color:#1988EB"/>
  </linearGradient>
  <linearGradient id="id1" gradientUnits="userSpaceOnUse" x1="13.89" y1="52.8" x2="35.35" y2="8.38">
   <stop offset="0" style="stop-opacity:1; stop-color:#6B21DB"/>
   <stop offset="1" style="stop-opacity:1; stop-color:#217FE7"/>
  </linearGradient>
  <linearGradient id="id2" gradientUnits="userSpaceOnUse" xlink:href="#id0" x1="39.91" y1="10.66" x2="46.73" y2="13.55">
  </linearGradient>
  <linearGradient id="id3" gradientUnits="userSpaceOnUse" x1="42.44" y1="11.77" x2="27.15" y2="18.96">
   <stop offset="0" style="stop-opacity:1; stop-color:#6C47FF"/>
   <stop offset="1" style="stop-opacity:1; stop-color:#17F0FF"/>
  </linearGradient>
  <linearGradient id="id4" gradientUnits="userSpaceOnUse" xlink:href="#id0" x1="41.86" y1="6.87" x2="56.2" y2="12.96">
  </linearGradient>
 </defs>
 <g id="Слой_x0020_1">
  <metadata id="CorelCorpID_0Corel-Layer"/>
  <g id="_1798961777920">
   <path class="fil0" d="M39.08 49.8c0.04,-10.55 0.07,-16.99 0.08,-22.27 -1.22,-0.82 -2.32,-1.85 -3.25,-2.87 -2.11,-2.3 -3.7,-5.05 -4.97,-7.89 -0.01,-0.01 -0.02,-0.03 -0.02,-0.04l-1.71 -4.09c-0.01,-0.02 -0.02,-0.04 -0.03,-0.06 -0.65,-1.75 -1.36,-3.95 -1.52,-6.08l-23.05 0c-5.54,-0.63 -4.54,3.54 -4.54,7.36l0 36.26c0,2.24 0.02,3.44 1.73,4.23 1.01,0.47 4.43,0.27 5.79,0.26l24.15 0.01c1.47,-0.01 4.64,0.23 5.73,-0.32 1.73,-0.88 1.6,-2.2 1.61,-4.5zm0.06 -33.04c-0.01,-2.16 -0.03,-4.48 -0.06,-7.2 -0.01,-0.92 -0.27,-1.62 -0.73,-2.11 -0.02,0.55 -0.18,1.07 -0.48,1.57 -0.41,0.66 -0.89,0.97 -1.4,1.5 -0.22,0.23 -0.32,0.39 -0.34,0.69 0.02,0.65 1.07,2.48 1.44,3.09 0.36,0.61 0.76,1.2 1.14,1.8 0.14,0.22 0.28,0.44 0.43,0.66z"/>
   <path class="fil1" d="M4.93 36.1c-0.65,0.23 -0.63,0.97 -0.18,1.23 0.42,0.25 5.17,0.12 5.86,0.12 3.44,0 23.11,0.13 23.66,-0.06 0.49,-0.17 0.62,-0.96 0.11,-1.24 -0.37,-0.21 -1.41,-0.11 -1.91,-0.11 -4.39,0.01 -26.96,-0.14 -27.54,0.06z"/>
   <path class="fil1" d="M4.9 23.72c-0.6,0.21 -0.61,0.96 -0.13,1.24 0.37,0.21 1.41,0.11 1.91,0.11l11.8 0c2.62,0 5.25,0.02 7.86,0 1.1,0 7.44,0.1 7.91,-0.06 0.54,-0.18 0.6,-0.97 0.14,-1.24 -0.4,-0.23 -5.18,-0.11 -5.85,-0.11 -3.46,0.01 -23.07,-0.14 -23.64,0.06z"/>
   <path class="fil1" d="M5.76 18.88c3.41,0 20.13,0.05 26.2,0.01 -0.24,-0.47 -0.48,-0.94 -0.7,-1.42l-24.22 0c-0.64,0 -2.09,-0.15 -2.42,0.22 -0.28,0.3 -0.19,0.77 0.02,0.98 0.24,0.24 0.67,0.21 1.12,0.21z"/>
   <path class="fil1" d="M5.94 31.26l27.81 0c1.35,0 1.11,-1.22 0.42,-1.38 -0.43,-0.1 -2.3,-0.03 -2.89,-0.03 -1.76,0 -25.98,-0.08 -26.37,0.05 -0.38,0.12 -0.67,0.64 -0.33,1.1 0.24,0.33 0.86,0.26 1.36,0.26z"/>
   <path class="fil1" d="M6.49 43.64l26.99 0c0.7,0 1.31,-0.02 1.21,-0.81 -0.09,-0.78 -1.18,-0.59 -2.12,-0.59l-24.61 0c-0.65,0 -2.88,-0.15 -3.27,0.15 -0.38,0.3 -0.33,1 0.14,1.18 0.36,0.14 1.21,0.07 1.66,0.07z"/>
   <g>
    <path class="fil2" d="M45.51 0c-0.49,-0.03 -1.02,0.23 -1.04,0.91 -0.01,0.58 0.37,0.78 1.03,1.08 4.53,2.05 7.43,6.91 7.29,11.86 -0.09,3.03 -0.81,3.63 -1.07,4.9 -0.1,0.48 0.2,1.07 0.87,1.12 1.5,0.1 2.04,-4.71 2.07,-5.84 0.11,-5.01 -2.01,-9.36 -6.07,-12.39 -0.56,-0.42 -2.36,-1.58 -3.08,-1.64z"/>
    <path class="fil3" d="M43.82 3.82c-0.9,0 -1.26,0.98 -0.71,1.56 0.19,0.2 0.81,0.45 1.11,0.61 3.67,2 5.32,6.34 3.97,10.4 -0.16,0.48 -0.37,0.77 -0.25,1.19 0.1,0.36 0.45,0.68 0.92,0.68 1.25,-0.01 1.61,-3.2 1.67,-4.18 0.18,-2.72 -0.88,-5.6 -2.72,-7.62 -0.59,-0.65 -2.89,-2.64 -3.99,-2.64z"/>
    <path class="fil4" d="M42.32 7.65c-1.26,-0.54 -1.92,1.06 -0.9,1.65 1.14,0.66 1.6,0.89 2.2,1.9 1.78,2.99 -0.74,4.63 0.71,5.36 1.69,0.86 2.11,-2.8 1.59,-4.72 -0.39,-1.41 -1.49,-3.29 -3.6,-4.19z"/>
   </g>
   <path class="fil5" d="M34.05 0.7c-1.51,-0.03 -3.12,0.76 -3.91,1.94 -1.69,2.48 -0.24,6.91 0.67,9.33l1.7 4.09c1.12,2.48 2.62,5.18 4.68,7.43 1.88,2.06 5.23,4.97 8.59,3.77 1.65,-0.59 3.02,-1.62 1.65,-3.29 -0.94,-1.14 -2.04,-2.24 -3.07,-3.34 -1.32,-1.4 -1.28,-1.48 -3.03,-0.8 -1.64,0.65 -1.9,0.36 -2.83,-0.95 -0.45,-0.64 -0.83,-1.19 -1.25,-1.85 -0.4,-0.63 -0.8,-1.23 -1.17,-1.84 -0.55,-0.93 -1.73,-2.97 -1.68,-4.05 0.13,-2.38 2.64,-2.25 2.17,-4.36 -0.19,-0.83 -1.26,-4.62 -1.59,-5.4 -0.16,-0.38 -0.31,-0.67 -0.93,-0.68z"/>
  </g>
 </g>
</svg>
