<?xml version="1.0" encoding="UTF-8"?>
<!DOCTYPE svg PUBLIC "-//W3C//DTD SVG 1.1//EN" "http://www.w3.org/Graphics/SVG/1.1/DTD/svg11.dtd">
<!-- Creator: CorelDRAW 2017 -->
<svg xmlns="http://www.w3.org/2000/svg" xml:space="preserve" width="201px" height="201px" version="1.1" style="shape-rendering:geometricPrecision; text-rendering:geometricPrecision; image-rendering:optimizeQuality; fill-rule:evenodd; clip-rule:evenodd"
viewBox="0 0 167.73 167.73"
 xmlns:xlink="http://www.w3.org/1999/xlink">
 <defs>
  <style type="text/css">
   <![CDATA[
    .fil4 {fill:#29E7FD}
    .fil3 {fill:url(#id0)}
    .fil6 {fill:url(#id1)}
    .fil2 {fill:url(#id2)}
    .fil5 {fill:url(#id3)}
    .fil1 {fill:url(#id4)}
    .fil0 {fill:url(#id5)}
   ]]>
  </style>
  <linearGradient id="id0" gradientUnits="userSpaceOnUse" x1="89.86" y1="29.86" x2="37.36" y2="63.92">
   <stop offset="0" style="stop-opacity:1; stop-color:#1883EA"/>
   <stop offset="1" style="stop-opacity:1; stop-color:#782DCE"/>
  </linearGradient>
  <linearGradient id="id1" gradientUnits="userSpaceOnUse" x1="75.19" y1="44.9" x2="128.8" y2="97.11">
   <stop offset="0" style="stop-opacity:1; stop-color:#A74FFF"/>
   <stop offset="1" style="stop-opacity:1; stop-color:#0966F0"/>
  </linearGradient>
  <linearGradient id="id2" gradientUnits="userSpaceOnUse" x1="74.66" y1="46.64" x2="23.22" y2="194.54">
   <stop offset="0" style="stop-opacity:1; stop-color:#10EEFF"/>
   <stop offset="1" style="stop-opacity:1; stop-color:#28A0F0"/>
  </linearGradient>
  <linearGradient id="id3" gradientUnits="userSpaceOnUse" x1="193.51" y1="139.16" x2="98.05" y2="88.82">
   <stop offset="0" style="stop-opacity:1; stop-color:#5398F7"/>
   <stop offset="1" style="stop-opacity:1; stop-color:#0966F0"/>
  </linearGradient>
  <linearGradient id="id4" gradientUnits="userSpaceOnUse" x1="46.89" y1="145.35" x2="201.1" y2="-23.45">
   <stop offset="0" style="stop-opacity:1; stop-color:#5B24C9"/>
   <stop offset="1" style="stop-opacity:1; stop-color:#17E7FF"/>
  </linearGradient>
  <linearGradient id="id5" gradientUnits="userSpaceOnUse" x1="80.29" y1="148.06" x2="152.98" y2="187.91">
   <stop offset="0" style="stop-opacity:1; stop-color:#4306BD"/>
   <stop offset="1" style="stop-opacity:1; stop-color:#17E7FF"/>
  </linearGradient>
 </defs>
 <g id="Слой_x0020_1">
  <metadata id="CorelCorpID_0Corel-Layer"/>
  <g id="_1799224947280">
   <path class="fil0" d="M113.36 137.48c0,0 -42.08,-0.41 -51.38,0.01 0,1.51 10.99,16.18 -4.69,22.07 -3.06,1.15 -6.47,2 -9.87,2.52 -1.73,0.26 -4.84,0.27 -5.37,0.85 -1.6,1.76 -0.61,3.43 0.19,4.78l92.67 0.02c0.8,-1.37 1.75,-2.88 0.27,-4.71 -0.62,-0.76 -1.37,-0.5 -2.56,-0.6 -0.91,-0.07 -1.87,-0.19 -2.76,-0.32 -25.14,-1.47 -23.73,-12.71 -16.5,-24.62z"/>
   <path class="fil1" d="M160.85 136.7c3.66,-1.57 6.59,-5 6.64,-10.16 0.3,-33.14 0.2,-76.38 0.2,-109.67 0,-6.34 0.62,-9.8 -3.16,-13.63 -3.73,-3.79 -7.36,-3.21 -13.66,-3.21l-133.66 0.65c-6.17,0 -9.82,-0.64 -13.65,3.02 -3.85,3.69 -3.35,7.08 -3.35,13.45l-0.21 109.85c0.02,5.26 2.84,8.68 6.51,10.29 5.97,2.63 152.19,0.32 154.34,-0.59z"/>
   <path class="fil2" d="M12.82 12c-2.4,0.64 -1.82,3.61 -1.82,6.21l0 100.36c0,8.91 -1.46,7.18 17.05,7.18 0,0 126.67,0.17 127.69,-0.08 2.39,-0.6 1.84,-3.65 1.84,-6.15l0 -100.35c0,-2.49 0.55,-5.99 -1.26,-6.95 -1.17,-0.62 -13.38,-0.3 -15.79,-0.3l-111.73 0c-2.69,0 -14.34,-0.35 -15.98,0.08z"/>
   <rect class="fil3" x="17.76" y="20.67" width="77.96" height="51" rx="8.68" ry="7.1"/>
   <path class="fil4" d="M22.76 52.2l22.62 0.02c0.54,-2.15 -0.24,-7.36 -1.01,-9.15 -0.97,-2.21 -3.22,-4.15 -6.37,-4.25 -0.15,0.57 -1.96,3.49 -2.52,4.42l-0.53 0.64c-0.05,-0.5 -0.26,-1.71 -0.2,-2.17 0.09,-0.7 0.6,-0.85 0.65,-1.69l-2.65 0.06c0.19,1.6 1.01,0 0.46,3.83 -0.44,-0.26 -2.48,-4.23 -3.16,-5.01 -3.07,-0.01 -5.25,1.92 -6.23,4.09 -0.89,1.98 -1.43,6.8 -1.06,9.21z"/>
   <path class="fil4" d="M33.11 26.65c-3.06,0.44 -3.42,2.42 -3.59,4.86 -0.08,1.24 -0.52,0.64 -0.2,2.56 0.21,1.24 0.26,0.48 0.9,1.88 1.84,3.99 5.13,5.28 7.57,0.35 0.6,-1.22 0.81,-1.21 0.97,-1.79 0.47,-1.68 0.04,-2.07 -0.04,-2.44 -0.26,-1.04 0.37,-6.29 -5.61,-5.42z"/>
   <rect class="fil4" x="22.64" y="56.15" width="46.74" height="3.14" rx="1.08" ry="1.57"/>
   <rect class="fil4" x="22.64" y="61.81" width="46.74" height="3.14" rx="1.08" ry="1.57"/>
   <rect class="fil4" x="45.56" y="31.37" width="24.11" height="2.83" rx="0.56" ry="1.41"/>
   <rect class="fil4" x="45.56" y="36.56" width="24.11" height="2.83" rx="0.56" ry="1.41"/>
   <path class="fil5" d="M153.01 119.09l-1.33 1.49c-1.03,0.41 -3.52,2.81 -7.39,0.77 -1.74,-0.92 -6.16,-5.25 -7.94,-6.83 -1.47,-1.3 -14.71,-13.26 -15.82,-14.08l0.41 7.66c0.17,2.82 0.7,5.42 -1.37,7.85 -3.13,3.67 -9.04,2.82 -11,-1.56 -0.65,-1.46 -0.59,-2.59 -0.66,-3.88l-1.54 -27.15c-0.32,-4.84 -0.04,-4.62 4.07,-4.83l11.68 -0.66c5.2,-0.3 10.29,-0.51 15.6,-0.88 2.89,-0.2 5.64,-0.24 7.69,2.91 2.4,3.7 0.5,8.96 -4.3,9.96 -0.63,0.14 -1.31,0.12 -1.91,0.15l-5.93 0.34c-0.69,0.04 -3.41,0.1 -3.92,0.3 2.45,2.37 5.28,4.73 7.84,7.01 1.5,1.34 14.5,12.71 15.45,13.98 0.94,1.25 1.24,2.46 1.29,3.62 0.1,2.34 -0.81,3.16 -0.92,3.83z"/>
   <path class="fil6" d="M83.67 62.6l4.3 -4.8 0.54 -0.32c0.14,-0.11 0.25,-0.2 0.4,-0.31 2.39,-1.61 4.23,2.56 6.04,3.1 0.91,0.26 2.28,-0.82 3.35,-1.37 1.13,-0.57 2.11,-0.99 3.26,-1.45 2.83,-1.12 0.71,-3.8 1.32,-6.31 0.48,-1.96 4.42,-1.81 6.34,-1.91 2.74,-0.15 5.73,-0.64 5.99,1.97 0.68,6.82 -1.02,3.89 6.05,6.76 1.36,0.56 2.24,1.36 3.37,0.16 0.77,-0.82 2.29,-2.79 3.15,-3.29 1.45,-0.84 2.23,0.6 3.4,1.05l4.47 4c0.6,1.3 2.2,1.79 0.82,3.64 -0.72,0.96 -3.04,2.96 -3.05,3.94 0,0.8 1.25,2.66 1.7,3.58 0.29,0.6 0.57,1.19 0.83,1.79l0.71 1.91c-1.41,-0.05 -8.25,0.41 -8.86,0.33 -0.96,-1.4 -0.83,-1.88 -2.55,-3.98 -3.19,-3.88 -7.74,-6.23 -12.42,-6.72 -12.92,-1.37 -23.16,10.22 -20.25,22.86 1.23,5.33 5.08,10.16 10.25,12.58 0.7,0.33 1.58,0.57 2.2,0.93l0.29 6.49c0.1,0.93 0.28,1.66 0.07,2.25 -7.36,-1.54 -6.41,-4.06 -9.29,-0.84 -1.54,1.73 -2.42,3.35 -4.45,2.14 -1.48,-0.89 -3.54,-2.84 -4.85,-4.07 -3.42,-3.22 -2.55,-3.53 0.49,-6.89 1.88,-2.08 0.26,-2.16 -1.68,-6.85 -1.03,-2.48 -0.72,-2.36 -3.53,-2.2 -1.03,0.05 -3.61,0.62 -4.35,-1.03 -0.53,-1.17 -0.76,-5.45 -0.78,-6.81 -0.02,-0.71 -0.03,-1.55 0.06,-2.34 0.32,-2.72 2.8,-2.15 5.96,-2.34 1.1,-0.07 1.3,-1.08 1.51,-1.93 0.4,-1.53 0.96,-3.15 1.65,-4.68 0.99,-2.19 0.25,-2.17 -2.3,-4.44 -0.81,-0.72 -1.49,-1.36 -1.4,-2.21 0.11,-1.09 0.9,-1.54 1.24,-2.39z"/>
  </g>
 </g>
</svg>
