<?xml version="1.0" encoding="UTF-8"?>
<!DOCTYPE svg PUBLIC "-//W3C//DTD SVG 1.1//EN" "http://www.w3.org/Graphics/SVG/1.1/DTD/svg11.dtd">
<!-- Creator: CorelDRAW 2017 -->
<svg xmlns="http://www.w3.org/2000/svg" xml:space="preserve" width="201px" height="201px" version="1.1" style="shape-rendering:geometricPrecision; text-rendering:geometricPrecision; image-rendering:optimizeQuality; fill-rule:evenodd; clip-rule:evenodd"
viewBox="0 0 29.76 29.76"
 xmlns:xlink="http://www.w3.org/1999/xlink">
 <defs>
  <style type="text/css">
   <![CDATA[
    .fil2 {fill:#49E0FF}
    .fil1 {fill:url(#id0)}
    .fil4 {fill:url(#id1)}
    .fil0 {fill:url(#id2)}
    .fil3 {fill:url(#id3)}
   ]]>
  </style>
  <linearGradient id="id0" gradientUnits="userSpaceOnUse" x1="17.29" y1="13.96" x2="17.89" y2="-4.91">
   <stop offset="0" style="stop-opacity:1; stop-color:#3512C3"/>
   <stop offset="1" style="stop-opacity:1; stop-color:#1E6FE3"/>
  </linearGradient>
  <linearGradient id="id1" gradientUnits="userSpaceOnUse" x1="0.75" y1="10.83" x2="15.59" y2="26.22">
   <stop offset="0" style="stop-opacity:1; stop-color:aqua"/>
   <stop offset="1" style="stop-opacity:1; stop-color:#1E8DFF"/>
  </linearGradient>
  <linearGradient id="id2" gradientUnits="userSpaceOnUse" x1="12.88" y1="1.23" x2="12.39" y2="33.11">
   <stop offset="0" style="stop-opacity:1; stop-color:#1690EE"/>
   <stop offset="1" style="stop-opacity:1; stop-color:#3414C4"/>
  </linearGradient>
  <linearGradient id="id3" gradientUnits="userSpaceOnUse" x1="25.21" y1="26.97" x2="8.49" y2="8.6">
   <stop offset="0" style="stop-opacity:1; stop-color:#A057FF"/>
   <stop offset="1" style="stop-opacity:1; stop-color:aqua"/>
  </linearGradient>
 </defs>
 <g id="Слой_x0020_1">
  <metadata id="CorelCorpID_0Corel-Layer"/>
  <g id="_1799261564304">
   <polygon class="fil0" points="0.08,29.76 29.62,29.76 29.65,3.63 0.07,3.63 "/>
   <path class="fil1" d="M0.03 3.63l29.68 -0.01c0.09,-0.33 0.03,-1.42 0.03,-1.83 0,-2.13 -0.16,-1.76 -5.07,-1.76 -6.46,0 -12.91,0 -19.37,0 -5.09,0 -5.29,-0.39 -5.29,1.62 0,0.63 -0.03,1.35 0.02,1.98z"/>
   <path class="fil2" d="M11.52 1.22c-0.3,0.07 -0.49,0.12 -0.59,0.4 -0.42,1.21 1.42,0.95 1.98,0.96 1.34,0 11.33,0.07 11.73,-0.04 0.48,-0.12 0.73,-0.79 0.26,-1.17 -0.37,-0.3 -1.22,-0.19 -1.75,-0.19 -1.39,0 -11.14,-0.08 -11.63,0.04z"/>
   <ellipse class="fil2" cx="8.57" cy="2" rx="0.7" ry="0.71"/>
   <ellipse class="fil2" cx="6.12" cy="2" rx="0.7" ry="0.71"/>
   <ellipse class="fil2" cx="3.68" cy="2" rx="0.7" ry="0.71"/>
   <path class="fil3" d="M16.23 6.52c0.04,0.06 0.02,0.05 0.08,0.1 0.07,0.07 0.02,0.03 0.1,0.07 0.02,0.13 0.11,0.25 0.14,0.49 0.03,0.19 0.04,0.37 0.07,0.57 0.01,0.06 0.01,0.08 0.02,0.14 0.02,0.06 0.02,0.04 0.04,0.08 -0.03,0.2 0.07,0.63 0.1,0.86 0.19,0.06 0.39,0.12 0.59,0.2 0.17,0.07 0.44,0.23 0.59,0.24 0.09,0.12 0.49,0.32 0.65,0.38 0.13,-0.06 0.66,-0.39 0.75,-0.52 0.36,-0.06 0.81,-0.83 1.47,-0.48 0.2,0.1 0.39,0.36 0.54,0.53 0.18,0.19 0.37,0.38 0.54,0.57 0.79,0.84 0.63,0.82 -0.25,2.02 -0.15,0.21 -0.34,0.42 -0.47,0.64l0.4 0.92c0.51,1.27 -0.2,0.96 1.59,1.29 0.97,0.19 0.69,0.19 0.98,0.54l0.03 0.32c-0.01,0.41 -0.02,0.83 -0.03,1.24 -0.02,0.45 0.01,0.78 -0.27,1.01 -0.24,0.19 -0.67,0.19 -1.03,0.25 -0.35,0.05 -0.78,0.13 -1.12,0.15 -0.29,1.06 -0.73,1.59 -0.83,1.9l0.21 0.29c0.04,0.12 0.03,0.11 0.13,0.18 0.02,0.14 0.45,0.72 0.56,0.89 0.27,0.39 0.28,0.73 -0.06,1.04 -0.29,0.27 -1.23,1.29 -1.56,1.35 -0.42,0.08 -0.66,-0.19 -1,-0.45 -1.46,-1.12 -0.58,-0.76 -2.32,-0.21 -0.8,0.25 -0.51,-0.12 -0.79,1.18 -0.03,0.16 -0.06,0.34 -0.1,0.49 -0.03,0.17 -0.1,0.36 -0.12,0.49 -0.11,0.07 -0.05,0.02 -0.09,0.12l-0.21 0.12c-0.09,0.04 -0.19,0.07 -0.31,0.07 -0.22,0.01 -0.48,-0.01 -0.71,-0.02 -1.58,-0.03 -1.67,0.08 -1.84,-1.14 -0.05,-0.36 -0.11,-0.97 -0.19,-1.29 -0.29,-0.08 -0.65,-0.22 -0.89,-0.33l-0.8 -0.41c0.05,-0.11 -0.01,-0.01 0.05,-0.07l0.17 -0.18c0.11,-0.11 0.15,-0.15 0.24,-0.24 0.09,-0.09 0.44,-0.4 0.45,-0.49l0.14 -0.14c0.1,-0.01 0.69,-0.67 0.79,-0.75 0.51,0.09 0.86,0.41 2.04,0.4 0.58,-0.01 1.6,-0.2 1.97,-0.46 0.25,-0.09 0.81,-0.37 0.92,-0.57 0.14,-0.03 0.33,-0.23 0.43,-0.32 0.13,-0.12 0.32,-0.27 0.36,-0.43 0.21,-0.13 0.43,-0.5 0.53,-0.76 0.11,-0.08 0.43,-0.83 0.41,-1 0.04,-0.03 0.03,0.05 0.06,-0.1 0.34,-1.52 0.13,-2.75 -0.55,-3.89 -1.31,-2.18 -4.1,-3.02 -6.51,-1.78 -0.55,0.28 -0.99,0.68 -1.33,1.06 -0.21,0.22 -0.88,1.1 -0.9,1.49 -0.09,0.07 -0.07,0.07 -0.1,0.19 -0.27,0.42 -0.31,1.76 -0.21,2.42 0.12,0.78 0.34,0.45 -0.36,1.17 -0.15,0.14 -1.29,1.33 -1.43,1.39 -0.27,-0.75 -0.33,-0.69 -0.6,-1.7 -0.4,-0.07 -0.85,-0.16 -1.23,-0.24 -1.27,-0.29 -1.08,-0.34 -1.06,-1.93 0.01,-0.23 0.01,-0.46 0.03,-0.69 0.03,-0.31 0.18,-0.35 0.24,-0.49l0.23 -0.12 1.9 -0.27c0.24,-0.69 0.27,-0.82 0.6,-1.45 0.07,-0.15 0.19,-0.31 0.24,-0.45l-0.99 -1.52c-0.17,-0.27 -0.05,-0.42 -0.06,-0.69l0.13 -0.14c0.07,-0.06 0.1,-0.1 0.16,-0.16 0.04,-0.04 0.05,-0.05 0.09,-0.08 0.06,-0.06 0.03,-0.02 0.06,-0.09 0.14,-0.07 0.07,0 0.13,-0.12 0.06,-0.02 0.03,0 0.1,-0.05 0.04,-0.03 0.06,-0.06 0.09,-0.09 0.07,-0.07 0.13,-0.14 0.16,-0.2 0.09,-0.04 0.06,-0.02 0.09,-0.08 0.08,-0.03 0.1,-0.06 0.17,-0.12 0.07,-0.07 0.13,-0.1 0.15,-0.17l0.13 -0.13c0.17,-0.05 0.34,-0.22 0.64,-0.14 0.15,0.04 0.41,0.25 0.51,0.33 0.18,0.13 0.83,0.68 0.98,0.71 0.05,0.11 0.07,0.12 0.19,0.17 0.05,-0.02 0.12,-0.06 0.17,-0.08 0.09,-0.05 0.08,-0.05 0.14,-0.11 0.14,-0.01 0.62,-0.25 0.77,-0.3 0.29,-0.1 0.55,-0.18 0.86,-0.25 0.03,-0.32 0.15,-0.85 0.23,-1.19 0.24,-1.09 0.13,-1.19 1.67,-1.11 0.24,0.02 0.48,0.01 0.72,0.02 0.29,0.01 0.43,0.09 0.6,0.11z"/>
   <path class="fil4" d="M14.2 14.61c-0.09,0.06 -0.09,0.06 -0.15,0.17 -0.04,0.07 -0.07,0.14 -0.09,0.23 -0.03,0.23 -0.03,0.38 0.03,0.61 0.1,0.36 0.38,0.7 0.6,0.88 0.15,0.13 0.36,0.23 0.66,0.2 0.28,-0.02 0.42,-0.17 0.62,-0.29 0.18,-0.12 1,-0.66 1.11,-0.69 0.29,0.4 -0.19,1.41 -0.17,1.53 -0.08,0.07 -0.23,0.32 -0.3,0.42 -0.1,0.14 -0.25,0.26 -0.31,0.4 -0.14,0.05 -0.34,0.28 -0.74,0.43 -1.05,0.39 -1.38,-0.23 -2,0.07 -0.34,0.16 -0.97,0.85 -1.25,1.14 -0.2,0.22 -0.4,0.4 -0.6,0.61 -0.4,0.41 -0.81,0.79 -1.2,1.2 -0.38,0.4 -0.77,0.8 -1.17,1.18 -0.42,0.39 -0.79,0.8 -1.19,1.2l-1.78 1.79c-0.29,0.28 -0.26,0.3 -0.7,0.49l-0.38 0.02c-0.59,-0.02 -1.11,-0.58 -1.05,-1.24 0.04,-0.5 0.37,-0.76 0.66,-1.05 0.06,-0.06 0.08,-0.09 0.14,-0.14 0.03,-0.03 0.05,-0.04 0.07,-0.07l0.06 -0.09c0.12,-0.06 0.06,-0.01 0.13,-0.12 0.07,-0.04 0.09,-0.07 0.16,-0.14 0.02,-0.03 0.04,-0.04 0.07,-0.07 0.05,-0.06 0.03,-0.02 0.06,-0.09 0.12,-0.07 0.06,0 0.12,-0.12 0.07,-0.03 0.02,-0.01 0.09,-0.07 0.04,-0.03 0.07,-0.06 0.1,-0.1 0.08,-0.07 0.14,-0.12 0.17,-0.2 0.08,-0.03 0.05,0.02 0.09,-0.09 0.09,-0.03 0.21,-0.17 0.28,-0.25 0.02,-0.02 0.03,-0.03 0.05,-0.05 0.03,-0.05 0.01,-0.01 0.03,-0.06 0.08,-0.03 0.05,0 0.09,-0.09 0.09,-0.04 0.53,-0.5 0.63,-0.6 0.09,-0.09 0.14,-0.12 0.18,-0.21 0.13,-0.06 0.18,-0.15 0.29,-0.25 0.05,-0.06 0.08,-0.09 0.13,-0.14 0.08,-0.08 0.07,-0.06 0.12,-0.15l0.32 -0.33c0.13,-0.07 0.06,0 0.13,-0.13 0.08,-0.03 0.11,-0.08 0.19,-0.16l0.55 -0.56c0.03,-0.05 0.01,-0.02 0.03,-0.06 0.08,-0.03 0.05,0 0.09,-0.08 0.1,-0.05 0.94,-0.93 1.09,-1.07l0.14 -0.17c0.12,-0.06 0.05,0 0.12,-0.12 0.07,-0.03 0.29,-0.24 0.32,-0.33 0.08,-0.03 0.05,0 0.09,-0.09 0.09,-0.03 0.03,0 0.11,-0.07 0.05,-0.05 0.07,-0.08 0.12,-0.13 0.59,-0.59 0.73,-0.65 0.56,-1.55 -0.05,-0.31 0,-0.63 -0.04,-0.87l0.12 -0.38c0.12,-0.12 0.32,-0.92 1.48,-1.33 0.39,-0.14 0.79,-0.2 1.24,-0.15 0.31,0.03 0.92,0.17 1.06,0.37 -0.04,0.14 -0.08,0.11 -0.33,0.27 -0.12,0.08 -0.22,0.15 -0.35,0.23l-0.55 0.36c-0.12,0.07 -0.12,0.07 -0.15,0.15z"/>
  </g>
 </g>
</svg>
