<?xml version="1.0" encoding="UTF-8"?>
<!DOCTYPE svg PUBLIC "-//W3C//DTD SVG 1.1//EN" "http://www.w3.org/Graphics/SVG/1.1/DTD/svg11.dtd">
<!-- Creator: CorelDRAW 2017 -->
<svg xmlns="http://www.w3.org/2000/svg" xml:space="preserve" width="201px" height="201px" version="1.1" style="shape-rendering:geometricPrecision; text-rendering:geometricPrecision; image-rendering:optimizeQuality; fill-rule:evenodd; clip-rule:evenodd"
viewBox="0 0 49 49"
 xmlns:xlink="http://www.w3.org/1999/xlink">
 <defs>
  <style type="text/css">
   <![CDATA[
    .fil2 {fill:url(#id0)}
    .fil0 {fill:url(#id1)}
    .fil1 {fill:url(#id2)}
    .fil3 {fill:url(#id3)}
   ]]>
  </style>
  <linearGradient id="id0" gradientUnits="userSpaceOnUse" x1="16.66" y1="39.72" x2="40.66" y2="24.32">
   <stop offset="0" style="stop-opacity:1; stop-color:#08F6FF"/>
   <stop offset="1" style="stop-opacity:1; stop-color:#619AFF"/>
  </linearGradient>
  <linearGradient id="id1" gradientUnits="userSpaceOnUse" x1="25.18" y1="45.68" x2="29.68" y2="5.44">
   <stop offset="0" style="stop-opacity:1; stop-color:#2F27CA"/>
   <stop offset="1" style="stop-opacity:1; stop-color:#1982E9"/>
  </linearGradient>
  <linearGradient id="id2" gradientUnits="userSpaceOnUse" xlink:href="#id0" x1="27.32" y1="15.19" x2="35.4" y2="33.19">
  </linearGradient>
  <linearGradient id="id3" gradientUnits="userSpaceOnUse" x1="33.39" y1="26.6" x2="32.28" y2="17.23">
   <stop offset="0" style="stop-opacity:1; stop-color:#502DCD"/>
   <stop offset="1" style="stop-opacity:1; stop-color:#1981E9"/>
  </linearGradient>
 </defs>
 <g id="Слой_x0020_1">
  <metadata id="CorelCorpID_0Corel-Layer"/>
  <g id="_1799205335056">
   <circle class="fil0" cx="24.5" cy="24.5" r="24.5"/>
   <circle class="fil1" cx="31.09" cy="21.6" r="8.45"/>
   <path class="fil2" d="M7.52 13.25c-0.3,1.03 -0.95,1.34 -1.37,4.02 -0.6,3.93 0.91,7.13 2.26,10.19 0.73,1.53 2.95,5.46 4.1,7l1.93 2.63c0.34,0.44 0.63,0.81 0.98,1.23 1.37,1.63 2.82,3.17 5.08,4.42 2.23,1.23 5.34,1.88 7.65,1.22l-1.52 -2.51 -3.31 -5.17c-1.66,-2.67 -0.49,-0.97 -2.52,-1.73 -1.65,-0.61 -3.27,-3.21 -4.16,-4.59 -0.47,-0.72 -1.61,-2.57 -1.95,-3.32 -0.69,-1.48 -1.73,-2.96 -0.75,-4.82 0.26,-0.51 0.12,-0.21 -0.01,-0.65 -0.37,-0.31 -2.12,-3.31 -2.55,-3.97 -0.43,-0.68 -0.81,-1.3 -1.24,-1.99 -0.29,-0.47 -1.07,-1.6 -1.21,-2.02 -0.24,-0.16 -0.49,-0.64 -0.64,-0.9 -0.32,0.33 -0.4,0.56 -0.57,0.77 -0.04,0.05 -0.02,0.02 -0.09,0.1l-0.11 0.09zm2.39 -0.46c0.48,0.46 4.62,7.53 5.1,7.92 0.54,-0.59 2.36,-1.28 2.71,-1.89 0.68,-1.18 -0.85,-2.31 -1.08,-3.16 -0.17,-0.12 0.01,0.03 -0.13,-0.12l-0.31 -0.43c-0.14,-0.23 -0.25,-0.39 -0.38,-0.62l-2.23 -3.57c-0.4,-0.64 -0.98,-2.04 -2.24,-1.37 -0.66,0.35 -1.65,1.12 -2.23,1.76 0.07,0.31 0.24,0.48 0.4,0.73 0.15,0.24 0.35,0.47 0.39,0.75zm16.48 26.33l2.88 4.53c0.56,-0.04 2.67,-1.12 2.93,-1.5 0.83,-1.21 -0.76,-2.39 -0.93,-3.14 -0.34,-0.29 -2.66,-4.13 -3.1,-4.84 -0.4,-0.64 -0.99,-2 -2.33,-1.37 -0.36,0.17 -2.19,1.31 -2.37,1.55 0.34,0.71 1.04,1.67 1.49,2.4 0.31,0.49 1.33,1.95 1.43,2.37z"/>
   <path class="fil3" d="M30.27 15.76l1.66 0 0 12.57 -1.66 0 0 -12.57zm-2.96 4.92l-1.66 0 0 2.73 1.66 0 0 -2.73zm2.3 -2.77l-1.66 0 0 8.69 1.66 0 0 -8.69zm5.25 2.77l1.66 0 0 2.73 -1.66 0 0 -2.73zm-2.3 -2.77l1.66 0 0 8.69 -1.66 0 0 -8.69z"/>
  </g>
 </g>
</svg>
