<?xml version="1.0" encoding="UTF-8"?>
<!DOCTYPE svg PUBLIC "-//W3C//DTD SVG 1.1//EN" "http://www.w3.org/Graphics/SVG/1.1/DTD/svg11.dtd">
<!-- Creator: CorelDRAW 2017 -->
<svg xmlns="http://www.w3.org/2000/svg" xml:space="preserve" width="201px" height="201px" version="1.1" style="shape-rendering:geometricPrecision; text-rendering:geometricPrecision; image-rendering:optimizeQuality; fill-rule:evenodd; clip-rule:evenodd"
viewBox="0 0 138.64 138.64"
 xmlns:xlink="http://www.w3.org/1999/xlink">
 <defs>
  <style type="text/css">
   <![CDATA[
    .fil13 {fill:#4200B5}
    .fil2 {fill:#7361FF}
    .fil14 {fill:url(#id0)}
    .fil4 {fill:url(#id1)}
    .fil10 {fill:url(#id2)}
    .fil5 {fill:url(#id3)}
    .fil3 {fill:url(#id4)}
    .fil8 {fill:url(#id5)}
    .fil12 {fill:url(#id6)}
    .fil6 {fill:url(#id7)}
    .fil9 {fill:url(#id8)}
    .fil7 {fill:url(#id9)}
    .fil11 {fill:url(#id10)}
    .fil0 {fill:url(#id11)}
    .fil1 {fill:url(#id12)}
   ]]>
  </style>
  <linearGradient id="id0" gradientUnits="userSpaceOnUse" x1="36.46" y1="88.94" x2="85.93" y2="32.82">
   <stop offset="0" style="stop-opacity:1; stop-color:#3038D6"/>
   <stop offset="1" style="stop-opacity:1; stop-color:#7361FF"/>
  </linearGradient>
  <linearGradient id="id1" gradientUnits="userSpaceOnUse" x1="74.38" y1="82.76" x2="80.02" y2="74.62">
   <stop offset="0" style="stop-opacity:1; stop-color:#4727D7"/>
   <stop offset="1" style="stop-opacity:1; stop-color:#7B5BFC"/>
  </linearGradient>
  <linearGradient id="id2" gradientUnits="userSpaceOnUse" xlink:href="#id1" x1="42.32" y1="75.36" x2="47.97" y2="67.22">
  </linearGradient>
  <linearGradient id="id3" gradientUnits="userSpaceOnUse" xlink:href="#id1" x1="74.3" y1="75.68" x2="79.97" y2="67.52">
  </linearGradient>
  <linearGradient id="id4" gradientUnits="userSpaceOnUse" xlink:href="#id1" x1="42.26" y1="68.26" x2="47.92" y2="60.11">
  </linearGradient>
  <linearGradient id="id5" gradientUnits="userSpaceOnUse" xlink:href="#id1" x1="74.41" y1="62.04" x2="80.06" y2="53.91">
  </linearGradient>
  <linearGradient id="id6" gradientUnits="userSpaceOnUse" xlink:href="#id1" x1="74.39" y1="68.92" x2="80.05" y2="60.82">
  </linearGradient>
  <linearGradient id="id7" gradientUnits="userSpaceOnUse" xlink:href="#id1" x1="74.4" y1="47.83" x2="80.08" y2="39.64">
  </linearGradient>
  <linearGradient id="id8" gradientUnits="userSpaceOnUse" xlink:href="#id1" x1="42.3" y1="61.19" x2="47.97" y2="53.02">
  </linearGradient>
  <linearGradient id="id9" gradientUnits="userSpaceOnUse" xlink:href="#id1" x1="42.28" y1="82.43" x2="47.91" y2="74.28">
  </linearGradient>
  <linearGradient id="id10" gradientUnits="userSpaceOnUse" xlink:href="#id1" x1="74.41" y1="54.98" x2="80.06" y2="46.81">
  </linearGradient>
  <linearGradient id="id11" gradientUnits="userSpaceOnUse" x1="114.39" y1="132.93" x2="20.02" y2="30.26">
   <stop offset="0" style="stop-opacity:1; stop-color:#3C10CC"/>
   <stop offset="1" style="stop-opacity:1; stop-color:#1982E9"/>
  </linearGradient>
  <linearGradient id="id12" gradientUnits="userSpaceOnUse" x1="11.99" y1="58.87" x2="190.6" y2="-20.17">
   <stop offset="0" style="stop-opacity:1; stop-color:#1EDFFF"/>
   <stop offset="1" style="stop-opacity:1; stop-color:white"/>
  </linearGradient>
 </defs>
 <g id="Слой_x0020_1">
  <metadata id="CorelCorpID_0Corel-Layer"/>
  <g id="_1798828207632">
   <path class="fil0" d="M3.38 77.22c6.83,18.53 22.04,33.09 41.42,37.68 27.66,6.55 44.16,-8.59 46.97,-9.05l34.69 32.79c8.94,0.2 15.17,-6.09 10.7,-13.32 -2.27,-3.67 -19.27,-18.84 -23.34,-22.51 -0.93,-0.84 -9.47,-8.84 -9.47,-9.53l3.78 -5.95c7.81,-12.29 9.02,-25.96 6.92,-40.01l-1.96 -7.6c-9.88,-28.92 -40.6,-45.85 -70.14,-37.65 -9.38,2.6 -18.29,8.02 -24.62,14.28 -16.27,16.1 -22.94,39.2 -14.95,60.87z"/>
   <path class="fil1" d="M54.73 11.93c-12.53,1.53 -23.59,6.41 -31.25,15.74 -6.86,8.35 -12.64,19.93 -11.28,35.65 0.64,7.45 2.63,12.45 5.27,18.18 3.45,7.47 10.62,14.03 17.12,18.07 18.59,11.57 46.58,7.59 60.16,-9.51 8.21,-10.35 12.39,-21.23 11.26,-35.63 -2.06,-26.14 -26.27,-45.55 -51.28,-42.5z"/>
   <g>
    <path class="fil2" d="M91.1 39.55c-1.51,2.64 -10.03,3.09 -13.93,3.08 -4.7,0 -11.3,-0.36 -13.94,-3.02 0.01,-1.39 0.85,-1.73 2.09,-2.18 3.63,-1.28 8.01,-1.57 11.85,-1.59 2.75,-0.02 13.6,0.25 13.93,3.71z"/>
    <path class="fil2" d="M59 52.93c-1.36,1.64 -3.59,2.08 -5.95,2.49 -5.54,0.95 -18.51,1.25 -21.92,-2.43 0.07,-4.61 17.95,-3.93 22.2,-3.09 2.08,0.41 5.55,0.94 5.67,3.03z"/>
    <g>
     <path class="fil3" d="M58.87 66.08c-4.24,1.9 -8.69,2.26 -13.79,2.27 -2.49,0 -5.01,-0.14 -7.43,-0.52 -2.96,-0.48 -3.91,-0.96 -6.31,-1.84 -0.5,-1.32 -0.11,-4.3 -0.2,-5.97 1.7,1.63 3.26,1.99 6.07,2.47 2.49,0.42 5.27,0.61 7.87,0.6 4.23,-0.02 11.8,-0.33 13.95,-3.06 0.09,1.22 0.14,5.33 -0.16,6.05z"/>
     <path class="fil4" d="M63.23 74.56c2.67,2.7 9.22,3.01 13.94,3.02 4.12,0 12.13,-0.4 13.95,-3.05l0.05 5.86c-3.51,2.09 -9.19,2.44 -14,2.46 -3.82,0.01 -11.49,-0.5 -13.88,-2.62l-0.06 -5.67z"/>
     <path class="fil5" d="M91.13 67.49c0.06,1.28 0.16,5.22 -0.16,6.01 -4,1.88 -8.86,2.26 -13.8,2.27 -2.5,0.01 -5.03,-0.13 -7.45,-0.52 -2.92,-0.47 -3.92,-0.9 -6.3,-1.85 -0.55,-1.04 -0.29,-4.51 -0.19,-5.97 2.01,2.72 9.8,3.1 13.94,3.08 4.65,-0.02 11.39,-0.28 13.96,-3.02z"/>
     <path class="fil6" d="M90.83 45.63c-5.81,2.72 -17.53,2.91 -24.27,1.1 -1.24,-0.33 -2.07,-0.84 -3.01,-1.12 -0.64,-1.17 -0.25,-4.45 -0.32,-6 2.64,2.66 9.24,3.02 13.94,3.02 3.9,0.01 12.42,-0.44 13.93,-3.08 0.17,1.65 0.47,4.94 -0.27,6.08z"/>
     <path class="fil7" d="M31.13 74.2c2.16,2.65 9.87,3.04 13.95,3.05 4.29,0.02 11.63,-0.33 13.95,-3.05l0.03 5.85c-4.31,3.54 -23.43,3.09 -27.9,-0.18l-0.03 -5.67z"/>
     <path class="fil8" d="M90.93 59.78c-3.54,3 -18.1,2.79 -24.25,1.22 -1.21,-0.31 -2.05,-0.79 -3.08,-1.08 -0.26,-0.51 -0.31,-0.43 -0.35,-1.17l-0.02 -4.91c2.3,2.74 9.74,3.03 13.94,3.04 4.52,0.01 11.38,-0.15 13.95,-3.06 0.07,1.2 0.3,5.14 -0.19,5.96z"/>
     <path class="fil9" d="M58.83 58.95c-4.01,1.86 -8.55,2.29 -13.54,2.32 -5.35,0.04 -9.53,-0.47 -13.87,-2.33 -0.54,-0.97 -0.22,-4.58 -0.29,-5.95 3.41,3.68 16.38,3.38 21.92,2.43 2.36,-0.41 4.59,-0.85 5.95,-2.49 0.17,1.44 0.35,5.01 -0.17,6.02z"/>
     <path class="fil10" d="M58.89 73.17c-4.42,1.83 -8.4,2.29 -13.81,2.27 -5.59,-0.02 -9.07,-0.5 -13.73,-2.36 -0.35,-0.95 -0.15,-4.43 -0.21,-5.92 2.64,2.7 9.24,3.01 13.94,3.02 4.1,0 12.16,-0.42 13.94,-3.05 0.1,1.39 0.3,5.04 -0.13,6.04z"/>
     <path class="fil11" d="M91.12 46.77c0.09,1.38 0.29,5.05 -0.14,6.03 -4.5,1.85 -8.3,2.27 -13.81,2.27 -2.49,0 -5.1,-0.15 -7.52,-0.54 -2.92,-0.46 -3.83,-0.94 -6.21,-1.83 -0.4,-1.07 -0.08,-4.37 -0.22,-5.98 2.36,2.71 9.53,3.13 13.95,3.09 4.1,-0.03 12.15,-0.39 13.95,-3.04z"/>
     <path class="fil12" d="M91.01 66.54c-2.32,1 -3.22,1.44 -6.19,1.92 -5.16,0.85 -13.46,0.77 -18.54,-0.68 -1.28,-0.37 -2.03,-0.85 -2.97,-1.18l-0.11 -5.87c3.78,4.16 24.18,4.15 27.95,0 0.04,1.48 0.26,4.75 -0.14,5.81z"/>
    </g>
    <g>
     <path class="fil13" d="M91.12 46.77c-1.8,2.65 -9.85,3.01 -13.95,3.04 -4.42,0.04 -11.59,-0.38 -13.95,-3.09l0.33 -1.11c0.94,0.28 1.77,0.79 3.01,1.12 6.74,1.81 18.46,1.62 24.27,-1.1l0.29 1.14z"/>
     <path class="fil13" d="M91.12 53.82c-2.57,2.91 -9.43,3.07 -13.95,3.06 -4.2,-0.01 -11.64,-0.3 -13.94,-3.04l0.21 -1.14c2.38,0.89 3.29,1.37 6.21,1.83 2.42,0.39 5.03,0.54 7.52,0.54 5.51,0 9.31,-0.42 13.81,-2.27l0.14 1.02z"/>
     <path class="fil13" d="M58.87 66.08l0.15 1.05c-1.78,2.63 -9.84,3.05 -13.94,3.05 -4.7,-0.01 -11.3,-0.32 -13.94,-3.02l0.2 -1.17c2.4,0.88 3.35,1.36 6.31,1.84 2.42,0.38 4.94,0.52 7.43,0.52 5.1,-0.01 9.55,-0.37 13.79,-2.27z"/>
     <path class="fil13" d="M59.03 74.2c-2.32,2.72 -9.66,3.07 -13.95,3.05 -4.08,-0.01 -11.79,-0.4 -13.95,-3.05l0.22 -1.12c4.66,1.86 8.14,2.34 13.73,2.36 5.41,0.02 9.39,-0.44 13.81,-2.27l0.14 1.03z"/>
     <path class="fil13" d="M90.97 73.5l0.15 1.03c-1.82,2.65 -9.83,3.05 -13.95,3.05 -4.72,-0.01 -11.27,-0.32 -13.94,-3.02l0.19 -1.16c2.38,0.95 3.38,1.38 6.3,1.85 2.42,0.39 4.95,0.53 7.45,0.52 4.94,-0.01 9.8,-0.39 13.8,-2.27z"/>
     <path class="fil13" d="M59.03 60.03c-2.15,2.73 -9.72,3.04 -13.95,3.06 -2.6,0.01 -5.38,-0.18 -7.87,-0.6 -2.81,-0.48 -4.37,-0.84 -6.07,-2.47l0.28 -1.08c4.34,1.86 8.52,2.37 13.87,2.33 4.99,-0.03 9.53,-0.46 13.54,-2.32l0.2 1.08z"/>
     <path class="fil13" d="M91.15 60.73c-3.77,4.15 -24.17,4.16 -27.95,0l0.4 -0.81c1.03,0.29 1.87,0.77 3.08,1.08 6.15,1.57 20.71,1.78 24.25,-1.22l0.22 0.95z"/>
     <path class="fil13" d="M91.13 67.49c-2.57,2.74 -9.31,3 -13.96,3.02 -4.14,0.02 -11.93,-0.36 -13.94,-3.08l0.08 -0.83c0.94,0.33 1.69,0.81 2.97,1.18 5.08,1.45 13.38,1.53 18.54,0.68 2.97,-0.48 3.87,-0.92 6.19,-1.92l0.12 0.95z"/>
    </g>
   </g>
   <path class="fil14" d="M88.9 22.17l-63.6 70.06c2.93,2.9 6.19,5.41 9.29,7.34 0,0.01 0.01,0.01 0.02,0.01l62.48 -68.82c-2.37,-3.2 -5.13,-6.09 -8.19,-8.59z"/>
  </g>
 </g>
</svg>
