<?xml version="1.0" encoding="UTF-8"?>
<!DOCTYPE svg PUBLIC "-//W3C//DTD SVG 1.1//EN" "http://www.w3.org/Graphics/SVG/1.1/DTD/svg11.dtd">
<!-- Creator: CorelDRAW 2017 -->
<svg xmlns="http://www.w3.org/2000/svg" xml:space="preserve" width="201px" height="201px" version="1.1" style="shape-rendering:geometricPrecision; text-rendering:geometricPrecision; image-rendering:optimizeQuality; fill-rule:evenodd; clip-rule:evenodd"
viewBox="0 0 31.37 31.37"
 xmlns:xlink="http://www.w3.org/1999/xlink">
 <defs>
  <style type="text/css">
   <![CDATA[
    .fil2 {fill:url(#id0)}
    .fil4 {fill:url(#id1)}
    .fil1 {fill:url(#id2)}
    .fil3 {fill:url(#id3)}
    .fil0 {fill:url(#id4)}
   ]]>
  </style>
  <linearGradient id="id0" gradientUnits="userSpaceOnUse" x1="18.39" y1="16.7" x2="19.42" y2="7.43">
   <stop offset="0" style="stop-opacity:1; stop-color:#5C2AD2"/>
   <stop offset="1" style="stop-opacity:1; stop-color:#205ED7"/>
  </linearGradient>
  <linearGradient id="id1" gradientUnits="userSpaceOnUse" xlink:href="#id0" x1="4.89" y1="16.71" x2="5.92" y2="7.42">
  </linearGradient>
  <linearGradient id="id2" gradientUnits="userSpaceOnUse" xlink:href="#id0" x1="11.68" y1="16.71" x2="12.71" y2="7.44">
  </linearGradient>
  <linearGradient id="id3" gradientUnits="userSpaceOnUse" xlink:href="#id0" x1="25" y1="16.71" x2="26.03" y2="7.43">
  </linearGradient>
  <linearGradient id="id4" gradientUnits="userSpaceOnUse" x1="31.53" y1="36.71" x2="39.99" y2="-12.67">
   <stop offset="0" style="stop-opacity:1; stop-color:#5607BD"/>
   <stop offset="1" style="stop-opacity:1; stop-color:#1C79E6"/>
  </linearGradient>
 </defs>
 <g id="Слой_x0020_1">
  <metadata id="CorelCorpID_0Corel-Layer"/>
  <g id="_1799261550544">
   <path class="fil0" d="M1.43 24.39c0.11,4.59 -0.65,6.99 1.85,6.98l24.02 0c2.53,0.01 2.03,-2.47 2.09,-6.93 0,-0.13 0.55,0.08 0.55,-0.05 1.8,-0.25 1.39,-2.76 1.39,-5.46l0 -15.51c0,-3.63 -0.57,-3.41 -2.72,-3.41l-25.77 0c-2.09,0 -2.8,-0.32 -2.8,3.3l0 15.5c0,2.74 -0.42,5.33 1.39,5.58zm3.43 5.78c0.01,-0.97 0.01,-1.94 0,-2.91 0,-1.03 -0.12,-2.03 0.64,-1.74 0.29,0.79 0.12,3.46 0.14,4.62l3.07 0.02c0.02,-0.86 0.01,-1.71 0.01,-2.55 0,-0.76 -0.18,-2.16 0.38,-2.15 0.55,0 0.39,1.33 0.39,2.03 0,0.87 -0.01,1.75 0,2.62l3.08 0.05c0.02,-0.89 0.01,-1.79 0.01,-2.67 0,-0.76 -0.15,-2.01 0.36,-2.04 0.54,-0.04 0.4,1.2 0.4,1.93 0,0.91 -0.01,1.86 0.01,2.77l3.08 0c0.01,-0.99 0,-1.94 0,-2.89 0,-1.01 -0.13,-2.02 0.63,-1.74 0.28,0.84 0.12,3.39 0.14,4.62l3.08 0.02c0.01,-0.87 0,-1.71 0,-2.55 0,-0.76 -0.17,-2.14 0.38,-2.15 0.55,-0.01 0.39,1.22 0.39,2.03 0,0.87 -0.01,1.76 0,2.63l3.08 0.04c0.02,-0.89 0.01,-1.79 0.01,-2.67 0,-0.75 -0.14,-2 0.36,-2.04 0.54,-0.04 0.4,1.2 0.4,1.93 0,0.91 -0.01,1.86 0.01,2.77 1.61,-0.03 1.56,0.1 2.13,-0.01 0.91,-0.17 0.83,-0.65 0.86,-0.93 0.06,-1.37 0.02,-3.38 0,-4.78l-25.45 0c-0.02,1.26 -0.08,3.72 0,4.88 0.09,1.25 1.06,0.81 2.41,0.86zm-3.39 -28.86c-0.5,0.35 -0.34,1.34 -0.34,2.23 0,2.99 -0.13,18.97 0.15,19.39 0.3,0.47 5.77,0.22 6.72,0.22 5.38,0 21.28,0.21 21.73,-0.08 0.41,-0.27 0.29,-1.47 0.29,-2.29l0 -14c0,-0.92 0.18,-4.87 -0.18,-5.34 -0.39,-0.52 -5.5,-0.22 -6.46,-0.22 -5.3,0 -21.57,-0.15 -21.91,0.09z"/>
   <path class="fil1" d="M9.93 7.41c-1.06,0.36 -0.79,1.82 -0.79,3.26 0,1.4 0,2.8 0,4.2 -0.01,1.86 0.47,1.91 1.91,1.91 0.65,0 2.98,0.1 3.44,-0.05 1.01,-0.32 0.76,-2.01 0.76,-3.31 0,-5.85 0.42,-6.06 -1.93,-6.06 -0.63,0 -2.97,-0.09 -3.39,0.05zm-0.17 1.46l0 6.43c0,0.94 0.5,0.72 1.53,0.72 0.55,0 1.63,0.08 2.12,-0.02 0.05,-0.97 -0.01,-2.22 0.01,-3.23 0.01,-0.51 0.07,-0.66 0.5,-0.57 0.29,0.55 0.08,2.92 0.14,3.81 0.46,0.03 0.57,-0.16 0.57,-0.71l0 -6.43c0,-0.56 -0.12,-0.76 -0.6,-0.76l-3.71 0c-0.49,0 -0.56,0.18 -0.56,0.76z"/>
   <path class="fil2" d="M16.65 7.4c-1.08,0.31 -0.8,1.85 -0.8,3.27 0,1.4 0,2.8 0,4.2 -0.01,1.9 0.46,1.91 1.93,1.91 0.63,0 2.99,0.09 3.43,-0.06 1.01,-0.33 0.75,-2 0.75,-3.3 0,-1.4 0,-2.79 0,-4.19 0.01,-1.86 -0.48,-1.87 -1.92,-1.87 -0.7,0 -2.87,-0.1 -3.39,0.04zm1.4 0.72c-0.08,0.47 -0.03,3.85 -0.03,4.8 0,0.41 0.15,1.28 -0.3,1.28 -0.44,0.01 -0.32,-0.78 -0.32,-1.21 0,-1.01 0.06,-4.32 -0.02,-4.87 -1.14,-0.1 -0.91,0.32 -0.91,2.12l-0.01 5.07c0.02,0.75 0.24,0.72 0.84,0.72 4.61,-0.04 4.03,0.43 4.03,-1.81l0 -5.06c0.01,-0.69 0.06,-1.02 -0.52,-1.05 -0.75,-0.05 -2.01,-0.06 -2.76,0.01z"/>
   <path class="fil3" d="M23.28 7.39c-1.09,0.31 -0.82,1.88 -0.82,3.21 0,1.4 0,2.8 0,4.19 0,1.9 0.31,1.99 1.83,1.99 0.71,0 2.97,0.11 3.5,-0.04 1.04,-0.3 0.78,-1.98 0.78,-3.25 0,-1.39 0,-2.79 0,-4.19 0.01,-1.82 -0.37,-1.94 -1.83,-1.94 -0.69,0 -2.95,-0.11 -3.46,0.03zm-0.2 1.48l0 6.43c0,0.57 0.15,0.72 0.62,0.72l3.63 0c0.47,0 0.62,-0.14 0.62,-0.72l0 -6.43c0,-0.96 -0.5,-0.77 -1.22,-0.75 -0.02,0.88 0.12,3.91 -0.1,4.44 -0.7,0.24 -0.53,-0.56 -0.53,-1.81 0,-0.88 0.01,-1.76 0,-2.64 -0.6,0.01 -1.21,0 -1.81,0 -0.71,0 -1.21,-0.2 -1.21,0.76z"/>
   <path class="fil4" d="M3.19 7.39c-1.08,0.29 -0.83,1.88 -0.83,3.21 0,1.4 0,2.8 0,4.19 0,1.9 0.34,1.99 1.84,1.99 4.48,0 4.27,0.59 4.27,-3.29 0,-1.39 0,-2.79 0,-4.19 0,-1.82 -0.38,-1.94 -1.83,-1.94 -0.7,0 -2.93,-0.11 -3.45,0.03zm1.46 0.73c-0.14,1.01 0.13,3.05 -0.08,3.88 -0.23,0.11 -0.28,0.1 -0.49,-0.02 -0.23,-0.93 0.07,-2.85 -0.09,-3.86 -1.33,-0.12 -1.01,0.59 -1.01,2.05l0 5.06c0,0.71 0.18,0.8 0.74,0.8 4.64,-0.02 4.13,0.42 4.13,-1.74l0.01 -5.06c0,-0.62 0.05,-1.05 -0.45,-1.12 -0.6,-0.07 -2.13,-0.04 -2.76,0.01z"/>
  </g>
 </g>
</svg>
